<svg width="16" height="16" viewBox="0 0 16 16" fill="none" xmlns="http://www.w3.org/2000/svg">
<g clip-path="url(#clip0_4289_31739)">
<path d="M8 0C3.58862 0 0 3.58862 0 8C0 12.4114 3.58862 16 8 16C12.4114 16 16 12.4114 16 8C16 3.58862 12.4114 0 8 0Z" fill="#3AA29F"/>
<path d="M12.0522 6.30225L7.71887 10.6355C7.58887 10.7655 7.41821 10.8309 7.24756 10.8309C7.0769 10.8309 6.90625 10.7655 6.77625 10.6355L4.60962 8.46887C4.34888 8.20825 4.34888 7.78687 4.60962 7.52625C4.87024 7.2655 5.2915 7.2655 5.55225 7.52625L7.24756 9.22156L11.1096 5.35962C11.3702 5.09888 11.7915 5.09888 12.0522 5.35962C12.3129 5.62024 12.3129 6.0415 12.0522 6.30225Z" fill="#FAFAFA"/>
</g>
<defs>
<clipPath id="clip0_4289_31739">
<rect width="16" height="16" fill="white"/>
</clipPath>
</defs>
</svg>
