<svg width="20" height="20" viewBox="0 0 20 20" fill="none" xmlns="http://www.w3.org/2000/svg">
<g clip-path="url(#clip0_7218_31203)">
<path d="M17.4623 8.82812V14.9722C17.4623 15.1335 17.5928 15.2644 17.7541 15.2644H19.056C19.3162 15.2644 19.4463 15.5785 19.2627 15.7624L15.4616 19.5636C15.2713 19.7538 14.9635 19.7538 14.7733 19.5636L10.9721 15.7624C10.7886 15.5785 10.9186 15.2644 11.1788 15.2644H12.4807C12.642 15.2644 12.7725 15.1335 12.7725 14.9722V8.82812" stroke="black" stroke-width="0.527339" stroke-miterlimit="10" stroke-linecap="round" stroke-linejoin="round"/>
<path d="M2.53857 9.3125V11.1678" stroke="black" stroke-width="0.527339" stroke-miterlimit="10" stroke-linecap="round" stroke-linejoin="round"/>
<path d="M7.22794 11.1633V5.01919C7.22794 4.85787 7.35841 4.72701 7.51973 4.72701H8.82167C9.08183 4.72701 9.2119 4.41295 9.02831 4.22897L5.22718 0.427831C5.03695 0.237598 4.72914 0.237598 4.5389 0.427831L0.737769 4.22897C0.554177 4.41295 0.684254 4.72701 0.944407 4.72701H2.24635C2.40767 4.72701 2.53814 4.85787 2.53814 5.01919V7.94084" stroke="black" stroke-width="0.527339" stroke-miterlimit="10" stroke-linecap="round" stroke-linejoin="round"/>
<path d="M18.5676 1.84772C17.7265 0.889799 16.4927 0.285156 15.1176 0.285156C12.5828 0.285156 10.5278 2.3401 10.5278 4.87495C10.5278 7.40981 12.5828 9.46475 15.1176 9.46475C17.6525 9.46475 19.7074 7.40981 19.7074 4.87495C19.7074 4.20379 19.5634 3.56626 19.3045 2.99165" stroke="black" stroke-width="0.527339" stroke-miterlimit="10" stroke-linecap="round" stroke-linejoin="round"/>
<path d="M15.998 3.8125V5.93082C16.0215 5.93484 16.7404 5.93082 16.7404 5.93082" stroke="black" stroke-width="0.527339" stroke-miterlimit="10" stroke-linecap="round" stroke-linejoin="round"/>
<path d="M17.7065 3.8125V5.93082C17.73 5.93484 18.4489 5.93082 18.4489 5.93082" stroke="black" stroke-width="0.527339" stroke-miterlimit="10" stroke-linecap="round" stroke-linejoin="round"/>
<path d="M15.0092 3.82031H14.124V5.92105H15.0092" stroke="black" stroke-width="0.527339" stroke-miterlimit="10" stroke-linecap="round" stroke-linejoin="round"/>
<path d="M14.9439 4.87109H14.124" stroke="black" stroke-width="0.527339" stroke-miterlimit="10" stroke-linecap="round" stroke-linejoin="round"/>
<path d="M13.0929 4.03046C13.0929 4.03046 12.7124 3.71065 12.2638 3.84581C11.8519 3.96991 11.7943 4.44487 12.0923 4.63917C12.0923 4.63917 12.3847 4.76964 12.7091 4.88929C13.4898 5.17729 13.1535 5.93265 12.525 5.93265C12.2102 5.93265 11.9461 5.79479 11.7861 5.61839" stroke="black" stroke-width="0.527339" stroke-miterlimit="10" stroke-linecap="round" stroke-linejoin="round"/>
<path d="M4.88326 19.6991C7.41813 19.6991 9.47305 17.6442 9.47305 15.1093C9.47305 12.5745 7.41813 10.5195 4.88326 10.5195C2.34838 10.5195 0.293457 12.5745 0.293457 15.1093C0.293457 17.6442 2.34838 19.6991 4.88326 19.6991Z" stroke="black" stroke-width="0.527339" stroke-miterlimit="10" stroke-linecap="round" stroke-linejoin="round"/>
<path d="M2.9792 14.5347C2.9792 14.8041 2.7608 15.0226 2.49135 15.0226C2.35771 15.0226 1.87549 15.0247 1.87549 15.0247C1.87549 15.0247 1.87549 14.6705 1.87549 14.5347C1.87549 14.4232 1.87549 14.0469 1.87549 14.0469C1.87549 14.0469 2.33346 14.0469 2.49135 14.0469C2.7608 14.0469 2.9792 14.2653 2.9792 14.5347Z" stroke="black" stroke-width="0.527339" stroke-miterlimit="10" stroke-linecap="round" stroke-linejoin="round"/>
<path d="M3.16955 15.5902C3.16955 15.9054 2.91404 16.1609 2.59889 16.1609C2.4426 16.1609 1.87549 16.1634 1.87549 16.1634C1.87549 16.1634 1.87549 15.7491 1.87549 15.5902C1.87549 15.4597 1.87549 15.0195 1.87549 15.0195C1.87549 15.0195 2.4142 15.0195 2.59889 15.0195C2.91404 15.0195 3.16955 15.275 3.16955 15.5902Z" stroke="black" stroke-width="0.527339" stroke-miterlimit="10" stroke-linecap="round" stroke-linejoin="round"/>
<path d="M6.54248 14.0469L7.21971 15.084L7.89135 14.0522" stroke="black" stroke-width="0.527339" stroke-miterlimit="10" stroke-linecap="round" stroke-linejoin="round"/>
<path d="M7.2168 16.1689L7.21945 15.0859" stroke="black" stroke-width="0.527339" stroke-miterlimit="10" stroke-linecap="round" stroke-linejoin="round"/>
<path d="M4.0918 14.0469V15.5058C4.0918 15.7542 4.21504 15.9215 4.42441 16.0553C4.52637 16.1204 4.65516 16.1668 4.8152 16.167C4.95379 16.1672 5.06965 16.1351 5.16543 16.0869C5.40941 15.964 5.565 15.7774 5.565 15.5042V14.0469" stroke="black" stroke-width="0.527339" stroke-miterlimit="10" stroke-linecap="round" stroke-linejoin="round"/>
</g>
<defs>
<clipPath id="clip0_7218_31203">
<rect width="20" height="20" fill="white"/>
</clipPath>
</defs>
</svg>
