<svg width="25" height="26" viewBox="0 0 25 26" fill="none" xmlns="http://www.w3.org/2000/svg">
<path fill-rule="evenodd" clip-rule="evenodd" d="M20.7461 15.7925C20.7461 15.3783 20.4103 15.0425 19.9961 15.0425C19.5819 15.0425 19.2461 15.3783 19.2461 15.7925V19.2827H15.75C15.3358 19.2827 15 19.6185 15 20.0327C15 20.4469 15.3358 20.7827 15.75 20.7827H19.2461V24.2535C19.2461 24.6677 19.5819 25.0035 19.9961 25.0035C20.4103 25.0035 20.7461 24.6677 20.7461 24.2535V20.7827H24.2461C24.6603 20.7827 24.9961 20.4469 24.9961 20.0327C24.9961 19.6185 24.6603 19.2827 24.2461 19.2827H20.7461V15.7925Z" fill="#707070"/>
<path d="M12.8421 20.7577C11.7707 19.8376 10.7416 18.944 10 18.2955L2.28571 24.7813C1.85714 25.0696 1 25.3002 1 23.9166V4.4591C1 3.30607 1.77143 1 4.85714 1C7.94286 1 13 1 15.1429 1C16.4286 1 19 1.69182 19 4.4591C19 5.82926 19 9.30529 19 13.1132" stroke="#707070" stroke-width="1.5"/>
</svg>
