<svg width="20" height="21" viewBox="0 0 20 21" fill="none" xmlns="http://www.w3.org/2000/svg">
<path d="M18.7946 16.4707C18.2122 15.9602 17.7022 15.3751 17.2785 14.7309C16.816 13.8418 16.5387 12.8708 16.4631 11.8749V8.94167C16.4671 7.37745 15.8899 5.86563 14.8399 4.69026C13.7899 3.51489 12.3395 2.75688 10.7611 2.55865V1.79268C10.7611 1.58245 10.6761 1.38083 10.5249 1.23217C10.3737 1.08351 10.1686 1 9.9547 1C9.74083 1 9.53573 1.08351 9.3845 1.23217C9.23328 1.38083 9.14832 1.58245 9.14832 1.79268V2.57052C7.58405 2.78305 6.15112 3.54564 5.11495 4.71706C4.07878 5.88848 3.50957 7.38935 3.51275 8.94167V11.8749C3.4371 12.8708 3.15987 13.8418 2.69732 14.7309C2.28107 15.3736 1.77931 15.9587 1.20537 16.4707C1.14094 16.5263 1.0893 16.5948 1.05389 16.6716C1.01848 16.7484 1.00011 16.8317 1 16.916V17.7235C1 17.881 1.06364 18.032 1.17692 18.1434C1.29019 18.2547 1.44383 18.3173 1.60403 18.3173H18.396C18.5562 18.3173 18.7098 18.2547 18.8231 18.1434C18.9364 18.032 19 17.881 19 17.7235V16.916C18.9999 16.8317 18.9815 16.7484 18.9461 16.6716C18.9107 16.5948 18.8591 16.5263 18.7946 16.4707ZM2.25638 17.1298C2.81837 16.5961 3.31318 15.998 3.7302 15.3484C4.31285 14.2746 4.65281 13.0898 4.72685 11.8749V8.94167C4.70289 8.24579 4.82163 7.55229 5.076 6.90247C5.33037 6.25264 5.71516 5.65978 6.20747 5.15918C6.69977 4.65858 7.28952 4.26049 7.94159 3.98861C8.59366 3.71672 9.29472 3.57661 10.003 3.57661C10.7113 3.57661 11.4124 3.71672 12.0645 3.98861C12.7165 4.26049 13.3063 4.65858 13.7986 5.15918C14.2909 5.65978 14.6757 6.25264 14.93 6.90247C15.1844 7.55229 15.3032 8.24579 15.2792 8.94167V11.8749C15.3532 13.0898 15.6932 14.2746 16.2758 15.3484C16.6929 15.998 17.1877 16.5961 17.7497 17.1298H2.25638Z" fill="#3AA29F" stroke="#3AA29F" stroke-width="0.2"/>
<path d="M11.2369 20.4347C10.9048 20.7232 10.4793 20.8872 10.0356 20.8974C9.57973 20.9038 9.13729 20.7472 8.79047 20.4571C8.47386 20.1924 8.25667 19.8329 8.17071 19.4359H11.83C11.7466 19.8214 11.5393 20.1719 11.2369 20.4347Z" fill="#3AA29F" stroke="#3AA29F" stroke-width="0.2"/>
</svg>
