<svg width="32" height="32" viewBox="0 0 32 32" fill="none" xmlns="http://www.w3.org/2000/svg">
<g clip-path="url(#clip0_2982_17330)">
<path fill-rule="evenodd" clip-rule="evenodd" d="M3.25781 0H28.7396C29.6354 0 30.4505 0.367188 31.0417 0.955729C31.6328 1.54688 31.9974 2.36198 31.9974 3.25781V28.7396C31.9974 29.6354 31.6302 30.4505 31.0417 31.0417C30.4505 31.6328 29.6354 31.9974 28.7396 31.9974H3.25781C2.36198 31.9974 1.54688 31.6302 0.955729 31.0417C0.364583 30.4505 0 29.6354 0 28.7396V3.25781C0 2.36198 0.367188 1.54688 0.955729 0.955729C1.54688 0.367188 2.36198 0 3.25781 0ZM28.7422 1.40365H3.25781C2.7474 1.40365 2.28385 1.61198 1.94792 1.95052C1.61198 2.28646 1.40104 2.7526 1.40104 3.26042V28.7422C1.40104 29.2526 1.60938 29.7161 1.94792 30.0521C2.28385 30.388 2.75 30.599 3.25781 30.599H28.7396C29.25 30.599 29.7135 30.3906 30.0495 30.0521C30.3854 29.7161 30.5964 29.25 30.5964 28.7422V3.25781C30.5964 2.7474 30.388 2.28385 30.0495 1.94792C29.7135 1.61198 29.25 1.40365 28.7422 1.40365Z" fill="#3AA29F"/>
<path d="M24 8L24 24" stroke="#3AA29F" stroke-width="2" stroke-linecap="round"/>
<path d="M16 17L16 24" stroke="#3AA29F" stroke-width="2" stroke-linecap="round"/>
<path d="M16 11L16 12" stroke="#3AA29F" stroke-width="2" stroke-linecap="round"/>
<path d="M8 17L8 24" stroke="#3AA29F" stroke-width="2" stroke-linecap="round"/>
</g>
<defs>
<clipPath id="clip0_2982_17330">
<rect width="32" height="32" fill="white"/>
</clipPath>
</defs>
</svg>
