<svg width="28" height="28" viewBox="0 0 28 28" fill="none" xmlns="http://www.w3.org/2000/svg">
<path d="M27.75 12.5776V15.4224C27.7493 15.6737 27.6491 15.9144 27.4714 16.0921C27.2938 16.2698 27.053 16.3699 26.8017 16.3707H25.3746C25.1714 16.3711 24.9738 16.4367 24.8107 16.558C24.6477 16.6792 24.5279 16.8495 24.469 17.044C24.2475 17.8101 23.9422 18.5495 23.5586 19.2487C23.4609 19.4276 23.4238 19.6333 23.4529 19.835C23.4819 20.0368 23.5756 20.2237 23.7198 20.3677L24.7297 21.3776C24.8176 21.4653 24.8874 21.5695 24.935 21.6842C24.9826 21.799 25.0071 21.9219 25.0071 22.0461C25.0071 22.1703 24.9826 22.2933 24.935 22.408C24.8874 22.5227 24.8176 22.6269 24.7297 22.7147L22.7147 24.7297C22.6269 24.8176 22.5227 24.8874 22.408 24.935C22.2933 24.9826 22.1703 25.0071 22.0461 25.0071C21.9219 25.0071 21.799 24.9826 21.6842 24.935C21.5695 24.8874 21.4653 24.8176 21.3776 24.7297L20.3677 23.7198C20.2237 23.5756 20.0368 23.4819 19.835 23.4529C19.6333 23.4238 19.4276 23.4609 19.2487 23.5586C18.5495 23.9422 17.8101 24.2475 17.044 24.469C16.8495 24.5279 16.6792 24.6477 16.558 24.8107C16.4367 24.9738 16.3711 25.1714 16.3707 25.3746V26.8017C16.3699 27.053 16.2698 27.2938 16.0921 27.4714C15.9144 27.6491 15.6737 27.7493 15.4224 27.75H12.5776C12.3263 27.7493 12.0856 27.6491 11.9079 27.4714C11.7302 27.2938 11.6301 27.053 11.6293 26.8017V25.3746C11.6289 25.1714 11.5633 24.9738 11.442 24.8107C11.3208 24.6477 11.1505 24.5279 10.956 24.469C10.1899 24.2475 9.4505 23.9422 8.75129 23.5586C8.57242 23.4609 8.3667 23.4238 8.16496 23.4529C7.96322 23.4819 7.77634 23.5756 7.63233 23.7198L6.62241 24.7297C6.53469 24.8176 6.43048 24.8874 6.31576 24.935C6.20105 24.9826 6.07807 25.0071 5.95388 25.0071C5.82969 25.0071 5.70671 24.9826 5.59199 24.935C5.47728 24.8874 5.37307 24.8176 5.28534 24.7297L3.27026 22.7147C3.18235 22.6269 3.11261 22.5227 3.06502 22.408C3.01743 22.2933 2.99294 22.1703 2.99294 22.0461C2.99294 21.9219 3.01743 21.799 3.06502 21.6842C3.11261 21.5695 3.18235 21.4653 3.27026 21.3776L4.28017 20.3677C4.42441 20.2237 4.51809 20.0368 4.54715 19.835C4.57621 19.6333 4.5391 19.4276 4.44138 19.2487C4.0578 18.5495 3.7525 17.8101 3.53103 17.044C3.47212 16.8495 3.35232 16.6792 3.18928 16.558C3.02624 16.4367 2.82859 16.3711 2.62543 16.3707H1.19828C0.947008 16.3699 0.706246 16.2698 0.528573 16.0921C0.350899 15.9144 0.25075 15.6737 0.25 15.4224V12.5776C0.25075 12.3263 0.350899 12.0856 0.528573 11.9079C0.706246 11.7302 0.947008 11.6301 1.19828 11.6293H2.62543C2.82859 11.6289 3.02624 11.5633 3.18928 11.442C3.35232 11.3208 3.47212 11.1505 3.53103 10.956C3.7525 10.1899 4.0578 9.4505 4.44138 8.75129C4.5391 8.57242 4.57621 8.3667 4.54715 8.16496C4.51809 7.96322 4.42441 7.77634 4.28017 7.63233L3.27026 6.62241C3.18235 6.53469 3.11261 6.43048 3.06502 6.31576C3.01743 6.20105 2.99294 6.07807 2.99294 5.95388C2.99294 5.82969 3.01743 5.70671 3.06502 5.59199C3.11261 5.47728 3.18235 5.37307 3.27026 5.28534L5.28534 3.27026C5.37307 3.18235 5.47728 3.11261 5.59199 3.06502C5.70671 3.01743 5.82969 2.99294 5.95388 2.99294C6.07807 2.99294 6.20105 3.01743 6.31576 3.06502C6.43048 3.11261 6.53469 3.18235 6.62241 3.27026L7.63233 4.28017C7.77634 4.42441 7.96322 4.51809 8.16496 4.54715C8.3667 4.57621 8.57242 4.5391 8.75129 4.44138C9.4505 4.0578 10.1899 3.7525 10.956 3.53103C11.1505 3.47212 11.3208 3.35232 11.442 3.18928C11.5633 3.02624 11.6289 2.82859 11.6293 2.62543V1.19828C11.6301 0.947008 11.7302 0.706246 11.9079 0.528573C12.0856 0.350899 12.3263 0.25075 12.5776 0.25H15.4224C15.6737 0.25075 15.9144 0.350899 16.0921 0.528573C16.2698 0.706246 16.3699 0.947008 16.3707 1.19828V2.62543C16.3711 2.82859 16.4367 3.02624 16.558 3.18928C16.6792 3.35232 16.8495 3.47212 17.044 3.53103C17.8101 3.7525 18.5495 4.0578 19.2487 4.44138C19.4276 4.5391 19.6333 4.57621 19.835 4.54715C20.0368 4.51809 20.2237 4.42441 20.3677 4.28017L21.3776 3.27026C21.4653 3.18235 21.5695 3.11261 21.6842 3.06502C21.799 3.01743 21.9219 2.99294 22.0461 2.99294C22.1703 2.99294 22.2933 3.01743 22.408 3.06502C22.5227 3.11261 22.6269 3.18235 22.7147 3.27026L24.7297 5.28534C24.8176 5.37307 24.8874 5.47728 24.935 5.59199C24.9826 5.70671 25.0071 5.82969 25.0071 5.95388C25.0071 6.07807 24.9826 6.20105 24.935 6.31576C24.8874 6.43048 24.8176 6.53469 24.7297 6.62241L23.7198 7.63233C23.5756 7.77634 23.4819 7.96322 23.4529 8.16496C23.4238 8.3667 23.4609 8.57242 23.5586 8.75129C23.9422 9.4505 24.2475 10.1899 24.469 10.956C24.5279 11.1505 24.6477 11.3208 24.8107 11.442C24.9738 11.5633 25.1714 11.6289 25.3746 11.6293H26.8017C27.053 11.6301 27.2938 11.7302 27.4714 11.9079C27.6491 12.0856 27.7493 12.3263 27.75 12.5776ZM22.0603 14C22.0603 12.4058 21.5876 10.8474 20.7019 9.52191C19.8162 8.1964 18.5574 7.16328 17.0846 6.55321C15.6117 5.94314 13.9911 5.78352 12.4275 6.09453C10.864 6.40554 9.42774 7.17322 8.30048 8.30048C7.17322 9.42774 6.40554 10.864 6.09453 12.4275C5.78352 13.9911 5.94314 15.6117 6.55321 17.0846C7.16328 18.5574 8.1964 19.8162 9.52191 20.7019C10.8474 21.5876 12.4058 22.0603 14 22.0603C16.1377 22.0603 18.1879 21.2111 19.6995 19.6995C21.2111 18.1879 22.0603 16.1377 22.0603 14Z" fill="white"/>
<path d="M26.375 11.25H24.9954C24.8982 11.2496 24.8036 11.2183 24.7253 11.1607C24.6471 11.103 24.5892 11.0219 24.56 10.9292C24.3384 10.1556 24.0294 9.40979 23.6388 8.70625C23.5936 8.61973 23.5773 8.52106 23.5921 8.42461C23.607 8.32816 23.6522 8.23896 23.7213 8.17L24.6929 7.19375C24.9504 6.93594 25.095 6.58646 25.095 6.22208C25.095 5.85771 24.9504 5.50823 24.6929 5.25042L22.7496 3.30708C22.4918 3.04959 22.1423 2.90496 21.7779 2.90496C21.4135 2.90496 21.0641 3.04959 20.8062 3.30708L19.83 4.27875C19.761 4.3478 19.6718 4.39303 19.5754 4.40787C19.4789 4.42271 19.3803 4.40638 19.2938 4.36125C18.5894 3.97109 17.8439 3.66056 17.0708 3.43542C16.978 3.40789 16.8966 3.35104 16.8387 3.27338C16.7809 3.19572 16.7498 3.10142 16.75 3.00458V1.625C16.7489 1.26066 16.6037 0.911557 16.3461 0.65393C16.0884 0.396303 15.7393 0.251088 15.375 0.25H12.625C12.2607 0.251088 11.9116 0.396303 11.6539 0.65393C11.3963 0.911557 11.2511 1.26066 11.25 1.625V3.00458C11.2496 3.10181 11.2183 3.19639 11.1607 3.27466C11.103 3.35293 11.0219 3.41083 10.9292 3.44C10.1556 3.66157 9.40979 3.97065 8.70625 4.36125C8.61973 4.40638 8.52106 4.42271 8.42461 4.40787C8.32816 4.39303 8.23896 4.3478 8.17 4.27875L7.19375 3.30708C6.93594 3.04959 6.58646 2.90496 6.22208 2.90496C5.85771 2.90496 5.50823 3.04959 5.25042 3.30708L3.30708 5.25042C3.04959 5.50823 2.90496 5.85771 2.90496 6.22208C2.90496 6.58646 3.04959 6.93594 3.30708 7.19375L4.27875 8.17C4.3478 8.23896 4.39303 8.32816 4.40787 8.42461C4.42271 8.52106 4.40638 8.61973 4.36125 8.70625C3.97109 9.41056 3.66056 10.1561 3.43542 10.9292C3.40789 11.022 3.35104 11.1034 3.27338 11.1613C3.19572 11.2191 3.10142 11.2502 3.00458 11.25H1.625C1.26066 11.2511 0.911557 11.3963 0.65393 11.6539C0.396303 11.9116 0.251088 12.2607 0.25 12.625V15.375C0.251088 15.7393 0.396303 16.0884 0.65393 16.3461C0.911557 16.6037 1.26066 16.7489 1.625 16.75H3.00458C3.10181 16.7504 3.19639 16.7817 3.27466 16.8393C3.35293 16.897 3.41083 16.9781 3.44 17.0708C3.66157 17.8444 3.97065 18.5902 4.36125 19.2938C4.40638 19.3803 4.42271 19.4789 4.40787 19.5754C4.39303 19.6718 4.3478 19.761 4.27875 19.83L3.30708 20.8062C3.17926 20.9337 3.07784 21.0852 3.00864 21.2519C2.93944 21.4186 2.90382 21.5974 2.90382 21.7779C2.90382 21.9584 2.93944 22.1372 3.00864 22.3039C3.07784 22.4707 3.17926 22.6221 3.30708 22.7496L5.25042 24.6929C5.50823 24.9504 5.85771 25.095 6.22208 25.095C6.58646 25.095 6.93594 24.9504 7.19375 24.6929L8.17 23.7213C8.23896 23.6522 8.32816 23.607 8.42461 23.5921C8.52106 23.5773 8.61973 23.5936 8.70625 23.6388C9.41056 24.0289 10.1561 24.3394 10.9292 24.5646C11.022 24.5921 11.1034 24.649 11.1613 24.7266C11.2191 24.8043 11.2502 24.8986 11.25 24.9954V26.375C11.2511 26.7393 11.3963 27.0884 11.6539 27.3461C11.9116 27.6037 12.2607 27.7489 12.625 27.75H15.375C15.7393 27.7489 16.0884 27.6037 16.3461 27.3461C16.6037 27.0884 16.7489 26.7393 16.75 26.375V24.9954C16.7504 24.8982 16.7817 24.8036 16.8393 24.7253C16.897 24.6471 16.9781 24.5892 17.0708 24.56C17.8444 24.3384 18.5902 24.0294 19.2938 23.6388C19.3803 23.5936 19.4789 23.5773 19.5754 23.5921C19.6718 23.607 19.761 23.6522 19.83 23.7213L20.8062 24.6929C21.0641 24.9504 21.4135 25.095 21.7779 25.095C22.1423 25.095 22.4918 24.9504 22.7496 24.6929L24.6929 22.7496C24.8207 22.6221 24.9222 22.4707 24.9914 22.3039C25.0606 22.1372 25.0962 21.9584 25.0962 21.7779C25.0962 21.5974 25.0606 21.4186 24.9914 21.2519C24.9222 21.0852 24.8207 20.9337 24.6929 20.8062L23.7213 19.83C23.6522 19.761 23.607 19.6718 23.5921 19.5754C23.5773 19.4789 23.5936 19.3803 23.6388 19.2938C24.0289 18.5894 24.3394 17.8439 24.5646 17.0708C24.5921 16.978 24.649 16.8966 24.7266 16.8387C24.8043 16.7809 24.8986 16.7498 24.9954 16.75H26.375C26.7393 16.7489 27.0884 16.6037 27.3461 16.3461C27.6037 16.0884 27.7489 15.7393 27.75 15.375V12.625C27.7489 12.2607 27.6037 11.9116 27.3461 11.6539C27.0884 11.3963 26.7393 11.2511 26.375 11.25ZM26.8333 15.375C26.8333 15.4966 26.785 15.6131 26.6991 15.6991C26.6131 15.785 26.4966 15.8333 26.375 15.8333H24.9954C24.6999 15.8337 24.4123 15.9294 24.1754 16.106C23.9384 16.2827 23.7647 16.531 23.68 16.8142C23.4769 17.5237 23.1939 18.2079 22.8367 18.8538C22.6966 19.1143 22.6437 19.4129 22.6857 19.7058C22.7278 19.9986 22.8626 20.2702 23.0704 20.4808L24.0467 21.4525C24.1319 21.5394 24.1796 21.6562 24.1796 21.7779C24.1796 21.8996 24.1319 22.0165 24.0467 22.1033L22.1033 24.0467C22.0157 24.1305 21.8992 24.1773 21.7779 24.1773C21.6567 24.1773 21.5401 24.1305 21.4525 24.0467L20.4808 23.0704C20.2702 22.8626 19.9986 22.7278 19.7058 22.6857C19.4129 22.6437 19.1143 22.6966 18.8538 22.8367C18.2079 23.1939 17.5237 23.4769 16.8142 23.68C16.531 23.7647 16.2827 23.9384 16.106 24.1754C15.9294 24.4123 15.8337 24.6999 15.8333 24.9954V26.375C15.8333 26.4966 15.785 26.6131 15.6991 26.6991C15.6131 26.785 15.4966 26.8333 15.375 26.8333H12.625C12.5034 26.8333 12.3869 26.785 12.3009 26.6991C12.215 26.6131 12.1667 26.4966 12.1667 26.375V24.9954C12.1663 24.6999 12.0706 24.4123 11.894 24.1754C11.7173 23.9384 11.469 23.7647 11.1858 23.68C10.4763 23.4769 9.79206 23.1939 9.14625 22.8367C8.94651 22.7281 8.72274 22.6714 8.49542 22.6717C8.13031 22.6714 7.77972 22.8146 7.51917 23.0704L6.5475 24.0467C6.4599 24.1305 6.34333 24.1773 6.22208 24.1773C6.10084 24.1773 5.98427 24.1305 5.89667 24.0467L3.95333 22.1033C3.86812 22.0165 3.82039 21.8996 3.82039 21.7779C3.82039 21.6562 3.86812 21.5394 3.95333 21.4525L4.92958 20.4808C5.13737 20.2702 5.27218 19.9986 5.31425 19.7058C5.35632 19.4129 5.30343 19.1143 5.16333 18.8538C4.80606 18.2079 4.52315 17.5237 4.32 16.8142C4.23528 16.531 4.06157 16.2827 3.82463 16.106C3.58769 15.9294 3.30014 15.8337 3.00458 15.8333H1.625C1.50344 15.8333 1.38686 15.785 1.30091 15.6991C1.21496 15.6131 1.16667 15.4966 1.16667 15.375V12.625C1.16667 12.5034 1.21496 12.3869 1.30091 12.3009C1.38686 12.215 1.50344 12.1667 1.625 12.1667H3.00458C3.30014 12.1663 3.58769 12.0706 3.82463 11.894C4.06157 11.7173 4.23528 11.469 4.32 11.1858C4.52315 10.4763 4.80606 9.79206 5.16333 9.14625C5.30343 8.88568 5.35632 8.58707 5.31425 8.29424C5.27218 8.0014 5.13737 7.72976 4.92958 7.51917L3.95333 6.5475C3.86812 6.46062 3.82039 6.34378 3.82039 6.22208C3.82039 6.10039 3.86812 5.98355 3.95333 5.89667L5.89667 3.95333C5.98427 3.86951 6.10084 3.82273 6.22208 3.82273C6.34333 3.82273 6.4599 3.86951 6.5475 3.95333L7.51917 4.92958C7.72976 5.13737 8.0014 5.27218 8.29424 5.31425C8.58707 5.35632 8.88568 5.30343 9.14625 5.16333C9.79206 4.80606 10.4763 4.52315 11.1858 4.32C11.469 4.23528 11.7173 4.06157 11.894 3.82463C12.0706 3.58769 12.1663 3.30014 12.1667 3.00458V1.625C12.1667 1.50344 12.215 1.38686 12.3009 1.30091C12.3869 1.21496 12.5034 1.16667 12.625 1.16667H15.375C15.4966 1.16667 15.6131 1.21496 15.6991 1.30091C15.785 1.38686 15.8333 1.50344 15.8333 1.625V3.00458C15.8337 3.30014 15.9294 3.58769 16.106 3.82463C16.2827 4.06157 16.531 4.23528 16.8142 4.32C17.5237 4.52315 18.2079 4.80606 18.8538 5.16333C19.1143 5.30343 19.4129 5.35632 19.7058 5.31425C19.9986 5.27218 20.2702 5.13737 20.4808 4.92958L21.4525 3.95333C21.5401 3.86951 21.6567 3.82273 21.7779 3.82273C21.8992 3.82273 22.0157 3.86951 22.1033 3.95333L24.0467 5.89667C24.1319 5.98355 24.1796 6.10039 24.1796 6.22208C24.1796 6.34378 24.1319 6.46062 24.0467 6.5475L23.0704 7.51917C22.8626 7.72976 22.7278 8.0014 22.6857 8.29424C22.6437 8.58707 22.6966 8.88568 22.8367 9.14625C23.1939 9.79206 23.4769 10.4763 23.68 11.1858C23.7647 11.469 23.9384 11.7173 24.1754 11.894C24.4123 12.0706 24.6999 12.1663 24.9954 12.1667H26.375C26.4966 12.1667 26.6131 12.215 26.6991 12.3009C26.785 12.3869 26.8333 12.5034 26.8333 12.625V15.375Z" fill="white"/>
<path d="M14 5.25C12.2694 5.25 10.5777 5.76318 9.13876 6.72464C7.69983 7.6861 6.57832 9.05267 5.91606 10.6515C5.25379 12.2504 5.08051 14.0097 5.41813 15.707C5.75575 17.4044 6.58911 18.9635 7.81282 20.1872C9.03653 21.4109 10.5956 22.2442 12.293 22.5819C13.9903 22.9195 15.7496 22.7462 17.3485 22.0839C18.9473 21.4217 20.3139 20.3002 21.2754 18.8612C22.2368 17.4223 22.75 15.7306 22.75 14C22.7465 11.6804 21.8235 9.45684 20.1834 7.81665C18.5432 6.17646 16.3196 5.25347 14 5.25ZM14 21.7778C12.4617 21.7778 10.9579 21.3216 9.6789 20.467C8.39985 19.6123 7.40296 18.3976 6.81427 16.9764C6.22559 15.5552 6.07157 13.9914 6.37167 12.4826C6.67178 10.9739 7.41254 9.58802 8.50028 8.50028C9.58802 7.41254 10.9739 6.67178 12.4826 6.37167C13.9914 6.07156 15.5552 6.22559 16.9764 6.81427C18.3976 7.40295 19.6124 8.39985 20.467 9.6789C21.3216 10.9579 21.7778 12.4617 21.7778 14C21.7751 16.062 20.9548 18.0387 19.4967 19.4967C18.0387 20.9548 16.062 21.7751 14 21.7778Z" fill="white"/>
<path d="M16.8846 12.2957H16.5962V10.5912C16.5962 10.5355 16.5847 10.4807 16.5627 10.4314C16.5406 10.3822 16.5087 10.3401 16.4697 10.3088C16.4307 10.2776 16.3858 10.2581 16.339 10.252C16.2921 10.246 16.2447 10.2536 16.201 10.2742L13.3683 11.6139H11.4038C11.3273 11.6139 11.254 11.6498 11.1999 11.7138C11.1458 11.7777 11.1154 11.8644 11.1154 11.9548V12.0503L10.4462 12.3127C10.3892 12.3362 10.3398 12.3799 10.3046 12.4379C10.2695 12.4959 10.2504 12.5653 10.25 12.6366V14.0002C10.2504 14.0715 10.2695 14.1409 10.3046 14.1988C10.3398 14.2568 10.3892 14.3005 10.4462 14.324L11.1154 14.5865V17.4091C11.1154 17.4995 11.1458 17.5862 11.1999 17.6502C11.254 17.7141 11.3273 17.75 11.4038 17.75H12.5577C12.6281 17.7498 12.6959 17.7191 12.7485 17.6639C12.8011 17.6086 12.8348 17.5326 12.8433 17.45L13.1 15.0228H13.3683L16.201 16.3626C16.2348 16.379 16.2711 16.3871 16.3077 16.3864C16.3842 16.3864 16.4576 16.3505 16.5117 16.2866C16.5658 16.2226 16.5962 16.1359 16.5962 16.0455V14.3411H16.8846C17.1141 14.3411 17.3342 14.2333 17.4965 14.0415C17.6588 13.8497 17.75 13.5896 17.75 13.3184C17.75 13.0471 17.6588 12.787 17.4965 12.5952C17.3342 12.4034 17.1141 12.2957 16.8846 12.2957ZM11.1154 13.8672L10.8269 13.7547V12.882L11.1154 12.7695V13.8672ZM12.3038 17.0682H11.6923V15.0228H12.5202L12.3038 17.0682ZM13.1346 14.3411H11.6923V12.2957H13.1346V14.3411ZM16.0192 15.541L13.7115 14.4501V12.1866L16.0192 11.0957V15.541ZM16.8846 13.6593H16.5962V12.9775H16.8846C16.9611 12.9775 17.0345 13.0134 17.0886 13.0773C17.1427 13.1413 17.1731 13.228 17.1731 13.3184C17.1731 13.4088 17.1427 13.4955 17.0886 13.5594C17.0345 13.6234 16.9611 13.6593 16.8846 13.6593Z" fill="white"/>
</svg>
