<svg width="92" height="24" viewBox="0 0 92 24" fill="none" xmlns="http://www.w3.org/2000/svg">
<path d="M50.1417 6.18362V2.8761L56.288 6.7109L65.0614 1.39012L64.3179 0.239675L69.9686 0L67.3415 4.88937L66.6476 3.73893L56.288 10.0184L50.1417 6.18362Z" fill="#1E84FF"/>
<path d="M82.5468 20.7313V23.9249H81.6115V19.8644H82.4924L82.5468 20.7313ZM82.3799 21.7445L82.0772 21.7408C82.0798 21.4531 82.1212 21.1891 82.2014 20.9489C82.2842 20.7087 82.398 20.5023 82.5429 20.3297C82.6903 20.1571 82.8663 20.0245 83.0706 19.9319C83.275 19.8368 83.5027 19.7893 83.7536 19.7893C83.9554 19.7893 84.1378 19.8168 84.3008 19.8719C84.4664 19.9244 84.6074 20.0107 84.7238 20.1308C84.8428 20.2509 84.9333 20.4073 84.9954 20.5999C85.0575 20.7901 85.0886 21.024 85.0886 21.3017V23.9249H84.1495V21.2979C84.1495 21.1028 84.1197 20.9489 84.0602 20.8363C84.0033 20.7213 83.9192 20.6399 83.808 20.5924C83.6993 20.5424 83.5635 20.5174 83.4005 20.5174C83.2401 20.5174 83.0965 20.5499 82.9697 20.6149C82.843 20.68 82.7356 20.7688 82.6476 20.8814C82.5623 20.994 82.4963 21.1241 82.4497 21.2717C82.4032 21.4193 82.3799 21.5769 82.3799 21.7445Z" fill="#1E84FF"/>
<path d="M86.7572 19.8644L87.5567 21.2116L88.3716 19.8644H89.4L88.1271 21.8571L89.4504 23.9249H88.422L87.5683 22.5214L86.7146 23.9249H85.6823L87.0017 21.8571L85.7328 19.8644H86.7572Z" fill="#1E84FF"/>
<path d="M91.9651 19.8644V20.5249H89.5979V19.8644H91.9651ZM90.2809 18.8698H91.2161V22.8028C91.2161 22.9279 91.2342 23.0243 91.2704 23.0918C91.3092 23.1569 91.3623 23.2006 91.4295 23.2232C91.4968 23.2457 91.5757 23.2569 91.6663 23.2569C91.7309 23.2569 91.793 23.2532 91.8525 23.2457C91.912 23.2382 91.9599 23.2307 91.9961 23.2232L92 23.9137C91.9224 23.9362 91.8318 23.9562 91.7283 23.9737C91.6274 23.9912 91.511 24 91.3791 24C91.1644 24 90.9742 23.9637 90.8086 23.8912C90.6431 23.8161 90.5137 23.6948 90.4206 23.5271C90.3274 23.3595 90.2809 23.1368 90.2809 22.8591V18.8698Z" fill="#1E84FF"/>
<path fill-rule="evenodd" clip-rule="evenodd" d="M5.65209 15.4112C5.55568 15.5222 5.44929 15.6298 5.33291 15.7339C5.0955 15.9405 4.80763 16.1098 4.46932 16.2418C4.13694 16.3739 3.7363 16.4399 3.26741 16.4399C2.662 16.4399 2.11298 16.3222 1.62035 16.0869C1.12772 15.8458 0.733015 15.5158 0.436248 15.0967C0.145416 14.6777 0 14.1956 0 13.6503C0 13.1624 0.0919979 12.729 0.275994 12.3502C0.459989 11.9714 0.735983 11.6499 1.10397 11.3859C1.4779 11.1219 1.94679 10.9238 2.51065 10.7918C3.07451 10.6541 3.73333 10.5852 4.48712 10.5852H5.52878V10.0514C5.52878 9.77011 5.48426 9.52903 5.39523 9.32813C5.3062 9.12723 5.16672 8.96939 4.97679 8.85459C4.78686 8.73979 4.54054 8.68239 4.23784 8.68239C3.98262 8.68239 3.76004 8.72544 3.57011 8.81154C3.38612 8.89764 3.24367 9.02105 3.14277 9.18176C3.0478 9.34248 3.00032 9.54051 3.00032 9.77585H0.222576C0.222576 9.35683 0.320509 8.96652 0.516375 8.6049C0.712242 8.24329 0.991203 7.92473 1.35326 7.64921C1.72125 7.37369 2.16047 7.16132 2.67091 7.01208C3.18135 6.8571 3.75411 6.77961 4.38919 6.77961C5.14298 6.77961 5.81367 6.90302 6.40127 7.14984C6.99481 7.39091 7.4637 7.7554 7.80795 8.24329C8.1522 8.72544 8.32432 9.33387 8.32432 10.0686V13.9688C8.32432 14.5314 8.35697 14.9733 8.42226 15.2948C8.49348 15.6105 8.59438 15.886 8.72496 16.1213V16.2677H5.92051C5.80588 16.0308 5.7164 15.7454 5.65209 15.4112ZM5.52878 13.6233C5.5011 13.6743 5.46845 13.7264 5.43084 13.7794C5.28839 13.9746 5.08659 14.141 4.82544 14.2788C4.57022 14.4166 4.26158 14.4854 3.89952 14.4854C3.67992 14.4854 3.48702 14.4424 3.32083 14.3563C3.15464 14.2702 3.02406 14.1525 2.92909 14.0033C2.83413 13.8483 2.78665 13.6761 2.78665 13.4867C2.78665 13.2858 2.81632 13.1021 2.87568 12.9357C2.94096 12.7635 3.04187 12.6142 3.17838 12.488C3.31489 12.3559 3.49295 12.2526 3.71256 12.178C3.9381 12.1034 4.20519 12.0661 4.51383 12.0661H5.52878V13.6233Z" fill="#1E84FF"/>
<path d="M15.5376 15.2751C15.2499 15.6337 14.8962 15.9157 14.4767 16.1213C14.0375 16.3337 13.524 16.4399 12.9364 16.4399C12.4616 16.4399 12.0254 16.3767 11.6277 16.2505C11.236 16.1184 10.8977 15.9147 10.6128 15.6392C10.3279 15.3579 10.1083 14.9992 9.95393 14.5629C9.79962 14.121 9.72246 13.5929 9.72246 12.9787V6.95181H12.5002V12.9959C12.5002 13.237 12.5299 13.4436 12.5892 13.6158C12.6545 13.7823 12.7406 13.9201 12.8474 14.0291C12.9602 14.1382 13.0967 14.2185 13.257 14.2702C13.4231 14.3219 13.6042 14.3477 13.8 14.3477C14.2927 14.3477 14.6785 14.2501 14.9574 14.0549C15.1621 13.9106 15.3224 13.7322 15.4382 13.5198V6.95181H18.2337V16.2677H15.6163L15.5376 15.2751Z" fill="#1E84FF"/>
<path d="M24.5731 8.83737V6.95181H22.9527V4.64437H20.1661V6.95181H18.8573V8.83737H20.1661V13.6503C20.1661 14.3104 20.2818 14.8471 20.5133 15.2603C20.7448 15.6679 21.0771 15.9663 21.5104 16.1558C21.9496 16.3452 22.469 16.4399 23.0684 16.4399C23.383 16.4399 23.6738 16.4169 23.9409 16.371C24.208 16.3308 24.4603 16.2734 24.6977 16.1988V14.253C24.5968 14.2702 24.487 14.2845 24.3683 14.296C24.2496 14.3075 24.1071 14.3132 23.9409 14.3132C23.7095 14.3132 23.5195 14.2874 23.3711 14.2358C23.2228 14.1784 23.1159 14.0808 23.0506 13.943C22.9853 13.8053 22.9527 13.6072 22.9527 13.3489V8.83737H24.5731Z" fill="#1E84FF"/>
<path fill-rule="evenodd" clip-rule="evenodd" d="M24.8939 11.5236V11.7045C24.8939 12.3818 24.9948 13.0103 25.1966 13.59C25.3984 14.164 25.6952 14.6662 26.0869 15.0967C26.4787 15.5215 26.9624 15.8515 27.5381 16.0869C28.1138 16.3222 28.7697 16.4399 29.5057 16.4399C30.2476 16.4399 30.9035 16.3222 31.4732 16.0869C32.043 15.8515 32.5238 15.5215 32.9155 15.0967C33.3073 14.6662 33.604 14.164 33.8058 13.59C34.0076 13.0103 34.1085 12.3818 34.1085 11.7045V11.5236C34.1085 10.8406 34.0076 10.2121 33.8058 9.63809C33.604 9.05836 33.3073 8.55612 32.9155 8.13136C32.5238 7.70661 32.0401 7.37656 31.4643 7.14123C30.8946 6.90015 30.2357 6.77961 29.4879 6.77961C28.7519 6.77961 28.099 6.90015 27.5292 7.14123C26.9594 7.37656 26.4787 7.70661 26.0869 8.13136C25.6952 8.55612 25.3984 9.05836 25.1966 9.63809C24.9948 10.2121 24.8939 10.8406 24.8939 11.5236ZM27.6806 11.7045V11.5236C27.6806 11.162 27.7102 10.8234 27.7696 10.5077C27.8349 10.1862 27.9387 9.90212 28.0812 9.65531C28.2236 9.40849 28.4106 9.2162 28.6421 9.07845C28.8736 8.94069 29.1555 8.87181 29.4879 8.87181C29.8321 8.87181 30.12 8.94069 30.3515 9.07845C30.5889 9.2162 30.7788 9.40849 30.9213 9.65531C31.0637 9.90212 31.1646 10.1862 31.224 10.5077C31.2893 10.8234 31.3219 11.162 31.3219 11.5236V11.7045C31.3219 12.0718 31.2893 12.4162 31.224 12.7376C31.1646 13.0591 31.0637 13.3403 30.9213 13.5814C30.7788 13.8225 30.5918 14.0119 30.3604 14.1497C30.1289 14.2817 29.844 14.3477 29.5057 14.3477C29.1674 14.3477 28.8795 14.2817 28.6421 14.1497C28.4106 14.0119 28.2236 13.8225 28.0812 13.5814C27.9387 13.3403 27.8349 13.0591 27.7696 12.7376C27.7102 12.4162 27.6806 12.0718 27.6806 11.7045Z" fill="#1E84FF"/>
<path d="M40.1006 8.83737V6.95181H38.4803V4.64437H35.6936V6.95181H34.3849V8.83737H35.6936V13.6503C35.6936 14.3104 35.8094 14.8471 36.0409 15.2603C36.2723 15.6679 36.6047 15.9663 37.038 16.1558C37.4772 16.3452 37.9966 16.4399 38.596 16.4399C38.9106 16.4399 39.2014 16.4169 39.4685 16.371C39.7356 16.3308 39.9879 16.2734 40.2253 16.1988V14.253C40.1244 14.2702 40.0146 14.2845 39.8959 14.296C39.7772 14.3075 39.6347 14.3132 39.4685 14.3132C39.237 14.3132 39.0471 14.2874 38.8987 14.2358C38.7503 14.1784 38.6435 14.0808 38.5782 13.943C38.5129 13.8053 38.4803 13.6072 38.4803 13.3489V8.83737H40.1006Z" fill="#1E84FF"/>
<path d="M43.8581 10.2565V16.2677H41.0803V6.95181H43.6889L43.7805 8.12669C43.8112 8.0724 43.843 8.01943 43.8759 7.96777C44.1133 7.58894 44.4041 7.29621 44.7484 7.08957C45.0926 6.88293 45.4843 6.77961 45.9236 6.77961C46.066 6.77961 46.2114 6.78822 46.3598 6.80544C46.5082 6.82266 46.6328 6.84849 46.7337 6.88293L46.6892 9.3884C46.5705 9.37118 46.4162 9.35683 46.2263 9.34535C46.0363 9.32813 45.8731 9.31952 45.7366 9.31952C45.3805 9.31952 45.0718 9.36257 44.8107 9.44867C44.5555 9.52903 44.3418 9.64957 44.1697 9.81028C44.0408 9.93488 43.937 10.0836 43.8581 10.2565Z" fill="#1E84FF"/>
<path fill-rule="evenodd" clip-rule="evenodd" d="M49.8145 16.0869C50.4199 16.3222 51.1055 16.4399 51.8711 16.4399C52.4944 16.4399 53.0523 16.3595 53.5449 16.1988C54.0375 16.0381 54.459 15.8314 54.8091 15.5789C55.1653 15.3206 55.4412 15.0537 55.6371 14.7782L54.3373 13.3403C54.0464 13.6905 53.7022 13.9488 53.3045 14.1152C52.9069 14.2759 52.4884 14.3563 52.0492 14.3563C51.6931 14.3563 51.3755 14.296 51.0966 14.1755C50.8176 14.0549 50.5802 13.8885 50.3843 13.6761C50.1885 13.4637 50.0401 13.2083 49.9392 12.9098C49.8894 12.7625 49.8519 12.6076 49.8267 12.4449H55.8775V11.3428C55.8775 10.9551 55.847 10.5888 55.7859 10.244L50.3204 6.91451C50.0744 6.97182 49.8405 7.04739 49.6187 7.14123C49.0489 7.37656 48.5681 7.71235 48.1764 8.14858C47.7906 8.57907 47.4968 9.08706 47.295 9.67253C47.0932 10.258 46.9923 10.898 46.9923 11.5925V11.9197C46.9923 12.5396 47.1021 13.1222 47.3217 13.6675C47.5413 14.2128 47.8588 14.6949 48.2743 15.114C48.6957 15.5272 49.2091 15.8515 49.8145 16.0869ZM49.8475 10.7143C49.8563 10.6532 49.8661 10.5929 49.8769 10.5335C49.9362 10.2006 50.0312 9.91073 50.1618 9.66392C50.2983 9.41136 50.4793 9.2162 50.7048 9.07845C50.9304 8.94069 51.2123 8.87181 51.5506 8.87181C51.9067 8.87181 52.2006 8.94069 52.432 9.07845C52.6694 9.21046 52.8475 9.39988 52.9662 9.6467C53.0909 9.89351 53.1532 10.1805 53.1532 10.5077V10.7143H49.8475Z" fill="#1E84FF"/>
<path d="M56.8038 10.2383V16.2677H59.5904V9.66678C59.6104 9.63347 59.6312 9.60094 59.6527 9.56921C59.8011 9.35109 59.9911 9.18176 60.2225 9.06123C60.454 8.93495 60.733 8.87181 61.0594 8.87181C61.3681 8.87181 61.6292 8.91486 61.8429 9.00096C62.0625 9.08706 62.2287 9.23629 62.3414 9.44867C62.4542 9.66105 62.5106 9.96239 62.5106 10.3527V16.2677H65.3062V10.3613C65.3062 9.69549 65.2349 9.13585 65.0925 8.68239C64.95 8.2232 64.7423 7.85585 64.4693 7.58033C64.2022 7.29908 63.8817 7.09531 63.5077 6.96903C63.1961 6.8638 62.8577 6.80241 62.4925 6.78487L56.8038 10.2383Z" fill="#1E84FF"/>
<path fill-rule="evenodd" clip-rule="evenodd" d="M72.515 15.2695C72.2495 15.6075 71.9359 15.88 71.5742 16.0869C71.1588 16.3222 70.6691 16.4399 70.1052 16.4399C69.4998 16.4399 68.9627 16.3222 68.4938 16.0869C68.0308 15.8515 67.6421 15.5215 67.3275 15.0967C67.0129 14.672 66.7725 14.1726 66.6064 13.5986C66.4461 13.0246 66.366 12.399 66.366 11.7217V11.5409C66.366 10.8349 66.4461 10.192 66.6064 9.61226C66.7725 9.02679 67.0129 8.52454 67.3275 8.10553C67.648 7.68078 68.0427 7.3536 68.5116 7.12401C68.9805 6.89441 69.5176 6.77961 70.123 6.77961C70.681 6.77961 71.1677 6.90015 71.5831 7.14123C71.8751 7.30658 72.1362 7.52011 72.3666 7.7818V3.04294H75.1622V16.2677H72.6515L72.515 15.2695ZM72.3666 9.77712C72.3144 9.67345 72.2551 9.57832 72.1885 9.49172C72.0402 9.29082 71.8532 9.13872 71.6277 9.0354C71.4021 8.92634 71.135 8.87181 70.8264 8.87181C70.5237 8.87181 70.2655 8.94069 70.0518 9.07845C69.8382 9.21046 69.6631 9.39701 69.5266 9.63809C69.396 9.87916 69.298 10.1633 69.2327 10.4905C69.1734 10.8119 69.1437 11.162 69.1437 11.5409V11.7217C69.1437 12.089 69.1704 12.4306 69.2238 12.7462C69.2832 13.0619 69.3782 13.3403 69.5087 13.5814C69.6393 13.8225 69.8114 14.0119 70.0251 14.1497C70.2388 14.2817 70.4999 14.3477 70.8086 14.3477C71.2241 14.3477 71.5653 14.2558 71.8324 14.0722C72.0564 13.9133 72.2345 13.704 72.3666 13.4443V9.77712Z" fill="#1E84FF"/>
<path fill-rule="evenodd" clip-rule="evenodd" d="M79.1333 16.0869C79.7387 16.3222 80.4242 16.4399 81.1899 16.4399C81.8131 16.4399 82.371 16.3595 82.8636 16.1988C83.3563 16.0381 83.7777 15.8314 84.1279 15.5789C84.484 15.3206 84.76 15.0537 84.9558 14.7782L83.656 13.3403C83.3652 13.6905 83.0209 13.9488 82.6232 14.1152C82.2256 14.2759 81.8071 14.3563 81.3679 14.3563C81.0118 14.3563 80.6943 14.296 80.4153 14.1755C80.1363 14.0549 79.8989 13.8885 79.7031 13.6761C79.5072 13.4637 79.3588 13.2083 79.2579 12.9098C79.2081 12.7625 79.1706 12.6076 79.1454 12.4449H85.1962V11.3428C85.1962 10.6483 85.0983 10.0227 84.9024 9.46589C84.7125 8.90338 84.4335 8.4241 84.0655 8.02804C83.6975 7.62625 83.2465 7.31916 82.7123 7.10679C82.1781 6.88867 81.5697 6.77961 80.8872 6.77961C80.1571 6.77961 79.5072 6.90015 78.9374 7.14123C78.3676 7.37656 77.8868 7.71235 77.4951 8.14858C77.1093 8.57907 76.8155 9.08706 76.6137 9.67253C76.4119 10.258 76.311 10.898 76.311 11.5925V11.9197C76.311 12.5396 76.4208 13.1222 76.6404 13.6675C76.86 14.2128 77.1776 14.6949 77.593 15.114C78.0145 15.5272 78.5279 15.8515 79.1333 16.0869ZM79.1662 10.7143C79.175 10.6532 79.1848 10.5929 79.1956 10.5335C79.2549 10.2006 79.3499 9.91073 79.4805 9.66392C79.617 9.41136 79.798 9.2162 80.0236 9.07845C80.2491 8.94069 80.531 8.87181 80.8693 8.87181C81.2255 8.87181 81.5193 8.94069 81.7507 9.07845C81.9882 9.21046 82.1662 9.39988 82.2849 9.6467C82.4096 9.89351 82.4719 10.1805 82.4719 10.5077V10.7143H79.1662Z" fill="#1E84FF"/>
<path d="M88.9715 10.2565V16.2677H86.1937V6.95181H88.8023L88.8939 8.12669C88.9246 8.0724 88.9564 8.01943 88.9893 7.96777C89.2267 7.58894 89.5175 7.29621 89.8618 7.08957C90.206 6.88293 90.5977 6.77961 91.037 6.77961C91.1794 6.77961 91.3248 6.78822 91.4732 6.80544C91.6216 6.82266 91.7462 6.84849 91.8471 6.88293L91.8026 9.3884C91.6839 9.37118 91.5296 9.35683 91.3397 9.34535C91.1497 9.32813 90.9865 9.31952 90.85 9.31952C90.4939 9.31952 90.1852 9.36257 89.9241 9.44867C89.6689 9.52903 89.4552 9.64957 89.2831 9.81028C89.1542 9.93488 89.0504 10.0836 88.9715 10.2565Z" fill="#1E84FF"/>
</svg>
