<svg width="40" height="40" viewBox="0 0 40 40" fill="none" xmlns="http://www.w3.org/2000/svg">
<rect x="0.5" y="0.5" width="39" height="39" rx="3.5" fill="white"/>
<path d="M19.7773 19.5742H16.1543L16.1348 17.7871H19.2988C19.8327 17.7871 20.2852 17.709 20.6562 17.5527C21.0339 17.39 21.3203 17.1589 21.5156 16.8594C21.7109 16.5534 21.8086 16.1855 21.8086 15.7559C21.8086 15.2806 21.7174 14.8932 21.5352 14.5938C21.3529 14.2943 21.0729 14.0762 20.6953 13.9395C20.3242 13.8027 19.849 13.7344 19.2695 13.7344H16.8965V26H14.4453V11.7812H19.2695C20.0508 11.7812 20.7474 11.8561 21.3594 12.0059C21.9779 12.1556 22.502 12.39 22.9316 12.709C23.3678 13.0215 23.6966 13.4186 23.918 13.9004C24.1458 14.3822 24.2598 14.9551 24.2598 15.6191C24.2598 16.2051 24.1198 16.7422 23.8398 17.2305C23.5599 17.7122 23.1465 18.1061 22.5996 18.4121C22.0527 18.7181 21.3724 18.9004 20.5586 18.959L19.7773 19.5742ZM19.6699 26H15.3828L16.4863 24.0566H19.6699C20.2233 24.0566 20.6855 23.9655 21.0566 23.7832C21.4277 23.5944 21.7044 23.3372 21.8867 23.0117C22.0755 22.6797 22.1699 22.2923 22.1699 21.8496C22.1699 21.3874 22.0885 20.987 21.9258 20.6484C21.763 20.3034 21.5059 20.0397 21.1543 19.8574C20.8027 19.6686 20.3438 19.5742 19.7773 19.5742H17.0234L17.043 17.7871H20.627L21.1836 18.4609C21.9648 18.487 22.6061 18.6595 23.1074 18.9785C23.6152 19.2975 23.9928 19.7109 24.2402 20.2188C24.4876 20.7266 24.6113 21.2734 24.6113 21.8594C24.6113 22.7643 24.4128 23.5228 24.0156 24.1348C23.625 24.7467 23.0618 25.2122 22.3262 25.5312C21.5905 25.8438 20.7051 26 19.6699 26Z" fill="#424242"/>
<rect x="0.5" y="0.5" width="39" height="39" rx="3.5" stroke="#BDBDBD"/>
</svg>
