<svg width="339" height="401" viewBox="0 0 339 401" fill="none" xmlns="http://www.w3.org/2000/svg">
<path opacity="0.42" d="M71.8713 366.29H266.847C310.307 336.336 338.719 286.925 338.719 231.003C338.719 139.596 262.9 52.377 169.369 52.377C75.8385 52.377 0 139.596 0 231.003C0.0200366 286.925 28.4319 336.336 71.8713 366.29Z" fill="url(#paint0_linear_1633_10385)"/>
<path opacity="0.43" d="M264.316 378.789C267.093 366.71 216.339 344.73 150.953 329.695C85.5665 314.659 30.3089 312.262 27.5315 324.341C24.754 336.419 75.5084 358.4 140.895 373.435C206.281 388.471 261.538 390.868 264.316 378.789Z" fill="#CEE5ED"/>
<path d="M204.516 237.816C193.296 233.809 184.179 221.306 184.179 210.126V20.439C184.179 9.2586 193.296 3.48806 204.516 7.57553L286.927 37.6304C298.147 41.7379 307.284 54.1606 307.284 65.3411V255.028C307.284 266.188 298.147 271.959 286.927 267.871L204.516 237.816Z" fill="#17161C"/>
<path d="M205.858 244.089C194.017 239.761 184.399 226.678 184.399 214.896V14.9307C184.399 3.14918 194.017 -2.9219 205.858 1.38597L292.717 33.0438C304.539 37.3517 314.156 50.4556 314.156 62.2371V262.202C314.156 273.984 304.539 280.055 292.717 275.747L205.858 244.089Z" fill="#1E394C"/>
<path d="M204.513 230.127C197.56 227.582 191.89 219.888 191.89 212.955V23.2688C191.89 16.3361 197.56 12.7495 204.513 15.2541L286.924 45.309C293.876 47.8336 299.547 55.5477 299.547 62.4804V252.167C299.547 259.1 293.876 262.666 286.924 260.182L204.513 230.127Z" fill="#3AA29F"/>
<path opacity="0.25" d="M286.922 45.3289L204.511 15.274C199.602 13.4707 195.335 14.7531 193.251 18.0992C194.554 17.538 195.959 17.2485 197.378 17.2485C198.798 17.2485 200.202 17.538 201.506 18.0992L283.916 48.1541C290.869 50.6987 296.539 58.3928 296.539 65.3255V255.012C296.578 256.822 296.106 258.607 295.177 260.161C296.584 259.402 297.744 258.254 298.518 256.854C299.292 255.455 299.649 253.863 299.545 252.267V62.5003C299.545 55.5676 293.875 47.8535 286.922 45.3289Z" fill="#34648C"/>
<path d="M276.365 39.959L215.073 17.6182L217.798 24.9315C218.427 26.5887 219.393 28.0975 220.635 29.363C221.876 30.6286 223.366 31.6234 225.011 32.285L266.427 47.3925C269.572 48.5346 272.438 47.6931 273.64 45.3889L276.365 39.959Z" fill="#1E394C"/>
<path d="M283.58 71.3975L207.882 43.8071C203.874 42.3244 200.528 44.4082 200.528 48.4356V82.4978C200.681 84.6895 201.45 86.7934 202.748 88.5662C204.045 90.339 205.818 91.7084 207.861 92.5161L283.58 120.107C287.587 121.589 290.933 119.505 290.933 115.458V81.3958C290.775 79.2053 290.001 77.1041 288.7 75.335C287.399 73.5658 285.624 72.2008 283.58 71.3975Z" fill="#2D7080"/>
<path d="M283.58 131.409L207.861 103.799C203.854 102.336 200.528 104.4 200.528 108.447V142.51C200.681 144.701 201.45 146.805 202.748 148.578C204.045 150.351 205.818 151.72 207.861 152.528L283.58 180.118C287.587 181.601 290.933 179.517 290.933 175.47V141.408C290.775 139.217 290.001 137.116 288.7 135.347C287.399 133.578 285.624 132.213 283.58 131.409Z" fill="#2D7080"/>
<path d="M283.58 192.039L207.861 164.449C203.854 162.966 200.528 165.05 200.528 169.097V203.159C200.678 205.352 201.447 207.457 202.745 209.23C204.043 211.003 205.817 212.372 207.861 213.178L283.58 240.788C287.587 242.271 290.933 240.187 290.933 236.14V202.077C290.78 199.88 290.009 197.772 288.707 195.995C287.406 194.219 285.628 192.847 283.58 192.039Z" fill="#2D7080"/>
<path d="M259.315 77.1081L233.168 67.5707C232.997 67.4765 232.805 67.43 232.61 67.4361C232.416 67.4421 232.226 67.5006 232.062 67.6052C231.898 67.7098 231.765 67.8567 231.678 68.0305C231.59 68.2042 231.551 68.3984 231.565 68.5925C231.603 69.067 231.773 69.5214 232.056 69.9039C232.34 70.2865 232.725 70.5818 233.168 70.7565L259.315 80.2939C260.197 80.6145 260.918 80.1737 260.918 79.2921C260.884 78.814 260.715 78.3554 260.432 77.969C260.148 77.5826 259.761 77.2842 259.315 77.1081Z" fill="#F6FAFD"/>
<path d="M259.313 95.0447L233.165 85.5273C232.283 85.2067 231.562 85.6475 231.562 86.5291C231.596 87.0072 231.765 87.4658 232.049 87.8522C232.332 88.2385 232.719 88.537 233.165 88.7131L259.313 98.2506C259.483 98.3447 259.676 98.3912 259.87 98.3851C260.065 98.3791 260.254 98.3206 260.418 98.216C260.582 98.1114 260.715 97.9645 260.802 97.7908C260.89 97.617 260.929 97.4228 260.916 97.2287C260.881 96.7507 260.713 96.292 260.429 95.9057C260.145 95.5193 259.758 95.2208 259.313 95.0447Z" fill="#F6FAFD"/>
<path d="M267.375 89.129L224.156 73.3402C223.986 73.246 223.793 73.1995 223.599 73.2056C223.404 73.2117 223.215 73.2701 223.051 73.3747C222.887 73.4793 222.754 73.6262 222.666 73.8C222.579 73.9737 222.539 74.1679 222.553 74.362C222.587 74.8401 222.756 75.2987 223.04 75.6851C223.323 76.0715 223.71 76.3699 224.156 76.546L267.455 92.3349C267.625 92.429 267.818 92.4755 268.012 92.4695C268.207 92.4634 268.396 92.405 268.56 92.3004C268.724 92.1958 268.857 92.0488 268.945 91.8751C269.032 91.7013 269.071 91.5071 269.058 91.313C269.017 90.8257 268.836 90.3606 268.538 89.9733C268.239 89.586 267.836 89.2929 267.375 89.129Z" fill="#F6FAFD"/>
<path d="M259.315 141.444L233.168 131.907C232.997 131.812 232.805 131.766 232.61 131.772C232.416 131.778 232.226 131.837 232.062 131.941C231.898 132.046 231.765 132.193 231.678 132.366C231.59 132.54 231.551 132.734 231.565 132.928C231.599 133.406 231.768 133.865 232.051 134.251C232.335 134.638 232.722 134.936 233.168 135.112L259.315 144.55C260.197 144.87 260.918 144.429 260.918 143.548C260.87 143.084 260.694 142.642 260.412 142.271C260.129 141.9 259.75 141.614 259.315 141.444Z" fill="#F6FAFD"/>
<path d="M267.372 153.468L224.153 137.699C223.272 137.379 222.55 137.819 222.55 138.701C222.585 139.179 222.753 139.638 223.037 140.024C223.321 140.41 223.707 140.709 224.153 140.885L267.452 156.674C267.623 156.768 267.815 156.815 268.01 156.808C268.204 156.802 268.393 156.744 268.557 156.639C268.722 156.535 268.854 156.388 268.942 156.214C269.03 156.04 269.069 155.846 269.055 155.652C269.014 155.165 268.834 154.7 268.535 154.312C268.237 153.925 267.833 153.632 267.372 153.468Z" fill="#F6FAFD"/>
<path d="M259.315 197.704L233.168 188.166C232.997 188.072 232.805 188.026 232.61 188.032C232.416 188.038 232.226 188.096 232.062 188.201C231.898 188.305 231.765 188.452 231.678 188.626C231.59 188.8 231.551 188.994 231.565 189.188C231.603 189.663 231.773 190.117 232.056 190.5C232.34 190.882 232.725 191.178 233.168 191.352L259.315 200.89C260.197 201.21 260.918 200.769 260.918 199.888C260.884 199.41 260.715 198.951 260.432 198.565C260.148 198.178 259.761 197.88 259.315 197.704Z" fill="#F6FAFD"/>
<path d="M259.313 215.482L233.165 205.965C232.283 205.644 231.562 206.085 231.562 206.967C231.596 207.445 231.765 207.903 232.049 208.29C232.332 208.676 232.719 208.975 233.165 209.151L259.313 218.688C259.483 218.782 259.676 218.829 259.87 218.823C260.065 218.817 260.254 218.758 260.418 218.654C260.582 218.549 260.715 218.402 260.802 218.228C260.89 218.054 260.929 217.86 260.916 217.666C260.881 217.188 260.713 216.73 260.429 216.343C260.145 215.957 259.758 215.658 259.313 215.482Z" fill="#F6FAFD"/>
<path d="M267.375 209.732L224.156 193.943C223.986 193.849 223.793 193.802 223.599 193.808C223.404 193.814 223.215 193.873 223.051 193.977C222.887 194.082 222.754 194.229 222.666 194.403C222.579 194.576 222.539 194.77 222.553 194.965C222.587 195.443 222.756 195.901 223.04 196.288C223.323 196.674 223.71 196.972 224.156 197.149L267.455 212.937C267.625 213.032 267.818 213.078 268.012 213.072C268.207 213.066 268.396 213.008 268.56 212.903C268.724 212.798 268.857 212.651 268.945 212.478C269.032 212.304 269.071 212.11 269.058 211.916C269.017 211.428 268.836 210.963 268.538 210.576C268.239 210.189 267.836 209.895 267.375 209.732Z" fill="#F6FAFD"/>
<path d="M184.741 346.256C184.741 346.256 180.734 344.834 180.293 336.138H168.772L167.65 348.16L176.246 355.333L183.739 351.586L184.741 346.256Z" fill="#F2BF75"/>
<path d="M167.647 348.081C167.647 348.081 181.112 352.529 184.738 346.258C184.738 346.258 209.604 355.515 209.424 358.28C209.123 362.648 188.585 363.549 184.037 362.427L180.03 358.42L178.307 362.968H167.046C167.046 362.968 167.146 348.782 167.647 348.081Z" fill="#1E394C"/>
<path d="M141.724 346.339C141.724 346.339 137.857 344.756 137.717 336.041L126.196 335.52L124.532 347.381L132.788 354.955L140.442 351.549L141.724 346.339Z" fill="#F2BF75"/>
<path d="M124.571 347.379C124.571 347.379 137.795 352.448 141.722 346.337C141.722 346.337 163.482 354.171 164.724 357.778C165.967 361.384 144.688 363.789 140.28 362.466L136.513 358.359L134.509 362.827L123.208 362.306C123.208 362.306 123.97 348.06 124.571 347.379Z" fill="#1E394C"/>
<path d="M116.802 209.743C116.802 209.743 124.295 240.079 126.098 245.128C127.902 250.177 131.769 274.782 131.989 275.664C132.21 276.545 123.494 339.981 123.494 339.981C123.494 339.981 135.235 342.606 139.884 339.58L152.627 275.463L147.157 212.368L116.802 209.743Z" fill="#1E394C"/>
<path d="M118.419 208.125C118.419 208.125 129.94 227.841 140.259 236.637C150.578 245.433 163.301 269.096 163.301 269.096L164.824 339.485C167.255 340.963 170.031 341.778 172.875 341.848C175.72 341.919 178.533 341.242 181.034 339.886L181.815 339.485C181.815 339.485 183.638 266.371 183.338 261.522C183.037 256.674 157.29 200.852 157.29 200.852L118.419 208.125Z" fill="#1E394C"/>
<path d="M163 78.9135C163 78.9135 153.983 110.772 139.497 109.85C126.814 109.049 124.45 95.8244 127.475 79.6749C130.661 62.8241 144.566 65.0482 152.661 64.948C152.661 64.948 162.679 64.948 164.322 57.2139C164.322 57.2139 176.004 73.2432 162.96 78.9135" fill="#1E394C"/>
<path d="M139.998 117.739C139.998 117.739 122.345 114.613 114.17 152.322C110.744 168.131 128.737 192.956 128.737 192.956L147.531 156.77L139.998 117.739Z" fill="#AAC6CE"/>
<path d="M214.135 96.3366C214.135 96.3366 220.808 77.9831 220.808 72.994C220.808 68.0049 224.615 72.3729 224.454 76.1798C224.29 78.8731 223.935 81.5514 223.392 84.1945C223.392 84.1945 228.542 84.6353 228.542 87.0797C228.542 89.5242 226.879 97.9997 224.535 99.3622L214.135 96.3366Z" fill="#F2BF75"/>
<path d="M149.819 120.303C161.54 126.314 186.666 142.143 192.437 136.993C198.207 131.844 214.137 96.3389 214.137 96.3389L224.455 99.3844C224.455 99.3844 202.415 158.532 195.883 158.372C189.351 158.212 167.171 153.924 167.171 153.924C167.171 153.924 165.167 195.68 159.156 207.221C159.156 207.221 129.261 217.981 113.793 209.225C121.889 197.381 125.249 182.932 123.21 168.731C119.624 143.445 126.376 108.261 149.819 120.303Z" fill="#CEE5ED"/>
<path d="M163.001 78.9102C163.516 81.7598 164.44 84.52 165.746 87.1051C167.244 89.0814 169.034 90.8178 171.055 92.2545L168.17 95.9012C168.461 97.6498 168.395 99.4394 167.975 101.162C167.555 102.884 166.79 104.503 165.726 105.921C164.662 107.339 163.321 108.526 161.785 109.411C160.249 110.296 158.55 110.86 156.789 111.069L155.427 123.652L140.099 118.502L139.498 109.847C140.91 108.337 141.838 106.439 142.162 104.397C141.331 103.564 140.715 102.541 140.366 101.418C140.017 100.294 139.946 99.1022 140.159 97.9449C141.161 94.4586 144.166 91.7937 145.709 93.0961C146.656 94.1705 147.214 95.5328 147.292 96.9631H149.295C149.295 96.9631 148.935 91.1726 150.117 88.7682C151.416 86.2849 153.242 84.1158 155.467 82.4129C157.693 80.71 160.264 79.5144 163.001 78.9102Z" fill="#EA9249"/>
<path d="M155.424 123.652L156.786 111.069C158.546 110.86 160.246 110.296 161.782 109.411C163.318 108.526 164.659 107.339 165.723 105.921C166.787 104.503 167.552 102.884 167.972 101.162C168.392 99.4394 168.458 97.6498 168.167 95.9012L171.052 92.2545C169.031 90.8178 167.24 89.0814 165.742 87.1051C164.437 84.52 163.513 81.7598 162.997 78.9102C162.396 79.0504 161.835 79.2508 161.254 79.4311C162.613 83.0159 163.509 86.7597 163.919 90.5714C164.42 97.0833 163.378 104.457 154.261 109.987C151.176 111.87 150.054 116.96 149.733 121.728L155.424 123.652Z" fill="#F2BF75"/>
<path d="M150.376 249.901C140.358 247.617 130.76 241.586 123.407 235.695C121.002 226.619 117.917 214.196 117.035 210.689C118.211 211.128 119.416 211.482 120.641 211.751C124.468 217.863 132.663 230.205 140.257 236.637C144.01 240.09 147.37 243.947 150.276 248.138L150.376 249.901Z" fill="#0F2A3F"/>
<path opacity="0.43" d="M292.977 318.228C292.816 313.439 269.273 305.184 240.361 299.794C211.448 294.405 188.105 293.924 188.265 298.713C188.426 303.501 211.969 311.756 240.882 317.146C269.794 322.536 293.117 323.017 292.977 318.228Z" fill="#CEE5ED"/>
<path d="M67.5282 239.784C67.5282 239.784 74.6011 177.971 49.0144 187.689C22.6462 197.547 55.7066 238.401 67.5282 239.784Z" fill="#378897"/>
<path d="M60.5353 277.095C60.5353 277.095 52.7611 215.222 30.26 232.354C9.88274 247.862 45.4677 272.527 60.5353 277.095Z" fill="#3AA29F"/>
<path d="M43.8198 253.89C54.0986 268.156 64.1169 282.683 67.3027 300.335C67.4831 301.277 68.9057 300.876 68.7253 299.934C65.5195 282.162 55.4611 267.535 45.1022 253.129C44.5412 252.367 43.2588 253.129 43.8198 253.89Z" fill="#1E394C"/>
<path d="M80.1128 226.7C80.1128 226.7 70.8759 181.217 94.2987 185.345C117.721 189.472 86.0236 224.436 80.1128 226.7Z" fill="#3AA29F"/>
<path d="M82.2915 270.501C81.0893 271.303 79.9272 232.111 96.4574 233.494C112.988 234.876 105.314 255.153 82.2915 270.501Z" fill="#378897"/>
<path d="M75.0337 267.34C73.2505 244.297 82.8079 218.33 91.7443 197.332C92.125 196.45 90.8426 195.709 90.4619 196.57C81.3853 217.929 71.7277 243.817 73.551 267.34C73.551 268.301 75.1139 268.301 75.0337 267.34Z" fill="#1E394C"/>
<path d="M77.1636 296.606C75.9614 269.577 73.577 242.127 58.4294 218.864C57.9084 218.083 56.6261 218.864 57.147 219.626C72.1745 242.668 74.4987 269.717 75.6809 296.606C75.6809 297.548 77.2037 297.568 77.1636 296.606Z" fill="#1E394C"/>
<path d="M80.6268 295.426C81.2479 281.2 82.1896 266.994 90.0239 254.652C90.5248 253.85 89.2425 253.089 88.7416 253.91C80.7269 266.433 79.7652 280.98 79.144 295.426C79.144 296.368 80.5867 296.368 80.6268 295.426Z" fill="#1E394C"/>
<path d="M54.5609 292.459L58.4079 327.322C58.6579 329.41 59.6647 331.334 61.2376 332.73C62.8106 334.126 64.8406 334.896 66.9435 334.896H89.1641C91.2816 334.895 93.3243 334.113 94.9024 332.702C96.4805 331.29 97.4834 329.346 97.7198 327.242L101.567 292.379C101.615 291.932 101.568 291.479 101.429 291.052C101.291 290.624 101.064 290.23 100.764 289.896C100.464 289.561 100.096 289.294 99.6856 289.11C99.275 288.927 98.8306 288.832 98.381 288.832H57.7267C57.2702 288.831 56.8187 288.927 56.4028 289.115C55.9869 289.304 55.6163 289.579 55.3161 289.923C55.0158 290.267 54.7931 290.671 54.6628 291.109C54.5325 291.546 54.4978 292.007 54.5609 292.459Z" fill="#CEE5ED"/>
<path d="M98.3875 288.918H84.3619C84.8108 288.918 85.2545 289.013 85.6642 289.196C86.0738 289.38 86.4401 289.647 86.739 289.982C87.0379 290.317 87.2627 290.711 87.3986 291.139C87.5345 291.567 87.5785 292.019 87.5277 292.464L83.6807 327.328C83.4295 329.426 82.4141 331.359 80.8285 332.756C79.2429 334.153 77.1982 334.917 75.085 334.902H89.1106C91.228 334.9 93.2707 334.119 94.8488 332.707C96.4269 331.296 97.4299 329.352 97.6662 327.248L101.513 292.384C101.549 291.949 101.495 291.51 101.355 291.096C101.215 290.682 100.992 290.301 100.699 289.976C100.406 289.652 100.05 289.39 99.6526 289.208C99.2551 289.026 98.8246 288.927 98.3875 288.918Z" fill="#AAC6CE"/>
<path opacity="0.26" d="M58.8114 235.016C61.249 237.341 64.2545 238.986 67.5273 239.784C67.5273 239.784 74.5601 178.372 49.2539 187.549C56.0062 196.004 70.4326 217.524 58.8114 235.016Z" fill="#0F2A3F"/>
<path opacity="0.26" d="M97.9184 233.677C98.4795 241.451 98.4193 262.029 81.8892 260.806C81.6086 266.517 82.0094 270.825 82.4101 270.504C104.631 255.617 112.525 236.081 97.9184 233.677Z" fill="#0F2A3F"/>
<path opacity="0.42" d="M95.4145 185.503C95.9354 193.518 95.8152 215.939 78.6038 215.037C78.8963 218.915 79.398 222.774 80.1065 226.598C85.8971 224.474 116.593 190.632 95.4145 185.503Z" fill="#34648C"/>
<path opacity="0.42" d="M60.5346 277.095C60.5346 277.095 52.7604 215.222 30.2593 232.354C29.551 232.865 28.8813 233.427 28.2556 234.037C35.2885 236.461 58.4708 246.6 50.897 272.908C53.9627 274.62 57.1911 276.023 60.5346 277.095Z" fill="#34648C"/>
<defs>
<linearGradient id="paint0_linear_1633_10385" x1="169.389" y1="342.246" x2="169.389" y2="-6.39042" gradientUnits="userSpaceOnUse">
<stop stop-color="#3AA29F" stop-opacity="0"/>
<stop offset="0.13" stop-color="#3AA29F" stop-opacity="0.28"/>
<stop offset="0.31" stop-color="#3AA29F" stop-opacity="0.49"/>
<stop offset="0.52" stop-color="#3AA29F" stop-opacity="0.61"/>
<stop offset="0.75" stop-color="#3AA29F" stop-opacity="0.81"/>
<stop offset="1" stop-color="#3AA29F" stop-opacity="0.74"/>
</linearGradient>
</defs>
</svg>
