<svg width="387" height="369" viewBox="0 0 387 369" fill="none" xmlns="http://www.w3.org/2000/svg">
<path opacity="0.42" d="M82.3031 359.849H304.393C353.895 325.729 386.258 269.448 386.258 205.749C386.258 101.631 299.896 2.2832 193.359 2.2832C86.8221 2.2832 0.4375 101.631 0.4375 205.749C0.460323 269.448 32.8232 325.729 82.3031 359.849Z" fill="url(#paint0_linear_1662_7073)"/>
<path opacity="0.43" d="M189.118 368.431C277.591 368.431 349.312 364.844 349.312 360.42C349.312 355.996 277.591 352.409 189.118 352.409C100.646 352.409 28.9243 355.996 28.9243 360.42C28.9243 364.844 100.646 368.431 189.118 368.431Z" fill="#CEE5ED"/>
<path d="M166.527 330.477L167.713 338.031L162.053 345.472L147.355 338.534L145.667 331.618L163.811 328.628L166.527 330.477Z" fill="#F2BF75"/>
<path d="M155.067 354.988L153.515 353.14C153.447 353.066 153.364 353.007 153.272 352.966C153.179 352.926 153.08 352.905 152.979 352.905C152.878 352.905 152.779 352.926 152.686 352.966C152.594 353.007 152.511 353.066 152.443 353.14L150.959 354.943C150.66 355.299 150.286 355.586 149.864 355.783C149.443 355.98 148.983 356.083 148.517 356.084H114.557C114.388 355.916 114.255 355.717 114.164 355.498C114.072 355.278 114.025 355.043 114.025 354.806C114.025 354.568 114.072 354.333 114.164 354.114C114.255 353.894 114.388 353.695 114.557 353.528C119.464 348.438 146.121 339.377 147.444 338.647C148.768 337.917 157.03 344.147 167.802 338.145C168.845 342.75 169.607 347.415 170.085 352.113C170.122 352.645 170.05 353.179 169.872 353.682C169.694 354.184 169.414 354.645 169.05 355.035C168.686 355.425 168.245 355.735 167.756 355.947C167.266 356.159 166.738 356.268 166.205 356.266H157.601C157.106 356.274 156.618 356.161 156.177 355.939C155.736 355.716 155.355 355.39 155.067 354.988Z" fill="#1E394C"/>
<path d="M220.916 330.77L222.126 338.324L216.465 345.788L201.767 338.827L200.079 331.934L218.223 328.921L220.916 330.77Z" fill="#F2BF75"/>
<path d="M209.451 355.306L207.921 353.457C207.857 353.376 207.776 353.311 207.683 353.266C207.59 353.221 207.488 353.198 207.385 353.198C207.282 353.198 207.18 353.221 207.087 353.266C206.994 353.311 206.913 353.376 206.849 353.457L205.342 355.237C205.047 355.601 204.675 355.894 204.253 356.095C203.83 356.296 203.368 356.401 202.9 356.401L169.031 356.287C168.69 355.945 168.498 355.481 168.498 354.998C168.498 354.514 168.69 354.051 169.031 353.708C173.938 348.619 200.595 339.581 201.919 338.828C203.243 338.075 211.505 344.328 222.277 338.326C223.321 342.939 224.083 347.611 224.559 352.316C224.59 352.846 224.513 353.376 224.332 353.874C224.152 354.373 223.871 354.83 223.508 355.216C223.145 355.603 222.707 355.911 222.221 356.123C221.734 356.335 221.21 356.445 220.679 356.447H212.075C211.578 356.481 211.08 356.396 210.624 356.197C210.167 355.998 209.764 355.693 209.451 355.306Z" fill="#1E394C"/>
<path d="M142.628 86.1787L132.29 125.639L104.172 106.856L91.4368 116.967L128.159 151.338L154.588 126.826L142.628 86.1787Z" fill="#CEE5ED"/>
<path d="M104.128 106.878L96.0027 90.7191C95.7932 90.3085 95.5014 89.9455 95.1454 89.6527C94.7894 89.3599 94.377 89.1435 93.9337 89.0172C93.4904 88.8908 93.0258 88.8572 92.569 88.9183C92.1121 88.9795 91.6728 89.1341 91.2783 89.3726C89.0649 90.6819 87.3175 92.6521 86.2818 95.006C85.246 97.3599 84.9741 99.9792 85.5041 102.496C86.6224 107.654 88.4939 113.747 91.5065 116.965L104.128 106.878Z" fill="#F2BF75"/>
<path d="M94.0104 75.6815L85.0182 74.9512C83.7173 74.9512 82.8957 75.6815 83.1696 76.8227L89.5372 102.042C89.7495 102.661 90.1359 103.205 90.65 103.61C91.1642 104.015 91.7841 104.263 92.4356 104.324L101.405 105.055C103.505 105.237 104.692 108.934 103.254 103.206L96.8861 78.1007C96.703 77.4565 96.3312 76.8818 95.8188 76.4507C95.3063 76.0196 94.6765 75.7517 94.0104 75.6815Z" fill="#1E394C"/>
<path d="M104.151 106.947L106.045 100.944C106.428 100.208 106.53 99.3575 106.333 98.5515C106.135 97.7454 105.652 97.0385 104.973 96.5622L101.846 94.394C101.392 94.0941 100.846 93.966 100.306 94.033C99.7665 94.0999 99.2683 94.3575 98.9016 94.7592C98.7072 94.9918 98.5611 95.2609 98.4718 95.5506C98.3825 95.8403 98.3519 96.1449 98.3816 96.4466C98.4114 96.7483 98.501 97.0411 98.6451 97.3078C98.7892 97.5745 98.9851 97.8098 99.2212 98L100.659 99.0955L102.12 100.214L98.6278 105.463L104.151 106.947Z" fill="#F2BF75"/>
<path d="M222.729 332.53C222.729 323.72 212.481 176.992 212.481 176.992C212.481 176.992 191.804 156.885 180.529 159.008C169.277 156.885 143.693 171.789 143.693 171.789C143.693 171.789 144.241 323.72 144.241 332.53H168.615C168.615 332.53 168.775 262.578 178.27 212.071C178.399 211.613 178.669 211.207 179.041 210.91C179.414 210.613 179.869 210.44 180.345 210.414C180.82 210.389 181.292 210.513 181.693 210.77C182.094 211.026 182.406 211.401 182.583 211.843C192.077 262.373 198.331 332.53 198.331 332.53H222.729Z" fill="#1E394C"/>
<path d="M181.034 62.3516C181.034 62.3516 209.791 69.381 213.785 73.9912C217.779 78.6014 232.705 107.199 232.454 116.83C232.135 128.127 212.781 152.205 213.169 150.79V184.865C213.169 184.865 169.098 198.558 142.418 181.807C142.418 181.807 139.36 94.4862 143.034 84.7636C144.152 81.7738 158.645 69.1528 162.936 67.6236C167.226 66.0945 181.034 62.3516 181.034 62.3516Z" fill="#CEE5ED"/>
<path d="M232.437 116.83C232.163 126.895 216.757 147.139 213.699 150.403L213.197 150.768L203.474 159.509L191.857 148.965C191.857 148.965 213.448 133.582 210.458 113.84C208.358 99.964 193.934 75.0415 193.934 75.0415C188.715 71.6935 184.12 67.4611 180.355 62.5345L181.154 62.3291C181.154 62.3291 209.91 69.3585 213.904 73.9459C217.898 78.5333 232.71 107.267 232.437 116.83Z" fill="#CEE5ED"/>
<path d="M228.415 109.431H133.495C127.76 109.431 123.11 114.08 123.11 119.815V163.019C123.11 168.754 127.76 173.403 133.495 173.403H228.415C234.15 173.403 238.8 168.754 238.8 163.019V119.815C238.8 114.08 234.15 109.431 228.415 109.431Z" fill="#1E394C"/>
<path d="M133.043 162.894C132.934 162.889 132.836 162.879 132.749 162.865C132.662 162.851 132.578 162.828 132.497 162.797C132.416 162.764 132.348 162.724 132.293 162.676C132.238 162.627 132.192 162.565 132.155 162.489C132.119 162.413 132.097 162.325 132.089 162.225C132.089 162.208 132.098 162.198 132.117 162.195C132.122 162.197 132.131 162.198 132.144 162.198C132.221 162.198 132.338 162.196 132.494 162.192C132.65 162.188 132.767 162.186 132.843 162.186C132.863 162.186 132.878 162.193 132.889 162.206C132.9 162.218 132.909 162.233 132.915 162.252C132.923 162.269 132.931 162.287 132.94 162.306C132.951 162.323 132.967 162.339 132.99 162.352C133.014 162.364 133.045 162.37 133.082 162.37C133.127 162.37 133.167 162.357 133.201 162.332C133.236 162.306 133.254 162.272 133.254 162.228C133.254 162.199 133.239 162.173 133.209 162.149C133.18 162.125 133.141 162.106 133.092 162.091C133.043 162.075 132.997 162.062 132.953 162.052C132.909 162.041 132.865 162.032 132.818 162.024C132.772 162.016 132.745 162.011 132.738 162.009C132.513 161.948 132.351 161.872 132.253 161.782C132.155 161.691 132.106 161.567 132.106 161.41C132.106 161.299 132.126 161.2 132.167 161.112C132.207 161.023 132.26 160.951 132.326 160.895C132.392 160.839 132.469 160.792 132.559 160.755C132.649 160.717 132.739 160.691 132.831 160.676C132.922 160.661 133.017 160.653 133.115 160.653C133.375 160.653 133.582 160.701 133.736 160.797C133.793 160.853 133.834 160.896 133.86 160.926C133.887 160.955 133.912 160.988 133.936 161.027C133.961 161.066 133.978 161.104 133.987 161.142C133.998 161.179 134.005 161.225 134.008 161.28L133.958 161.329C133.769 161.337 133.556 161.341 133.32 161.341C133.291 161.341 133.267 161.337 133.248 161.331C133.231 161.324 133.219 161.316 133.212 161.306C133.207 161.296 133.201 161.285 133.194 161.274C133.189 161.263 133.183 161.252 133.178 161.242C133.173 161.232 133.162 161.224 133.146 161.217C133.13 161.211 133.109 161.207 133.082 161.207C133.074 161.207 133.062 161.209 133.046 161.212C133.03 161.214 133.011 161.219 132.989 161.225C132.968 161.231 132.949 161.24 132.933 161.253C132.918 161.265 132.91 161.28 132.91 161.296C132.91 161.317 132.92 161.335 132.94 161.352C132.962 161.368 132.984 161.38 133.007 161.388C133.03 161.395 133.059 161.403 133.093 161.413C133.127 161.421 133.148 161.427 133.157 161.429C133.358 161.48 133.478 161.512 133.517 161.524C133.72 161.587 133.863 161.671 133.947 161.775C134.025 161.871 134.064 161.991 134.064 162.137C134.064 162.224 134.052 162.304 134.029 162.376C134.007 162.449 133.977 162.51 133.94 162.56C133.903 162.609 133.857 162.654 133.802 162.693C133.746 162.732 133.69 162.762 133.632 162.786C133.576 162.809 133.512 162.828 133.44 162.844C133.368 162.86 133.301 162.871 133.24 162.877C133.18 162.885 133.114 162.89 133.043 162.894ZM134.219 162.761V162.708C134.219 162.55 134.221 162.316 134.225 162.008C134.228 161.699 134.23 161.465 134.23 161.307V160.733H135.844V161.188C135.844 161.191 135.844 161.198 135.844 161.209C135.844 161.22 135.844 161.227 135.844 161.231C135.844 161.235 135.844 161.242 135.843 161.252C135.842 161.261 135.84 161.268 135.837 161.271C135.836 161.275 135.832 161.28 135.828 161.288C135.824 161.294 135.819 161.299 135.814 161.302C135.808 161.305 135.801 161.307 135.792 161.31C135.782 161.312 135.772 161.313 135.761 161.313H135.722C135.483 161.313 135.265 161.309 135.068 161.302C135.066 161.317 135.063 161.34 135.058 161.371C135.054 161.402 135.051 161.429 135.048 161.453C135.046 161.476 135.046 161.499 135.046 161.521H135.706C135.733 161.521 135.752 161.525 135.761 161.532C135.77 161.539 135.775 161.551 135.775 161.568C135.775 161.573 135.775 161.58 135.774 161.59C135.773 161.6 135.772 161.608 135.772 161.612C135.772 161.657 135.774 161.722 135.776 161.809C135.779 161.896 135.781 161.962 135.781 162.006C135.778 162.025 135.77 162.034 135.758 162.034C135.753 162.034 135.748 162.032 135.744 162.028C135.452 162.043 135.236 162.051 135.095 162.051H135.059V162.25C135.142 162.25 135.26 162.247 135.416 162.239C135.572 162.232 135.689 162.228 135.767 162.228C135.828 162.228 135.863 162.241 135.872 162.267V162.372C135.872 162.417 135.873 162.482 135.875 162.569C135.877 162.656 135.878 162.722 135.878 162.766C135.878 162.812 135.859 162.836 135.822 162.836C135.774 162.836 135.7 162.835 135.6 162.834C135.5 162.833 135.425 162.833 135.373 162.833C135.24 162.833 135.049 162.836 134.801 162.842C134.554 162.85 134.374 162.854 134.263 162.855L134.225 162.811C134.221 162.785 134.219 162.768 134.219 162.761ZM136.044 160.958C136.044 160.807 136.06 160.723 136.091 160.705C136.1 160.707 136.113 160.708 136.13 160.708H136.174C136.203 160.708 136.25 160.707 136.316 160.705C136.381 160.704 136.431 160.703 136.466 160.703C136.597 160.703 136.703 160.708 136.783 160.719C136.865 160.729 136.91 160.749 136.92 160.778L136.904 162.209H136.934C137.008 162.205 137.06 162.204 137.09 162.205C137.119 162.205 137.173 162.206 137.252 162.21C137.331 162.213 137.408 162.214 137.481 162.214C137.541 162.214 137.585 162.218 137.614 162.225C137.643 162.232 137.658 162.246 137.658 162.267V162.799C137.646 162.833 137.44 162.849 137.04 162.849H136.08C136.058 162.817 136.047 162.765 136.047 162.694V162.3C136.047 162.185 136.048 162.014 136.05 161.787C136.051 161.561 136.052 161.39 136.052 161.274C136.052 161.253 136.051 161.206 136.048 161.133C136.045 161.06 136.044 161.001 136.044 160.958ZM137.797 160.958C137.797 160.807 137.813 160.723 137.844 160.705C137.853 160.707 137.866 160.708 137.883 160.708H137.927C137.956 160.708 138.003 160.707 138.069 160.705C138.134 160.704 138.184 160.703 138.218 160.703C138.35 160.703 138.456 160.708 138.536 160.719C138.617 160.729 138.663 160.749 138.673 160.778L138.657 162.209H138.687C138.761 162.205 138.813 162.204 138.843 162.205C138.872 162.205 138.926 162.206 139.005 162.21C139.084 162.213 139.161 162.214 139.234 162.214C139.294 162.214 139.338 162.218 139.367 162.225C139.396 162.232 139.411 162.246 139.411 162.267V162.799C139.399 162.833 139.193 162.849 138.793 162.849H137.833C137.811 162.817 137.8 162.765 137.8 162.694V162.3C137.8 162.185 137.801 162.014 137.802 161.787C137.804 161.561 137.805 161.39 137.805 161.274C137.805 161.253 137.804 161.206 137.801 161.133C137.798 161.06 137.797 161.001 137.797 160.958Z" fill="#E8615B"/>
<path d="M176.571 158.133H132.706C132.535 158.14 132.365 158.113 132.205 158.053C132.045 157.992 131.899 157.9 131.775 157.782C131.652 157.664 131.554 157.522 131.486 157.365C131.419 157.208 131.385 157.039 131.385 156.868C131.385 156.697 131.419 156.528 131.486 156.371C131.554 156.213 131.652 156.071 131.775 155.953C131.899 155.835 132.045 155.743 132.205 155.683C132.365 155.623 132.535 155.595 132.706 155.603H176.571C176.742 155.595 176.913 155.623 177.072 155.683C177.232 155.743 177.378 155.835 177.502 155.953C177.625 156.071 177.724 156.213 177.791 156.371C177.858 156.528 177.892 156.697 177.892 156.868C177.892 157.039 177.858 157.208 177.791 157.365C177.724 157.522 177.625 157.664 177.502 157.782C177.378 157.9 177.232 157.992 177.072 158.053C176.913 158.113 176.742 158.14 176.571 158.133ZM132.706 155.839C132.567 155.833 132.427 155.854 132.297 155.903C132.166 155.952 132.047 156.026 131.946 156.123C131.845 156.219 131.765 156.334 131.71 156.462C131.655 156.591 131.627 156.728 131.627 156.868C131.627 157.007 131.655 157.145 131.71 157.273C131.765 157.401 131.845 157.517 131.946 157.613C132.047 157.709 132.166 157.784 132.297 157.833C132.427 157.881 132.567 157.903 132.706 157.896H176.571C176.711 157.903 176.85 157.881 176.98 157.833C177.111 157.784 177.23 157.709 177.331 157.613C177.432 157.517 177.512 157.401 177.567 157.273C177.622 157.145 177.65 157.007 177.65 156.868C177.65 156.728 177.622 156.591 177.567 156.462C177.512 156.334 177.432 156.219 177.331 156.123C177.23 156.026 177.111 155.952 176.98 155.903C176.85 155.854 176.711 155.833 176.571 155.839H132.706Z" fill="#DEDEDE"/>
<path d="M176.571 167.377H132.706C132.535 167.384 132.365 167.357 132.205 167.297C132.045 167.237 131.899 167.145 131.775 167.026C131.652 166.908 131.554 166.766 131.486 166.609C131.419 166.452 131.385 166.283 131.385 166.112C131.385 165.941 131.419 165.772 131.486 165.615C131.554 165.458 131.652 165.316 131.775 165.197C131.899 165.079 132.045 164.987 132.205 164.927C132.365 164.867 132.535 164.84 132.706 164.847H176.571C176.742 164.84 176.913 164.867 177.072 164.927C177.232 164.987 177.378 165.079 177.502 165.197C177.625 165.316 177.724 165.458 177.791 165.615C177.858 165.772 177.892 165.941 177.892 166.112C177.892 166.283 177.858 166.452 177.791 166.609C177.724 166.766 177.625 166.908 177.502 167.026C177.378 167.145 177.232 167.237 177.072 167.297C176.913 167.357 176.742 167.384 176.571 167.377ZM132.706 165.084C132.567 165.077 132.427 165.099 132.297 165.147C132.166 165.196 132.047 165.271 131.946 165.367C131.845 165.463 131.765 165.578 131.71 165.707C131.655 165.835 131.627 165.973 131.627 166.112C131.627 166.251 131.655 166.389 131.71 166.517C131.765 166.645 131.845 166.761 131.946 166.857C132.047 166.953 132.166 167.028 132.297 167.077C132.427 167.125 132.567 167.147 132.706 167.14H176.571C176.711 167.147 176.85 167.125 176.98 167.077C177.111 167.028 177.23 166.953 177.331 166.857C177.432 166.761 177.512 166.645 177.567 166.517C177.622 166.389 177.65 166.251 177.65 166.112C177.65 165.973 177.622 165.835 177.567 165.707C177.512 165.578 177.432 165.463 177.331 165.367C177.23 165.271 177.111 165.196 176.98 165.147C176.85 165.099 176.711 165.077 176.571 165.084H132.706Z" fill="#DEDEDE"/>
<path d="M156.858 157.589H132.758C132.566 157.589 132.382 157.513 132.246 157.378C132.111 157.243 132.034 157.059 132.033 156.867C132.037 156.678 132.114 156.497 132.25 156.364C132.385 156.231 132.568 156.157 132.758 156.157H156.858C156.953 156.156 157.046 156.173 157.134 156.208C157.221 156.243 157.301 156.295 157.368 156.361C157.435 156.427 157.489 156.506 157.525 156.593C157.562 156.68 157.58 156.773 157.58 156.867C157.582 156.963 157.564 157.057 157.529 157.145C157.493 157.234 157.44 157.314 157.372 157.381C157.305 157.449 157.225 157.502 157.137 157.538C157.048 157.573 156.954 157.591 156.858 157.589Z" fill="#2DA18C"/>
<path d="M156.858 166.832H132.758C132.566 166.832 132.382 166.756 132.246 166.621C132.111 166.486 132.034 166.302 132.033 166.111C132.037 165.921 132.114 165.74 132.25 165.607C132.385 165.474 132.568 165.4 132.758 165.4H156.858C156.953 165.399 157.046 165.416 157.134 165.451C157.221 165.486 157.301 165.538 157.368 165.604C157.435 165.67 157.489 165.749 157.525 165.836C157.562 165.923 157.58 166.016 157.58 166.111C157.582 166.206 157.564 166.3 157.529 166.389C157.493 166.477 157.44 166.557 157.372 166.625C157.305 166.692 157.225 166.745 157.137 166.781C157.048 166.816 156.954 166.834 156.858 166.832Z" fill="#E8615B"/>
<path d="M132.161 153.322V151.456L133.359 151.414C133.433 151.414 133.503 151.419 133.567 151.428C133.632 151.437 133.697 151.455 133.763 151.481C133.829 151.505 133.886 151.538 133.932 151.579C133.979 151.619 134.017 151.672 134.047 151.738C134.077 151.805 134.091 151.882 134.091 151.969C134.091 152.084 134.066 152.178 134.015 152.25C133.964 152.321 133.888 152.385 133.786 152.44C133.906 152.473 133.996 152.531 134.058 152.613C134.121 152.695 134.152 152.798 134.152 152.923C134.152 153.015 134.135 153.098 134.1 153.172C134.065 153.245 134.019 153.305 133.964 153.351C133.908 153.397 133.843 153.436 133.768 153.466C133.693 153.497 133.619 153.518 133.545 153.53C133.472 153.543 133.397 153.55 133.32 153.55C133.276 153.55 133.209 153.549 133.119 153.547C133.031 153.545 132.964 153.544 132.918 153.544C132.661 153.544 132.425 153.548 132.211 153.555C132.18 153.506 132.164 153.428 132.161 153.322ZM132.957 151.919C132.957 151.96 132.958 152.022 132.961 152.105C132.964 152.187 132.965 152.249 132.965 152.29C132.965 152.308 132.976 152.318 132.999 152.321C133.012 152.319 133.034 152.316 133.065 152.313C133.098 152.308 133.123 152.304 133.141 152.301C133.16 152.299 133.182 152.292 133.208 152.282C133.235 152.271 133.256 152.258 133.27 152.243C133.285 152.228 133.298 152.207 133.309 152.179C133.32 152.151 133.326 152.117 133.326 152.08C133.326 151.939 133.229 151.869 133.035 151.869C132.996 151.875 132.973 151.882 132.967 151.888C132.96 151.896 132.957 151.906 132.957 151.919ZM132.982 152.975C132.982 153.044 132.986 153.078 132.993 153.078H133.037C133.074 153.078 133.105 153.077 133.13 153.075C133.157 153.073 133.186 153.067 133.216 153.057C133.247 153.048 133.271 153.036 133.29 153.02C133.308 153.003 133.324 152.98 133.337 152.95C133.35 152.921 133.356 152.886 133.356 152.845C133.356 152.822 133.354 152.801 133.349 152.781C133.345 152.762 133.337 152.745 133.327 152.731C133.317 152.718 133.307 152.705 133.297 152.695C133.288 152.685 133.274 152.677 133.255 152.67C133.238 152.663 133.223 152.657 133.211 152.654C133.2 152.649 133.183 152.645 133.16 152.643C133.136 152.64 133.12 152.638 133.11 152.637C133.099 152.636 133.082 152.635 133.057 152.634C133.032 152.632 133.016 152.632 133.01 152.632V152.684C133.009 152.694 133.004 152.729 132.994 152.787C132.986 152.845 132.982 152.891 132.982 152.926V152.975ZM134.338 152.82C134.342 152.365 134.344 152.026 134.344 151.802V151.786C134.344 151.779 134.343 151.756 134.341 151.718C134.339 151.678 134.338 151.644 134.338 151.616C134.338 151.505 134.348 151.443 134.366 151.428C134.371 151.428 134.378 151.428 134.387 151.429C134.396 151.43 134.403 151.431 134.408 151.431C134.563 151.423 134.743 151.419 134.948 151.419H135.137C135.144 151.42 135.154 151.424 135.166 151.429C135.179 151.434 135.188 151.436 135.193 151.436C135.193 151.481 135.195 151.56 135.198 151.67C135.202 151.781 135.204 151.878 135.205 151.959C135.207 152.04 135.207 152.12 135.206 152.199V152.74C135.206 152.774 135.207 152.802 135.209 152.823C135.211 152.844 135.215 152.869 135.222 152.898C135.229 152.926 135.242 152.948 135.259 152.963C135.278 152.977 135.301 152.984 135.328 152.984C135.367 152.984 135.399 152.968 135.423 152.935C135.447 152.902 135.459 152.864 135.459 152.82V152.313C135.458 152.251 135.458 152.153 135.46 152.02C135.463 151.887 135.463 151.783 135.462 151.708V151.608C135.462 151.598 135.461 151.583 135.459 151.562C135.457 151.541 135.456 151.525 135.456 151.514V151.447C135.459 151.426 135.471 151.413 135.492 151.408C135.67 151.408 135.936 151.41 136.291 151.414V151.436H136.352C136.344 151.633 136.341 151.862 136.341 152.124V152.435C136.341 152.476 136.34 152.54 136.338 152.626C136.336 152.712 136.335 152.776 136.335 152.817C136.335 152.938 136.316 153.044 136.278 153.136C136.24 153.229 136.191 153.303 136.129 153.36C136.067 153.416 135.992 153.462 135.904 153.498C135.816 153.534 135.727 153.559 135.638 153.573C135.548 153.587 135.451 153.594 135.348 153.594C135.248 153.594 135.154 153.587 135.066 153.575C134.979 153.563 134.891 153.539 134.801 153.504C134.712 153.468 134.635 153.422 134.57 153.367C134.505 153.311 134.452 153.237 134.409 153.143C134.366 153.05 134.343 152.942 134.338 152.82ZM138.625 151.483C138.567 151.6 138.457 151.809 138.298 152.111C138.139 152.413 138.018 152.648 137.937 152.817V153.511C137.932 153.526 137.926 153.538 137.919 153.544C137.912 153.551 137.899 153.555 137.881 153.555C137.795 153.555 137.665 153.556 137.493 153.558C137.322 153.56 137.191 153.561 137.099 153.561C137.066 153.527 137.049 153.489 137.049 153.444C137.053 153.424 137.055 153.401 137.056 153.375C137.057 153.349 137.057 153.316 137.056 153.276C137.055 153.237 137.055 153.211 137.055 153.2V153.1C137.055 152.879 137.009 152.681 136.916 152.504C136.902 152.475 136.888 152.445 136.872 152.414C136.857 152.382 136.843 152.352 136.829 152.322C136.815 152.293 136.801 152.263 136.786 152.232C136.771 152.202 136.756 152.171 136.742 152.141C136.728 152.11 136.714 152.08 136.7 152.05C136.686 152.021 136.671 151.99 136.656 151.959C136.641 151.928 136.626 151.897 136.611 151.869L136.374 151.471C136.374 151.459 136.384 151.448 136.403 151.438C136.423 151.427 136.442 151.422 136.461 151.422H136.811C136.859 151.422 136.931 151.423 137.027 151.424C137.124 151.425 137.196 151.425 137.244 151.425C137.257 151.427 137.271 151.44 137.287 151.465C137.302 151.49 137.318 151.524 137.335 151.566C137.353 151.609 137.37 151.654 137.386 151.702C137.403 151.75 137.42 151.802 137.436 151.859C137.453 151.916 137.467 151.967 137.479 152.01C137.492 152.054 137.505 152.098 137.517 152.143C137.53 152.189 137.538 152.218 137.542 152.232L137.796 151.419H138.578C138.591 151.421 138.6 151.427 138.607 151.436C138.613 151.444 138.619 151.46 138.625 151.483Z" fill="#2DA18C"/>
<path d="M236.012 159.742H218.245V162.824H236.012V159.742Z" fill="#7DB6F9"/>
<path d="M218.398 159.742H200.63V162.824H218.398V159.742Z" fill="#D9EBFF"/>
<path d="M185.888 160.05L180.752 144.685L175.782 149.979L168.544 151.482L166.729 141.277L158.211 136.666L151.07 149.513L142.602 150.564L137.8 146.062L127.13 149.383L127.059 149.158L137.864 145.795L142.685 150.315L150.923 149.293L158.118 136.347L166.942 141.125L168.733 151.201L175.661 149.764L180.851 144.233L186.034 159.742L194.694 156.459L198.708 149.243L205.193 150.737L205.219 150.779L209.094 157.07L221.555 155.262L227.077 147.355L236.035 149.068L235.99 149.302L227.183 147.615L221.692 155.482L221.64 155.489L208.975 157.326L205.044 150.945L198.829 149.513L194.858 156.649L185.888 160.05Z" fill="#DAE9F7"/>
<path d="M168.254 140.753C168.171 140.506 168.003 140.297 167.781 140.161C167.05 139.719 165.887 139.91 165.622 140.81C165.567 140.996 165.555 141.192 165.586 141.383C165.617 141.575 165.69 141.757 165.801 141.916C165.912 142.075 166.058 142.207 166.227 142.302C166.396 142.398 166.584 142.454 166.777 142.466C167.007 142.485 167.239 142.454 167.455 142.374C167.672 142.294 167.869 142.168 168.032 142.005C168.177 141.835 168.274 141.629 168.313 141.409C168.352 141.189 168.332 140.963 168.254 140.753Z" fill="#DAE9F7"/>
<path d="M167.525 141.004C167.487 140.895 167.413 140.803 167.314 140.744C166.992 140.55 166.483 140.633 166.367 141.028C166.343 141.11 166.337 141.196 166.351 141.28C166.364 141.364 166.396 141.444 166.445 141.514C166.494 141.584 166.557 141.643 166.632 141.685C166.706 141.727 166.789 141.751 166.874 141.757C166.975 141.765 167.077 141.751 167.173 141.716C167.268 141.68 167.355 141.625 167.427 141.554C167.49 141.479 167.532 141.388 167.549 141.292C167.566 141.196 167.558 141.096 167.525 141.004Z" fill="white"/>
<path d="M159.418 136.103C159.334 135.857 159.166 135.648 158.945 135.511C158.211 135.071 157.051 135.263 156.784 136.16C156.729 136.346 156.717 136.542 156.748 136.733C156.779 136.924 156.853 137.106 156.964 137.265C157.075 137.424 157.22 137.556 157.389 137.652C157.558 137.747 157.746 137.803 157.939 137.816C158.17 137.834 158.402 137.8 158.618 137.718C158.835 137.637 159.031 137.509 159.193 137.343C159.336 137.174 159.433 136.971 159.472 136.753C159.512 136.535 159.493 136.311 159.418 136.103Z" fill="#DAE9F7"/>
<path d="M158.688 136.353C158.65 136.245 158.576 136.154 158.479 136.093C158.157 135.899 157.649 135.984 157.533 136.379C157.509 136.461 157.504 136.547 157.518 136.631C157.532 136.715 157.565 136.795 157.614 136.865C157.662 136.935 157.726 136.993 157.8 137.035C157.874 137.077 157.957 137.102 158.041 137.108C158.143 137.116 158.244 137.101 158.34 137.065C158.435 137.03 158.521 136.974 158.593 136.902C158.657 136.828 158.699 136.738 158.715 136.641C158.732 136.544 158.723 136.445 158.688 136.353Z" fill="white"/>
<path d="M152.515 148.82C152.431 148.574 152.263 148.365 152.042 148.228C151.311 147.788 150.148 147.991 149.883 148.879C149.828 149.065 149.816 149.261 149.847 149.452C149.877 149.643 149.951 149.825 150.062 149.984C150.172 150.143 150.317 150.276 150.486 150.371C150.655 150.466 150.843 150.523 151.036 150.536C151.267 150.553 151.499 150.519 151.715 150.437C151.932 150.355 152.128 150.228 152.29 150.062C152.434 149.893 152.531 149.69 152.57 149.471C152.61 149.253 152.591 149.028 152.515 148.82Z" fill="#DAE9F7"/>
<path d="M151.783 149.07C151.746 148.962 151.672 148.87 151.575 148.81C151.253 148.616 150.744 148.701 150.628 149.096C150.604 149.178 150.598 149.264 150.612 149.348C150.625 149.432 150.658 149.513 150.706 149.583C150.755 149.653 150.819 149.711 150.893 149.753C150.967 149.795 151.05 149.82 151.135 149.825C151.236 149.833 151.338 149.819 151.434 149.784C151.529 149.749 151.616 149.693 151.689 149.622C151.752 149.546 151.794 149.456 151.81 149.359C151.827 149.262 151.818 149.162 151.783 149.07Z" fill="white"/>
<path d="M144.055 149.937C143.97 149.691 143.803 149.482 143.581 149.346C142.85 148.903 141.688 149.095 141.423 149.994C141.368 150.18 141.356 150.376 141.387 150.567C141.418 150.759 141.492 150.941 141.603 151.1C141.714 151.259 141.859 151.391 142.028 151.486C142.196 151.582 142.384 151.638 142.578 151.651C142.809 151.668 143.041 151.634 143.257 151.552C143.474 151.471 143.67 151.343 143.832 151.178C143.975 151.008 144.07 150.805 144.109 150.587C144.148 150.37 144.129 150.146 144.055 149.937Z" fill="#DAE9F7"/>
<path d="M143.328 150.188C143.29 150.08 143.217 149.988 143.119 149.928C142.795 149.734 142.288 149.816 142.173 150.212C142.149 150.294 142.143 150.38 142.157 150.464C142.171 150.548 142.204 150.628 142.252 150.698C142.301 150.768 142.365 150.826 142.439 150.868C142.514 150.91 142.596 150.935 142.681 150.941C142.782 150.948 142.884 150.934 142.979 150.899C143.074 150.864 143.161 150.808 143.233 150.737C143.296 150.662 143.338 150.572 143.354 150.475C143.371 150.379 143.362 150.28 143.328 150.188Z" fill="white"/>
<path d="M139.099 145.772C139.015 145.526 138.848 145.317 138.626 145.18C137.895 144.74 136.733 144.932 136.468 145.829C136.413 146.015 136.401 146.21 136.432 146.402C136.463 146.593 136.537 146.775 136.648 146.934C136.758 147.093 136.904 147.225 137.072 147.321C137.241 147.416 137.429 147.472 137.623 147.485C137.853 147.503 138.085 147.469 138.302 147.387C138.519 147.306 138.715 147.177 138.877 147.012C139.019 146.843 139.115 146.639 139.154 146.422C139.193 146.204 139.174 145.98 139.099 145.772Z" fill="#DAE9F7"/>
<path d="M138.358 146.021C138.32 145.913 138.247 145.822 138.15 145.761C137.825 145.567 137.319 145.652 137.203 146.047C137.179 146.129 137.174 146.215 137.188 146.3C137.202 146.384 137.234 146.464 137.283 146.534C137.332 146.604 137.396 146.662 137.47 146.704C137.544 146.746 137.627 146.771 137.712 146.776C137.813 146.784 137.915 146.769 138.01 146.734C138.105 146.699 138.191 146.644 138.263 146.573C138.326 146.497 138.368 146.407 138.385 146.31C138.402 146.213 138.392 146.113 138.358 146.021Z" fill="white"/>
<path d="M177.072 149.378C176.988 149.132 176.82 148.923 176.599 148.787C175.868 148.346 174.706 148.538 174.44 149.435C174.386 149.621 174.374 149.817 174.405 150.008C174.436 150.2 174.51 150.381 174.621 150.54C174.731 150.7 174.877 150.832 175.045 150.927C175.214 151.022 175.402 151.079 175.595 151.092C175.826 151.109 176.058 151.076 176.275 150.994C176.492 150.912 176.688 150.784 176.85 150.618C176.992 150.449 177.088 150.246 177.127 150.028C177.166 149.81 177.147 149.586 177.072 149.378Z" fill="#DAE9F7"/>
<path d="M176.34 149.629C176.303 149.521 176.229 149.429 176.132 149.368C175.81 149.174 175.301 149.26 175.185 149.655C175.162 149.737 175.156 149.823 175.17 149.907C175.184 149.991 175.216 150.071 175.265 150.141C175.314 150.211 175.378 150.269 175.452 150.311C175.526 150.353 175.609 150.378 175.694 150.384C175.795 150.391 175.897 150.377 175.992 150.342C176.087 150.307 176.174 150.252 176.246 150.18C176.309 150.105 176.351 150.014 176.368 149.917C176.384 149.82 176.375 149.721 176.34 149.629Z" fill="white"/>
<path d="M181.788 144.114C181.703 143.869 181.535 143.66 181.314 143.524C180.581 143.082 179.421 143.274 179.153 144.173C179.099 144.359 179.087 144.555 179.118 144.746C179.149 144.938 179.223 145.119 179.333 145.278C179.444 145.437 179.589 145.57 179.758 145.665C179.927 145.76 180.115 145.817 180.308 145.83C180.538 145.848 180.77 145.816 180.986 145.737C181.203 145.657 181.399 145.531 181.563 145.368C181.708 145.198 181.806 144.992 181.845 144.771C181.885 144.551 181.865 144.324 181.788 144.114Z" fill="#DAE9F7"/>
<path d="M181.058 144.375C181.02 144.267 180.946 144.176 180.85 144.115C180.528 143.92 180.019 144.006 179.903 144.401C179.879 144.483 179.874 144.569 179.888 144.653C179.901 144.737 179.934 144.817 179.983 144.887C180.032 144.957 180.096 145.015 180.17 145.057C180.244 145.099 180.327 145.124 180.412 145.13C180.513 145.137 180.615 145.123 180.71 145.088C180.805 145.053 180.891 144.998 180.963 144.926C181.027 144.851 181.069 144.76 181.086 144.664C181.102 144.567 181.093 144.467 181.058 144.375Z" fill="white"/>
<path d="M187.269 159.235C187.183 158.99 187.016 158.781 186.795 158.643C186.064 158.203 184.902 158.406 184.637 159.294C184.582 159.48 184.569 159.676 184.6 159.868C184.631 160.059 184.705 160.241 184.816 160.4C184.927 160.559 185.072 160.691 185.241 160.787C185.41 160.882 185.598 160.938 185.792 160.951C186.022 160.969 186.253 160.937 186.47 160.858C186.686 160.778 186.883 160.652 187.046 160.489C187.191 160.318 187.288 160.112 187.327 159.892C187.366 159.672 187.346 159.445 187.269 159.235Z" fill="#DAE9F7"/>
<path d="M186.536 159.499C186.498 159.391 186.424 159.3 186.328 159.239C186.003 159.044 185.497 159.13 185.381 159.525C185.357 159.607 185.352 159.693 185.366 159.777C185.379 159.861 185.412 159.941 185.461 160.011C185.51 160.081 185.574 160.139 185.648 160.181C185.722 160.223 185.805 160.248 185.89 160.254C185.991 160.261 186.093 160.247 186.188 160.212C186.283 160.177 186.369 160.122 186.441 160.05C186.504 159.975 186.546 159.884 186.563 159.787C186.58 159.691 186.57 159.591 186.536 159.499Z" fill="white"/>
<path d="M195.945 156.185C195.86 155.939 195.693 155.73 195.471 155.593C194.738 155.153 193.578 155.345 193.31 156.242C193.256 156.428 193.243 156.624 193.275 156.815C193.306 157.006 193.38 157.188 193.49 157.347C193.601 157.506 193.746 157.638 193.915 157.734C194.084 157.829 194.272 157.885 194.465 157.898C194.696 157.916 194.928 157.882 195.145 157.8C195.362 157.719 195.558 157.591 195.72 157.425C195.864 157.257 195.96 157.053 196 156.835C196.039 156.617 196.02 156.393 195.945 156.185Z" fill="#DAE9F7"/>
<path d="M195.214 156.443C195.177 156.335 195.104 156.243 195.006 156.183C194.684 155.989 194.175 156.074 194.059 156.469C194.036 156.551 194.031 156.637 194.045 156.721C194.059 156.805 194.091 156.885 194.14 156.955C194.189 157.025 194.253 157.083 194.327 157.125C194.401 157.167 194.483 157.192 194.568 157.198C194.669 157.206 194.771 157.191 194.866 157.156C194.961 157.121 195.048 157.066 195.12 156.995C195.183 156.92 195.225 156.829 195.242 156.732C195.259 156.635 195.249 156.535 195.214 156.443Z" fill="white"/>
<path d="M199.999 148.82C199.914 148.574 199.747 148.365 199.526 148.228C198.792 147.788 197.633 147.991 197.365 148.879C197.311 149.065 197.298 149.261 197.33 149.452C197.361 149.643 197.434 149.825 197.545 149.984C197.656 150.143 197.801 150.276 197.97 150.371C198.139 150.466 198.327 150.523 198.52 150.536C198.751 150.553 198.983 150.519 199.2 150.437C199.416 150.355 199.612 150.228 199.775 150.062C199.918 149.893 200.014 149.689 200.054 149.471C200.093 149.253 200.074 149.028 199.999 148.82Z" fill="#DAE9F7"/>
<path d="M199.265 149.07C199.227 148.963 199.154 148.871 199.057 148.81C198.735 148.616 198.226 148.701 198.11 149.096C198.086 149.178 198.081 149.264 198.095 149.348C198.109 149.433 198.141 149.513 198.19 149.583C198.239 149.653 198.303 149.711 198.377 149.753C198.451 149.795 198.534 149.819 198.619 149.825C198.72 149.833 198.822 149.818 198.917 149.783C199.012 149.748 199.099 149.693 199.171 149.622C199.234 149.547 199.276 149.456 199.293 149.359C199.31 149.262 199.3 149.162 199.265 149.07Z" fill="white"/>
<path d="M206.423 150.366C206.338 150.12 206.171 149.911 205.95 149.774C205.216 149.334 204.056 149.537 203.791 150.425C203.736 150.611 203.724 150.806 203.755 150.998C203.785 151.189 203.859 151.371 203.97 151.53C204.08 151.689 204.225 151.821 204.394 151.917C204.563 152.012 204.751 152.069 204.944 152.082C205.175 152.098 205.407 152.065 205.623 151.983C205.84 151.901 206.036 151.773 206.198 151.608C206.342 151.439 206.439 151.235 206.478 151.017C206.518 150.799 206.499 150.574 206.423 150.366Z" fill="#DAE9F7"/>
<path d="M205.691 150.616C205.654 150.508 205.581 150.416 205.483 150.356C205.161 150.162 204.652 150.247 204.536 150.642C204.512 150.724 204.506 150.81 204.52 150.894C204.533 150.978 204.566 151.058 204.614 151.128C204.663 151.198 204.727 151.257 204.801 151.299C204.875 151.341 204.958 151.365 205.043 151.371C205.144 151.379 205.246 151.365 205.342 151.33C205.437 151.294 205.524 151.239 205.597 151.168C205.66 151.092 205.702 151.001 205.718 150.905C205.735 150.808 205.726 150.708 205.691 150.616Z" fill="white"/>
<path d="M210.376 156.751C210.292 156.504 210.125 156.295 209.902 156.159C209.169 155.717 208.009 155.908 207.744 156.808C207.689 156.994 207.676 157.189 207.707 157.381C207.738 157.572 207.811 157.754 207.922 157.913C208.033 158.072 208.178 158.204 208.346 158.3C208.515 158.395 208.703 158.452 208.896 158.464C209.127 158.482 209.359 158.448 209.576 158.367C209.793 158.285 209.989 158.157 210.151 157.991C210.295 157.823 210.391 157.619 210.431 157.401C210.47 157.184 210.451 156.959 210.376 156.751Z" fill="#DAE9F7"/>
<path d="M209.643 157.002C209.608 156.893 209.534 156.801 209.435 156.742C209.113 156.548 208.604 156.631 208.489 157.026C208.464 157.108 208.459 157.194 208.472 157.278C208.485 157.362 208.518 157.442 208.566 157.512C208.615 157.582 208.679 157.641 208.753 157.683C208.827 157.725 208.91 157.749 208.995 157.755C209.097 157.763 209.198 157.749 209.294 157.714C209.39 157.678 209.476 157.623 209.549 157.552C209.612 157.477 209.654 157.386 209.671 157.29C209.687 157.193 209.678 157.094 209.643 157.002Z" fill="white"/>
<path d="M222.988 154.923C222.903 154.678 222.736 154.47 222.515 154.334C221.783 153.891 220.621 154.083 220.356 154.983C220.301 155.169 220.289 155.365 220.32 155.556C220.351 155.748 220.424 155.93 220.535 156.089C220.646 156.248 220.791 156.38 220.96 156.475C221.129 156.571 221.318 156.627 221.511 156.639C221.741 156.657 221.972 156.625 222.189 156.546C222.405 156.466 222.602 156.341 222.766 156.178C222.91 156.007 223.007 155.801 223.046 155.581C223.085 155.36 223.065 155.133 222.988 154.923Z" fill="#DAE9F7"/>
<path d="M222.255 155.176C222.218 155.068 222.145 154.976 222.047 154.916C221.723 154.72 221.214 154.805 221.1 155.2C221.076 155.282 221.071 155.368 221.085 155.452C221.099 155.536 221.131 155.616 221.18 155.686C221.229 155.756 221.293 155.814 221.367 155.856C221.441 155.898 221.524 155.923 221.609 155.929C221.71 155.936 221.812 155.922 221.907 155.887C222.002 155.852 222.089 155.797 222.161 155.725C222.223 155.65 222.265 155.56 222.281 155.464C222.298 155.367 222.289 155.268 222.255 155.176Z" fill="white"/>
<path d="M228.435 147.041C228.349 146.796 228.182 146.587 227.962 146.45C227.228 146.009 226.068 146.201 225.801 147.1C225.746 147.286 225.734 147.482 225.765 147.674C225.796 147.865 225.87 148.047 225.981 148.206C226.092 148.365 226.237 148.497 226.406 148.592C226.574 148.688 226.762 148.744 226.956 148.757C227.187 148.774 227.419 148.74 227.635 148.659C227.852 148.577 228.048 148.449 228.21 148.284C228.354 148.115 228.45 147.911 228.489 147.693C228.529 147.475 228.51 147.25 228.435 147.041Z" fill="#DAE9F7"/>
<path d="M227.705 147.294C227.667 147.186 227.594 147.095 227.497 147.033C227.175 146.839 226.666 146.925 226.55 147.32C226.527 147.402 226.521 147.488 226.535 147.572C226.549 147.656 226.581 147.736 226.63 147.806C226.679 147.876 226.743 147.934 226.817 147.976C226.891 148.018 226.974 148.043 227.059 148.049C227.16 148.056 227.262 148.042 227.357 148.007C227.452 147.972 227.539 147.917 227.611 147.845C227.674 147.77 227.717 147.679 227.733 147.582C227.75 147.485 227.74 147.386 227.705 147.294Z" fill="white"/>
<path d="M170.069 150.645C169.984 150.4 169.817 150.192 169.596 150.056C168.864 149.613 167.702 149.805 167.437 150.704C167.382 150.89 167.37 151.086 167.401 151.278C167.432 151.469 167.505 151.651 167.616 151.81C167.727 151.97 167.873 152.102 168.041 152.197C168.21 152.292 168.399 152.348 168.592 152.361C168.823 152.378 169.055 152.344 169.271 152.262C169.488 152.18 169.684 152.053 169.847 151.888C169.989 151.718 170.085 151.514 170.124 151.296C170.163 151.078 170.144 150.854 170.069 150.645Z" fill="#DAE9F7"/>
<path d="M169.332 150.896C169.294 150.789 169.22 150.697 169.124 150.636C168.799 150.442 168.291 150.527 168.177 150.922C168.153 151.004 168.148 151.09 168.162 151.175C168.175 151.259 168.208 151.339 168.257 151.409C168.306 151.479 168.369 151.537 168.444 151.579C168.518 151.621 168.601 151.646 168.686 151.651C168.787 151.659 168.888 151.644 168.984 151.609C169.079 151.574 169.165 151.519 169.237 151.448C169.3 151.372 169.342 151.282 169.358 151.185C169.375 151.088 169.366 150.989 169.332 150.896Z" fill="white"/>
<path d="M203.829 130.737H203.355V146.869H203.829V130.737Z" fill="#EAEAEA"/>
<path d="M206.629 142.221C206.236 142.566 200.849 142.607 200.475 142.221C200.101 141.835 200.238 135.904 200.475 135.573C200.712 135.241 206.229 135.211 206.629 135.573C207.029 135.935 207.024 141.875 206.629 142.221Z" fill="#E8615B"/>
<path d="M168.567 117.445H168.094V139.229H168.567V117.445Z" fill="#EAEAEA"/>
<path d="M171.374 121.11C170.979 120.75 165.457 120.779 165.22 121.11C165.045 121.358 164.984 131.135 165.22 131.389C165.59 131.775 170.974 131.737 171.374 131.389C171.651 131.147 171.651 121.363 171.374 121.11Z" fill="#E8615B"/>
<path d="M221.457 123.701H220.984V150.812H221.457V123.701Z" fill="#EAEAEA"/>
<path d="M224.271 146.166C223.878 146.512 218.491 146.552 218.118 146.166C217.744 145.78 217.881 128.87 218.118 128.538C218.354 128.207 223.871 128.176 224.271 128.538C224.671 128.901 224.657 145.821 224.271 146.166Z" fill="#E8615B"/>
<path d="M150.938 124.441H150.465V144.952H150.938V124.441Z" fill="#EAEAEA"/>
<path d="M153.738 130.415C153.345 130.761 147.958 130.801 147.584 130.415C147.21 130.029 147.347 126.964 147.584 126.628C147.821 126.292 153.338 126.266 153.738 126.628C154.138 126.99 154.135 130.069 153.738 130.415Z" fill="#E8615B"/>
<path d="M142.124 124.17H141.65V140.302H142.124V124.17Z" fill="#EAEAEA"/>
<path d="M144.928 135.654C144.533 135.999 139.148 136.039 138.775 135.654C138.401 135.268 138.538 129.337 138.775 129.005C139.011 128.674 144.528 128.643 144.928 129.005C145.328 129.367 145.321 135.308 144.928 135.654Z" fill="#2DA18C"/>
<path d="M159.752 112.286H159.279V132.444H159.752V112.286Z" fill="#EAEAEA"/>
<path d="M162.56 127.798C162.165 128.144 156.778 128.184 156.407 127.798C156.035 127.412 156.17 115.231 156.407 114.897C156.644 114.563 162.16 114.537 162.56 114.897C162.96 115.257 162.953 127.453 162.56 127.798Z" fill="#2DA18C"/>
<path d="M212.643 122.073H212.17V154.817H212.643V122.073Z" fill="#162E4C"/>
<path d="M215.448 151.994C215.052 152.34 209.668 152.378 209.294 151.994C208.92 151.611 209.057 141.557 209.294 141.223C209.531 140.889 215.048 140.863 215.448 141.223C215.848 141.583 215.841 151.646 215.448 151.994Z" fill="#0E5C77"/>
<path d="M230.272 113.184H229.799V153.88H230.272V113.184Z" fill="#EAEAEA"/>
<path d="M233.076 135.237C232.681 135.583 227.297 135.623 226.923 135.237C226.549 134.851 226.686 124.8 226.923 124.468C227.159 124.137 232.676 124.106 233.076 124.468C233.476 124.83 233.469 134.884 233.076 135.237Z" fill="#2DA18C"/>
<path d="M177.386 125.667H176.912V138.803H177.386V125.667Z" fill="#EAEAEA"/>
<path d="M180.185 131.641C179.793 131.986 174.406 132.026 174.032 131.641C173.658 131.255 173.795 128.19 174.032 127.854C174.269 127.518 179.785 127.492 180.185 127.854C180.585 128.216 180.581 131.295 180.185 131.641Z" fill="#2DA18C"/>
<path d="M195.01 124.76H194.536V144.144H195.01V124.76Z" fill="#EAEAEA"/>
<path d="M197.814 136.982C197.421 137.328 192.034 137.368 191.661 136.982C191.287 136.597 191.424 133.532 191.661 133.196C191.897 132.859 197.414 132.833 197.814 133.196C198.214 133.558 198.209 136.637 197.814 136.982Z" fill="#2DA18C"/>
<path d="M133.309 129.03H132.836V150.44H133.309V129.03Z" fill="#EAEAEA"/>
<path d="M136.113 144.313C135.717 144.661 130.331 144.699 129.959 144.313C129.588 143.927 129.722 132.361 129.959 132.03C130.196 131.698 135.713 131.668 136.113 132.03C136.513 132.392 136.506 143.968 136.113 144.313Z" fill="#E8615B"/>
<path d="M186.2 123.315H185.727V147.485H186.2V123.315Z" fill="#EAEAEA"/>
<path d="M189.005 141.359C188.609 141.705 183.225 141.742 182.851 141.359C182.477 140.976 182.614 125.35 182.851 125.028C183.088 124.706 188.605 124.669 189.005 125.028C189.405 125.388 189.395 141.011 189.005 141.359Z" fill="#E8615B"/>
<path opacity="0.25" d="M228.927 109.547H216.648C219.402 109.547 222.043 110.641 223.991 112.588C225.938 114.536 227.032 117.177 227.032 119.931V163.135C227.032 165.889 225.938 168.53 223.991 170.478C222.043 172.425 219.402 173.519 216.648 173.519H228.927C231.681 173.519 234.322 172.425 236.27 170.478C238.217 168.53 239.311 165.889 239.311 163.135V119.817C239.281 117.083 238.174 114.471 236.23 112.548C234.285 110.625 231.661 109.547 228.927 109.547Z" fill="#2D7080"/>
<path d="M182.568 46.3545V66.781C182.568 66.781 175.904 87.3215 160.521 71.1629L159.152 54.8674L182.568 46.3545Z" fill="#EA9249"/>
<path d="M142.626 30.379C142.626 30.379 116.608 24.8558 132.675 2.67198C132.675 2.67198 135.436 14.4486 149.518 4.36089C156.685 -0.797083 167.32 -2.07516 179.188 4.36089C191.9 11.2078 196.328 32.3645 185.464 43.388L164.193 39.0973L142.626 30.379Z" fill="#1E394C"/>
<path d="M142.62 30.3765C142.62 30.3765 139.562 65.7291 162.978 63.424C181.237 61.621 180.575 47.8132 180.575 47.8132C180.575 47.8132 186.531 46.5807 186.851 41.2402C187.17 35.8996 185.459 31.4492 180.118 34.9639C180.118 34.9639 170.624 28.8473 170.008 24.5566C161.471 28.6467 152.082 30.6418 142.62 30.3765Z" fill="#F2BF75"/>
<path d="M173.601 182.264C173.045 183.079 172.835 184.081 173.014 185.051C173.194 186.022 173.749 186.882 174.559 187.445L178.53 190.663C179.249 191.34 180.207 191.706 181.195 191.68C182.182 191.655 183.12 191.24 183.803 190.526L196.264 175.006L184.35 165.877L171.387 175.006C171.175 175.153 171.002 175.349 170.882 175.578C170.763 175.806 170.7 176.061 170.7 176.318C170.7 176.576 170.763 176.83 170.882 177.059C171.002 177.287 171.175 177.484 171.387 177.631C172.033 178.033 172.804 178.187 173.555 178.064C174.88 177.94 176.105 177.311 176.979 176.307L173.601 182.264Z" fill="#F6BA8E"/>
<path d="M181.979 165.991L195.9 177.197C195.9 177.197 233.695 135.362 233.855 119.386C233.855 110.394 223.014 88.7351 216.167 77.0498H191.678C191.678 77.0498 209.161 103.365 214.501 115.986C214.993 117.167 215.18 118.453 215.044 119.725C214.909 120.998 214.455 122.215 213.725 123.266C207.289 132.578 188.437 159.76 181.979 165.991Z" fill="#CEE5ED"/>
<path d="M216.165 77.0498C216.165 77.0498 230.132 111.672 230.064 118.633C229.927 132.327 199.732 165.123 191.927 174.024L195.898 177.197C195.898 177.197 233.693 135.362 233.852 119.386C233.944 110.394 223.012 88.7351 216.165 77.0498Z" fill="#B4CCD3"/>
<path d="M210.802 109.136L210.117 109.547H146.875L146.031 109.25L205.37 107.744C205.37 107.744 197.656 86.3363 198.865 86.9525C200.075 87.5687 210.802 109.136 210.802 109.136Z" fill="#B4CCD3"/>
<path d="M152.913 58.2677C151.263 56.1506 150.271 53.5951 150.06 50.9187C149 50.9562 147.939 50.8409 146.911 50.5764C146.569 50.2112 147.778 40.443 147.55 38.7313C147.413 37.5217 146.774 32.8202 146.409 30.2412C144.811 30.2412 144.332 30.401 142.62 30.3781C142.62 30.3781 139.562 65.7308 162.978 63.4257C157.273 63.5169 155.333 60.9152 152.913 58.2677Z" fill="#EA9249"/>
<path d="M104.789 42.5177C104.093 38.6719 102.28 35.1162 99.5752 32.2953C96.8703 29.4744 93.3939 27.5134 89.5806 26.6574C85.7673 25.8015 81.7864 26.0886 78.1353 27.4828C74.4843 28.877 71.3252 31.3165 69.053 34.4963C66.7808 37.6761 65.4964 41.4551 65.3602 45.3609C65.224 49.2667 66.2422 53.126 68.2874 56.4563C70.3326 59.7866 73.3141 62.4402 76.8591 64.0853C80.4042 65.7304 84.3555 66.294 88.2192 65.7057L92.2816 70.4073L93.1261 64.2907C97.2382 62.5054 100.627 59.3841 102.744 55.4324C104.86 51.4807 105.581 46.9301 104.789 42.5177ZM75.1189 47.9039C74.6304 47.9085 74.1516 47.7677 73.7433 47.4997C73.3349 47.2316 73.0155 46.8482 72.8254 46.3982C72.6354 45.9483 72.5832 45.452 72.6758 44.9723C72.7683 44.4927 73.0012 44.0514 73.345 43.7044C73.6888 43.3574 74.128 43.1203 74.6067 43.0234C75.0855 42.9264 75.5822 42.9738 76.0339 43.1597C76.4857 43.3456 76.872 43.6615 77.1439 44.0673C77.4157 44.4731 77.5609 44.9506 77.5609 45.4391C77.5671 45.7675 77.507 46.0937 77.3842 46.3983C77.2613 46.703 77.0783 46.9797 76.846 47.2119C76.6138 47.4442 76.3371 47.6272 76.0325 47.75C75.7278 47.8728 75.4016 47.9329 75.0732 47.9267L75.1189 47.9039ZM84.9784 47.9039C84.4909 47.9039 84.0143 47.7594 83.6089 47.4885C83.2036 47.2177 82.8877 46.8327 82.7011 46.3823C82.5145 45.9319 82.4657 45.4363 82.5608 44.9582C82.6559 44.48 82.8907 44.0409 83.2354 43.6961C83.5801 43.3514 84.0193 43.1167 84.4974 43.0215C84.9756 42.9264 85.4712 42.9753 85.9216 43.1618C86.372 43.3484 86.757 43.6643 87.0278 44.0696C87.2987 44.475 87.4432 44.9516 87.4432 45.4391C87.4495 45.7694 87.3887 46.0976 87.2645 46.4038C87.1403 46.71 86.9552 46.9877 86.7205 47.2203C86.4858 47.4529 86.2063 47.6354 85.899 47.7568C85.5917 47.8783 85.263 47.9361 84.9327 47.9267L84.9784 47.9039ZM94.7237 47.9039C94.2362 47.9039 93.7597 47.7594 93.3543 47.4885C92.949 47.2177 92.633 46.8327 92.4464 46.3823C92.2599 45.9319 92.2111 45.4363 92.3062 44.9582C92.4013 44.48 92.6361 44.0409 92.9808 43.6961C93.3255 43.3514 93.7647 43.1167 94.2428 43.0215C94.721 42.9264 95.2166 42.9753 95.667 43.1618C96.1174 43.3484 96.5023 43.6643 96.7732 44.0696C97.044 44.475 97.1885 44.9516 97.1885 45.4391C97.1949 45.7694 97.1341 46.0976 97.0098 46.4038C96.8856 46.71 96.7006 46.9877 96.4659 47.2203C96.2312 47.4529 95.9517 47.6354 95.6444 47.7568C95.3371 47.8783 95.0084 47.9361 94.6781 47.9267L94.7237 47.9039Z" fill="#0E5C77"/>
<path d="M337.925 258.036C345.137 250.413 346.917 240.416 341.919 235.692C336.921 230.968 327.016 233.41 319.826 240.941C312.637 248.473 307.502 262.121 312.5 266.845C317.498 271.57 330.69 265.658 337.925 258.036Z" fill="#378897"/>
<path opacity="0.26" d="M341.869 235.694C340.261 234.239 338.194 233.392 336.027 233.298C336.271 233.469 336.5 233.659 336.711 233.868C341.71 238.57 339.93 248.589 332.74 256.212C327.331 261.941 318.499 266.711 312.337 266.688V266.847C317.335 271.572 330.595 265.661 337.761 258.038C344.928 250.415 346.868 240.419 341.869 235.694Z" fill="#0F2A3F"/>
<path d="M301.404 228.688C302.386 218.418 298.004 209.585 291.659 208.992C285.314 208.399 279.403 216.25 278.445 226.543C277.486 236.836 281.275 250.438 287.711 251.055C294.147 251.671 300.332 238.981 301.404 228.688Z" fill="#3AA29F"/>
<path opacity="0.25" d="M291.546 208.992C290.364 208.882 289.174 209.062 288.077 209.517C293.281 211.593 296.636 219.559 295.791 228.688C294.992 237.201 290.474 247.311 285.338 250.21C286.027 250.653 286.808 250.934 287.621 251.031C293.965 251.625 300.333 238.981 301.314 228.688C302.296 218.395 297.891 209.585 291.546 208.992Z" fill="#34648C"/>
<path d="M270.412 220.788C266.007 212.138 258.111 207.3 252.77 210.016C247.43 212.732 246.654 221.952 251.058 230.556C255.463 239.161 265.414 248.062 270.755 245.346C276.095 242.63 274.817 229.461 270.412 220.788Z" fill="#378897"/>
<path opacity="0.26" d="M270.409 220.788C266.004 212.138 258.107 207.3 252.766 210.016C251.723 210.599 250.818 211.401 250.113 212.366C249.408 213.331 248.92 214.436 248.681 215.608C249.17 215.136 249.723 214.737 250.324 214.421C255.665 211.705 263.562 216.543 267.967 225.193C271.048 231.287 272.531 239.617 271.39 244.981C275.955 241.534 274.608 229.073 270.409 220.788Z" fill="#0F2A3F"/>
<path d="M261.921 256.985C253.43 253.197 244.781 254.087 242.567 258.994C240.353 263.901 245.465 270.976 253.978 274.764C262.491 278.553 275.067 279.329 277.257 274.513C279.448 269.698 270.388 260.797 261.921 256.985Z" fill="#3AA29F"/>
<path opacity="0.25" d="M261.929 256.985C253.439 253.197 244.789 254.087 242.575 258.994C242.077 260.168 241.95 261.466 242.21 262.714C244.492 257.99 253.074 257.168 261.427 260.911C268.274 263.969 275.44 270.268 276.832 275.175C276.996 274.972 277.134 274.75 277.243 274.513C279.434 269.607 270.396 260.797 261.929 256.985Z" fill="#34648C"/>
<path d="M340.206 286.926C348.673 283.913 353.899 276.952 351.96 271.406C350.02 265.861 341.507 263.806 333.039 266.842C324.572 269.877 315.374 278.253 317.36 283.754C319.346 289.254 331.738 289.847 340.206 286.926Z" fill="#378897"/>
<path opacity="0.26" d="M351.96 271.408C351.463 270.195 350.701 269.108 349.729 268.227C348.758 267.347 347.602 266.695 346.345 266.319C347.362 267.148 348.148 268.225 348.628 269.446C350.613 275.014 345.341 281.952 336.874 284.965C331.046 287.043 324.721 287.282 318.752 285.65C322.61 289.393 332.948 289.553 340.297 286.928C348.673 283.915 353.9 276.954 351.96 271.408Z" fill="#0F2A3F"/>
<path d="M296.155 317.443C298.026 293.551 308.764 271.221 326.258 254.84C326.943 254.178 325.893 253.151 325.208 253.79C307.452 270.459 296.569 293.162 294.694 317.443C294.694 318.379 296.086 318.379 296.155 317.443Z" fill="#1E394C"/>
<path d="M290.815 314.021C291.479 284.483 282.007 255.608 263.976 232.201C263.428 231.471 262.15 232.201 262.72 232.955C280.607 256.136 290.007 284.749 289.355 314.021C289.355 314.215 289.432 314.401 289.569 314.538C289.706 314.675 289.891 314.752 290.085 314.752C290.279 314.752 290.465 314.675 290.601 314.538C290.738 314.401 290.815 314.215 290.815 314.021Z" fill="#1E394C"/>
<path d="M284.614 270.861C288.631 258.103 289.635 244.547 290.137 231.241C290.137 230.305 288.7 230.305 288.654 231.241C288.175 244.432 287.17 257.829 283.199 270.473C282.903 271.386 284.34 271.774 284.614 270.861Z" fill="#1E394C"/>
<path d="M261.788 268.397C269.113 272.745 276.85 276.361 284.884 279.193C285.774 279.535 286.162 278.12 285.295 277.778C277.361 274.979 269.718 271.417 262.472 267.142C261.673 266.64 260.943 267.895 261.742 268.397H261.788Z" fill="#1E394C"/>
<path d="M324.361 279.855C317.296 282.798 310.027 285.223 302.611 287.112C302.423 287.164 302.264 287.288 302.167 287.457C302.071 287.626 302.046 287.826 302.097 288.014C302.149 288.201 302.273 288.361 302.442 288.457C302.611 288.554 302.811 288.579 302.999 288.527C310.415 286.638 317.684 284.213 324.749 281.27C325.616 280.904 325.228 279.489 324.361 279.855Z" fill="#1E394C"/>
<path d="M266.188 310.616L270.638 351.036C270.913 353.477 272.077 355.731 273.908 357.369C275.74 359.006 278.11 359.912 280.566 359.914H306.333C308.786 359.907 311.15 358.998 312.977 357.361C314.803 355.724 315.964 353.473 316.238 351.036L320.689 310.616C320.75 310.098 320.701 309.572 320.544 309.073C320.387 308.575 320.127 308.116 319.78 307.725C319.432 307.335 319.006 307.023 318.53 306.809C318.053 306.595 317.537 306.485 317.014 306.485H269.885C269.362 306.485 268.845 306.596 268.367 306.809C267.889 307.023 267.462 307.335 267.113 307.724C266.764 308.114 266.501 308.573 266.342 309.072C266.183 309.57 266.13 310.096 266.188 310.616Z" fill="#CEE5ED"/>
<path d="M317.017 306.485H300.676C301.199 306.485 301.715 306.595 302.192 306.809C302.668 307.023 303.094 307.335 303.441 307.725C303.789 308.116 304.049 308.575 304.206 309.073C304.363 309.572 304.412 310.098 304.351 310.616L299.786 351.036C299.514 353.453 298.37 355.689 296.567 357.324C294.765 358.958 292.428 359.879 289.995 359.914H306.336C308.789 359.907 311.153 358.998 312.98 357.361C314.806 355.724 315.967 353.473 316.241 351.036L320.692 310.616C320.753 310.098 320.704 309.572 320.547 309.073C320.39 308.575 320.13 308.116 319.783 307.725C319.435 307.335 319.01 307.023 318.533 306.809C318.056 306.595 317.54 306.485 317.017 306.485Z" fill="#AAC6CE"/>
<defs>
<linearGradient id="paint0_linear_1662_7073" x1="193.382" y1="332.462" x2="193.382" y2="-64.6563" gradientUnits="userSpaceOnUse">
<stop stop-color="#3AA29F" stop-opacity="0"/>
<stop offset="0.13" stop-color="#3AA29F" stop-opacity="0.28"/>
<stop offset="0.31" stop-color="#3AA29F" stop-opacity="0.49"/>
<stop offset="0.52" stop-color="#3AA29F" stop-opacity="0.61"/>
<stop offset="0.75" stop-color="#3AA29F" stop-opacity="0.81"/>
<stop offset="1" stop-color="#3AA29F" stop-opacity="0.74"/>
</linearGradient>
</defs>
</svg>
