<svg width="408" height="380" viewBox="0 0 408 380" fill="none" xmlns="http://www.w3.org/2000/svg">
<path opacity="0.42" d="M92.5408 370.483H315.388C365.06 336.246 397.533 279.773 397.533 215.857C397.533 111.383 310.877 11.6963 203.976 11.6963C97.0751 11.6963 10.3958 111.383 10.3958 215.857C10.4187 279.773 42.8919 336.246 92.5408 370.483Z" fill="url(#paint0_linear_1662_7426)"/>
<path opacity="0.43" d="M204 379.093C316.666 379.093 408 375.494 408 371.055C408 366.615 316.666 363.017 204 363.017C91.3338 363.017 0 366.615 0 371.055C0 375.494 91.3338 379.093 204 379.093Z" fill="#CEE5ED"/>
<path d="M137.431 274.292H128.156V363.056H137.431V274.292Z" fill="#AAC6CE"/>
<path d="M137.431 274.292H128.156V286.773H137.431V274.292Z" fill="#85B0BA"/>
<path d="M95.3374 363.078H173.2C174.627 363.078 175.996 363.645 177.006 364.654C178.015 365.664 178.582 367.033 178.582 368.46V371.231H89.9558V368.46C89.9558 367.753 90.095 367.053 90.3655 366.4C90.6359 365.747 91.0323 365.154 91.5321 364.654C92.0318 364.155 92.6251 363.758 93.278 363.488C93.9309 363.217 94.6307 363.078 95.3374 363.078Z" fill="#AAC6CE"/>
<path d="M110.87 274.387H175.198C151.793 265.982 160.839 186.791 165.167 156.791C165.371 155.368 165.266 153.917 164.86 152.538C164.454 151.158 163.755 149.882 162.813 148.796C161.87 147.71 160.705 146.84 159.397 146.243C158.088 145.647 156.666 145.339 155.228 145.341H112.404C108.125 145.297 103.978 146.819 100.743 149.619C97.5085 152.42 95.4086 156.306 94.8391 160.547C91.0834 187.822 85.1521 244.364 96.9002 266.257C98.2697 268.754 100.294 270.83 102.755 272.263C105.217 273.695 108.022 274.429 110.87 274.387Z" fill="#AAC6CE"/>
<path d="M85.0074 97.8477C109.311 92.4152 124.609 68.3093 119.177 44.0056C113.744 19.702 89.6382 4.40391 65.3345 9.83642C41.0309 15.2689 25.7328 39.3748 31.1653 63.6785C36.5978 87.9821 60.7037 103.28 85.0074 97.8477Z" fill="#0E5C77"/>
<path d="M75.1608 90.6997C95.4857 90.6997 111.962 74.2231 111.962 53.8982C111.962 33.5733 95.4857 17.0967 75.1608 17.0967C54.8359 17.0967 38.3594 33.5733 38.3594 53.8982C38.3594 74.2231 54.8359 90.6997 75.1608 90.6997Z" fill="#BDDFE1"/>
<path d="M64.7123 66.4508C64.4109 66.4526 64.1121 66.3948 63.8331 66.2808C63.5541 66.1669 63.3004 65.9989 63.0864 65.7867C62.6599 65.3576 62.4204 64.7772 62.4204 64.1722C62.4204 63.5672 62.6599 62.9868 63.0864 62.5577L72.6819 52.9394V27.7256C72.6819 27.1183 72.923 26.5358 73.3525 26.1063C73.782 25.6768 74.3646 25.4355 74.9719 25.4355C75.5793 25.4355 76.1618 25.6768 76.5912 26.1063C77.0207 26.5358 77.262 27.1183 77.262 27.7256V53.9012C77.2638 54.2026 77.206 54.5014 77.0921 54.7804C76.9781 55.0594 76.8101 55.3132 76.5978 55.5272L66.3383 65.7867C66.1243 65.9989 65.8705 66.1669 65.5915 66.2808C65.3125 66.3948 65.0137 66.4526 64.7123 66.4508Z" fill="#0E5C77"/>
<path d="M79.972 53.2338C79.9766 52.1856 79.6696 51.1597 79.09 50.2862C78.5105 49.4128 77.6845 48.7312 76.7169 48.328C75.7494 47.9247 74.6839 47.818 73.6556 48.0214C72.6273 48.2248 71.6825 48.7291 70.9413 49.4703C70.2001 50.2115 69.6958 51.1562 69.4924 52.1845C69.289 53.2128 69.3957 54.2784 69.7989 55.246C70.2021 56.2135 70.8839 57.0395 71.7573 57.619C72.6308 58.1986 73.6567 58.5055 74.7049 58.501C76.1 58.495 77.4361 57.9381 78.4226 56.9516C79.4091 55.9652 79.966 54.6289 79.972 53.2338Z" fill="#0E5C77"/>
<path d="M331.874 95.8556H254.928C253.033 95.8556 251.215 96.6084 249.875 97.9484C248.535 99.2883 247.783 101.106 247.783 103.001V137.65C247.789 139.541 248.544 141.352 249.884 142.687C251.223 144.022 253.037 144.772 254.928 144.772H260.31V153.153C260.302 153.422 260.375 153.686 260.519 153.913C260.662 154.14 260.87 154.318 261.116 154.427C261.362 154.535 261.634 154.567 261.898 154.52C262.162 154.473 262.407 154.348 262.6 154.161L272.996 144.772H331.92C333.811 144.772 335.625 144.022 336.964 142.687C338.304 141.352 339.059 139.541 339.065 137.65V103.001C339.065 102.058 338.879 101.126 338.517 100.256C338.155 99.3859 337.625 98.5962 336.956 97.9321C336.288 97.268 335.495 96.7427 334.623 96.3863C333.751 96.0299 332.817 95.8496 331.874 95.8556Z" fill="#2D7080"/>
<path d="M274.699 124.002C276.431 124.002 277.836 122.598 277.836 120.865C277.836 119.132 276.431 117.728 274.699 117.728C272.966 117.728 271.561 119.132 271.561 120.865C271.561 122.598 272.966 124.002 274.699 124.002Z" fill="#F6FAFD"/>
<path d="M294.051 124.002C295.784 124.002 297.189 122.598 297.189 120.865C297.189 119.132 295.784 117.728 294.051 117.728C292.319 117.728 290.914 119.132 290.914 120.865C290.914 122.598 292.319 124.002 294.051 124.002Z" fill="#F6FAFD"/>
<path d="M312.115 124.002C313.848 124.002 315.253 122.598 315.253 120.865C315.253 119.132 313.848 117.728 312.115 117.728C310.383 117.728 308.978 119.132 308.978 120.865C308.978 122.598 310.383 124.002 312.115 124.002Z" fill="#F6FAFD"/>
<path d="M79.9431 188.992C79.9431 180.496 73.9431 172 66.569 172C59.195 172 53.1721 180.496 53.1721 188.992C53.1721 197.489 59.1721 204.336 66.569 204.336C73.966 204.336 79.9431 197.466 79.9431 188.992Z" fill="#2D7080"/>
<path opacity="0.25" d="M66.575 172C65.4017 172.016 64.2398 172.233 63.1399 172.641C68.8651 174.748 73.0789 181.802 73.0789 188.992C73.2087 192.197 72.3156 195.36 70.5288 198.024C68.7421 200.687 66.1543 202.714 63.1399 203.809C64.2515 204.158 65.4098 204.336 66.575 204.336C73.9491 204.336 79.9491 197.466 79.9491 188.992C79.9491 180.519 73.9491 172 66.575 172Z" fill="#34648C"/>
<path d="M51.3229 199.024L53.613 220.734C53.7596 222.046 54.3853 223.258 55.3699 224.137C56.3546 225.016 57.629 225.5 58.9489 225.498H72.6893C74.0107 225.505 75.2879 225.022 76.2736 224.142C77.2593 223.263 77.8834 222.048 78.0251 220.734L80.3152 199.024C80.3544 198.74 80.3323 198.45 80.2502 198.174C80.1681 197.899 80.028 197.644 79.8393 197.427C79.6505 197.21 79.4176 197.036 79.156 196.917C78.8945 196.797 78.6104 196.735 78.3228 196.734H53.2923C53.0056 196.734 52.7223 196.796 52.4616 196.916C52.201 197.036 51.9693 197.21 51.7823 197.428C51.5954 197.645 51.4575 197.9 51.3782 198.176C51.299 198.451 51.28 198.741 51.3229 199.024Z" fill="#CEE5ED"/>
<path d="M53.2923 200.055H78.6206C78.9875 200.057 79.3464 200.163 79.6548 200.362C79.9631 200.561 80.2082 200.844 80.361 201.177L80.6129 199.024C80.6521 198.74 80.63 198.45 80.5479 198.174C80.4658 197.899 80.3257 197.644 80.137 197.427C79.9483 197.21 79.7153 197.036 79.4538 196.917C79.1922 196.797 78.9081 196.735 78.6206 196.734H53.2923C53.0056 196.734 52.7223 196.796 52.4616 196.916C52.201 197.036 51.9693 197.21 51.7823 197.428C51.5954 197.645 51.4575 197.9 51.3782 198.176C51.299 198.451 51.28 198.741 51.3229 199.024L51.5518 201.177C51.7047 200.844 51.9499 200.561 52.2583 200.362C52.5666 200.163 52.9254 200.057 53.2923 200.055Z" fill="#AAC6CE"/>
<path d="M78.6152 196.797H69.8443C70.1311 196.797 70.4144 196.859 70.675 196.979C70.9356 197.098 71.1673 197.273 71.3543 197.49C71.5413 197.708 71.6791 197.963 71.7584 198.238C71.8377 198.514 71.8566 198.803 71.8137 199.087L69.4092 220.797C69.2678 222.107 68.6469 223.318 67.666 224.197C66.6852 225.077 65.4136 225.562 64.0962 225.56H72.8671C74.1884 225.568 75.4656 225.085 76.4513 224.205C77.4371 223.325 78.0612 222.111 78.203 220.797L80.4931 199.087C80.5315 198.811 80.5125 198.531 80.4372 198.263C80.3619 197.995 80.2318 197.746 80.0554 197.531C79.879 197.316 79.6601 197.139 79.4122 197.013C79.1643 196.887 78.8929 196.813 78.6152 196.797Z" fill="#AAC6CE"/>
<path d="M189.502 349.938L188.609 356.212L193.372 362.327L205.487 356.396L206.792 350.648L191.723 348.38L189.502 349.938Z" fill="#F2BF75"/>
<path d="M199.278 370.132L200.538 368.574C200.593 368.511 200.662 368.46 200.739 368.426C200.816 368.391 200.9 368.373 200.984 368.373C201.069 368.373 201.152 368.391 201.229 368.426C201.306 368.46 201.375 368.511 201.431 368.574L202.69 370.04C202.94 370.335 203.253 370.571 203.605 370.729C203.958 370.888 204.342 370.965 204.728 370.956L232.874 370.475C233.148 370.193 233.301 369.815 233.301 369.422C233.301 369.028 233.148 368.65 232.874 368.368C228.751 364.2 206.538 356.918 205.393 356.391C204.248 355.864 197.492 360.971 188.515 356.208C187.717 360.04 187.159 363.918 186.843 367.819C186.818 368.259 186.883 368.699 187.036 369.113C187.189 369.526 187.425 369.904 187.73 370.222C188.036 370.54 188.403 370.792 188.81 370.961C189.217 371.131 189.654 371.215 190.095 371.208L197.24 371.094C197.63 371.097 198.016 371.013 198.369 370.846C198.722 370.68 199.033 370.435 199.278 370.132Z" fill="#1E394C"/>
<path d="M137.865 243.88C137.865 243.88 126.185 256.796 147.598 270.834C162.598 280.681 174.414 277.704 183.85 283.658C184.962 284.274 185.909 285.15 186.611 286.21C187.313 287.271 187.748 288.485 187.88 289.75L188.361 350.116L189.506 350.689C192.303 352.086 195.381 352.829 198.508 352.86C201.634 352.892 204.727 352.212 207.552 350.872L216.071 281.918C216.369 277.177 213.781 273.17 210.872 269.437C194.498 248.62 165.552 241.567 158.201 240.376C148.674 238.864 137.865 243.88 137.865 243.88Z" fill="#1E394C"/>
<path d="M142.993 349.931L141.985 356.183L146.679 362.366L158.886 356.595L160.26 350.893L145.214 348.396L142.993 349.931Z" fill="#F2BF75"/>
<path d="M152.479 370.271L153.761 368.736C153.812 368.665 153.879 368.608 153.957 368.568C154.035 368.528 154.121 368.507 154.208 368.507C154.295 368.507 154.381 368.528 154.459 368.568C154.537 368.608 154.604 368.665 154.655 368.736L155.891 370.225C156.138 370.519 156.447 370.755 156.795 370.917C157.143 371.08 157.522 371.164 157.906 371.164H186.052C186.333 370.881 186.49 370.498 186.49 370.099C186.49 369.7 186.333 369.317 186.052 369.034C181.975 364.82 159.876 357.309 158.777 356.691C157.677 356.072 150.83 361.271 141.899 356.278C141.051 360.099 140.447 363.969 140.09 367.866C140.058 368.304 140.117 368.744 140.263 369.158C140.408 369.572 140.637 369.952 140.936 370.274C141.234 370.596 141.596 370.854 141.998 371.03C142.4 371.207 142.834 371.299 143.273 371.301H150.418C150.818 371.302 151.213 371.209 151.571 371.03C151.929 370.852 152.24 370.591 152.479 370.271Z" fill="#1E394C"/>
<path d="M102.367 232.639C102.367 232.639 88.1918 248.418 108.665 266.235C123.024 278.739 135.917 273.38 144.963 281.006C146.047 281.812 146.919 282.868 147.505 284.084C148.091 285.301 148.374 286.641 148.329 287.991L141.871 349.41L142.352 349.731C145.133 351.531 148.327 352.594 151.633 352.818C154.938 353.042 158.246 352.421 161.245 351.014L177.276 286.296C178.261 281.349 176.154 276.769 173.589 272.418C159.39 248.212 137.085 233.762 129.551 231.449C119.726 228.449 102.367 232.639 102.367 232.639Z" fill="#1E394C"/>
<path d="M180.462 281.921C179.387 281.471 178.286 281.089 177.164 280.776C176.426 277.813 175.212 274.99 173.568 272.417C167.139 261.602 158.914 251.96 149.248 243.906C154.378 243.036 156.988 241.936 158.408 240.494C163.636 241.457 168.776 242.851 173.774 244.662C180.736 256.295 180.713 275.188 180.462 281.921Z" fill="#0F2A3F"/>
<path d="M140.471 149.094C140.471 149.094 120.043 146.392 111.57 162.285C103.097 178.178 90.4097 240.56 101.494 242.437C106.394 243.285 119.471 246.583 133.967 245.506C153.914 244.063 158.242 242.231 159.662 238.43L172.372 180.308C172.547 176.349 171.762 172.407 170.083 168.818C168.404 165.229 165.881 162.099 162.73 159.697C156.006 154.857 148.466 151.266 140.471 149.094Z" fill="#CEE5ED"/>
<path d="M172.281 175.248C172.281 175.248 172.556 210.24 183.571 212.37C194.587 214.5 223.877 213.836 223.877 213.836V224.966H161.014L172.281 175.248Z" fill="#AAC6CE"/>
<path d="M157.081 159.376L159.554 146.987L143.524 134.758L140.455 149.346C140.455 149.346 145.493 171.628 157.081 159.376Z" fill="#EA9249"/>
<path d="M177.55 123.401C177.55 123.401 169.168 127.477 156.939 119.988C154.137 124.13 150.311 127.475 145.832 129.698C145.832 129.698 141.55 122.508 139.099 127.889C138.431 129.265 138.042 130.759 137.954 132.286C130.237 122.324 135.664 109.179 142.878 102.08C149.748 95.3702 164.473 98.0267 173.702 101.737C183.504 105.676 185.313 98.8282 185.313 98.8282C197.588 116.256 177.55 123.401 177.55 123.401Z" fill="#1E394C"/>
<path d="M145.742 129.698C145.742 129.698 141.46 122.507 138.872 127.889C135.895 134.416 139.261 138.515 143.315 138.515C143.315 138.515 146.544 155.507 162.139 154.294C177.735 153.08 180.002 128.049 177.437 123.401C177.437 123.401 169.032 127.477 156.826 119.988C154.031 124.127 150.213 127.472 145.742 129.698Z" fill="#F2BF75"/>
<path d="M281.017 169.432H215.864C214.306 169.428 212.795 169.964 211.588 170.95C210.381 171.935 209.553 173.309 209.246 174.836L200.589 217.34H279.505L287.635 177.539C287.815 176.559 287.779 175.553 287.531 174.589C287.283 173.625 286.829 172.727 286.199 171.956C285.57 171.185 284.78 170.56 283.886 170.124C282.991 169.688 282.012 169.452 281.017 169.432Z" fill="#80A9B2"/>
<path d="M279.281 217.345H171.602C169.831 217.345 168.396 218.78 168.396 220.551V221.604C168.396 223.375 169.831 224.81 171.602 224.81H279.281C281.052 224.81 282.487 223.375 282.487 221.604V220.551C282.487 218.78 281.052 217.345 279.281 217.345Z" fill="#80A9B2"/>
<path d="M279.254 217.345H199.72C200.57 217.345 201.386 217.683 201.987 218.284C202.588 218.885 202.926 219.701 202.926 220.551V221.604C202.926 222.455 202.588 223.27 201.987 223.871C201.386 224.473 200.57 224.81 199.72 224.81H279.254C280.107 224.81 280.924 224.473 281.529 223.873C282.134 223.272 282.477 222.457 282.483 221.604V220.551C282.477 219.698 282.134 218.883 281.529 218.282C280.924 217.682 280.107 217.345 279.254 217.345Z" fill="#AAC6CE"/>
<path d="M174.981 215.056C162.294 213.591 126.729 209.949 120.615 209.331C112.943 208.53 129.638 177.499 131.493 166.896C133.348 156.293 125.264 155.904 125.264 155.904C122.59 155.395 119.824 155.74 117.358 156.891C114.892 158.042 112.85 159.94 111.523 162.316C102.844 175.484 93.2026 213.911 98.2636 223.415C98.5602 223.957 98.9976 224.409 99.5296 224.724C100.062 225.038 100.669 225.203 101.287 225.201H174.981V215.056Z" fill="#CEE5ED"/>
<path d="M174.981 215.052C174.981 215.052 129.18 211.915 119.287 210.472C111.638 209.441 127.6 177.655 129.455 166.96C131.31 156.266 123.088 156.792 123.088 156.792C120.686 156.585 118.266 156.809 115.943 157.456C118.722 155.729 122.046 155.1 125.264 155.693C125.264 155.693 133.348 156.082 131.493 166.685C129.638 177.289 115.325 207.655 120.157 208.846C126.203 210.518 162.386 213.586 174.981 215.052Z" fill="#AAC6CE"/>
<path d="M174.985 225.351H192.069C192.361 225.355 192.649 225.278 192.901 225.13C193.153 224.982 193.359 224.768 193.498 224.511C193.638 224.254 193.704 223.964 193.69 223.672C193.676 223.38 193.583 223.097 193.42 222.855C191.817 220.404 189.298 216.923 187.443 216.351C183.289 216.116 179.124 216.208 174.985 216.626V225.351Z" fill="#F2BF75"/>
<path opacity="0.67" d="M177.551 123.397C176.315 123.906 175.011 124.231 173.681 124.359C173.475 125.504 173.108 127.726 172.902 129.833C172.628 132.855 174.116 142.153 173.2 142.222C172.246 142.27 171.291 142.27 170.337 142.222C170.337 142.222 168.895 155.665 155.452 153.535H155.108C157.397 154.35 159.835 154.654 162.253 154.428C177.872 153.1 180.116 128.046 177.551 123.397Z" fill="#EA9249"/>
<path d="M373.424 318.882C373.424 318.882 394.882 308.233 389.042 292.111C383.202 275.989 379.607 275.279 390.76 266.188C401.912 257.096 418.057 234.241 397.63 232.523C377.202 230.806 378.233 257.943 361.241 261.722C344.248 265.501 334.974 336.562 373.424 318.882Z" fill="#67B8EF"/>
<path opacity="0.25" d="M356.545 320.483C360.667 322.384 366.209 322.2 373.423 318.88C373.423 318.88 394.88 308.231 389.041 292.109C383.201 275.987 379.606 275.277 390.758 266.185C401.911 257.094 418.056 234.239 397.629 232.521C395.807 232.358 393.971 232.458 392.178 232.819C397.949 235.109 403.629 239.941 396.255 248.712C383.957 263.323 377.384 268.452 378.804 277.91C380.224 287.368 379.4 308.025 356.545 320.483Z" fill="#34648C"/>
<path d="M337.027 318.383C337.027 318.383 318.134 317.696 319.165 304.116C320.195 290.536 320.722 290.032 308.859 285.795C287.928 278.238 304.508 238.024 321.569 263.307C333.409 280.871 338.562 276.91 346.302 278.284C354.042 279.658 370.852 324.383 337.027 318.383Z" fill="#67B8EF"/>
<path opacity="0.29" d="M346.301 278.235C338.56 276.861 333.408 280.823 321.568 263.258C312.637 250.021 303.843 254.739 300.499 263.258C305.515 261.724 313.14 260.785 314.102 268.983C315.339 279.586 340.163 297.014 339.66 318.678H340.621C344.24 309.151 349.003 296.808 353.079 286.273C350.904 281.922 348.293 278.602 346.301 278.235Z" fill="#34648C"/>
<path d="M341.408 317.76C341.408 317.76 317.98 294.859 325.95 290.989C333.919 287.119 349.652 299.737 340.904 286.088C332.156 272.439 321.942 251.187 334.034 254.531C346.126 257.874 346.996 261.561 345.484 245.668C343.538 225.057 355.011 214.5 365.82 221.187C376.629 227.874 356.66 273.218 364.034 268.317C371.408 263.416 377.774 259.317 379.217 265.225C380.66 271.134 357.828 294.424 366.347 290.416C376.904 285.538 378.438 294.286 375.095 299.577C371.751 304.867 357.896 337.34 341.408 317.76Z" fill="#34648C"/>
<path opacity="0.48" d="M375.138 299.732C378.482 294.328 376.947 285.58 366.39 290.572C357.871 294.534 380.817 271.267 379.26 265.381C377.703 259.496 371.543 263.595 364.077 268.473C356.611 273.351 376.695 228.053 365.863 221.343C363.746 219.867 361.178 219.178 358.606 219.395C356.034 219.613 353.619 220.723 351.779 222.534C357.39 223.908 361.879 228.396 358.65 240.58C352.077 266.32 348.047 287.801 360.092 281.503C371.405 275.572 346.924 302.915 346.672 322.61C360.848 330.488 372.161 304.541 375.138 299.732Z" fill="#1E394C"/>
<path d="M325.17 320.464L329.75 361.525C330.031 364.003 331.213 366.291 333.071 367.955C334.928 369.618 337.333 370.541 339.827 370.548H366.002C368.497 370.546 370.905 369.625 372.764 367.961C374.622 366.296 375.803 364.005 376.079 361.525L380.659 320.464C380.717 319.936 380.663 319.402 380.5 318.896C380.338 318.391 380.071 317.925 379.717 317.53C379.362 317.134 378.929 316.818 378.444 316.601C377.959 316.385 377.434 316.273 376.903 316.273H328.926C328.395 316.273 327.87 316.385 327.385 316.601C326.9 316.818 326.467 317.134 326.112 317.53C325.758 317.925 325.491 318.391 325.329 318.896C325.166 319.402 325.112 319.936 325.17 320.464Z" fill="#CEE5ED"/>
<path d="M376.813 316.273H360.21C360.741 316.273 361.266 316.385 361.751 316.601C362.235 316.818 362.669 317.134 363.024 317.53C363.378 317.925 363.645 318.391 363.807 318.896C363.97 319.402 364.024 319.936 363.966 320.464L359.385 361.525C359.109 364.005 357.929 366.296 356.07 367.961C354.211 369.625 351.804 370.546 349.309 370.548H365.912C368.407 370.546 370.814 369.625 372.673 367.961C374.532 366.296 375.713 364.005 375.989 361.525L380.569 320.464C380.627 319.936 380.573 319.402 380.41 318.896C380.248 318.391 379.981 317.925 379.627 317.53C379.272 317.134 378.838 316.818 378.354 316.601C377.869 316.385 377.344 316.273 376.813 316.273Z" fill="#AAC6CE"/>
<path d="M325.908 225.244H45.2366C42.0873 225.244 39.5342 227.797 39.5342 230.946V232.801C39.5342 235.95 42.0873 238.503 45.2366 238.503H325.908C329.058 238.503 331.611 235.95 331.611 232.801V230.946C331.611 227.797 329.058 225.244 325.908 225.244Z" fill="#3E8CCC"/>
<path d="M325.908 225.244H45.2366C43.7242 225.244 42.2737 225.844 41.2044 226.914C40.135 227.983 39.5342 229.434 39.5342 230.946V232.778C39.5382 233.371 39.6387 233.958 39.8319 234.519C40.1922 233.366 40.9104 232.358 41.8823 231.642C42.8541 230.925 44.0291 230.537 45.2366 230.534H325.908C327.116 230.537 328.291 230.925 329.263 231.642C330.234 232.358 330.953 233.366 331.313 234.519C331.506 233.958 331.607 233.371 331.611 232.778V230.946C331.614 230.196 331.468 229.453 331.183 228.76C330.897 228.067 330.477 227.437 329.947 226.907C329.417 226.377 328.787 225.957 328.094 225.672C327.401 225.386 326.658 225.241 325.908 225.244Z" fill="#2173AA"/>
<path d="M133.944 370.75H124.555L59.3103 238.543H68.6768L133.944 370.75Z" fill="#34648C"/>
<path d="M30.6682 370.75H40.0576L105.325 238.543H95.9354L30.6682 370.75Z" fill="#34648C"/>
<path d="M336 370.75H326.61L261.366 238.543H270.732L336 370.75Z" fill="#34648C"/>
<path d="M232.719 370.75H242.109L307.376 238.543H297.987L232.719 370.75Z" fill="#34648C"/>
<path d="M71.2646 243.788L68.6768 238.543H59.3103L61.8981 243.788H71.2646Z" fill="#1A3651"/>
<path d="M102.738 243.788L105.325 238.543H95.9359L93.3481 243.788H102.738Z" fill="#1A3651"/>
<path d="M273.32 243.788L270.732 238.543H261.366L263.954 243.788H273.32Z" fill="#1A3651"/>
<path d="M304.784 243.788L307.372 238.543H297.983L295.395 243.788H304.784Z" fill="#1A3651"/>
<defs>
<linearGradient id="paint0_linear_1662_7426" x1="203.999" y1="343.002" x2="203.999" y2="-55.4717" gradientUnits="userSpaceOnUse">
<stop stop-color="#3AA29F" stop-opacity="0"/>
<stop offset="0.13" stop-color="#3AA29F" stop-opacity="0.28"/>
<stop offset="0.31" stop-color="#3AA29F" stop-opacity="0.49"/>
<stop offset="0.52" stop-color="#3AA29F" stop-opacity="0.61"/>
<stop offset="0.75" stop-color="#3AA29F" stop-opacity="0.81"/>
<stop offset="1" stop-color="#3AA29F" stop-opacity="0.74"/>
</linearGradient>
</defs>
</svg>
