<svg width="20" height="20" viewBox="0 0 20 20" fill="none" xmlns="http://www.w3.org/2000/svg">
<g clip-path="url(#clip0_6667_31543)">
<path d="M18.1329 2.7923H14.5395V1.61705C14.5395 1.45533 14.4079 1.32422 14.2456 1.32422C14.0833 1.32422 13.9517 1.45533 13.9517 1.61705V2.7923H12.7344C12.5721 2.7923 12.4405 2.92341 12.4405 3.08513C12.4405 3.24685 12.5721 3.37796 12.7344 3.37796H13.9517V4.61791H13.7312C13.4232 4.61791 13.1726 4.8676 13.1726 5.17444V8.62178C13.1726 8.92866 13.4232 9.17831 13.7312 9.17831H13.9517V11.5015C13.9517 11.6632 14.0833 11.7943 14.2456 11.7943C14.4079 11.7943 14.5395 11.6632 14.5395 11.5015V9.17831H14.7601C15.068 9.17831 15.3186 8.92862 15.3186 8.62178V5.17444C15.3186 4.86756 15.068 4.61791 14.7601 4.61791H14.5395V3.37796H18.1329C18.839 3.37796 19.4136 3.95042 19.4136 4.65407V14.6764H0.587761V4.65411C0.587761 3.95046 1.16228 3.378 1.86845 3.378H7.02006V3.94948H6.79949C6.49151 3.94948 6.24096 4.19917 6.24096 4.50601V7.95335C6.24096 8.26023 6.49155 8.50988 6.79949 8.50988H7.02006V11.0974C7.02006 11.2591 7.15164 11.3903 7.31394 11.3903C7.47624 11.3903 7.60782 11.2591 7.60782 11.0974V8.50988H7.82839C8.13638 8.50988 8.38692 8.26019 8.38692 7.95335V4.50601C8.38692 4.19913 8.13634 3.94948 7.82839 3.94948H7.60782V3.37796H8.82515C8.98745 3.37796 9.11903 3.24685 9.11903 3.08513C9.11903 2.92341 8.98745 2.7923 8.82515 2.7923H7.60782V2.64769C7.60782 2.48597 7.47624 2.35486 7.31394 2.35486C7.15164 2.35486 7.02006 2.48597 7.02006 2.64769V2.7923H1.86845C0.838187 2.7923 0 3.62749 0 4.65407V14.9692C0 15.9958 0.838187 16.831 1.86845 16.831H6.34206V18.3199L5.39486 19.4147H5.01889C4.85659 19.4147 4.72501 19.5458 4.72501 19.7075C4.72501 19.8692 4.85659 20.0003 5.01889 20.0003H14.9553C15.1176 20.0003 15.2492 19.8692 15.2492 19.7075C15.2492 19.5458 15.1176 19.4147 14.9553 19.4147H14.6064L13.6592 18.3199V16.831H18.1329C19.1631 16.831 20.0013 15.9958 20.0013 14.9692V4.65411C20.0013 3.62753 19.1631 2.7923 18.1329 2.7923ZM14.7308 8.59273H13.7604V5.20361H14.7309V8.59273H14.7308ZM7.79916 7.92422H6.82869V4.53514H7.79916V7.92422ZM18.1329 16.2453H12.1851C12.0227 16.2453 11.8912 16.3765 11.8912 16.5382C11.8912 16.6999 12.0227 16.831 12.1851 16.831H13.0715V18.1359H12.3394C12.1771 18.1359 12.0455 18.267 12.0455 18.4287C12.0455 18.5904 12.1771 18.7215 12.3394 18.7215H13.2307L13.8304 19.4147H6.1709L6.77061 18.7215H7.66186C7.82416 18.7215 7.95574 18.5904 7.95574 18.4287C7.95574 18.267 7.82416 18.1359 7.66186 18.1359H6.92982V16.831H10.9326C11.095 16.831 11.2265 16.6999 11.2265 16.5382C11.2265 16.3765 11.095 16.2453 10.9326 16.2453H1.86845C1.26341 16.2453 0.75539 15.825 0.622165 15.2621H19.3791C19.2459 15.825 18.7379 16.2453 18.1329 16.2453Z" fill="#424242"/>
<path d="M3.06873 8.5505C2.90643 8.5505 2.77485 8.68161 2.77485 8.84333V9.55026C2.77485 9.85714 3.02539 10.1068 3.33338 10.1068H3.55395V11.6662C3.55395 11.828 3.68553 11.9591 3.84783 11.9591C4.01013 11.9591 4.14171 11.828 4.14171 11.6662V10.1068H4.36227C4.67026 10.1068 4.9208 9.85714 4.9208 9.55026V6.10292C4.9208 5.79604 4.67022 5.54635 4.36227 5.54635H4.14171V5.07798C4.14171 4.91627 4.01013 4.78516 3.84783 4.78516C3.68553 4.78516 3.55395 4.91627 3.55395 5.07798V5.54635H3.33338C3.02539 5.54635 2.77485 5.79604 2.77485 6.10292V7.59541C2.77485 7.75713 2.90643 7.88824 3.06873 7.88824C3.23103 7.88824 3.36261 7.75713 3.36261 7.59541V6.13205H3.84747H3.84787C3.84787 6.13205 3.8481 6.13205 3.84826 6.13205H4.33312V9.52117H3.36261V8.84337C3.36261 8.68161 3.23103 8.5505 3.06873 8.5505Z" fill="#424242"/>
<path d="M10.2652 7.9314H10.4858V9.4908C10.4858 9.65252 10.6174 9.78363 10.7797 9.78363C10.9421 9.78363 11.0736 9.65252 11.0736 9.4908V7.9314H11.2942C11.6021 7.9314 11.8527 7.68171 11.8527 7.37483V5.078C11.8527 4.91628 11.7212 4.78517 11.5588 4.78517C11.3965 4.78517 11.2649 4.91628 11.2649 5.078V7.34574H10.2945V2.04347H11.2649V3.83008C11.2649 3.9918 11.3965 4.12291 11.5588 4.12291C11.7212 4.12291 11.8527 3.9918 11.8527 3.83008V2.01435C11.8527 1.7075 11.6021 1.45782 11.2942 1.45782H11.0736V0.292828C11.0736 0.131109 10.9421 0 10.7797 0C10.6174 0 10.4858 0.131109 10.4858 0.292828V1.45782H10.2652C9.95725 1.45782 9.70671 1.7075 9.70671 2.01435V7.37483C9.70671 7.68175 9.95725 7.9314 10.2652 7.9314Z" fill="#424242"/>
<path d="M15.9418 8.03135C15.9949 8.12951 16.0961 8.18526 16.2007 8.18526C16.2478 8.18526 16.2956 8.17394 16.3399 8.15012L17.6936 7.42285L17.5963 7.6775C17.5385 7.82863 17.6146 7.99781 17.7663 8.0554C17.8007 8.06844 17.8361 8.07465 17.8709 8.07465C17.9892 8.07465 18.1009 8.00281 18.1455 7.88599L18.4764 7.02055C18.5342 6.86941 18.4581 6.70023 18.3064 6.64264L17.3845 6.29269C17.2329 6.23514 17.063 6.31096 17.0052 6.4621C16.9474 6.61324 17.0236 6.78242 17.1753 6.84001L17.389 6.92114L16.061 7.63463C15.9181 7.71139 15.8648 7.889 15.9418 8.03135Z" fill="#424242"/>
<path d="M1.73763 13.7484C1.78535 13.8595 1.89386 13.9261 2.00792 13.9261C2.04648 13.9261 2.0857 13.9185 2.12343 13.9024L5.91559 12.2853L6.26021 13.1849C6.29039 13.2637 6.35312 13.3257 6.43239 13.355C6.51162 13.3843 6.59978 13.3783 6.67423 13.3383L12.9391 9.9725C13.082 9.89574 13.1354 9.71813 13.0583 9.57578C12.9813 9.43346 12.8031 9.38025 12.6602 9.45701L6.68995 12.6645L6.35567 11.7917C6.32714 11.7173 6.26942 11.6576 6.1958 11.6265C6.12217 11.5954 6.03902 11.5956 5.96547 11.6269L1.89217 13.364C1.743 13.4276 1.6738 13.5997 1.73763 13.7484Z" fill="#424242"/>
</g>
<defs>
<clipPath id="clip0_6667_31543">
<rect width="20" height="20" fill="white"/>
</clipPath>
</defs>
</svg>
