<svg width="24" height="24" viewBox="0 0 24 24" fill="none" xmlns="http://www.w3.org/2000/svg">
<g clip-path="url(#clip0_4236_33470)">
<path d="M0.5 12C0.5 5.65908 5.65908 0.5 12 0.5C18.3409 0.5 23.5 5.65908 23.5 12C23.5 18.3409 18.3409 23.5 12 23.5C5.65908 23.5 0.5 18.3409 0.5 12Z" stroke="#DADADA"/>
<path d="M18.0784 9.45337L11.5783 15.9532C11.3833 16.1483 11.1273 16.2464 10.8713 16.2464C10.6154 16.2464 10.3594 16.1483 10.1644 15.9532L6.91443 12.7033C6.52332 12.3124 6.52332 11.6803 6.91443 11.2894C7.30536 10.8983 7.93726 10.8983 8.32837 11.2894L10.8713 13.8323L16.6644 8.03943C17.0554 7.64832 17.6873 7.64832 18.0784 8.03943C18.4693 8.43036 18.4693 9.06226 18.0784 9.45337Z" fill="#FAFAFA"/>
</g>
<defs>
<clipPath id="clip0_4236_33470">
<rect width="24" height="24" fill="white"/>
</clipPath>
</defs>
</svg>
