<svg width="20" height="20" viewBox="0 0 20 20" fill="none" xmlns="http://www.w3.org/2000/svg">
<g clip-path="url(#clip0_7015_31185)">
<path fill-rule="evenodd" clip-rule="evenodd" d="M19.5345 11.0009C19.7694 10.9855 19.9721 11.1667 19.9872 11.4056C20.0474 12.355 19.9086 13.7853 19.2731 14.9967C18.6225 16.2369 17.4482 17.2416 15.5132 17.2416H1.45509L3.43977 19.2601C3.60621 19.4293 3.60621 19.7038 3.43977 19.873C3.27334 20.0423 3.00349 20.0423 2.83706 19.873L0.124827 17.1146C-0.041609 16.9454 -0.041609 16.6709 0.124827 16.5017L2.83706 13.7432C3.00349 13.574 3.27334 13.574 3.43977 13.7432C3.60621 13.9125 3.60621 14.187 3.43977 14.3562L1.45509 16.3747H15.5132C17.0898 16.3747 17.9968 15.5878 18.5211 14.5886C19.0604 13.5605 19.19 12.3035 19.1366 11.4614C19.1215 11.2225 19.2996 11.0163 19.5345 11.0009Z" fill="#424242"/>
<path fill-rule="evenodd" clip-rule="evenodd" d="M0.465517 8.99909C0.230631 9.0145 0.0279312 8.83333 0.0127773 8.59445C-0.0474491 7.64504 0.0914135 6.21469 0.726915 5.00333C1.37755 3.76312 2.55176 2.75841 4.48684 2.75841H18.5449L16.5602 0.739933C16.3938 0.570663 16.3938 0.296223 16.5602 0.126953C16.7267 -0.0423174 16.9965 -0.0423174 17.1629 0.126953L19.8752 2.88536C20.0416 3.05463 20.0416 3.32907 19.8752 3.49834L17.1629 6.25676C16.9965 6.42603 16.7267 6.42603 16.5602 6.25676C16.3938 6.08749 16.3938 5.81305 16.5602 5.64378L18.5449 3.6253H4.48684C2.91016 3.6253 2.00316 4.41215 1.47894 5.4114C0.93959 6.43949 0.809958 7.69648 0.86338 8.53864C0.878534 8.77752 0.700405 8.98367 0.465517 8.99909Z" fill="#424242"/>
</g>
<defs>
<clipPath id="clip0_7015_31185">
<rect width="20" height="20" fill="white"/>
</clipPath>
</defs>
</svg>
