<svg width="40" height="40" viewBox="0 0 40 40" fill="none" xmlns="http://www.w3.org/2000/svg">
<rect width="40" height="40" rx="2" fill="#FF5630"/>
<path d="M25 19H24C23.7348 19 23.4804 19.1054 23.2929 19.2929C23.1054 19.4804 23 19.7348 23 20C23 20.2652 23.1054 20.5196 23.2929 20.7071C23.4804 20.8946 23.7348 21 24 21H25C25.2652 21 25.5196 20.8946 25.7071 20.7071C25.8946 20.5196 26 20.2652 26 20C26 19.7348 25.8946 19.4804 25.7071 19.2929C25.5196 19.1054 25.2652 19 25 19ZM25 23H24C23.7348 23 23.4804 23.1054 23.2929 23.2929C23.1054 23.4804 23 23.7348 23 24C23 24.2652 23.1054 24.5196 23.2929 24.7071C23.4804 24.8946 23.7348 25 24 25H25C25.2652 25 25.5196 24.8946 25.7071 24.7071C25.8946 24.5196 26 24.2652 26 24C26 23.7348 25.8946 23.4804 25.7071 23.2929C25.5196 23.1054 25.2652 23 25 23ZM19 17H25C25.2652 17 25.5196 16.8946 25.7071 16.7071C25.8946 16.5196 26 16.2652 26 16C26 15.7348 25.8946 15.4804 25.7071 15.2929C25.5196 15.1054 25.2652 15 25 15H19C18.7348 15 18.4804 15.1054 18.2929 15.2929C18.1054 15.4804 18 15.7348 18 16C18 16.2652 18.1054 16.5196 18.2929 16.7071C18.4804 16.8946 18.7348 17 19 17V17ZM29 11H15C14.7348 11 14.4804 11.1054 14.2929 11.2929C14.1054 11.4804 14 11.7348 14 12V15H11C10.7348 15 10.4804 15.1054 10.2929 15.2929C10.1054 15.4804 10 15.7348 10 16V26C10 26.7956 10.3161 27.5587 10.8787 28.1213C11.4413 28.6839 12.2044 29 13 29H26C27.0609 29 28.0783 28.5786 28.8284 27.8284C29.5786 27.0783 30 26.0609 30 25V12C30 11.7348 29.8946 11.4804 29.7071 11.2929C29.5196 11.1054 29.2652 11 29 11V11ZM14 26C14 26.2652 13.8946 26.5196 13.7071 26.7071C13.5196 26.8946 13.2652 27 13 27C12.7348 27 12.4804 26.8946 12.2929 26.7071C12.1054 26.5196 12 26.2652 12 26V17H14V26ZM28 25C28 25.5304 27.7893 26.0391 27.4142 26.4142C27.0391 26.7893 26.5304 27 26 27H15.82C15.9364 26.6793 15.9973 26.3411 16 26V13H28V25ZM19 21H20C20.2652 21 20.5196 20.8946 20.7071 20.7071C20.8946 20.5196 21 20.2652 21 20C21 19.7348 20.8946 19.4804 20.7071 19.2929C20.5196 19.1054 20.2652 19 20 19H19C18.7348 19 18.4804 19.1054 18.2929 19.2929C18.1054 19.4804 18 19.7348 18 20C18 20.2652 18.1054 20.5196 18.2929 20.7071C18.4804 20.8946 18.7348 21 19 21V21ZM19 25H20C20.2652 25 20.5196 24.8946 20.7071 24.7071C20.8946 24.5196 21 24.2652 21 24C21 23.7348 20.8946 23.4804 20.7071 23.2929C20.5196 23.1054 20.2652 23 20 23H19C18.7348 23 18.4804 23.1054 18.2929 23.2929C18.1054 23.4804 18 23.7348 18 24C18 24.2652 18.1054 24.5196 18.2929 24.7071C18.4804 24.8946 18.7348 25 19 25V25Z" fill="white"/>
</svg>
