<svg width="40" height="40" viewBox="0 0 40 40" fill="none" xmlns="http://www.w3.org/2000/svg">
<rect x="-0.5" y="0.5" width="39" height="39" rx="3.5" transform="matrix(-1 0 0 1 39 0)" fill="white"/>
<path d="M11.6328 26H8.5957L8.61523 24.0566H11.6328C12.5117 24.0566 13.2474 23.8646 13.8398 23.4805C14.4388 23.0964 14.888 22.5462 15.1875 21.8301C15.4935 21.1139 15.6465 20.2611 15.6465 19.2715V18.5C15.6465 17.7318 15.5586 17.0514 15.3828 16.459C15.2135 15.8665 14.9596 15.3685 14.6211 14.9648C14.2891 14.5612 13.8789 14.2552 13.3906 14.0469C12.9089 13.8385 12.3522 13.7344 11.7207 13.7344H8.53711V11.7812H11.7207C12.6647 11.7812 13.5273 11.9408 14.3086 12.2598C15.0898 12.5723 15.7637 13.0247 16.3301 13.6172C16.903 14.2096 17.3424 14.9193 17.6484 15.7461C17.9544 16.5729 18.1074 17.4974 18.1074 18.5195V19.2715C18.1074 20.2936 17.9544 21.2181 17.6484 22.0449C17.3424 22.8717 16.903 23.5814 16.3301 24.1738C15.7572 24.7598 15.0736 25.2122 14.2793 25.5312C13.4915 25.8438 12.6094 26 11.6328 26ZM9.95312 11.7812V26H7.50195V11.7812H9.95312ZM24.9922 26.1953C24.2109 26.1953 23.5046 26.0684 22.873 25.8145C22.248 25.554 21.7142 25.1927 21.2715 24.7305C20.8353 24.2682 20.5 23.7246 20.2656 23.0996C20.0312 22.4746 19.9141 21.8008 19.9141 21.0781V20.6875C19.9141 19.8607 20.0345 19.112 20.2754 18.4414C20.5163 17.7708 20.8516 17.1979 21.2812 16.7227C21.7109 16.2409 22.2188 15.873 22.8047 15.6191C23.3906 15.3652 24.0254 15.2383 24.709 15.2383C25.4642 15.2383 26.125 15.3652 26.6914 15.6191C27.2578 15.873 27.7266 16.2311 28.0977 16.6934C28.4753 17.1491 28.7552 17.6927 28.9375 18.3242C29.1263 18.9557 29.2207 19.6523 29.2207 20.4141V21.4199H21.0566V19.7305H26.8965V19.5449C26.8835 19.1217 26.7988 18.7246 26.6426 18.3535C26.4928 17.9824 26.2617 17.6829 25.9492 17.4551C25.6367 17.2272 25.2201 17.1133 24.6992 17.1133C24.3086 17.1133 23.9603 17.1979 23.6543 17.3672C23.3548 17.5299 23.1042 17.7676 22.9023 18.0801C22.7005 18.3926 22.5443 18.7702 22.4336 19.2129C22.3294 19.6491 22.2773 20.1406 22.2773 20.6875V21.0781C22.2773 21.5404 22.3392 21.9701 22.4629 22.3672C22.5931 22.7578 22.7819 23.0996 23.0293 23.3926C23.2767 23.6855 23.5762 23.9167 23.9277 24.0859C24.2793 24.2487 24.6797 24.3301 25.1289 24.3301C25.6953 24.3301 26.1999 24.2161 26.6426 23.9883C27.0853 23.7604 27.4694 23.4382 27.7949 23.0215L29.0352 24.2227C28.8073 24.5547 28.5111 24.8737 28.1465 25.1797C27.7819 25.4792 27.3359 25.7233 26.8086 25.9121C26.2878 26.1009 25.6823 26.1953 24.9922 26.1953ZM33.5762 11V26H31.2129V11H33.5762Z" fill="#424242"/>
<rect x="-0.5" y="0.5" width="39" height="39" rx="3.5" transform="matrix(-1 0 0 1 39 0)" stroke="#BDBDBD"/>
</svg>
