<svg width="48" height="48" viewBox="0 0 48 48" fill="none" xmlns="http://www.w3.org/2000/svg">
<g id="Frame 1000002062">
<circle id="Ellipse 2636" cx="24" cy="24" r="24" fill="#E6F3F3"/>
<path id="Vector" d="M12 33L24 13L36 33" stroke="#707070" stroke-width="2" stroke-linecap="round" stroke-linejoin="round"/>
<path id="i" d="M23.1735 28.0637L23.1735 20L24.8721 20L24.8721 28.0637L23.1735 28.0637ZM25 30.2026C25 30.4262 24.9178 30.615 24.7534 30.769C24.583 30.923 24.3333 31 24.0046 31C23.6819 31 23.4353 30.923 23.2648 30.769C23.0883 30.615 23 30.4262 23 30.2026C23 29.9889 23.0883 29.8051 23.2648 29.6511C23.4353 29.502 23.6819 29.4275 24.0046 29.4275C24.3333 29.4275 24.583 29.502 24.7534 29.6511C24.9178 29.8051 25 29.9889 25 30.2026Z" fill="#707070"/>
</g>
</svg>
