<svg width="20" height="20" viewBox="0 0 20 20" fill="none" xmlns="http://www.w3.org/2000/svg">
<g clip-path="url(#clip0_6667_31570)">
<path d="M9.62035 0.154747L9.26523 0.311058L8.92303 0.198515C8.61312 0.0984764 8.56146 0.0984764 8.40651 0.18601C8.14178 0.329817 8.05785 0.529894 8.09013 0.992575C8.11596 1.41774 8.37422 2.04924 8.78745 2.69949C9.03925 3.0934 8.93595 3.20594 8.59375 2.91833C8.18052 2.56194 7.86415 2.4744 7.02479 2.45565C6.32748 2.44939 6.24354 2.43064 5.82386 2.24306C5.44938 2.0805 5.35253 2.05549 5.23631 2.11176C5.06844 2.1993 5.05553 2.43689 5.21694 2.57444C5.28151 2.63071 5.50103 2.74951 5.7141 2.8433C6.04339 2.9871 6.21126 3.01837 6.9344 3.05588C7.43801 3.07464 7.84478 3.12466 7.94163 3.17468C8.13533 3.27472 8.45816 3.56233 8.45816 3.63111C8.45816 3.65611 8.31611 3.68113 8.14824 3.68113C7.72856 3.68113 6.90857 3.88745 6.52118 4.09379C5.92717 4.40641 5.4171 5.00039 5.54623 5.23798C5.60434 5.33802 5.75284 5.43181 5.84323 5.43181C5.8626 5.43181 6.0563 5.25049 6.27582 5.0379C6.72779 4.60023 7.13455 4.40641 7.85769 4.29386C8.50981 4.19383 8.52918 4.23759 8.03202 4.6315C7.43801 5.10043 6.24354 6.29465 5.83677 6.8261C4.68104 8.33294 4.09349 9.81477 4.02247 11.3904L3.98373 12.197L3.79003 12.1594C3.68672 12.1407 3.49948 12.1219 3.38326 12.1219C3.20248 12.1219 3.16374 12.0969 3.16374 11.9844C3.16374 11.7593 2.91839 11.3466 2.71823 11.2278C2.56327 11.1403 2.36312 11.1215 1.56896 11.1215C0.510072 11.1215 0.38094 11.159 0.148502 11.4904L0 11.703V15.3357C0 18.737 0.00645661 18.9871 0.116219 19.1809C0.32283 19.5498 0.555268 19.6249 1.53022 19.6249C1.99509 19.6249 2.45997 19.5936 2.56327 19.5561C2.84091 19.456 3.03461 19.2497 3.10563 18.9621L3.17665 18.7057L3.82877 18.9371C4.19034 19.0684 4.93285 19.331 5.4752 19.5248C6.02402 19.7186 6.61157 19.9062 6.79235 19.9375C6.97314 19.975 8.28383 20 9.71074 20C12.6356 20 12.8745 19.975 13.6428 19.5748C14.282 19.2497 19.4215 16.086 19.641 15.8859C20.2221 15.3607 20.0736 14.2853 19.3698 13.9351C19.0341 13.7726 18.4659 13.7726 18.085 13.9351C17.93 14.0039 17.788 14.0602 17.7621 14.0602C17.7363 14.0602 17.7944 13.8288 17.8913 13.5412C18.4465 11.9406 18.2593 10.1587 17.3618 8.41422C16.9938 7.69519 16.6774 7.22626 16.0576 6.47597C15.5992 5.92575 15.3861 5.7882 15.2053 5.932C15.0245 6.07581 15.102 6.28214 15.5346 6.78234C17.6072 9.19578 18.1754 12.0094 17.0003 14.0789L16.7549 14.5104L15.0762 15.2231C14.1529 15.617 13.3006 15.9797 13.1909 16.0297L12.9778 16.1172V15.8171C12.9778 15.3857 12.8099 14.9793 12.4871 14.6292C12.0028 14.1102 11.8802 14.0789 9.03925 13.7788C7.68337 13.635 7.3799 13.5537 6.45015 13.0535C6.00465 12.8159 5.4171 12.5471 5.14592 12.4596C4.67459 12.3095 4.64876 12.2907 4.61002 12.0782C4.54545 11.7343 4.63585 10.8027 4.80372 10.1649C5.27505 8.38921 6.47598 6.67605 8.30966 5.16921L8.84555 4.73154L9.09091 4.82532C9.5687 5.00664 10.2144 5.07542 11.2732 5.04416C12.1191 5.01915 12.3644 4.98789 12.6872 4.87534C12.9003 4.80031 13.1198 4.72528 13.1715 4.70653C13.2296 4.69402 13.4814 4.85033 13.7655 5.08792C14.2562 5.49433 14.4305 5.56311 14.579 5.4193C14.7856 5.21923 14.5145 4.85033 13.7526 4.32513C13.5395 4.17507 13.5201 4.1313 13.5137 3.85619C13.5137 3.63736 13.462 3.48105 13.3458 3.31223L13.1779 3.06839L13.4943 2.55569C13.9075 1.89293 14.0883 1.42399 14.1206 0.961313C14.1464 0.536146 14.0625 0.323563 13.8042 0.18601C13.6493 0.0984764 13.5976 0.0984764 13.3006 0.204767L12.9713 0.31731L12.5968 0.154747C12.1255 -0.0515823 11.9576 -0.0515823 11.4863 0.154747L11.1054 0.323563L10.7244 0.154747C10.2531 -0.04533 10.0659 -0.0515823 9.62035 0.154747ZM10.5243 0.711214C10.9375 0.911293 11.2797 0.911293 11.6994 0.704962L12.0287 0.542398L12.3967 0.711214C12.7647 0.880032 13.1457 0.905041 13.4491 0.779991C13.5331 0.742477 13.5589 0.754982 13.5589 0.842516C13.5524 1.16139 13.023 2.26807 12.642 2.76202C12.4483 3.01211 10.9569 3.14342 10.04 2.9871L9.64617 2.92458L9.38145 2.50567C9.00697 1.91168 8.81327 1.51153 8.71642 1.13638C8.61957 0.767487 8.6454 0.698709 8.83264 0.79875C9.05862 0.911293 9.50413 0.873779 9.81405 0.711214C9.97546 0.629932 10.1304 0.561157 10.1562 0.554903C10.1821 0.554903 10.3499 0.62368 10.5243 0.711214ZM10.266 3.6186C10.86 3.70613 11.2151 3.69363 11.9835 3.57483C12.6227 3.47479 12.655 3.47479 12.7841 3.58734C12.9455 3.73114 12.9584 4.06252 12.8035 4.19383C12.5904 4.37515 12.0093 4.46268 11.0085 4.46268C10.04 4.46268 9.42665 4.3814 9.19421 4.21883C9.05217 4.11254 9.03925 3.74365 9.16839 3.58734C9.26523 3.47479 9.31689 3.47479 10.266 3.6186ZM2.4406 11.7593C2.49225 11.8093 2.51808 12.1094 2.51808 12.7034C2.51808 13.1786 2.55036 13.6225 2.58264 13.6913C2.62784 13.7663 2.71823 13.8101 2.84091 13.8101C3.09272 13.8101 3.16374 13.6663 3.16374 13.1286V12.6909L3.50594 12.7222C4.51963 12.8159 5.12655 13.016 6.25 13.6163C6.63094 13.8226 7.14747 14.0414 7.39282 14.1165C7.64463 14.1852 8.65186 14.329 9.65263 14.4416C11.609 14.6542 11.8091 14.7042 12.0932 15.0731C12.2805 15.3107 12.3967 15.6733 12.3967 16.0109V16.2485H10.8536C10.0013 16.2485 9.23295 16.2735 9.14256 16.3111C8.92949 16.3861 8.90366 16.7112 9.09736 16.8113C9.17484 16.8488 9.88507 16.8738 10.9633 16.8738H12.7002L14.6952 16.0234C15.7929 15.5545 17.1165 14.9918 17.633 14.773C18.156 14.5541 18.6725 14.3728 18.7758 14.3728C19.0405 14.3728 19.3569 14.6354 19.4086 14.898C19.486 15.3169 19.4344 15.3607 16.3869 17.2302C14.8115 18.193 13.3975 19.0434 13.2425 19.1247C12.6743 19.3998 12.2676 19.4373 9.68491 19.4373C7.81895 19.4373 7.16684 19.4123 6.84401 19.3435C6.61157 19.2935 5.70119 18.9934 4.81017 18.6682L3.19602 18.0805L3.16374 16.4549C3.13146 14.7167 3.11209 14.6229 2.80217 14.6229C2.72469 14.6229 2.6343 14.6604 2.60201 14.6979C2.57619 14.7417 2.53745 15.7233 2.51808 16.8738L2.48579 18.9683L1.62061 18.9871C1.03951 18.9996 0.729597 18.9809 0.671487 18.9308C0.594008 18.8683 0.581095 18.2743 0.581095 15.3919C0.581095 13.1223 0.606921 11.8843 0.645661 11.803C0.710227 11.6968 0.787706 11.6843 1.53667 11.6843C2.09194 11.6843 2.38895 11.7093 2.4406 11.7593Z" fill="#424242"/>
<path d="M10.8988 6.12543C10.8149 6.16919 10.7826 6.26923 10.7826 6.48182V6.77568L10.4662 6.88823C9.69786 7.15083 9.29109 8.1137 9.65912 8.81398C9.77534 9.03281 10.1563 9.35169 10.4985 9.51425L10.7826 9.64555V10.7897V11.9339H10.6082C10.5049 11.9339 10.2596 11.8527 10.0594 11.7526C9.84636 11.6463 9.63329 11.5838 9.56227 11.6026C9.41377 11.6401 9.33629 11.8152 9.3944 11.984C9.43959 12.1403 10.053 12.4341 10.4339 12.4842C10.7374 12.5279 10.7503 12.5342 10.7697 12.7468C10.8084 13.2595 10.9311 13.3908 11.2087 13.2157C11.3378 13.1344 11.3637 13.0656 11.3637 12.8218V12.5279L11.6865 12.4154C12.0997 12.2716 12.3903 12.0277 12.6162 11.6213C12.8293 11.2462 12.8939 10.7647 12.7841 10.3708C12.6808 9.98944 12.1707 9.508 11.7059 9.34544L11.3637 9.23289V8.30128C11.3637 7.59475 11.383 7.36966 11.4476 7.36966C11.4863 7.36966 11.6542 7.43844 11.8092 7.52597C12.1255 7.70104 12.2805 7.7198 12.3967 7.59475C12.5969 7.35091 12.3386 7.06329 11.7446 6.86947C11.4024 6.75692 11.3959 6.75067 11.3766 6.48182C11.3508 6.11917 11.1571 5.97537 10.8988 6.12543ZM10.7826 8.21374V8.98905L10.5566 8.864C10.2531 8.68893 10.1369 8.51386 10.1369 8.22625C10.1369 7.94489 10.2725 7.66353 10.4727 7.53223C10.7632 7.33215 10.7826 7.38217 10.7826 8.21374ZM11.8608 10.102C11.977 10.1833 12.1062 10.3083 12.1449 10.3833C12.2611 10.5959 12.2288 11.0711 12.0803 11.3525C11.9577 11.5901 11.609 11.8714 11.4347 11.8714C11.383 11.8714 11.3637 11.5713 11.3637 10.8648V9.86439L11.5122 9.9019C11.5896 9.92691 11.7511 10.0144 11.8608 10.102Z" fill="#424242"/>
</g>
<defs>
<clipPath id="clip0_6667_31570">
<rect width="20" height="20" fill="white"/>
</clipPath>
</defs>
</svg>
