<svg width="24" height="24" viewBox="0 0 24 24" fill="none" xmlns="http://www.w3.org/2000/svg">
<path d="M20.5227 17.8035L21.4815 20.5261C21.8903 21.6869 21.029 22.9032 19.7984 22.9032H4.20389C2.97324 22.9032 2.112 21.6869 2.52075 20.5261L3.47954 17.8035C4.25241 15.6088 6.32602 14.1406 8.65285 14.1406H15.3495C17.6762 14.1406 19.7498 15.6088 20.5227 17.8035Z" fill="white"/>
<path d="M19.7992 22.9078H4.20323C3.27464 22.9078 2.55712 22.2184 2.4375 21.3812C2.52192 21.3953 2.60986 21.4023 2.70131 21.4023H15.4095C18.0475 21.4023 19.8941 18.796 19.0183 16.3057C18.8635 15.866 18.656 15.4545 18.4028 15.0781C19.363 15.7183 20.1193 16.6645 20.5238 17.8076L21.4805 20.53C21.892 21.6907 21.0302 22.9078 19.7992 22.9078Z" fill="white"/>
<path d="M13.1249 19.1745L11.9993 20.1902L10.8711 19.1745L11.4071 15.2109H12.5889L13.1249 19.1745Z" fill="white"/>
<path d="M13.3361 14.1406C13.3361 15.0645 12.7353 15.8175 11.9982 15.8175C11.2575 15.8175 10.6641 15.0645 10.6641 14.1406H13.3361Z" fill="white"/>
<path d="M16.3668 8.24556C16.3668 10.6568 14.4108 12.6083 11.9995 12.6083C9.59277 12.6083 7.63672 10.6568 7.63672 8.24556C7.63672 5.83431 9.59277 3.88281 11.9995 3.88281C14.4108 3.88281 16.3668 5.83431 16.3668 8.24556Z" fill="white"/>
<path d="M10.9485 9.9583H12.0823C12.3694 9.9583 12.6031 9.72961 12.603 9.44861C12.603 9.16762 12.3693 8.9391 12.0823 8.9391H11.9176C11.1359 8.9391 10.5 8.31662 10.5 7.55139C10.5 6.91042 10.9486 6.37481 11.5531 6.21621V5.93901C11.5531 5.69657 11.7539 5.5 12.0015 5.5C12.2492 5.5 12.45 5.69657 12.45 5.93901V6.16385H13.0515C13.2992 6.16385 13.5 6.36042 13.5 6.60286C13.5 6.8453 13.2992 7.04187 13.0515 7.04187H11.9177C11.6306 7.04187 11.3969 7.27033 11.3969 7.55139C11.3969 7.83244 11.6306 8.06113 11.9177 8.06113H12.0823C12.864 8.06113 13.4999 8.68361 13.4999 9.44861C13.4999 10.0886 13.0528 10.6233 12.45 10.783V11.061C12.45 11.3034 12.2492 11.5 12.0015 11.5C11.7539 11.5 11.5531 11.3034 11.5531 11.061V10.8363H10.9485C10.7008 10.8363 10.5 10.6398 10.5 10.3973C10.5 10.1549 10.7008 9.9583 10.9485 9.9583Z" fill="#FF5630"/>
<path d="M21.8101 20.4099L20.8514 17.6872C20.0303 15.3557 17.8179 13.7894 15.3463 13.7894C11.894 13.7894 13.2328 13.7894 8.64959 13.7894C6.17801 13.7894 3.96556 15.3558 3.14445 17.6872L2.18576 20.4099C1.69671 21.7985 2.72318 23.2555 4.20068 23.2555H19.7952C21.2674 23.2555 22.3009 21.8035 21.8101 20.4099ZM12.7514 19.0376L11.9989 19.7165L11.2446 19.0373L11.6386 16.1229C11.7539 16.153 11.8733 16.1698 11.996 16.1698C12.1201 16.1698 12.2406 16.1526 12.3571 16.122L12.7514 19.0376ZM12.9454 14.4929C12.8275 15.047 12.4403 15.4664 11.996 15.4664C11.5445 15.4664 11.1633 15.0535 11.0489 14.4929H12.9454ZM19.7952 22.552H4.20068C3.21303 22.552 2.52021 21.5783 2.84937 20.6434L3.80806 17.9207C4.53026 15.8704 6.47576 14.4929 8.64959 14.4929H10.3373C10.4123 15.0056 10.6473 15.4515 10.9784 15.7547L10.5225 19.1273C10.507 19.2425 10.5494 19.3579 10.6358 19.4357L11.764 20.4514C11.8965 20.571 12.1 20.5728 12.2349 20.4511L13.3604 19.4354C13.4466 19.3576 13.4889 19.2423 13.4734 19.1273L13.0173 15.7535C13.3485 15.4504 13.5835 15.005 13.6585 14.4929H15.3463C17.5201 14.4929 19.4656 15.8704 20.1878 17.9207L21.1465 20.6434C21.4758 21.5785 20.7825 22.552 19.7952 22.552ZM11.9957 12.9602C14.5978 12.9602 16.7148 10.8454 16.7148 8.24584C16.7148 5.64611 14.5978 3.53125 11.9957 3.53125C9.39598 3.53125 7.28112 5.64611 7.28112 8.24584C7.28112 10.8454 9.39598 12.9602 11.9957 12.9602ZM11.9957 4.2347C14.2099 4.2347 16.0113 6.03409 16.0113 8.24584C16.0113 10.4574 14.2099 12.2568 11.9957 12.2568C9.78396 12.2568 7.98457 10.4574 7.98457 8.24584C7.98457 6.03409 9.78396 4.2347 11.9957 4.2347Z" fill="#FF5630"/>
<path d="M12.0014 2.06927C12.1956 2.06927 12.3531 1.91177 12.3531 1.71752V1.09394C12.3531 0.899687 12.1956 0.742188 12.0014 0.742188C11.8071 0.742188 11.6496 0.899687 11.6496 1.09394V1.71756C11.6496 1.91177 11.8071 2.06927 12.0014 2.06927ZM8.43366 2.76761C8.53041 2.93491 8.74505 2.99383 8.91422 2.89642C9.08236 2.7992 9.14006 2.58419 9.04303 2.41586L8.73131 1.87591C8.63376 1.70744 8.41941 1.64973 8.25075 1.74709C8.08261 1.84431 8.02491 2.05933 8.12194 2.22766L8.43366 2.76761ZM5.63386 4.97317L6.17381 5.28508C6.34027 5.38173 6.5565 5.32581 6.65419 5.15645C6.75141 4.98831 6.69384 4.77311 6.52556 4.67608L5.98561 4.36417C5.81747 4.26662 5.60227 4.32452 5.50523 4.4928C5.40802 4.66094 5.46558 4.87609 5.63386 4.97317ZM4.85175 8.59525H5.47537C5.66962 8.59525 5.82712 8.43775 5.82712 8.2435C5.82712 8.04925 5.66962 7.89175 5.47537 7.89175H4.85175C4.6575 7.89175 4.5 8.04925 4.5 8.2435C4.5 8.43775 4.6575 8.59525 4.85175 8.59525ZM18.1756 8.24355C18.1756 8.4378 18.3331 8.5953 18.5273 8.5953H19.151C19.3452 8.5953 19.5027 8.4378 19.5027 8.24355C19.5027 8.0493 19.3452 7.8918 19.151 7.8918H18.5273C18.3331 7.8918 18.1756 8.0493 18.1756 8.24355ZM17.8289 5.28503L18.3688 4.97312C18.5371 4.87609 18.5947 4.66089 18.4974 4.49275C18.4002 4.32442 18.1849 4.2662 18.0171 4.36413L17.4771 4.67603C17.3088 4.77306 17.2513 4.98827 17.3485 5.15641C17.4464 5.32614 17.6628 5.3815 17.8289 5.28503ZM15.0885 2.89642C15.2579 2.99402 15.4724 2.93467 15.569 2.76761L15.8807 2.22766C15.9778 2.05933 15.9201 1.84431 15.7519 1.74709C15.5829 1.64973 15.3686 1.70744 15.2714 1.87591L14.9596 2.41586C14.8626 2.58419 14.9203 2.7992 15.0885 2.89642Z" fill="white"/>
</svg>
