<svg width="161" height="160" viewBox="0 0 161 160" fill="none" xmlns="http://www.w3.org/2000/svg">
<path d="M77.0796 159.999C119.323 159.999 153.519 125.306 153.519 82.5444C153.519 39.7394 119.281 5.08984 77.0796 5.08984C34.8785 5.08984 0.640625 39.7394 0.640625 82.5012C0.640625 125.306 34.8785 159.999 77.0796 159.999Z" fill="url(#paint0_linear_2737_18166)"/>
<path d="M118.347 23.0859H33.6466C28.3661 23.0859 24.1077 27.4441 24.1077 32.7516H127.928C127.886 27.4009 123.627 23.0859 118.347 23.0859Z" fill="url(#paint1_linear_2737_18166)"/>
<path d="M24.1077 32.4922H127.928V112.622C127.928 116.203 126.523 119.612 124.053 122.115C121.583 124.618 118.177 126.042 114.685 126.042H37.3514C33.8169 126.042 30.4527 124.618 27.9828 122.115C25.513 119.612 24.1077 116.16 24.1077 112.622V32.4922Z" fill="url(#paint2_linear_2737_18166)"/>
<path d="M110.042 42.6289H41.9496C40.5443 42.6289 39.3945 43.794 39.3945 45.2179C39.3945 46.6419 40.5443 47.8069 41.9496 47.8069H110.042C111.447 47.8069 112.597 46.6419 112.597 45.2179C112.64 43.794 111.49 42.6289 110.042 42.6289Z" fill="url(#paint3_linear_2737_18166)"/>
<path d="M110.042 64.6797H41.9496C40.5443 64.6797 39.3945 65.8447 39.3945 67.2687C39.3945 68.6927 40.5443 69.8577 41.9496 69.8577H110.042C111.447 69.8577 112.597 68.6927 112.597 67.2687C112.64 65.8447 111.49 64.6797 110.042 64.6797Z" fill="url(#paint4_linear_2737_18166)"/>
<path d="M110.042 86.7773H41.9496C40.5443 86.7773 39.3945 87.9424 39.3945 89.3664C39.3945 90.7903 40.5443 91.9554 41.9496 91.9554H110.042C111.447 91.9554 112.597 90.7903 112.597 89.3664C112.64 87.9424 111.49 86.7773 110.042 86.7773Z" fill="url(#paint5_linear_2737_18166)"/>
<path d="M110.042 108.867H41.9496C40.5443 108.867 39.3945 110.032 39.3945 111.456C39.3945 112.88 40.5443 114.045 41.9496 114.045H110.042C111.447 114.045 112.597 112.88 112.597 111.456C112.597 110.032 111.49 108.867 110.042 108.867Z" fill="url(#paint6_linear_2737_18166)"/>
<path d="M41.5198 82.0312H5.28046C2.38472 82.0312 0 84.4045 0 87.3819V139.896C0 142.83 2.34214 145.246 5.28046 145.246H41.5198C44.4155 145.246 46.8003 142.873 46.8003 139.896V87.3819C46.7577 84.4477 44.4155 82.0312 41.5198 82.0312Z" fill="url(#paint7_linear_2737_18166)"/>
<path d="M144.722 0H104.692C102.819 0 101.328 1.5534 101.328 3.40886V22.4812C101.328 24.3798 102.861 25.8901 104.692 25.8901H144.722C146.595 25.8901 148.086 24.3367 148.086 22.4812V3.45201C148.128 1.55341 146.595 0 144.722 0Z" fill="url(#paint8_linear_2737_18166)"/>
<path d="M37.4735 108.309H9.3252C8.38835 108.309 7.62183 109.085 7.62183 110.035C7.62183 110.984 8.38835 111.761 9.3252 111.761H37.4735C38.4103 111.761 39.1769 110.984 39.1769 110.035C39.1769 109.085 38.4103 108.309 37.4735 108.309Z" fill="url(#paint9_linear_2737_18166)"/>
<path d="M37.4766 132.816H9.54127C8.60441 132.816 7.83789 133.55 7.83789 134.499C7.83789 135.449 8.60441 136.182 9.54127 136.182H37.4766C38.4135 136.182 39.18 135.449 39.18 134.499C39.18 133.593 38.4135 132.816 37.4766 132.816Z" fill="url(#paint10_linear_2737_18166)"/>
<path d="M37.4766 120.004H9.54127C8.60441 120.004 7.83789 120.737 7.83789 121.687C7.83789 122.636 8.60441 123.37 9.54127 123.37H37.4766C38.4135 123.37 39.18 122.636 39.18 121.687C39.18 120.781 38.4135 120.004 37.4766 120.004Z" fill="url(#paint11_linear_2737_18166)"/>
<path d="M19.5907 90.1367H11.3719C9.54075 90.1367 8.05029 91.647 8.05029 93.5024V95.8325C8.05029 97.688 9.54075 99.1983 11.3719 99.1983H19.5907C21.4218 99.1983 22.9122 97.688 22.9122 95.8325V93.5024C22.9122 91.647 21.4218 90.1367 19.5907 90.1367Z" fill="url(#paint12_linear_2737_18166)"/>
<path d="M111.19 16.9158C113.319 16.9158 115.065 15.1467 115.065 12.9892C115.065 10.8317 113.319 9.0625 111.19 9.0625C109.061 9.0625 107.315 10.8317 107.315 12.9892C107.315 15.1467 109.018 16.9158 111.19 16.9158Z" fill="#81D5E7"/>
<path d="M125.073 16.9158C127.203 16.9158 128.949 15.1467 128.949 12.9892C128.949 10.8317 127.203 9.0625 125.073 9.0625C122.944 9.0625 121.198 10.8317 121.198 12.9892C121.198 15.1467 122.902 16.9158 125.073 16.9158Z" fill="#81D5E7"/>
<path d="M138.957 16.9158C141.086 16.9158 142.832 15.1467 142.832 12.9892C142.832 10.8317 141.086 9.0625 138.957 9.0625C136.828 9.0625 135.082 10.8317 135.082 12.9892C135.082 15.1467 136.785 16.9158 138.957 16.9158Z" fill="#81D5E7"/>
<path d="M128.394 110.809L118.557 121.812L146.279 147.314L156.116 136.31L128.394 110.809Z" fill="url(#paint13_linear_2737_18166)"/>
<path fill-rule="evenodd" clip-rule="evenodd" d="M138.788 92.6008C138.788 115.6 120.391 134.241 97.6936 134.241C74.9961 134.241 56.5996 115.6 56.5996 92.6008C56.5996 69.6018 74.9961 50.9609 97.6936 50.9609C120.391 50.9609 138.788 69.6018 138.788 92.6008ZM132.485 92.6008C132.485 112.062 116.899 127.854 97.6936 127.854C78.488 127.854 62.9021 112.062 62.9021 92.6008C62.9021 73.1401 78.488 57.3472 97.6936 57.3472C116.942 57.3472 132.485 73.1401 132.485 92.6008Z" fill="url(#paint14_linear_2737_18166)"/>
<path d="M97.726 127.855C116.932 127.855 132.517 112.062 132.517 92.6013C132.517 73.1406 116.932 57.3477 97.726 57.3477C78.5205 57.3477 62.9346 73.1406 62.9346 92.6013C62.9346 112.062 78.4779 127.855 97.726 127.855Z" fill="url(#paint15_linear_2737_18166)" fill-opacity="0.2"/>
<path d="M98.8849 115.734C112.385 115.734 123.328 114.092 123.328 112.066C123.328 110.041 112.385 108.398 98.8849 108.398C85.3851 108.398 74.4414 110.041 74.4414 112.066C74.4414 114.092 85.3851 115.734 98.8849 115.734Z" fill="#EC5575" fill-opacity="0.56"/>
<path d="M70.6088 136.393C70.9495 134.926 72.9935 134.926 73.3342 136.393L74.484 141.269C74.6117 141.787 74.995 142.175 75.506 142.305L80.3181 143.47C81.7659 143.815 81.7659 145.886 80.3181 146.232L75.506 147.397C74.995 147.526 74.6117 147.914 74.484 148.432L73.3342 153.308C72.9935 154.775 70.9495 154.775 70.6088 153.308L69.459 148.432C69.3313 147.914 68.948 147.526 68.437 147.397L63.625 146.232C62.1771 145.886 62.1771 143.815 63.625 143.47L68.437 142.305C68.948 142.175 69.3313 141.787 69.459 141.269L70.6088 136.393Z" fill="url(#paint16_linear_2737_18166)"/>
<path d="M15.2946 6.69017C15.6353 5.22307 17.6793 5.22307 18.02 6.69017L19.1698 11.5661C19.2975 12.0839 19.6808 12.4723 20.1918 12.6017L25.0038 13.7668C26.4517 14.112 26.4517 16.1832 25.0038 16.5284L20.1918 17.6935C19.6808 17.8229 19.2975 18.2113 19.1698 18.7291L18.02 23.605C17.6793 25.0721 15.6353 25.0721 15.2946 23.605L14.1448 18.7291C14.0171 18.2113 13.6338 17.8229 13.1228 17.6935L8.31076 16.5284C6.86289 16.1832 6.86289 14.112 8.31076 13.7668L13.1228 12.6017C13.6338 12.4723 14.0171 12.0839 14.1448 11.5661L15.2946 6.69017Z" fill="url(#paint17_linear_2737_18166)"/>
<path fill-rule="evenodd" clip-rule="evenodd" d="M74.0564 7.50786C75.3339 7.50786 76.3985 6.4291 76.3985 5.1346C76.3985 3.84009 75.3339 2.76134 74.0564 2.76134C72.7788 2.76134 71.7142 3.84009 71.7142 5.1346C71.7142 6.4291 72.7363 7.50786 74.0564 7.50786ZM74.0564 9.27701C76.3133 9.27701 78.1445 7.42156 78.1445 5.1346C78.1445 2.84764 76.3133 0.992188 74.0564 0.992188C71.7994 0.992188 69.9683 2.84764 69.9683 5.1346C69.9683 7.42156 71.7994 9.27701 74.0564 9.27701Z" fill="url(#paint18_linear_2737_18166)"/>
<path d="M146.626 72.621C146.413 71.758 147.222 70.9381 148.074 71.197L153.908 72.8799C154.759 73.1388 155.057 74.2175 154.419 74.8648L150.075 79.1366C149.436 79.7839 148.372 79.4818 148.116 78.5757L146.626 72.621Z" fill="url(#paint19_linear_2737_18166)"/>
<path d="M9.79843 62.4841C10.6501 62.2684 11.4592 63.0883 11.2037 63.9513L9.54292 69.8628C9.28742 70.7258 8.22281 71.0279 7.58404 70.3806L3.36819 65.9793C2.72942 65.3321 3.02752 64.2533 3.92179 63.9944L9.79843 62.4841Z" fill="url(#paint20_linear_2737_18166)"/>
<path d="M121.115 144.207C121.967 143.991 122.776 144.811 122.52 145.674L120.859 151.585C120.604 152.448 119.539 152.751 118.9 152.103L114.685 147.702C114.046 147.055 114.344 145.976 115.238 145.717L121.115 144.207Z" fill="url(#paint21_linear_2737_18166)"/>
<path fill-rule="evenodd" clip-rule="evenodd" d="M152.031 41.9454C153.309 41.9454 154.374 40.8666 154.374 39.5721C154.374 38.2776 153.309 37.1988 152.031 37.1988C150.754 37.1988 149.689 38.2776 149.689 39.5721C149.689 40.8666 150.754 41.9454 152.031 41.9454ZM152.031 43.7145C154.288 43.7145 156.12 41.8591 156.12 39.5721C156.12 37.2851 154.288 35.4297 152.031 35.4297C149.774 35.4297 147.943 37.2851 147.943 39.5721C147.943 41.8591 149.774 43.7145 152.031 43.7145Z" fill="url(#paint22_linear_2737_18166)"/>
<path d="M146.285 147.273L156.122 136.27L157.612 137.65C159.06 138.988 159.912 140.8 159.997 142.785C160.082 144.77 159.401 146.669 158.123 148.136C156.803 149.603 155.014 150.466 153.056 150.552C151.097 150.639 149.223 149.948 147.775 148.654L146.285 147.273Z" fill="#65C8DE"/>
<defs>
<linearGradient id="paint0_linear_2737_18166" x1="76.4886" y1="-20.1812" x2="78.0961" y2="251.876" gradientUnits="userSpaceOnUse">
<stop stop-color="white" stop-opacity="0"/>
<stop offset="1" stop-color="#8EE2F4"/>
</linearGradient>
<linearGradient id="paint1_linear_2737_18166" x1="24.0264" y1="24.5339" x2="128.02" y2="31.7708" gradientUnits="userSpaceOnUse">
<stop stop-color="#90E3F5"/>
<stop offset="1" stop-color="#65C8DE"/>
</linearGradient>
<linearGradient id="paint2_linear_2737_18166" x1="21.4025" y1="78.1649" x2="171.375" y2="80.7961" gradientUnits="userSpaceOnUse">
<stop stop-color="white"/>
<stop offset="1" stop-color="#BCF3FF"/>
</linearGradient>
<linearGradient id="paint3_linear_2737_18166" x1="36.3025" y1="45.2179" x2="116.954" y2="45.2179" gradientUnits="userSpaceOnUse">
<stop stop-color="#65C8DE"/>
<stop offset="1" stop-color="#D2F7FF"/>
</linearGradient>
<linearGradient id="paint4_linear_2737_18166" x1="36.3025" y1="67.2687" x2="116.954" y2="67.2687" gradientUnits="userSpaceOnUse">
<stop stop-color="#65C8DE"/>
<stop offset="1" stop-color="#D2F7FF"/>
</linearGradient>
<linearGradient id="paint5_linear_2737_18166" x1="36.3025" y1="89.3664" x2="116.954" y2="89.3664" gradientUnits="userSpaceOnUse">
<stop stop-color="#65C8DE"/>
<stop offset="1" stop-color="#D2F7FF"/>
</linearGradient>
<linearGradient id="paint6_linear_2737_18166" x1="36.3025" y1="111.456" x2="116.954" y2="111.456" gradientUnits="userSpaceOnUse">
<stop stop-color="#65C8DE"/>
<stop offset="1" stop-color="#D2F7FF"/>
</linearGradient>
<linearGradient id="paint7_linear_2737_18166" x1="0.00489699" y1="111.692" x2="89.7276" y2="118.964" gradientUnits="userSpaceOnUse">
<stop stop-color="white"/>
<stop offset="1" stop-color="#BCF3FF"/>
</linearGradient>
<linearGradient id="paint8_linear_2737_18166" x1="100.107" y1="12.224" x2="167.688" y2="14.1533" gradientUnits="userSpaceOnUse">
<stop stop-color="white"/>
<stop offset="1" stop-color="#BCF3FF"/>
</linearGradient>
<linearGradient id="paint9_linear_2737_18166" x1="42.8398" y1="110.035" x2="4.84703" y2="110.035" gradientUnits="userSpaceOnUse">
<stop stop-color="#D2F7FF"/>
<stop offset="1" stop-color="#65C8DE"/>
</linearGradient>
<linearGradient id="paint10_linear_2737_18166" x1="42.8123" y1="134.499" x2="5.14647" y2="134.499" gradientUnits="userSpaceOnUse">
<stop stop-color="#D2F7FF"/>
<stop offset="1" stop-color="#65C8DE"/>
</linearGradient>
<linearGradient id="paint11_linear_2737_18166" x1="42.8123" y1="121.687" x2="5.14647" y2="121.687" gradientUnits="userSpaceOnUse">
<stop stop-color="#D2F7FF"/>
<stop offset="1" stop-color="#65C8DE"/>
</linearGradient>
<linearGradient id="paint12_linear_2737_18166" x1="33.1777" y1="94.6675" x2="6.1828" y2="94.6675" gradientUnits="userSpaceOnUse">
<stop offset="0.2438" stop-color="#D2F7FF"/>
<stop offset="1" stop-color="#6BCBE0"/>
</linearGradient>
<linearGradient id="paint13_linear_2737_18166" x1="132.391" y1="134.558" x2="142.46" y2="123.659" gradientUnits="userSpaceOnUse">
<stop stop-color="#90E3F5"/>
<stop offset="1" stop-color="#65C8DE"/>
</linearGradient>
<linearGradient id="paint14_linear_2737_18166" x1="56.3979" y1="92.3294" x2="139.108" y2="92.8589" gradientUnits="userSpaceOnUse">
<stop stop-color="#90E3F5"/>
<stop offset="1" stop-color="#65C8DE"/>
</linearGradient>
<linearGradient id="paint15_linear_2737_18166" x1="86.0515" y1="61.9113" x2="121.915" y2="153.753" gradientUnits="userSpaceOnUse">
<stop stop-color="white"/>
<stop offset="1" stop-color="#D2F7FF"/>
</linearGradient>
<linearGradient id="paint16_linear_2737_18166" x1="57.8847" y1="144.758" x2="86.0774" y2="144.939" gradientUnits="userSpaceOnUse">
<stop stop-color="#90E3F5"/>
<stop offset="1" stop-color="#65C8DE"/>
</linearGradient>
<linearGradient id="paint17_linear_2737_18166" x1="2.56527" y1="15.0549" x2="30.7577" y2="15.2355" gradientUnits="userSpaceOnUse">
<stop stop-color="#90E3F5"/>
<stop offset="1" stop-color="#65C8DE"/>
</linearGradient>
<linearGradient id="paint18_linear_2737_18166" x1="69.9374" y1="5.1075" x2="78.1605" y2="5.1602" gradientUnits="userSpaceOnUse">
<stop stop-color="#90E3F5"/>
<stop offset="1" stop-color="#65C8DE"/>
</linearGradient>
<linearGradient id="paint19_linear_2737_18166" x1="145.383" y1="78.3676" x2="153.95" y2="70.2225" gradientUnits="userSpaceOnUse">
<stop stop-color="#90E3F5"/>
<stop offset="1" stop-color="#65C8DE"/>
</linearGradient>
<linearGradient id="paint20_linear_2737_18166" x1="4.11239" y1="61.2014" x2="12.3634" y2="69.6755" gradientUnits="userSpaceOnUse">
<stop stop-color="#90E3F5"/>
<stop offset="1" stop-color="#65C8DE"/>
</linearGradient>
<linearGradient id="paint21_linear_2737_18166" x1="115.425" y1="142.92" x2="123.676" y2="151.394" gradientUnits="userSpaceOnUse">
<stop stop-color="#90E3F5"/>
<stop offset="1" stop-color="#65C8DE"/>
</linearGradient>
<linearGradient id="paint22_linear_2737_18166" x1="147.926" y1="39.5451" x2="156.149" y2="39.5978" gradientUnits="userSpaceOnUse">
<stop stop-color="#90E3F5"/>
<stop offset="1" stop-color="#65C8DE"/>
</linearGradient>
</defs>
</svg>
