<svg width="87" height="87" viewBox="0 0 87 87" fill="none" xmlns="http://www.w3.org/2000/svg">
<g clip-path="url(#clip0_1777_5180)">
<path d="M2.85469 78.0297H81.2906C82.7859 78.0297 84.1453 76.8063 84.1453 75.175V18.2172C84.1453 16.7219 82.9219 15.3625 81.2906 15.3625H42.1406C41.0531 15.3625 40.1016 14.8188 39.6938 13.8672L37.3828 9.24531C36.8391 8.29375 35.8875 7.75 34.9359 7.75H2.85469C1.22344 7.75 0 8.97344 0 10.6047V75.175C0 76.6703 1.22344 78.0297 2.85469 78.0297Z" fill="#656768"/>
<path d="M4.07812 79.2484H81.1547C82.65 79.2484 84.0094 78.025 84.0094 76.3938V19.4359C84.0094 17.9406 82.7859 16.5813 81.1547 16.5813H42.1406C41.0531 16.5813 40.1016 16.0375 39.6937 15.0859L37.3828 10.4641C36.8391 9.5125 35.8875 8.96875 34.9359 8.96875H2.85469C1.22344 8.96875 0 10.3281 0 11.8234V75.1703C0 77.3453 1.76719 79.2484 4.07812 79.2484Z" fill="#393D3D"/>
<path d="M81.8352 19.9844H2.17578V48.6672H81.8352V19.9844Z" fill="#F3F3F3"/>
<path d="M3.26328 19.9844H2.17578V48.6672H3.26328V19.9844Z" fill="#E2E2E2"/>
<path d="M81.8352 19.9844H2.17578V21.2078H81.8352V19.9844Z" fill="#E2E2E2"/>
<path d="M87 25.2812V73.9469C87 76.2578 85.2328 78.025 82.9219 78.025H4.07812C1.76719 78.025 0 76.2578 0 73.9469V31.8062C0 29.4953 1.76719 27.7281 4.07812 27.7281H43.7719C44.8594 27.7281 45.9469 27.3203 46.6266 26.5047L50.7047 22.4266C51.5203 21.6109 52.4719 21.2031 53.5594 21.2031H82.9219C85.2328 21.2031 87 23.1062 87 25.2812Z" fill="#F69F99"/>
<ellipse cx="42.5" cy="81.5" rx="43.5" ry="1.5" fill="#7E7C7C"/>
<path d="M87 26.5078V75.1734C87 77.4844 85.2328 79.2516 82.9219 79.2516H4.07812C1.76719 79.2516 0 77.4844 0 75.1734V33.0328C0 30.7219 1.76719 28.9547 4.07812 28.9547H43.7719C44.8594 28.9547 45.9469 28.5469 46.6266 27.7312L50.7047 23.6531C51.5203 22.8375 52.4719 22.4297 53.5594 22.4297H82.9219C85.2328 22.4297 87 24.3328 87 26.5078Z" fill="#656768"/>
<path d="M32.9375 59.0234C32.9375 58.8203 32.9062 58.638 32.8438 58.4766C32.7865 58.3099 32.6771 58.1589 32.5156 58.0234C32.3542 57.8828 32.1276 57.7448 31.8359 57.6094C31.5443 57.474 31.1667 57.3333 30.7031 57.1875C30.1875 57.0208 29.6979 56.8333 29.2344 56.625C28.776 56.4167 28.3698 56.1745 28.0156 55.8984C27.6667 55.6172 27.3906 55.2917 27.1875 54.9219C26.9896 54.5521 26.8906 54.1224 26.8906 53.6328C26.8906 53.1589 26.9948 52.7292 27.2031 52.3438C27.4115 51.9531 27.7031 51.6198 28.0781 51.3438C28.4531 51.0625 28.8958 50.8464 29.4062 50.6953C29.9219 50.5443 30.487 50.4688 31.1016 50.4688C31.9401 50.4688 32.6719 50.6198 33.2969 50.9219C33.9219 51.224 34.4062 51.638 34.75 52.1641C35.099 52.6901 35.2734 53.2917 35.2734 53.9688H32.9453C32.9453 53.6354 32.875 53.3438 32.7344 53.0938C32.599 52.8385 32.3906 52.638 32.1094 52.4922C31.8333 52.3464 31.4844 52.2734 31.0625 52.2734C30.6562 52.2734 30.3177 52.3359 30.0469 52.4609C29.776 52.5807 29.5729 52.7448 29.4375 52.9531C29.3021 53.1562 29.2344 53.3854 29.2344 53.6406C29.2344 53.8333 29.2812 54.0078 29.375 54.1641C29.474 54.3203 29.6198 54.4661 29.8125 54.6016C30.0052 54.737 30.2422 54.8646 30.5234 54.9844C30.8047 55.1042 31.1302 55.2214 31.5 55.3359C32.1198 55.5234 32.6641 55.7344 33.1328 55.9688C33.6068 56.2031 34.0026 56.4661 34.3203 56.7578C34.638 57.0495 34.8776 57.3802 35.0391 57.75C35.2005 58.1198 35.2812 58.5391 35.2812 59.0078C35.2812 59.5026 35.1849 59.9453 34.9922 60.3359C34.7995 60.7266 34.5208 61.0573 34.1562 61.3281C33.7917 61.599 33.3568 61.8047 32.8516 61.9453C32.3464 62.0859 31.7812 62.1562 31.1562 62.1562C30.5938 62.1562 30.0391 62.0833 29.4922 61.9375C28.9453 61.7865 28.4479 61.5599 28 61.2578C27.5573 60.9557 27.2031 60.5703 26.9375 60.1016C26.6719 59.6328 26.5391 59.0781 26.5391 58.4375H28.8906C28.8906 58.7917 28.9453 59.0911 29.0547 59.3359C29.1641 59.5807 29.3177 59.7786 29.5156 59.9297C29.7188 60.0807 29.9583 60.1901 30.2344 60.2578C30.5156 60.3255 30.8229 60.3594 31.1562 60.3594C31.5625 60.3594 31.8958 60.3021 32.1562 60.1875C32.4219 60.0729 32.6172 59.9141 32.7422 59.7109C32.8724 59.5078 32.9375 59.2786 32.9375 59.0234ZM37.9453 50.625H39.9297L42.8516 58.9766L45.7734 50.625H47.7578L43.6484 62H42.0547L37.9453 50.625ZM36.875 50.625H38.8516L39.2109 58.7656V62H36.875V50.625ZM46.8516 50.625H48.8359V62H46.4922V58.7656L46.8516 50.625ZM57.4844 58.2266H59.8203C59.7734 58.9922 59.5625 59.6719 59.1875 60.2656C58.8177 60.8594 58.2995 61.3229 57.6328 61.6562C56.9714 61.9896 56.1745 62.1562 55.2422 62.1562C54.513 62.1562 53.8594 62.0312 53.2812 61.7812C52.7031 61.526 52.2083 61.1615 51.7969 60.6875C51.3906 60.2135 51.0807 59.6406 50.8672 58.9688C50.6536 58.2969 50.5469 57.5443 50.5469 56.7109V55.9219C50.5469 55.0885 50.6562 54.3359 50.875 53.6641C51.099 52.987 51.4167 52.4115 51.8281 51.9375C52.2448 51.4635 52.7422 51.099 53.3203 50.8438C53.8984 50.5885 54.5443 50.4609 55.2578 50.4609C56.2057 50.4609 57.0052 50.6328 57.6562 50.9766C58.3125 51.3203 58.8203 51.7943 59.1797 52.3984C59.5443 53.0026 59.763 53.6901 59.8359 54.4609H57.4922C57.4661 54.0026 57.375 53.6146 57.2188 53.2969C57.0625 52.974 56.8255 52.7318 56.5078 52.5703C56.1953 52.4036 55.7786 52.3203 55.2578 52.3203C54.8672 52.3203 54.526 52.3932 54.2344 52.5391C53.9427 52.6849 53.6979 52.9062 53.5 53.2031C53.3021 53.5 53.1536 53.875 53.0547 54.3281C52.9609 54.776 52.9141 55.3021 52.9141 55.9062V56.7109C52.9141 57.2995 52.9583 57.8177 53.0469 58.2656C53.1354 58.7083 53.2708 59.0833 53.4531 59.3906C53.6406 59.6927 53.8802 59.9219 54.1719 60.0781C54.4688 60.2292 54.8255 60.3047 55.2422 60.3047C55.7318 60.3047 56.1354 60.2266 56.4531 60.0703C56.7708 59.9141 57.013 59.6823 57.1797 59.375C57.3516 59.0677 57.4531 58.6849 57.4844 58.2266Z" fill="#919293"/>
</g>
<defs>
<clipPath id="clip0_1777_5180">
<rect width="87" height="87" fill="white"/>
</clipPath>
</defs>
</svg>
