<svg width="68" height="54" viewBox="0 0 68 54" fill="none" xmlns="http://www.w3.org/2000/svg">
<path d="M49.9056 1H58.3801" stroke="#C03030" stroke-opacity="0.6" stroke-width="2" stroke-linecap="round"/>
<path d="M55.5553 13.2412H62.1466" stroke="#C03030" stroke-opacity="0.4" stroke-width="2" stroke-linecap="round"/>
<path d="M56.4968 6.64941H66.8545H56.4968Z" fill="#C03030"/>
<path d="M56.4968 6.64941H66.8545" stroke="#C03030" stroke-width="2" stroke-linecap="round"/>
<g filter="url(#filter0_d_1662_7866)">
<path d="M45.8807 11.11L20.4512 4.2938C18.1738 3.68335 15.8326 5.03472 15.2222 7.31218L8.40604 32.7417C7.79559 35.0191 9.14696 37.3602 11.4244 37.9707L36.8539 44.7868C39.1314 45.3973 41.4725 44.0459 42.0829 41.7685L48.8991 16.339C49.5095 14.0615 48.1582 11.7204 45.8807 11.11Z" fill="url(#paint0_linear_1662_7866)"/>
</g>
<path d="M30.5996 14.5124L4.27244 14.5101C1.91459 14.5099 0.0030097 16.4212 0.00280723 18.779L0.000546576 45.1062C0.000344112 47.464 1.9116 49.3756 4.26945 49.3758L30.5966 49.3781C32.9545 49.3783 34.866 47.467 34.8662 45.1092L34.8685 18.782C34.8687 16.4242 32.9574 14.5126 30.5996 14.5124Z" fill="url(#paint1_linear_1662_7866)" fill-opacity="0.8"/>
<path d="M4.2724 15.0101L30.5996 15.0124C32.6813 15.0126 34.3687 16.7003 34.3685 18.782L34.3662 45.1091C34.3661 47.1908 32.6784 48.8783 30.5966 48.8781L4.26949 48.8758C2.18778 48.8756 0.500368 47.1879 0.500547 45.1062L0.502807 18.7791C0.502986 16.6974 2.19069 15.01 4.2724 15.0101Z" stroke="white" stroke-opacity="0.3"/>
<path d="M13.3496 27.0801C13.3496 24.7879 15.2078 22.9297 17.5 22.9297C19.7922 22.9297 21.6504 24.7879 21.6504 27.0801V29.1309H24.5801V27.0801C24.5801 23.1699 21.4102 20 17.5 20C13.5898 20 10.4199 23.1699 10.4199 27.0801V29.1309H13.3496V27.0801Z" fill="white"/>
<path d="M25.8008 30.5957H9.19922C8.79473 30.5957 8.4668 30.9236 8.4668 31.3281V44.2676C8.4668 44.6721 8.79473 45 9.19922 45H25.8008C26.2053 45 26.5332 44.6721 26.5332 44.2676V31.3281C26.5332 30.9236 26.2053 30.5957 25.8008 30.5957ZM17.5 41.9973C17.0955 41.9973 16.7676 41.6694 16.7676 41.2649C16.7676 40.8604 17.0955 40.5325 17.5 40.5325C17.9045 40.5325 18.2324 40.8604 18.2324 41.2649C18.2324 41.6694 17.9045 41.9973 17.5 41.9973ZM19.3703 37.5137C19.0573 37.8433 18.6624 38.0823 18.2324 38.2102V38.7744C18.2324 39.1789 17.9045 39.5068 17.5 39.5068C17.0955 39.5068 16.7676 39.1789 16.7676 38.7744V37.585C16.7676 37.1805 17.0955 36.8525 17.5 36.8525C17.8083 36.8525 18.0952 36.7291 18.308 36.5051C18.5206 36.2812 18.6287 35.9875 18.6127 35.678C18.5826 35.0988 18.1041 34.6359 17.5233 34.6242C17.5157 34.6241 17.5081 34.624 17.5005 34.624C16.9457 34.624 16.4732 35.0321 16.3965 35.5819C16.3894 35.6333 16.3857 35.6859 16.3857 35.7382C16.3857 36.1427 16.0578 36.4707 15.6533 36.4707C15.2488 36.4707 14.9208 36.1427 14.9208 35.7382C14.9208 35.6185 14.9292 35.4979 14.9457 35.3795C15.126 34.0876 16.2471 33.1329 17.5528 33.1597C18.8978 33.1868 20.0059 34.2596 20.0755 35.6021C20.1126 36.3167 19.8622 36.9956 19.3703 37.5137Z" fill="white"/>
<defs>
<filter id="filter0_d_1662_7866" x="2.2594" y="1.14746" width="52.7864" height="52.7861" filterUnits="userSpaceOnUse" color-interpolation-filters="sRGB">
<feFlood flood-opacity="0" result="BackgroundImageFix"/>
<feColorMatrix in="SourceAlpha" type="matrix" values="0 0 0 0 0 0 0 0 0 0 0 0 0 0 0 0 0 0 127 0" result="hardAlpha"/>
<feOffset dy="3"/>
<feGaussianBlur stdDeviation="3"/>
<feColorMatrix type="matrix" values="0 0 0 0 0 0 0 0 0 0 0 0 0 0 0 0 0 0 0.161 0"/>
<feBlend mode="normal" in2="BackgroundImageFix" result="effect1_dropShadow_1662_7866"/>
<feBlend mode="normal" in="SourceGraphic" in2="effect1_dropShadow_1662_7866" result="shape"/>
</filter>
<linearGradient id="paint0_linear_1662_7866" x1="23.3007" y1="5.23457" x2="38.7257" y2="44.5261" gradientUnits="userSpaceOnUse">
<stop stop-color="#FAA8A8"/>
<stop offset="1" stop-color="#C03030"/>
</linearGradient>
<linearGradient id="paint1_linear_1662_7866" x1="33.0924" y1="14.5098" x2="1.82306" y2="48.3457" gradientUnits="userSpaceOnUse">
<stop stop-color="#FF7A7A"/>
<stop offset="1" stop-color="#FFBDBD"/>
</linearGradient>
</defs>
</svg>
