<svg width="375" height="350" viewBox="0 0 375 350" fill="none" xmlns="http://www.w3.org/2000/svg">
<path d="M187.441 350C290.962 350 374.882 301.549 374.882 241.781C374.882 182.013 290.962 133.562 187.441 133.562C83.9202 133.562 0 182.013 0 241.781C0 301.549 83.9202 350 187.441 350Z" fill="#F0F0F0"/>
<path d="M148.648 323.785C184.346 323.785 213.285 307.078 213.285 286.467C213.285 265.857 184.346 249.149 148.648 249.149C112.95 249.149 84.0107 265.857 84.0107 286.467C84.0107 307.078 112.95 323.785 148.648 323.785Z" fill="#E0E0E0"/>
<path d="M332.455 239.782L324.876 235.406C324.876 235.406 323.019 219.173 324.255 206.602C325.99 188.938 337.399 167.683 351.009 172.675C364.618 177.666 344.769 195.656 340.35 210.639C335.932 225.622 332.455 239.782 332.455 239.782Z" fill="#173C45"/>
<path d="M328.466 237.941C328.471 237.941 328.476 237.941 328.482 237.941C328.735 237.932 328.934 237.72 328.925 237.466C327.594 198.216 347.133 178.472 347.33 178.278C347.511 178.099 347.513 177.809 347.335 177.629C347.155 177.449 346.865 177.446 346.686 177.624C346.485 177.822 326.663 197.85 328.007 237.499C328.016 237.746 328.219 237.941 328.466 237.941Z" fill="white"/>
<path d="M337.217 242.507L331.824 239.393C331.824 239.393 330.907 228.254 336.368 214.723C341.122 202.943 352.918 193.17 358.851 195.223C364.784 197.277 364.637 201.484 361.744 205.898C358.852 210.311 341.254 220.83 337.217 242.507Z" fill="#2D7080"/>
<path d="M334.375 241.321H334.377C334.63 241.319 334.836 241.114 334.834 240.86C334.727 216.043 358.03 199.27 358.265 199.104C358.472 198.957 358.521 198.672 358.374 198.464C358.229 198.258 357.944 198.206 357.734 198.355C357.496 198.524 333.807 215.575 333.916 240.865C333.917 241.117 334.122 241.321 334.375 241.321Z" fill="white"/>
<path d="M51.9174 230.033L58.9157 225.31C58.9157 225.31 61.9964 206.974 59.1345 190.869C55.1102 168.224 39.4937 160.689 33.9212 163.055C28.3486 165.421 27.1576 172.175 37.5548 185.104C43.689 192.73 51.7026 208.951 51.9174 230.033Z" fill="#173C45"/>
<path d="M54.315 220.963C54.2911 220.963 54.2681 220.963 54.245 220.959C53.9673 220.926 53.7676 220.674 53.801 220.396C56.3287 199.075 47.3278 175.943 37.5385 166.739C37.3348 166.548 37.3244 166.226 37.517 166.022C37.7095 165.82 38.0302 165.808 38.2338 166.001C48.2014 175.372 57.3742 198.88 54.8083 220.515C54.7773 220.77 54.5632 220.959 54.315 220.963Z" fill="white"/>
<path d="M33.5946 242.401C32.4839 243.068 29.237 240.66 28.3387 240.081C26.8008 239.092 25.5429 237.673 24.694 236.057C23.7066 234.176 23.4273 232.147 23.6843 230.04C23.818 228.947 24.102 227.88 24.3853 226.817C24.6637 225.773 24.9422 224.729 25.2207 223.684C25.4952 222.654 25.7728 221.589 25.6169 220.534C25.3034 218.409 23.3836 216.954 21.6396 215.699C19.711 214.313 17.6957 212.472 17.6567 209.907C17.6264 207.929 18.6162 206.071 19.812 204.495C21.0086 202.918 22.4368 201.518 23.5133 199.857C24.2882 198.661 24.8841 197.263 24.7266 195.847C24.6287 194.967 24.2476 194.144 23.8108 193.374C22.8728 191.722 21.6491 190.216 20.9895 188.433C20.33 186.652 20.3761 184.419 21.7518 183.108C22.8807 182.033 24.5858 181.853 26.1428 181.925C27.5837 181.993 29.0023 182.615 30.2745 183.29C34.3895 185.475 36.8066 190.252 41.1602 191.911C42.8398 192.551 44.6681 192.663 46.4137 193.089C48.1593 193.514 49.9479 194.367 50.7833 195.958C52.4302 199.096 49.5628 203.056 50.7427 206.397C51.7866 209.354 54.7001 210.436 56.3757 213.087C57.1085 214.246 57.2987 215.598 57.2103 216.968C57.0608 219.285 56.7552 220.988 55.6955 223.582C54.8195 225.725 52.2178 229.842 52.2178 229.842C52.2178 229.842 33.7641 242.299 33.5946 242.401Z" fill="#2D7080"/>
<path d="M44.3512 235.803C44.3441 235.803 44.3377 235.803 44.3377 235.803C44.0505 235.796 43.8293 235.564 43.8349 235.285C44.2836 215.142 34.3717 193.105 27.3503 186.783C27.1427 186.596 27.1252 186.275 27.3129 186.066C27.5007 185.859 27.8205 185.843 28.029 186.029C35.1912 192.478 45.3036 214.881 44.8493 235.307C44.8421 235.581 44.6217 235.797 44.3512 235.803Z" fill="white"/>
<path d="M40.6359 211.261C40.5866 211.262 40.5357 211.256 40.4864 211.241C33.9813 209.368 25.9153 209.17 25.8349 209.169C25.5549 209.162 25.3329 208.93 25.3385 208.65C25.3448 208.371 25.5525 208.146 25.8572 208.154C25.9392 208.156 34.1333 208.355 40.7672 210.267C41.0361 210.344 41.1921 210.625 41.1141 210.894C41.0497 211.113 40.8524 211.257 40.6359 211.261Z" fill="white"/>
<path d="M228.11 216.19L225.091 214.445C224.141 213.896 223.37 212.56 223.37 211.461L223.369 86.1368C223.369 85.038 224.14 83.7021 225.091 83.1532L308.906 34.7633C309.858 34.2143 311.4 34.2143 312.352 34.7633L315.371 36.5057C316.322 37.0547 317.093 38.3906 317.093 39.4893V164.813C317.093 165.912 316.322 167.247 315.371 167.796L231.554 216.19C230.604 216.74 229.061 216.739 228.11 216.19Z" fill="#455A64"/>
<path d="M317.092 39.2108C316.973 38.3197 316.249 37.9935 315.381 38.4948L231.57 86.8926C231.093 87.1711 230.671 87.6325 230.353 88.1736L223.885 84.4421C224.195 83.9011 224.624 83.4316 225.102 83.1532L308.921 34.7633C309.868 34.2143 311.411 34.2143 312.366 34.7633L315.381 36.5057C316.256 37.007 316.981 38.1765 317.092 39.2108Z" fill="#455A64"/>
<path d="M231.261 216.332C230.307 216.737 228.97 216.69 228.111 216.196L225.087 214.446C224.141 213.897 223.369 212.56 223.369 211.462V86.138C223.369 85.5891 223.56 84.9844 223.87 84.4434L230.339 88.1748C230.02 88.7159 229.829 89.3285 229.829 89.8775V215.202C229.829 216.188 230.45 216.642 231.261 216.332Z" fill="#455A64"/>
<path d="M229.831 89.872V215.196C229.831 216.294 230.602 216.739 231.553 216.19L315.37 167.796C316.321 167.247 317.092 165.911 317.092 164.813V39.4875C317.092 38.3888 316.321 37.944 315.37 38.493L231.553 86.8884C230.602 87.4374 229.831 88.7733 229.831 89.872Z" fill="white"/>
<path d="M210.265 137.645C209.183 137 204.162 134.144 203.9 133.993C203.104 133.508 202.818 132.33 203.558 131.534L223.377 110.275L229.837 113.983L210.026 135.25C209.31 136.014 209.541 137.12 210.265 137.645Z" fill="#455A64"/>
<path d="M229.838 113.987L210.023 135.249C209.03 136.314 209.869 138.043 211.32 137.924L229.838 136.398V113.987Z" fill="#37474F"/>
<path d="M273.482 75.7283C283.251 70.0881 291.169 74.6606 291.169 85.9402C291.169 97.2197 283.251 110.935 273.482 116.576C263.713 122.216 255.794 117.643 255.794 106.364C255.795 95.0835 263.714 81.3677 273.482 75.7283Z" fill="#2D7080"/>
<path d="M273.362 84.6062C276.531 82.7762 279.101 84.2593 279.101 87.9184C279.101 91.5782 276.532 96.0282 273.362 97.8573C270.193 99.6864 267.624 98.2042 267.624 94.5443C267.624 90.8853 270.193 86.4353 273.362 84.6062Z" fill="white"/>
<path d="M284.667 104.118C284.667 98.106 280.446 95.669 275.24 98.6756L271.985 100.555C266.779 103.561 262.558 110.872 262.558 116.883V118.523C263.498 118.835 264.518 118.99 265.597 118.992C267.972 118.997 270.645 118.215 273.483 116.576C277.727 114.126 281.62 110.149 284.667 105.513V104.118Z" fill="white"/>
<path d="M262.28 172.418L284.689 159.479C285.641 158.93 286.412 159.375 286.412 160.474V167.691C286.412 168.79 285.641 170.126 284.689 170.675L262.28 183.613C261.328 184.162 260.557 183.717 260.557 182.618V175.401C260.557 174.303 261.328 172.967 262.28 172.418Z" fill="#173C45"/>
<path d="M251.31 156.296L295.654 130.694C296.795 130.036 297.721 130.569 297.721 131.888V134.574C297.721 135.892 296.795 137.495 295.654 138.154L251.31 163.756C250.169 164.414 249.243 163.881 249.243 162.562V159.876C249.243 158.558 250.169 156.955 251.31 156.296Z" fill="#263238"/>
<path d="M256.494 137.771C257.097 137.423 257.566 137.37 257.9 137.616C258.235 137.861 258.402 138.405 258.402 139.25C258.402 140.095 258.235 140.837 257.9 141.475C257.566 142.114 257.097 142.607 256.494 142.955L255.296 143.646V146.215C255.296 146.3 255.276 146.384 255.237 146.468C255.196 146.553 255.149 146.611 255.094 146.642L254.488 146.992C254.433 147.025 254.385 147.022 254.345 146.983C254.305 146.944 254.285 146.883 254.285 146.798V139.356C254.285 139.272 254.305 139.187 254.345 139.102C254.385 139.019 254.432 138.959 254.488 138.928L256.494 137.771ZM255.296 142.206L256.456 141.536C256.74 141.372 256.967 141.155 257.137 140.884C257.306 140.613 257.39 140.264 257.39 139.833C257.39 139.403 257.306 139.154 257.137 139.087C256.966 139.02 256.74 139.069 256.456 139.233L255.296 139.903V142.206Z" fill="#263238"/>
<path d="M261.733 134.742C261.813 134.696 261.873 134.694 261.913 134.736C261.954 134.779 261.989 134.856 262.018 134.97L263.852 141.193C263.857 141.212 263.859 141.238 263.859 141.269C263.859 141.353 263.839 141.438 263.8 141.522C263.76 141.606 263.713 141.665 263.657 141.696L263.119 142.007C263.019 142.065 262.948 142.073 262.909 142.03C262.868 141.988 262.842 141.941 262.826 141.887L262.504 140.795L260.14 142.161L259.818 143.625C259.803 143.695 259.775 143.774 259.736 143.863C259.696 143.951 259.627 144.023 259.526 144.081L258.988 144.393C258.933 144.424 258.885 144.42 258.845 144.381C258.805 144.343 258.786 144.282 258.786 144.198C258.786 144.167 258.788 144.14 258.794 144.113L260.627 135.774C260.657 135.626 260.691 135.509 260.732 135.42C260.772 135.333 260.831 135.265 260.912 135.219L261.733 134.742ZM262.145 139.563L261.322 136.755L260.499 140.513L262.145 139.563Z" fill="#263238"/>
<path d="M266.65 131.792C266.985 131.599 267.279 131.498 267.533 131.49C267.787 131.481 267.999 131.532 268.169 131.641C268.339 131.751 268.467 131.905 268.554 132.104C268.641 132.303 268.69 132.511 268.701 132.728C268.706 132.817 268.686 132.903 268.645 132.985C268.602 133.066 268.554 133.123 268.499 133.155L267.974 133.457C267.89 133.507 267.827 133.518 267.784 133.493C267.742 133.468 267.702 133.423 267.668 133.359C267.593 133.21 267.481 133.109 267.328 133.054C267.176 133 266.95 133.059 266.65 133.232C266.521 133.307 266.397 133.4 266.28 133.509C266.163 133.619 266.06 133.74 265.973 133.871C265.886 134.001 265.817 134.14 265.767 134.283C265.718 134.428 265.692 134.573 265.692 134.718C265.692 134.896 265.716 135.026 265.763 135.11C265.81 135.193 265.89 135.243 266.003 135.259C266.115 135.276 266.264 135.264 266.448 135.227C266.633 135.189 266.863 135.138 267.137 135.071C267.436 134.998 267.693 134.967 267.911 134.977C268.128 134.986 268.305 135.044 268.442 135.153C268.58 135.263 268.682 135.421 268.749 135.628C268.817 135.835 268.85 136.095 268.85 136.41C268.85 136.756 268.801 137.105 268.701 137.458C268.601 137.811 268.458 138.147 268.274 138.465C268.089 138.782 267.863 139.081 267.592 139.359C267.324 139.638 267.021 139.873 266.687 140.066C266.407 140.228 266.14 140.331 265.887 140.373C265.632 140.416 265.406 140.397 265.21 140.315C265.012 140.233 264.854 140.089 264.733 139.881C264.614 139.673 264.547 139.405 264.532 139.076C264.526 138.987 264.546 138.901 264.587 138.819C264.63 138.738 264.678 138.68 264.733 138.649L265.257 138.346C265.342 138.297 265.407 138.283 265.451 138.303C265.497 138.322 265.533 138.37 265.564 138.444C265.599 138.525 265.642 138.6 265.692 138.671C265.741 138.742 265.808 138.791 265.893 138.819C265.977 138.847 266.084 138.848 266.211 138.826C266.339 138.802 266.496 138.736 266.686 138.626C266.836 138.54 266.981 138.439 267.121 138.323C267.26 138.209 267.382 138.08 267.487 137.939C267.592 137.798 267.676 137.65 267.741 137.493C267.806 137.336 267.838 137.17 267.838 136.992C267.838 136.824 267.803 136.706 267.734 136.639C267.664 136.571 267.557 136.541 267.416 136.547C267.273 136.551 267.098 136.58 266.888 136.632C266.679 136.683 266.437 136.735 266.163 136.785C265.913 136.837 265.695 136.854 265.508 136.835C265.321 136.816 265.166 136.749 265.044 136.636C264.922 136.522 264.831 136.357 264.771 136.142C264.711 135.927 264.682 135.648 264.682 135.301C264.682 134.955 264.731 134.608 264.832 134.259C264.931 133.91 265.069 133.58 265.244 133.273C265.418 132.964 265.626 132.681 265.868 132.423C266.11 132.163 266.372 131.953 266.65 131.792Z" fill="#263238"/>
<path d="M271.866 128.775C272.201 128.582 272.495 128.481 272.749 128.473C273.003 128.464 273.216 128.514 273.386 128.623C273.555 128.733 273.683 128.887 273.77 129.086C273.858 129.286 273.906 129.494 273.917 129.71C273.922 129.8 273.903 129.886 273.861 129.967C273.818 130.049 273.77 130.106 273.715 130.137L273.19 130.44C273.105 130.49 273.042 130.501 273 130.476C272.958 130.451 272.919 130.405 272.885 130.342C272.809 130.194 272.697 130.091 272.544 130.036C272.392 129.983 272.166 130.041 271.866 130.214C271.737 130.29 271.614 130.382 271.496 130.492C271.379 130.603 271.277 130.722 271.189 130.853C271.102 130.984 271.033 131.122 270.983 131.266C270.934 131.41 270.909 131.555 270.909 131.701C270.909 131.879 270.932 132.008 270.979 132.092C271.027 132.177 271.106 132.226 271.219 132.242C271.332 132.258 271.48 132.247 271.664 132.21C271.849 132.172 272.079 132.121 272.353 132.055C272.653 131.981 272.91 131.95 273.128 131.959C273.344 131.969 273.521 132.027 273.658 132.136C273.796 132.246 273.898 132.403 273.965 132.61C274.033 132.818 274.066 133.078 274.066 133.393C274.066 133.738 274.017 134.087 273.917 134.441C273.817 134.794 273.674 135.13 273.49 135.447C273.307 135.765 273.079 136.063 272.809 136.342C272.54 136.621 272.238 136.856 271.905 137.049C271.624 137.21 271.357 137.313 271.103 137.356C270.85 137.4 270.624 137.38 270.426 137.298C270.229 137.216 270.071 137.072 269.951 136.863C269.831 136.656 269.764 136.388 269.749 136.058C269.744 135.969 269.763 135.883 269.805 135.802C269.846 135.719 269.895 135.663 269.951 135.631L270.474 135.329C270.558 135.279 270.624 135.265 270.668 135.286C270.714 135.305 270.751 135.352 270.781 135.427C270.816 135.508 270.859 135.582 270.909 135.654C270.958 135.724 271.025 135.773 271.111 135.802C271.195 135.83 271.302 135.831 271.428 135.809C271.555 135.785 271.713 135.719 271.904 135.609C272.053 135.523 272.197 135.423 272.337 135.306C272.477 135.193 272.599 135.064 272.704 134.923C272.808 134.781 272.894 134.634 272.959 134.476C273.023 134.32 273.055 134.154 273.055 133.977C273.055 133.808 273.02 133.69 272.951 133.623C272.881 133.556 272.774 133.525 272.633 133.53C272.491 133.536 272.315 133.564 272.105 133.616C271.896 133.667 271.654 133.719 271.38 133.77C271.131 133.821 270.912 133.838 270.725 133.819C270.539 133.8 270.383 133.734 270.262 133.62C270.139 133.507 270.048 133.342 269.988 133.126C269.928 132.911 269.899 132.631 269.899 132.285C269.899 131.94 269.948 131.592 270.048 131.243C270.148 130.894 270.286 130.564 270.461 130.256C270.635 129.948 270.842 129.665 271.085 129.407C271.327 129.147 271.587 128.937 271.866 128.775Z" fill="#263238"/>
<path d="M277.666 129.772L277.023 133.588C276.998 133.717 276.966 133.83 276.929 133.924C276.891 134.019 276.836 134.088 276.761 134.131L276.154 134.481C276.079 134.524 276.02 134.522 275.978 134.472C275.935 134.424 275.907 134.346 275.893 134.241L274.934 127.525C274.929 127.489 274.927 127.46 274.927 127.437C274.927 127.353 274.947 127.268 274.987 127.183C275.026 127.099 275.073 127.04 275.129 127.009L275.682 126.689C275.731 126.662 275.78 126.657 275.825 126.677C275.87 126.697 275.9 126.759 275.914 126.867L276.543 131.388L277.097 127.993C277.107 127.933 277.13 127.849 277.168 127.744C277.205 127.639 277.269 127.56 277.358 127.507L277.972 127.153C278.062 127.102 278.125 127.107 278.163 127.17C278.2 127.233 278.223 127.288 278.234 127.335L278.787 130.092L279.416 124.845C279.43 124.721 279.461 124.624 279.506 124.551C279.55 124.479 279.598 124.428 279.648 124.4L280.201 124.081C280.256 124.05 280.304 124.053 280.344 124.092C280.383 124.13 280.403 124.191 280.403 124.275C280.403 124.298 280.401 124.33 280.396 124.371L279.438 132.194C279.422 132.318 279.394 132.428 279.353 132.525C279.31 132.622 279.252 132.693 279.176 132.737L278.57 133.086C278.495 133.13 278.439 133.126 278.401 133.074C278.364 133.023 278.333 132.947 278.308 132.846L277.666 129.772Z" fill="#263238"/>
<path d="M281.391 126.399C281.407 125.961 281.46 125.524 281.552 125.09C281.644 124.657 281.78 124.248 281.96 123.864C282.14 123.481 282.364 123.128 282.633 122.808C282.904 122.486 283.222 122.221 283.592 122.007C283.955 121.796 284.272 121.694 284.541 121.699C284.811 121.706 285.035 121.799 285.215 121.979C285.395 122.16 285.531 122.412 285.626 122.732C285.721 123.054 285.777 123.429 285.792 123.858C285.796 124.002 285.8 124.161 285.803 124.335C285.805 124.51 285.807 124.692 285.807 124.88C285.807 125.069 285.805 125.252 285.803 125.429C285.8 125.608 285.796 125.771 285.792 125.919C285.776 126.359 285.722 126.795 285.631 127.228C285.539 127.662 285.403 128.071 285.223 128.454C285.043 128.838 284.817 129.189 284.546 129.508C284.273 129.826 283.955 130.09 283.592 130.3C283.222 130.513 282.904 130.617 282.633 130.612C282.364 130.606 282.14 130.515 281.96 130.338C281.78 130.162 281.644 129.91 281.552 129.582C281.46 129.256 281.406 128.882 281.391 128.461C281.386 128.317 281.382 128.159 281.38 127.982C281.377 127.807 281.376 127.626 281.376 127.438C281.376 127.251 281.377 127.067 281.38 126.888C281.382 126.711 281.386 126.548 281.391 126.399ZM284.781 124.499C284.761 123.957 284.645 123.597 284.433 123.416C284.22 123.235 283.94 123.245 283.591 123.447C283.242 123.649 282.961 123.962 282.748 124.389C282.536 124.814 282.42 125.308 282.4 125.873C282.39 126.171 282.384 126.499 282.384 126.856C282.384 127.213 282.39 127.534 282.4 127.82C282.419 128.362 282.536 128.721 282.748 128.897C282.961 129.075 283.241 129.062 283.591 128.861C283.94 128.66 284.22 128.348 284.433 127.926C284.645 127.504 284.761 127.011 284.781 126.446C284.792 126.149 284.796 125.822 284.796 125.464C284.796 125.107 284.792 124.786 284.781 124.499Z" fill="#263238"/>
<path d="M289.293 118.833C289.916 118.473 290.389 118.422 290.714 118.681C291.037 118.939 291.2 119.464 291.2 120.255C291.2 120.816 291.117 121.341 290.95 121.834C290.782 122.325 290.536 122.761 290.212 123.141L291.245 125.39C291.26 125.428 291.267 125.466 291.267 125.505C291.267 125.573 291.251 125.642 291.218 125.712C291.186 125.78 291.146 125.827 291.102 125.853L290.465 126.22C290.366 126.277 290.292 126.284 290.245 126.238C290.197 126.191 290.164 126.145 290.144 126.095L289.164 123.976L288.169 124.551V127.235C288.169 127.32 288.149 127.404 288.109 127.487C288.069 127.573 288.023 127.631 287.967 127.663L287.361 128.013C287.306 128.044 287.259 128.04 287.218 128.001C287.178 127.963 287.159 127.903 287.159 127.818V120.376C287.159 120.291 287.178 120.207 287.218 120.123C287.259 120.038 287.305 119.98 287.361 119.947L289.293 118.833ZM288.17 123.11L289.254 122.484C289.539 122.32 289.766 122.111 289.935 121.86C290.105 121.609 290.189 121.268 290.189 120.838C290.189 120.408 290.104 120.168 289.935 120.121C289.765 120.073 289.539 120.131 289.254 120.296L288.17 120.922V123.11Z" fill="#263238"/>
<path d="M294.59 115.772C294.96 115.559 295.279 115.449 295.552 115.441C295.824 115.434 296.05 115.516 296.233 115.688C296.416 115.859 296.554 116.112 296.652 116.448C296.749 116.784 296.807 117.188 296.828 117.66C296.848 118.216 296.848 118.785 296.828 119.365C296.808 119.86 296.749 120.332 296.652 120.779C296.554 121.228 296.416 121.641 296.237 122.022C296.056 122.402 295.833 122.744 295.566 123.048C295.299 123.352 294.987 123.607 294.627 123.815L292.741 124.903C292.686 124.935 292.64 124.932 292.599 124.893C292.559 124.855 292.539 124.794 292.539 124.709V117.267C292.539 117.183 292.559 117.097 292.599 117.014C292.64 116.929 292.686 116.871 292.741 116.839L294.59 115.772ZM295.817 118.243C295.807 118.003 295.776 117.793 295.724 117.612C295.672 117.431 295.595 117.291 295.492 117.194C295.389 117.095 295.261 117.047 295.108 117.047C294.952 117.049 294.767 117.111 294.554 117.235L293.551 117.813V122.998L294.591 122.398C294.796 122.28 294.972 122.134 295.123 121.958C295.272 121.783 295.396 121.591 295.497 121.379C295.596 121.167 295.672 120.939 295.725 120.694C295.777 120.448 295.809 120.2 295.818 119.95C295.836 119.368 295.836 118.801 295.817 118.243Z" fill="#263238"/>
<path d="M185.351 0.29906C186.741 0.606967 188.052 1.09946 189.283 1.77494C190.514 2.45122 191.557 3.27947 192.41 4.25968C193.264 5.23909 193.879 6.35296 194.254 7.6005C194.629 8.84645 194.656 10.1958 194.336 11.6447C194.074 12.8278 193.661 13.8159 193.098 14.606C192.534 15.3968 191.888 16.0763 191.157 16.6428C190.427 17.2101 189.656 17.7073 188.849 18.133C188.04 18.5594 187.275 18.9644 186.555 19.3463C185.834 19.7298 185.18 20.1531 184.599 20.6129C184.016 21.0736 183.608 21.6202 183.375 22.2511C183.243 22.5638 183.048 22.8144 182.79 23.0046C182.529 23.1963 182.237 23.2544 181.912 23.1836L178.539 22.4365C178.214 22.3649 177.951 22.1835 177.753 21.8899C177.554 21.5979 177.506 21.2932 177.607 20.9741C177.922 19.8332 178.389 18.8737 179.012 18.0964C179.634 17.3191 180.325 16.6499 181.085 16.0882C181.846 15.5273 182.636 15.0436 183.456 14.6354C184.274 14.2265 185.037 13.8294 185.745 13.4428C186.45 13.0569 187.053 12.6464 187.551 12.2143C188.051 11.7823 188.369 11.2548 188.507 10.6334C188.755 9.51 188.488 8.48046 187.701 7.5456C186.915 6.61154 185.737 5.97107 184.17 5.62338C181.656 5.06644 179.528 5.91458 177.788 8.16699C177.569 8.45978 177.359 8.66903 177.161 8.79553C176.962 8.92283 176.67 8.94352 176.285 8.85759L172.691 8.06197C172.425 8.00309 172.214 7.86306 172.062 7.64347C171.909 7.42387 171.866 7.1653 171.931 6.86932C172.189 5.84058 172.742 4.85401 173.587 3.90801C174.432 2.96281 175.463 2.16719 176.676 1.51955C177.89 0.873501 179.247 0.420789 180.747 0.163803C182.249 -0.0923884 183.783 -0.0486275 185.351 0.29906ZM181.545 25.8959C181.87 25.9675 182.125 26.1481 182.308 26.4377C182.493 26.7265 182.549 27.0336 182.477 27.359L181.612 31.2632C181.54 31.5894 181.36 31.844 181.07 32.0278C180.781 32.2131 180.475 32.2688 180.15 32.1964L176.334 31.3515C176.008 31.2783 175.753 31.0993 175.568 30.8089C175.384 30.52 175.327 30.2137 175.4 29.8875L176.265 25.9826C176.337 25.658 176.517 25.4026 176.806 25.218C177.096 25.035 177.402 24.9777 177.729 25.0501L181.545 25.8959Z" fill="#2D7080"/>
<path d="M189.597 37.6171C190.567 37.4588 191.533 37.4373 192.496 37.5566C193.458 37.6744 194.338 37.9377 195.137 38.3475C195.935 38.7588 196.614 39.315 197.174 40.0183C197.734 40.7224 198.096 41.5801 198.262 42.5897C198.396 43.4156 198.384 44.1555 198.226 44.8056C198.068 45.4564 197.827 46.0579 197.504 46.6092C197.181 47.1598 196.815 47.6754 196.405 48.1551C195.996 48.6357 195.609 49.09 195.246 49.5204C194.881 49.9509 194.571 50.3893 194.316 50.8332C194.059 51.2772 193.938 51.7315 193.95 52.1953C193.946 52.43 193.884 52.6409 193.768 52.8294C193.651 53.018 193.478 53.131 193.252 53.1684L190.898 53.5527C190.671 53.59 190.456 53.5399 190.253 53.4031C190.051 53.267 189.941 53.084 189.925 52.8533C189.836 52.041 189.89 51.3074 190.09 50.6486C190.289 49.9914 190.561 49.3844 190.905 48.8306C191.249 48.2769 191.631 47.7637 192.052 47.2919C192.473 46.8209 192.86 46.3706 193.215 45.9409C193.568 45.5137 193.849 45.096 194.059 44.6918C194.268 44.286 194.338 43.8675 194.267 43.4331C194.139 42.6502 193.703 42.0583 192.959 41.6597C192.215 41.2619 191.297 41.1521 190.203 41.3311C188.449 41.6175 187.302 42.7067 186.763 44.5963C186.697 44.8398 186.616 45.0275 186.521 45.1596C186.426 45.2925 186.244 45.38 185.976 45.4238L183.469 45.8343C183.283 45.8645 183.112 45.8287 182.957 45.7269C182.803 45.6243 182.709 45.4707 182.675 45.2638C182.577 44.539 182.679 43.7641 182.98 42.9414C183.279 42.1187 183.735 41.3446 184.348 40.6198C184.961 39.8942 185.716 39.2577 186.611 38.7087C187.508 38.1597 188.503 37.7961 189.597 37.6171ZM193.709 55.0007C193.935 54.9641 194.145 55.015 194.338 55.1519C194.53 55.2911 194.644 55.4733 194.682 55.6992L195.127 58.4251C195.165 58.6518 195.114 58.8619 194.976 59.0536C194.838 59.2461 194.655 59.3599 194.428 59.3973L191.765 59.8325C191.538 59.8699 191.328 59.8198 191.136 59.6821C190.944 59.5437 190.829 59.3615 190.792 59.1348L190.346 56.4089C190.31 56.183 190.36 55.9729 190.497 55.7804C190.636 55.5887 190.818 55.4733 191.045 55.4359L193.709 55.0007Z" fill="#2D7080"/>
<g opacity="0.6">
<path d="M210.123 36.0441C210.345 36.2024 210.479 36.4196 210.527 36.6957C210.573 36.9726 210.517 37.2216 210.36 37.4436L208.465 40.1097C208.306 40.3325 208.089 40.467 207.813 40.5131C207.536 40.5609 207.287 40.5044 207.065 40.3468L204.46 38.4946C204.238 38.3363 204.104 38.1199 204.057 37.8438C204.009 37.5661 204.066 37.3179 204.224 37.0959L206.119 34.429C206.277 34.207 206.493 34.0725 206.771 34.0256C207.047 33.9787 207.295 34.0343 207.518 34.1927L210.123 36.0441ZM221.145 17.9739C222.094 18.6478 222.925 19.4362 223.637 20.3377C224.349 21.2399 224.872 22.1955 225.201 23.2051C225.532 24.2163 225.641 25.2499 225.526 26.3088C225.412 27.3686 225.003 28.3926 224.299 29.3823C223.725 30.1907 223.099 30.8025 222.425 31.2186C221.748 31.6355 221.045 31.9411 220.314 32.1352C219.582 32.3301 218.844 32.459 218.101 32.5235C217.354 32.5863 216.65 32.6476 215.985 32.7065C215.32 32.7653 214.694 32.8759 214.109 33.0374C213.522 33.1981 213.041 33.4806 212.666 33.8816C212.467 34.0749 212.24 34.2014 211.984 34.2627C211.728 34.3239 211.489 34.2754 211.267 34.1171L208.964 32.4797C208.742 32.3222 208.602 32.1018 208.545 31.8177C208.489 31.5345 208.548 31.2886 208.726 31.0802C209.328 30.3212 209.985 29.7475 210.702 29.3601C211.418 28.9734 212.152 28.6885 212.904 28.5079C213.655 28.3273 214.405 28.2144 215.153 28.1682C215.899 28.1213 216.601 28.0648 217.257 27.9987C217.912 27.9327 218.496 27.8165 219.011 27.6495C219.524 27.4824 219.932 27.1872 220.234 26.7631C220.779 25.9954 220.904 25.1353 220.61 24.1805C220.316 23.2266 219.633 22.3689 218.564 21.6083C216.846 20.3878 214.972 20.3488 212.945 21.4913C212.685 21.6417 212.461 21.734 212.272 21.7658C212.081 21.7976 211.856 21.7205 211.593 21.5343L209.139 19.7895C208.957 19.6606 208.843 19.4887 208.798 19.2747C208.753 19.0591 208.803 18.8522 208.945 18.6502C209.467 17.9572 210.198 17.3891 211.136 16.9459C212.075 16.5028 213.104 16.2315 214.225 16.1312C215.344 16.031 216.511 16.1217 217.723 16.4065C218.932 16.6897 220.074 17.2125 221.145 17.9739Z" fill="#2D7080"/>
</g>
<path d="M152.824 112.331H124.558V43.8401C124.558 31.4547 134.599 21.4131 146.985 21.4131H149.597C161.984 21.4131 172.025 31.4539 172.025 43.8401V93.133C172.024 103.736 163.428 112.331 152.824 112.331Z" fill="#263238"/>
<path d="M121.807 277.209C121.575 278.929 121.081 280.937 120.989 285.805C120.89 291.023 119.931 292.875 119.804 297.158C119.659 302.051 120.504 303.882 122.49 306.632C124.476 309.382 129.687 311.878 131.889 307.229C134.119 302.524 133.809 299.535 133.104 294.734C132.376 289.772 132.284 287.031 131.862 283.246C131.49 279.91 131.044 277.376 131.044 277.376L121.807 277.209Z" fill="#263238"/>
<path d="M136.625 242.543L119.436 242.231C119.691 253.706 121.515 266.442 121.813 277.208C121.868 279.234 121.762 292.956 122.526 297.126C123.674 303.39 131.111 302.545 131.506 298.795C131.9 295.046 131.027 279.027 131.051 277.375C130.985 270.471 134.221 258.815 135.918 246.421C136.001 245.813 136.546 243.137 136.625 242.543Z" fill="#FFA8A7"/>
<path d="M158.72 268.275C158.72 268.275 158.041 267.911 157.901 268.635C157.735 269.497 157.486 271.272 157.128 272.687C156.631 274.653 156.217 277.891 156.516 279.493C156.814 281.094 160.549 283.157 162.973 283.901C166.55 284.999 169.005 286.793 170.964 288.638C173.366 290.898 178.547 293.033 182.076 293.007C186.251 292.977 189.163 291.617 190.538 289.381C191.975 287.046 189.284 286.874 184.512 283.778C183.429 283.075 182.195 282.28 180.808 281.374C173.248 276.435 170.48 273.789 168.341 268.85L158.72 268.275Z" fill="#263238"/>
<path d="M168.393 265.219C168.265 261.666 170.702 231.527 170.702 231.527L154.379 238.969C157.875 259.832 158.619 264.753 158.681 268.167C158.654 268.246 158.585 268.536 158.589 269.041C158.604 273.095 163.178 275.28 166.747 277.983C168.156 279.05 172.256 282.202 176.398 284.284C178.991 285.587 184.255 285.705 184.908 284.037C180.565 280.721 174.249 275.758 170.796 271.971C169.146 270.162 168.52 268.771 168.393 265.219Z" fill="#FFA8A7"/>
<path d="M126.483 130.587C120.217 144.35 120.217 154.992 121.253 172.551C122.203 188.659 123.718 202.838 123.718 202.838C123.475 205.697 119.503 211.274 118.989 223.905C118.508 235.714 119.802 250.725 119.802 250.725C119.802 250.725 128.719 255.667 135.313 250.682C135.313 250.682 141.676 220.298 143.541 205.516C145.168 192.617 147.995 176.135 147.995 176.135L153.985 205.446C153.985 205.446 151.706 212.673 151.173 218.178C150.331 226.873 155.193 243.945 155.193 243.945C155.193 243.945 164.408 246.695 170.035 241.705C170.035 241.705 172.139 213.947 172.925 203.472C173.977 189.447 171.765 151.478 170.034 131.377L126.483 130.587Z" fill="#455A64"/>
<path d="M147.996 176.134L150.472 154.07C150.472 154.07 161.564 152.588 166.588 147.864C166.588 147.864 162.813 154.781 153.52 156.124L149.94 176.655L153.987 205.446L147.996 176.134Z" fill="#263238"/>
<path d="M192.893 125.163C193.583 118.4 193.557 113.894 193.497 113.028C193.255 109.526 192.629 108.957 187.734 102.752C181.125 94.3762 175.485 86.848 169.519 79.358C165.26 74.0106 160.783 73.1879 156.41 73.4298C153.352 73.5992 159.317 88.2936 162.322 96.989L179.469 115.432C179.996 116.16 180.239 117.056 180.151 117.951L179.098 133.651L184.233 140.52C184.233 140.52 192.009 133.816 192.893 125.163Z" fill="#FFA8A7"/>
<path d="M139.901 73.9069C136.584 74.1352 130.554 74.6659 130.554 74.6659C127.074 76.608 126.194 78.2001 125.547 82.8218C125.271 84.7878 126.874 90.0342 128.25 97.4876L130.862 111.311L130.579 118.166C129.223 122.348 126.156 127.548 123.455 135.211C136.739 142.625 147.88 142.899 157.984 141.603C165.688 140.614 169.765 138.749 171.124 136.908C170.841 129.336 170.305 124.662 170.174 116.752C170.119 113.43 170.319 110.078 170.448 106.254C175.617 102.008 175.676 94.9464 172.856 90.3819C166.306 79.777 159.937 73.1001 155.718 73.4422L139.901 73.9069Z" fill="#27DEBF"/>
<path opacity="0.6" d="M139.901 73.9069C136.584 74.1352 130.554 74.6659 130.554 74.6659C127.074 76.608 126.194 78.2001 125.547 82.8218C125.271 84.7878 126.874 90.0342 128.25 97.4876L130.862 111.311L130.579 118.166C129.223 122.348 126.156 127.548 123.455 135.211C136.739 142.625 147.88 142.899 157.984 141.603C165.688 140.614 169.765 138.749 171.124 136.908C170.841 129.336 170.305 124.662 170.174 116.752C170.119 113.43 170.319 110.078 170.448 106.254C175.617 102.008 175.676 94.9464 172.856 90.3819C166.306 79.777 159.937 73.1001 155.718 73.4422L139.901 73.9069Z" fill="#FF725E"/>
<path opacity="0.1" d="M160.174 106.368C160.174 106.368 154.106 111.077 147.182 108.622C140.258 106.166 139.247 100.113 139.247 100.113C139.247 100.113 138.512 108.029 147.246 110.728C155.676 113.333 160.174 106.368 160.174 106.368Z" fill="black"/>
<path d="M168.401 52.1766C168.14 63.6631 164.411 66.5026 162.543 67.3182C160.675 68.1337 157.069 67.6364 153.569 67.0572V73.9505C153.569 73.9505 157.608 78.1848 157.306 81.3418C156.996 84.5068 150.959 84.8577 146.423 81.7659C143.113 79.5111 140.748 76.9333 139.716 75.7104C139.341 75.2657 139.138 74.7071 139.138 74.1247V57.9035C139.138 57.9035 137.22 59.9348 133.827 57.61C130.442 55.2931 130.148 50.9689 132.22 48.5215C133.696 46.7839 137.449 46.6614 139.252 49.3617C140.263 51.3444 140.403 53.3351 141.536 52.5108C144.563 50.3324 142.94 45.3804 146.594 42.9331C146.602 42.9331 146.602 42.9251 146.61 42.9251C147.703 42.338 148.944 41.7826 150.331 41.3013C156.849 39.0496 162.495 37.1568 163.857 32.7021C166.426 34.2282 168.719 38.6256 168.401 52.1766Z" fill="#FFA8A7"/>
<path d="M155.551 62.4392C156.383 62.4392 157.058 61.7642 157.058 60.9315C157.058 60.0988 156.383 59.4238 155.551 59.4238C154.718 59.4238 154.043 60.0988 154.043 60.9315C154.043 61.7642 154.718 62.4392 155.551 62.4392Z" fill="#B16668"/>
<path d="M154.544 50.4348C154.59 51.3458 153.916 52.1167 153.04 52.1589C152.163 52.2003 151.416 51.4962 151.37 50.5852C151.325 49.675 151.998 48.9032 152.875 48.861C153.751 48.8205 154.498 49.5246 154.544 50.4348Z" fill="#263238"/>
<path d="M166.602 50.5932C166.644 51.4207 166.031 52.1224 165.234 52.1598C164.358 52.2012 163.762 51.6403 163.716 50.7301C163.674 49.9026 164.286 49.2009 165.084 49.1627C165.881 49.1253 166.56 49.7658 166.602 50.5932Z" fill="#263238"/>
<path d="M152.503 54.5299C149.65 54.5299 147.328 52.2083 147.328 49.3552C147.328 45.8369 150.954 45.8369 152.503 45.8369C154.052 45.8369 157.678 45.8369 157.678 49.3552C157.678 52.2091 155.356 54.5299 152.503 54.5299ZM152.503 46.6532C149.367 46.6532 148.145 47.4107 148.145 49.356C148.145 51.7595 150.1 53.7144 152.503 53.7144C154.907 53.7144 156.862 51.7595 156.862 49.356C156.862 47.4107 155.639 46.6532 152.503 46.6532Z" fill="#455A64"/>
<path d="M165.627 54.5299C162.774 54.5299 160.452 52.2083 160.452 49.3552C160.452 45.8369 164.078 45.8369 165.627 45.8369C167.176 45.8369 170.801 45.8369 170.801 49.3552C170.801 52.2091 168.48 54.5299 165.627 54.5299ZM165.627 46.6532C162.49 46.6532 161.268 47.4107 161.268 49.356C161.268 51.7595 163.223 53.7144 165.627 53.7144C168.03 53.7144 169.985 51.7595 169.985 49.356C169.985 47.4107 168.763 46.6532 165.627 46.6532Z" fill="#455A64"/>
<path d="M158.481 47.6816L158.736 57.3453L163.822 55.7692L158.481 47.6816Z" fill="#F28F8F"/>
<path d="M153.56 67.0577C149.866 66.5732 142.266 64.39 141.083 61.3857C141.083 61.3857 141.477 63.2738 143.747 65.2199C146.017 67.1652 153.56 69.3579 153.56 69.3579V67.0577Z" fill="#F28F8F"/>
<path d="M153.74 42.9919L150.37 45.0462C149.818 44.0763 150.125 42.8304 151.056 42.2631C151.987 41.6958 153.189 42.022 153.74 42.9919Z" fill="#263238"/>
<path d="M167.465 45.2834L163.71 43.9722C164.036 42.9132 165.141 42.3491 166.177 42.7112C167.214 43.0724 167.79 44.2244 167.465 45.2834Z" fill="#263238"/>
<path d="M157.253 49.7629C157.028 49.7629 156.845 49.5767 156.845 49.3507C156.845 48.6888 158.155 48.2607 159.33 48.2607C160.505 48.2607 161.264 48.6888 161.264 49.3507C161.264 49.5759 161.082 49.7589 160.856 49.7589C160.631 49.7589 160.448 49.5767 160.448 49.3507C160.411 49.276 160.035 49.077 159.329 49.077C158.624 49.077 157.698 49.276 157.659 49.3579C157.66 49.5839 157.478 49.7629 157.253 49.7629Z" fill="#455A64"/>
<path d="M147.755 49.4202C147.74 49.4202 147.725 49.4194 147.709 49.4178L138.614 48.5895C138.451 48.4384 138.02 47.9936 137.124 47.6221L147.799 48.6071C148.023 48.6317 148.185 48.8338 148.16 49.0582C148.136 49.2658 147.959 49.4202 147.755 49.4202Z" fill="#455A64"/>
<path d="M110.395 58.9001C113.369 54.9267 115.397 51.9241 118.112 48.518C119.653 46.5838 120.638 45.2034 122.121 43.2191C123.142 41.853 123.741 40.701 124.872 40.2777C126.145 39.8011 127.373 38.8591 128.191 37.999C128.776 37.384 129.255 36.6783 129.761 35.9965C131.461 33.7058 133.491 31.6611 135.769 29.9449C138.163 28.1413 140.823 26.7656 143.279 25.0471C144.744 24.0215 146.316 22.3181 144.532 20.7284C144 20.2534 143.323 19.9702 142.626 19.8182C138.297 18.8722 134.52 20.3648 130.285 21.4477C128.445 21.9179 126.634 22.5074 124.893 23.2689C124.048 23.638 123.206 24.0398 122.506 24.6389C121.414 25.573 120.761 26.9025 120.052 28.1508C118.148 31.5052 114.204 34.4649 111.428 37.0761C108.172 40.1393 105.261 42.9478 101.547 46.3276C98.2034 49.3693 94.9326 52.1739 91.8663 55.4956C89.3298 58.2437 90.2528 60.3935 90.614 61.1358C92.681 65.3876 94.9955 66.912 97.7603 69.5455C102.549 74.1077 119.044 87.2307 124.516 91.5621C125.687 92.489 126.607 93.6911 127.198 95.0628L128.243 97.4895C134.481 98.6375 138.643 89.2723 133.477 77.9959C132.639 76.1667 131.309 74.6097 129.684 73.4242C123.173 68.6743 110.395 58.9001 110.395 58.9001Z" fill="#FFA8A7"/>
<path d="M110.395 58.8984C110.395 58.8984 107.575 62.6689 102.771 64.1456C102.771 64.1456 106.75 65.1608 112.196 60.2733L110.395 58.8984Z" fill="#F28F8F"/>
<path d="M191.275 116.861L191.296 116.864L190.276 115.985L190.275 115.997C190.045 115.813 189.688 115.755 189.226 115.88L178.179 118.886C177.155 119.164 176.044 120.202 175.697 121.205L167.747 144.142C167.563 144.673 167.636 145.083 167.893 145.314L167.885 145.317L168.936 146.223L168.936 146.21C169.165 146.401 169.526 146.462 169.995 146.335L181.042 143.33C182.066 143.052 183.177 142.013 183.524 141.01C185.086 136.501 189.914 122.58 191.475 118.072C191.671 117.507 191.574 117.082 191.275 116.861Z" fill="#455A64"/>
<path d="M168.767 145.021L176.717 122.084C177.064 121.082 178.175 120.043 179.199 119.765L190.247 116.761C191.271 116.482 191.819 117.069 191.472 118.072C189.911 122.58 185.083 136.501 183.522 141.01C183.175 142.012 182.063 143.051 181.04 143.33L169.992 146.334C168.968 146.611 168.42 146.024 168.767 145.021Z" fill="#2D7080"/>
<path d="M177.999 120.402C177.424 120.856 176.929 121.481 176.718 122.087L168.765 145.017C168.594 145.531 168.645 145.935 168.876 146.167L167.887 145.319L167.897 145.309C167.635 145.076 167.564 144.673 167.746 144.138L175.699 121.198C175.89 120.633 176.345 120.058 176.879 119.604L177.999 120.402Z" fill="#37474F"/>
<path d="M188.239 127.315C187.46 129.651 184.684 131.21 180.121 132.291C175.558 133.372 173.03 138.218 173.767 139.692C174.504 141.166 181.878 142.536 184.827 142.115C187.776 141.693 190.743 137.43 191.636 136.111C192.529 134.792 193.569 125.578 192.622 124.314C191.673 123.05 189.682 123.244 189.682 123.244L188.239 127.315Z" fill="#F28F8F"/>
</svg>
