<svg width="20" height="20" viewBox="0 0 20 20" fill="none" xmlns="http://www.w3.org/2000/svg">
<g clip-path="url(#clip0_7218_31315)">
<path d="M8.5 0.450001C8.5 1.2 7.8 1.95 6.65 2.375C5.625 2.775 5.475 2.775 4.725 2.4L3.9 1.975L2.95 2.95L1.975 3.9L2.4 4.725C2.775 5.475 2.775 5.625 2.375 6.65C1.95 7.8 1.2 8.5 0.45 8.5C0.075 8.5 0 8.725 0 10C0 11.275 0.075 11.5 0.45 11.5C1.2 11.5 1.95 12.2 2.375 13.35C2.775 14.375 2.775 14.525 2.4 15.275L1.975 16.1L2.95 17.05L3.9 18.025L4.725 17.6C5.475 17.225 5.625 17.225 6.65 17.625C7.8 18.05 8.5 18.8 8.5 19.55C8.5 19.925 8.725 20 10 20C11.275 20 11.5 19.925 11.5 19.55C11.5 18.8 12.2 18.05 13.35 17.625C14.375 17.225 14.525 17.225 15.275 17.6L16.1 18.025L17.05 17.05L18.025 16.1L17.6 15.275C17.225 14.525 17.225 14.375 17.625 13.35C18.05 12.2 18.8 11.5 19.55 11.5C19.925 11.5 20 11.275 20 10C20 8.725 19.925 8.5 19.55 8.5C18.8 8.5 18.05 7.8 17.625 6.65C17.225 5.625 17.225 5.475 17.6 4.725L18.025 3.9L17.05 2.95L16.1 1.975L15.275 2.4C14.525 2.775 14.375 2.775 13.35 2.375C12.2 1.95 11.5 1.2 11.5 0.450001C11.5 0.0750008 11.275 0 10 0C8.725 0 8.5 0.0750008 8.5 0.450001ZM11 1.075C11 1.25 11.3 1.7 11.7 2.025C12.95 3.175 14.475 3.55 15.55 2.975C15.975 2.75 16.175 2.8 16.65 3.3C17.175 3.825 17.225 3.975 16.975 4.65C16.8 5.075 16.75 5.8 16.85 6.325C17.025 7.325 18.325 9 18.9 9C19.15 9 19.25 9.3 19.25 10C19.25 10.7 19.15 11 18.9 11C18.325 11 17.025 12.675 16.85 13.675C16.75 14.2 16.8 14.925 16.975 15.35C17.225 16.025 17.175 16.175 16.65 16.7C16.175 17.2 15.975 17.25 15.55 17.025C14.475 16.45 12.95 16.825 11.7 17.975C11.3 18.3 11 18.75 11 18.925C11 19.15 10.65 19.25 10 19.25C9.3 19.25 9 19.15 9 18.9C9 18.325 7.325 17.025 6.325 16.85C5.8 16.75 5.075 16.8 4.65 16.975C3.975 17.225 3.825 17.175 3.325 16.675C2.825 16.175 2.775 16.025 3.025 15.35C3.2 14.925 3.25 14.2 3.15 13.675C2.975 12.675 1.675 11 1.1 11C0.85 11 0.75 10.7 0.75 10C0.75 9.3 0.85 9 1.1 9C1.675 9 2.975 7.325 3.15 6.325C3.25 5.8 3.2 5.075 3.025 4.65C2.775 3.975 2.825 3.825 3.35 3.3C3.825 2.8 4.025 2.75 4.45 2.975C5.525 3.55 7.05 3.175 8.325 2.025C8.7 1.7 9 1.25 9 1.075C9 0.85 9.35 0.75 10 0.75C10.65 0.75 11 0.85 11 1.075Z" fill="#424242"/>
<circle cx="10" cy="10" r="4.75" stroke="#424242" stroke-width="0.5"/>
</g>
<defs>
<clipPath id="clip0_7218_31315">
<rect width="20" height="20" fill="white"/>
</clipPath>
</defs>
</svg>
