<svg width="55" height="54" viewBox="0 0 55 54" fill="none" xmlns="http://www.w3.org/2000/svg">
<path d="M55 27C55 41.9117 42.6878 54 27.5 54C12.3122 54 0 41.9117 0 27C0 12.0883 12.3122 0 27.5 0C42.6878 0 55 12.0883 55 27Z" fill="#E6F3F3"/>
<path d="M26.7833 13V17.7009H18.2891V25.715H13V13H26.7833Z" fill="#ED1D24"/>
<path d="M26.7833 41V36.2991H18.2891V28.285H13V41H26.7833Z" fill="#ED1D24"/>
<path d="M29.2167 13V17.7009H37.7109V25.715H43V13H29.2167Z" fill="#ED1D24"/>
<path d="M29.2167 41V36.2991H37.7109V28.285H43V41H29.2167Z" fill="#ED1D24"/>
<rect x="23.25" y="22.3984" width="9.37552" height="8.93942" fill="#004B8D"/>
</svg>
