<svg width="40" height="40" viewBox="0 0 40 40" fill="none" xmlns="http://www.w3.org/2000/svg">
<g id="Frame 1000002076">
<rect x="-0.5" y="0.5" width="39" height="39" rx="3.5" transform="matrix(-1 0 0 1 39 0)" fill="white"/>
<path id="Line 17406" d="M10.2929 20.7071C9.90237 20.3166 9.90237 19.6834 10.2929 19.2929L16.6569 12.9289C17.0474 12.5384 17.6805 12.5384 18.0711 12.9289C18.4616 13.3195 18.4616 13.9526 18.0711 14.3431L12.4142 20L18.0711 25.6569C18.4616 26.0474 18.4616 26.6805 18.0711 27.0711C17.6805 27.4616 17.0474 27.4616 16.6569 27.0711L10.2929 20.7071ZM29 19C29.5523 19 30 19.4477 30 20C30 20.5523 29.5523 21 29 21L29 19ZM11 19L29 19L29 21L11 21L11 19Z" fill="#424242"/>
<rect x="-0.5" y="0.5" width="39" height="39" rx="3.5" transform="matrix(-1 0 0 1 39 0)" stroke="#BDBDBD"/>
</g>
</svg>
