<svg width="20" height="20" viewBox="0 0 20 20" fill="none" xmlns="http://www.w3.org/2000/svg">
<g clip-path="url(#clip0_6667_31563)">
<path fill-rule="evenodd" clip-rule="evenodd" d="M10.1257 0.133612L9.98167 0.283925V5.01254V9.74741L10.1257 9.87893L10.2697 10.0167H14.9976H19.7316L19.8757 9.86014C20.0134 9.70983 20.0197 9.67852 19.9759 9.03342C19.6628 4.1545 15.8054 0.308978 10.9398 0.0208769C10.2823 -0.0167015 10.2572 -0.0167015 10.1257 0.133612ZM12.5491 1.11691C14.8473 1.7119 16.6883 3.08351 17.9282 5.12527C18.5356 6.12736 19.0303 7.61797 19.1054 8.68895L19.143 9.20252L14.985 9.19L10.827 9.17121L10.8083 5.01254L10.7957 0.853864L11.3092 0.891442C11.5973 0.910231 12.1546 1.01044 12.5491 1.11691ZM8.19699 0.847513C6.67532 0.991564 5.41665 1.42371 4.18929 2.23165C3.40028 2.75775 2.26685 3.87883 1.73458 4.66172C0.970614 5.79533 0.457128 7.01663 0.169075 8.37571C0.0250481 9.07091 0.00626203 9.32143 0 10.3611C0 11.7077 0.0814063 12.2901 0.444604 13.3987C0.907994 14.8392 1.71579 16.1356 2.80539 17.2254C3.9075 18.3152 5.17243 19.0918 6.60017 19.5553C7.72734 19.9248 8.28466 20 9.73119 20C10.827 20 11.1088 19.9812 11.6599 19.8622C12.7745 19.6116 13.4258 19.311 14.4402 18.5657C14.9099 18.2275 15.0539 18.0271 14.9725 17.8204C14.9537 17.7766 13.645 16.0793 12.0669 14.05L9.19892 10.3611L9.16761 5.71391C9.16502 5.35653 9.16278 5.02545 9.16072 4.71872C9.13902 1.5017 9.1354 0.963778 8.92757 0.867735C8.88584 0.848452 8.83588 0.846982 8.77589 0.845217C8.74977 0.844448 8.72176 0.843624 8.69169 0.84125C8.55393 0.834987 8.33476 0.834987 8.19699 0.847513ZM8.29092 6.07717C8.29092 9.29012 8.30971 10.4989 8.36607 10.5991C8.40364 10.6743 9.6623 12.3152 11.1589 14.2442C12.6556 16.1732 13.908 17.7828 13.9393 17.8204C13.9706 17.8642 13.8579 17.9832 13.6011 18.1523C12.643 18.7974 11.7977 19.0668 10.395 19.1607C7.63341 19.3549 5.25384 18.4906 3.38149 16.6179C0.983138 14.2191 0.206647 10.8371 1.28372 7.44878C1.97254 5.28802 3.56309 3.40284 5.51684 2.43833C6.36848 2.01871 7.41424 1.71808 8.09054 1.69303L8.29092 1.68676V6.07717ZM10.8458 11.3883C10.7832 11.2192 10.8959 10.9624 11.0587 10.8935C11.1464 10.8622 12.9874 10.8434 15.4797 10.8497L19.763 10.8622L19.8882 11.0188C20.0072 11.1628 20.0134 11.2317 19.9759 11.8267C19.8694 13.4301 19.3684 15.0146 18.5419 16.3424C17.9219 17.3257 16.9513 18.4092 16.682 18.4092C16.4879 18.4092 16.2249 18.1273 15.0414 16.6555C14.888 16.465 14.6959 16.2262 14.4808 15.9587C13.8615 15.1887 13.0513 14.1813 12.4239 13.405C11.5785 12.3653 10.8709 11.4509 10.8458 11.3883ZM18.2475 15.1587C18.6921 14.263 19.1242 12.7035 19.1242 11.9833V11.7077H15.6488C13.7389 11.7077 12.1734 11.7202 12.1734 11.739C12.1734 11.7578 12.6556 12.3716 13.2504 13.1044C13.4592 13.3615 13.7196 13.6827 13.9982 14.0262C14.5134 14.6615 15.0905 15.3733 15.5173 15.8977L16.7071 17.3633L16.9764 17.0564C17.3583 16.6305 17.9595 15.7223 18.2475 15.1587Z" fill="#424242"/>
</g>
<defs>
<clipPath id="clip0_6667_31563">
<rect width="20" height="20" fill="white"/>
</clipPath>
</defs>
</svg>
