<svg width="40" height="40" viewBox="0 0 40 40" fill="none" xmlns="http://www.w3.org/2000/svg">
<rect x="-0.5" y="0.5" width="39" height="39" rx="3.5" transform="matrix(-1 0 0 1 39 0)" fill="white"/>
<path d="M22.0801 24.1055L25.8203 27.0742L24.2285 28.4707L20.5566 25.5312L22.0801 24.1055ZM25.8496 18.5V19.2812C25.8496 20.3555 25.7096 21.319 25.4297 22.1719C25.1497 23.0247 24.7493 23.7507 24.2285 24.3496C23.7077 24.9486 23.0859 25.4076 22.3633 25.7266C21.6406 26.0391 20.8398 26.1953 19.9609 26.1953C19.0885 26.1953 18.291 26.0391 17.5684 25.7266C16.8522 25.4076 16.2305 24.9486 15.7031 24.3496C15.1758 23.7507 14.7656 23.0247 14.4727 22.1719C14.1862 21.319 14.043 20.3555 14.043 19.2812V18.5C14.043 17.4258 14.1862 16.4655 14.4727 15.6191C14.7591 14.7663 15.1628 14.0404 15.6836 13.4414C16.2109 12.8359 16.8327 12.377 17.5488 12.0645C18.2715 11.7454 19.069 11.5859 19.9414 11.5859C20.8203 11.5859 21.6211 11.7454 22.3438 12.0645C23.0729 12.377 23.6979 12.8359 24.2188 13.4414C24.7396 14.0404 25.14 14.7663 25.4199 15.6191C25.7064 16.4655 25.8496 17.4258 25.8496 18.5ZM23.3887 19.2812V18.4805C23.3887 17.6862 23.3105 16.9863 23.1543 16.3809C23.0046 15.7689 22.7799 15.2578 22.4805 14.8477C22.1875 14.431 21.8262 14.1185 21.3965 13.9102C20.9733 13.6953 20.4883 13.5879 19.9414 13.5879C19.4076 13.5879 18.929 13.6953 18.5059 13.9102C18.0827 14.1185 17.7214 14.431 17.4219 14.8477C17.1224 15.2578 16.8945 15.7689 16.7383 16.3809C16.582 16.9863 16.5039 17.6862 16.5039 18.4805V19.2812C16.5039 20.0755 16.582 20.7786 16.7383 21.3906C16.8945 22.0026 17.1224 22.5202 17.4219 22.9434C17.7279 23.36 18.0924 23.6758 18.5156 23.8906C18.9453 24.099 19.4271 24.2031 19.9609 24.2031C20.5078 24.2031 20.9928 24.099 21.416 23.8906C21.8392 23.6758 22.1973 23.36 22.4902 22.9434C22.7832 22.5202 23.0046 22.0026 23.1543 21.3906C23.3105 20.7786 23.3887 20.0755 23.3887 19.2812Z" fill="#424242"/>
<rect x="-0.5" y="0.5" width="39" height="39" rx="3.5" transform="matrix(-1 0 0 1 39 0)" stroke="#BDBDBD"/>
</svg>
