<svg width="16" height="15" viewBox="0 0 16 15" fill="none" xmlns="http://www.w3.org/2000/svg">
<circle cx="7.99756" cy="7.50146" r="6.79678" stroke="#D8ECEC" stroke-width="0.8"/>
<path d="M8.4505 5.4668V10.75H7.54229V5.4668H8.4505ZM7.47393 4.06543C7.47393 3.91895 7.51788 3.79525 7.60577 3.69434C7.69692 3.59342 7.83038 3.54297 8.00616 3.54297C8.17869 3.54297 8.31052 3.59342 8.40167 3.69434C8.49607 3.79525 8.54327 3.91895 8.54327 4.06543C8.54327 4.2054 8.49607 4.32585 8.40167 4.42676C8.31052 4.52441 8.17869 4.57324 8.00616 4.57324C7.83038 4.57324 7.69692 4.52441 7.60577 4.42676C7.51788 4.32585 7.47393 4.2054 7.47393 4.06543Z" fill="#707070"/>
</svg>
