<svg width="40" height="40" viewBox="0 0 40 40" fill="none" xmlns="http://www.w3.org/2000/svg">
<rect x="-0.5" y="0.5" width="39" height="39" rx="3.5" transform="matrix(-1 0 0 1 39 0)" fill="white"/>
<path d="M20.752 21.8105H18.5742C18.5807 21.2051 18.6328 20.6973 18.7305 20.2871C18.8281 19.8704 18.9909 19.4928 19.2188 19.1543C19.4531 18.8158 19.7624 18.4577 20.1465 18.0801C20.446 17.7936 20.7161 17.5234 20.957 17.2695C21.1979 17.0091 21.39 16.7357 21.5332 16.4492C21.6764 16.1562 21.748 15.821 21.748 15.4434C21.748 15.0332 21.6797 14.6849 21.543 14.3984C21.4062 14.112 21.2044 13.8939 20.9375 13.7441C20.6771 13.5944 20.3516 13.5195 19.9609 13.5195C19.6354 13.5195 19.3294 13.5846 19.043 13.7148C18.7565 13.8385 18.5254 14.0339 18.3496 14.3008C18.1738 14.5612 18.0794 14.9062 18.0664 15.3359H15.7129C15.7259 14.5156 15.9212 13.8255 16.2988 13.2656C16.6764 12.7057 17.1842 12.2858 17.8223 12.0059C18.4603 11.7259 19.1732 11.5859 19.9609 11.5859C20.8333 11.5859 21.5788 11.7357 22.1973 12.0352C22.8158 12.3281 23.2878 12.7578 23.6133 13.3242C23.9453 13.8841 24.1113 14.5612 24.1113 15.3555C24.1113 15.9284 23.9974 16.4492 23.7695 16.918C23.5417 17.3802 23.2454 17.8132 22.8809 18.2168C22.5163 18.6139 22.1224 19.0111 21.6992 19.4082C21.3346 19.7402 21.0872 20.1016 20.957 20.4922C20.8268 20.8763 20.7585 21.3158 20.752 21.8105ZM18.3789 24.8574C18.3789 24.5059 18.4993 24.2096 18.7402 23.9688C18.9811 23.7214 19.3099 23.5977 19.7266 23.5977C20.1432 23.5977 20.472 23.7214 20.7129 23.9688C20.9538 24.2096 21.0742 24.5059 21.0742 24.8574C21.0742 25.209 20.9538 25.5085 20.7129 25.7559C20.472 25.9967 20.1432 26.1172 19.7266 26.1172C19.3099 26.1172 18.9811 25.9967 18.7402 25.7559C18.4993 25.5085 18.3789 25.209 18.3789 24.8574Z" fill="#424242"/>
<rect x="-0.5" y="0.5" width="39" height="39" rx="3.5" transform="matrix(-1 0 0 1 39 0)" stroke="#BDBDBD"/>
</svg>
