<svg width="44" height="41" viewBox="0 0 44 41" fill="none" xmlns="http://www.w3.org/2000/svg">
<path d="M14.205 20.4774L12.4319 23.2626C12.4319 23.2626 3.92649 24.0374 0.978272 15.2461C-1.96995 6.45477 6.59556 -0.170306 11.3762 0.499799L11.3001 3.64081C10.3469 3.60477 9.40624 3.87734 8.60524 4.42166C7.80424 4.96598 7.18158 5.7558 6.82147 6.68427C5.53372 9.96283 7.11356 13.6084 10.7007 14.0274C14.2879 14.4465 17.6324 14.46 18.9468 15.6467L16.3842 18.0201C15.1079 17.4426 13.7208 17.1868 12.3338 17.2732C9.54531 17.2732 5.18383 16.8542 3.52944 10.5514C3.52944 10.5514 1.60428 20.0024 14.2057 20.4774" fill="#0CA750"/>
<path d="M14.205 20.4774L12.4319 23.2626C12.4319 23.2626 3.92649 24.0374 0.978272 15.2461C-1.96995 6.45477 6.59556 -0.170306 11.3762 0.499799L11.3001 3.64081C10.3469 3.60477 9.40624 3.87734 8.60524 4.42166C7.80424 4.96598 7.18158 5.75579 6.82147 6.68427C5.53372 9.96283 7.11356 13.6084 10.7007 14.0274C14.2879 14.4465 17.6324 14.46 18.9468 15.6467L16.3842 18.0201C15.1079 17.4426 13.7208 17.1868 12.3338 17.2732C9.54531 17.2732 5.18383 16.8542 3.52944 10.5514C3.52944 10.5514 1.60428 20.0024 14.2057 20.4774" stroke="#0CA750" stroke-width="0.2"/>
<path d="M18.1697 25.1406C18.1697 25.1406 20.825 20.8409 24.8633 19.0537C28.9015 17.2665 30.228 17.3225 31.7158 17.3225C33.2036 17.3225 38.8338 17.4896 40.4799 10.5095C40.7043 11.7469 40.6456 13.0227 40.3085 14.2315C39.9714 15.4404 39.3655 16.5476 38.541 17.4616C35.7122 20.5187 33.9597 20.0581 30.7726 20.2676C27.5856 20.4771 22.5661 22.6969 20.2158 27.1782L22.3669 29.23C22.3669 29.23 25.7897 23.6949 31.41 23.2791C37.0304 22.8633 38.4649 22.9424 42.0095 17.6655C45.5541 12.3887 43.6 1.36952 32.8819 0.453125V3.43261C32.8819 3.43261 36.7064 3.93479 37.4632 7.41086C38.22 10.8869 36.4675 13.944 32.9214 13.9024C29.3868 13.8919 25.908 14.8285 22.8133 16.6238C19.7186 18.4192 17.1102 21.0141 15.2344 24.1635L18.1697 25.1406Z" fill="#0CA750" stroke="#0CA750" stroke-width="0.2"/>
<path d="M33.4852 28.8036V25.5787C33.4852 25.5787 24.7341 25.3276 24.0434 35.7142C24.0434 35.929 23.9622 36.1351 23.8177 36.287C23.6732 36.4389 23.4772 36.5242 23.2729 36.5242H22.5449L22.5312 40.1522C23.4869 40.1673 24.4217 39.8576 25.1965 39.2694C25.9713 38.6811 26.5449 37.8457 26.8319 36.8873C27.9204 33.4528 26.6988 29.74 33.4844 28.8044" fill="#0CA750"/>
<path d="M33.4852 28.8036V25.5787C33.4852 25.5787 24.7341 25.3276 24.0434 35.7142C24.0434 35.929 23.9622 36.1351 23.8177 36.287C23.6732 36.4389 23.4772 36.5242 23.2729 36.5242H22.5449L22.5312 40.1522C23.4869 40.1673 24.4217 39.8576 25.1965 39.2694C25.9713 38.6811 26.5449 37.8457 26.8319 36.8873C27.9204 33.4528 26.6988 29.74 33.4844 28.8044" stroke="#0CA750" stroke-width="0.2"/>
<path d="M11.7344 28.8036V25.5787C11.7344 25.5787 20.4855 25.3276 21.1761 35.7142C21.1761 35.929 21.2573 36.1351 21.4018 36.287C21.5463 36.4389 21.7423 36.5242 21.9467 36.5242H22.6107V40.1538C21.6654 40.1631 20.7427 39.8497 19.9812 39.2607C19.2197 38.6717 18.6605 37.8388 18.3877 36.8873C17.2992 33.4528 18.5208 29.74 11.7344 28.8044" fill="#0CA750"/>
<path d="M11.7344 28.8036V25.5787C11.7344 25.5787 20.4855 25.3276 21.1761 35.7142C21.1761 35.929 21.2573 36.1351 21.4018 36.287C21.5463 36.4389 21.7423 36.5242 21.9467 36.5242H22.6107V40.1538C21.6654 40.1631 20.7427 39.8497 19.9812 39.2607C19.2197 38.6717 18.6605 37.8388 18.3877 36.8873C17.2992 33.4528 18.5208 29.74 11.7344 28.8044" stroke="#0CA750" stroke-width="0.2"/>
</svg>
