<svg width="24" height="24" viewBox="0 0 24 24" fill="none" xmlns="http://www.w3.org/2000/svg">
<path d="M11.9999 21.0016C10.221 21 8.4825 20.4713 7.00391 19.4823C5.52533 18.4932 4.37299 17.0882 3.69246 15.4446C3.01192 13.8011 2.83371 11.9927 3.18032 10.2479C3.52693 8.50312 4.38283 6.90018 5.6399 5.64154C5.70885 5.57078 5.79126 5.51455 5.88229 5.47615C5.97332 5.43775 6.07111 5.41797 6.1699 5.41797C6.2687 5.41797 6.36649 5.43775 6.45751 5.47615C6.54854 5.51455 6.63096 5.57078 6.6999 5.64154C6.84035 5.78217 6.91924 5.97279 6.91924 6.17154C6.91924 6.37029 6.84035 6.56092 6.6999 6.70154C5.96303 7.38816 5.37201 8.21617 4.96209 9.13616C4.55217 10.0562 4.33175 11.0493 4.31399 12.0563C4.29622 13.0634 4.48146 14.0636 4.85868 14.9975C5.23589 15.9314 5.79733 16.7797 6.50952 17.4919C7.22171 18.2041 8.07004 18.7656 9.00393 19.1428C9.93781 19.52 10.9381 19.7052 11.9451 19.6875C12.9521 19.6697 13.9453 19.4493 14.8653 19.0394C15.7853 18.6294 16.6133 18.0384 17.2999 17.3016C17.9977 16.6066 18.5514 15.7806 18.9293 14.8711C19.3071 13.9616 19.5016 12.9864 19.5016 12.0016C19.5016 11.0167 19.3071 10.0415 18.9293 9.13198C18.5514 8.22247 17.9977 7.39652 17.2999 6.70154C17.1594 6.56092 17.0806 6.37029 17.0806 6.17154C17.0806 5.97279 17.1594 5.78217 17.2999 5.64154C17.3688 5.57078 17.4513 5.51455 17.5423 5.47615C17.6333 5.43775 17.7311 5.41797 17.8299 5.41797C17.9287 5.41797 18.0265 5.43775 18.1175 5.47615C18.2085 5.51455 18.2909 5.57078 18.3599 5.64154C19.617 6.90018 20.4729 8.50312 20.8195 10.2479C21.1661 11.9927 20.9879 13.8011 20.3073 15.4446C19.6268 17.0882 18.4745 18.4932 16.9959 19.4823C15.5173 20.4713 13.7788 21 11.9999 21.0016Z" fill="#FF5630"/>
<path d="M12 12.75C11.8019 12.7474 11.6126 12.6676 11.4725 12.5275C11.3324 12.3874 11.2526 12.1981 11.25 12V4C11.25 3.80109 11.329 3.61032 11.4697 3.46967C11.6103 3.32902 11.8011 3.25 12 3.25C12.1989 3.25 12.3897 3.32902 12.5303 3.46967C12.671 3.61032 12.75 3.80109 12.75 4V12C12.7474 12.1981 12.6676 12.3874 12.5275 12.5275C12.3874 12.6676 12.1981 12.7474 12 12.75Z" fill="#FF5630"/>
</svg>
