<svg width="26" height="26" viewBox="0 0 26 26" fill="none" xmlns="http://www.w3.org/2000/svg">
<path d="M1.23021 10.4597L0.984879 10.4116C1.45672 8.00531 2.6218 5.79416 4.33347 4.05748C4.44839 3.93831 4.58579 3.8434 4.73776 3.77846C4.89023 3.7133 5.05414 3.67969 5.21982 3.67969C5.3855 3.67969 5.54942 3.7133 5.70188 3.77846L1.23021 10.4597ZM1.23021 10.4597L0.984879 10.4116C0.512948 12.8184 0.755563 15.3129 1.68224 17.5802C2.60892 19.8476 4.17828 21.7864 6.19255 23.1515L6.33281 22.9445M1.23021 10.4597L6.33281 22.9445M6.33281 22.9445L6.19256 23.1515C8.2069 24.5165 10.5757 25.2464 12.9998 25.2486M6.33281 22.9445L12.9998 25.2486M6.09883 5.84697L6.09872 5.84686C5.13979 6.7521 4.37048 7.84393 3.83683 9.0573C3.30318 10.2707 3.01618 11.5806 2.99306 12.909C2.96992 14.2375 3.21112 15.5568 3.70221 16.7885L3.46999 16.8811L3.70221 16.7885C4.19329 18.0203 4.92412 19.1389 5.85097 20.0779C6.77781 21.0169 7.88163 21.757 9.09653 22.2542C10.3114 22.7513 11.6126 22.9953 12.9224 22.972C14.2322 22.9485 15.5242 22.6581 16.721 22.1179C17.9179 21.5775 18.9953 20.7985 19.8889 19.827L19.8952 19.8201L19.8953 19.8203C20.8034 18.904 21.5241 17.8149 22.016 16.6154C22.5078 15.4159 22.7611 14.1297 22.7611 12.8307C22.7611 11.5316 22.5078 10.2453 22.016 9.04584C21.5241 7.84635 20.8034 6.75727 19.8953 5.84105L19.8949 5.84061C19.6608 5.60331 19.5302 5.28235 19.5302 4.94851C19.5302 4.6152 19.6604 4.29475 19.8937 4.05756C20.0087 3.93827 20.1463 3.84338 20.2981 3.77847C20.4505 3.71329 20.6145 3.67969 20.7802 3.67969C20.9458 3.67969 21.1098 3.71329 21.2622 3.77847L21.1641 4.00801L21.2622 3.77847C21.4142 3.84344 21.5516 3.93836 21.6665 4.05751C23.3782 5.79418 24.5433 8.00532 25.0151 10.4116C25.487 12.8184 25.2444 15.3129 24.3177 17.5802C24.3177 17.5802 24.3177 17.5802 24.3177 17.5802L6.09883 5.84697ZM6.09883 5.84697L6.10513 5.84058M6.09883 5.84697L6.10513 5.84058M6.10513 5.84058C6.33902 5.60334 6.46982 5.28242 6.46982 4.94851C6.46982 4.61511 6.33942 4.29468 6.10623 4.05755M6.10513 5.84058L6.10623 4.05755M12.9998 25.2486H13.0002M12.9998 25.2486H13.0002M13.0002 25.2486C15.4243 25.2464 17.7931 24.5165 19.8074 23.1515L19.6672 22.9445L13.0002 25.2486ZM6.10623 4.05755C5.9913 3.93834 5.85386 3.84341 5.70189 3.77846L6.10623 4.05755Z" fill="#FF5630" stroke="#FF5630" stroke-width="0.5"/>
<path d="M12.9971 14.094L12.9971 14.0939C12.6666 14.0895 12.3513 13.9546 12.1185 13.7187C11.8858 13.4829 11.7538 13.1651 11.7495 12.8332L11.7495 12.8299H11.7495V2.01399C11.7495 1.67985 11.8805 1.3587 12.1147 1.1214L12.9971 14.094ZM12.9971 14.094L13.0037 14.0939M12.9971 14.094L13.0037 14.0939M13.0037 14.0939C13.3342 14.0895 13.6494 13.9546 13.8823 13.7187C14.115 13.4829 14.2469 13.1651 14.2512 12.8332H14.2513M13.0037 14.0939L14.2513 12.8332M14.2513 12.8332V12.8299M14.2513 12.8332V12.8299M14.2513 12.8299V2.01399C14.2513 1.67985 14.1203 1.3587 13.886 1.1214L14.2513 12.8299ZM13.0004 0.75C12.6676 0.75 12.3491 0.883941 12.1148 1.12134L13.886 1.12134C13.6517 0.883941 13.3331 0.75 13.0004 0.75Z" fill="#FF5630" stroke="#FF5630" stroke-width="0.5"/>
</svg>
