<svg width="48" height="48" viewBox="0 0 48 48" fill="none" xmlns="http://www.w3.org/2000/svg">
<g id="Group 1000007711">
<circle id="Ellipse 2636" cx="24" cy="24" r="24" fill="#E6F3F3"/>
<path id="Vector" d="M32.2735 32V30C32.2735 28.9391 31.8321 27.9217 31.0465 27.1716C30.2608 26.4214 29.1952 26 28.084 26H19.7051C18.594 26 17.5284 26.4214 16.7427 27.1716C15.957 27.9217 15.5156 28.9391 15.5156 30V32" stroke="#707070" stroke-width="1.5" stroke-linecap="round" stroke-linejoin="round"/>
<path id="Vector_2" d="M23.8926 22C26.2064 22 28.0821 20.2091 28.0821 18C28.0821 15.7909 26.2064 14 23.8926 14C21.5788 14 19.7031 15.7909 19.7031 18C19.7031 20.2091 21.5788 22 23.8926 22Z" stroke="#707070" stroke-width="1.5" stroke-linecap="round" stroke-linejoin="round"/>
</g>
</svg>
