<svg width="26" height="40" viewBox="0 0 26 40" fill="none" xmlns="http://www.w3.org/2000/svg">
<path fill-rule="evenodd" clip-rule="evenodd" d="M2 1.5H24C24.2761 1.5 24.5 1.72386 24.5 2V38C24.5 38.2761 24.2761 38.5 24 38.5H2C1.72386 38.5 1.5 38.2761 1.5 38V2C1.5 1.72386 1.72386 1.5 2 1.5ZM0 2C0 0.895431 0.895431 0 2 0H24C25.1046 0 26 0.895431 26 2V38C26 39.1046 25.1046 40 24 40H2C0.89543 40 0 39.1046 0 38V2ZM14 35C14 35.5523 13.5523 36 13 36C12.4477 36 12 35.5523 12 35C12 34.4477 12.4477 34 13 34C13.5523 34 14 34.4477 14 35ZM15 35C15 36.1046 14.1046 37 13 37C11.8954 37 11 36.1046 11 35C11 33.8954 11.8954 33 13 33C14.1046 33 15 33.8954 15 35Z" fill="#424242"/>
</svg>
