<svg width="186" height="112" viewBox="0 0 186 112" fill="none" xmlns="http://www.w3.org/2000/svg">
<g id="Group 1000002420">
<path id="Vector" fill-rule="evenodd" clip-rule="evenodd" d="M23.3504 10.5528L126.977 25.6238C127.15 25.6488 127.307 25.6737 127.448 25.6977C127.62 25.7276 127.776 25.7559 127.914 25.7833C129.438 26.0862 130.964 26.5925 132.382 27.2789C132.635 27.4013 132.884 27.5294 133.128 27.663L127.278 28.9365C127.14 28.9096 127.018 28.8866 126.911 28.868C126.767 28.8435 126.639 28.8225 126.528 28.8064L22.9004 13.7358C22.6049 13.6927 22.3303 13.6697 22.0761 13.6648C21.803 13.6599 21.5211 13.6731 21.2324 13.704C20.3601 13.7969 19.5086 14.0601 18.7101 14.4589C17.8674 14.8796 17.0879 15.452 16.408 16.1355C15.7266 16.8199 15.1502 17.6091 14.7148 18.4623C14.2964 19.2823 14.0053 20.1688 13.874 21.0851C13.8274 21.41 13.8007 21.7197 13.7948 22.0127C13.789 22.3073 13.8021 22.6135 13.8352 22.9306L20.6186 87.4537C20.7654 88.8481 21.1328 90.1988 21.6897 91.4264C22.2326 92.6221 22.9621 93.7048 23.8475 94.5962C24.6616 95.4156 25.6005 96.0619 26.6376 96.4704C27.6057 96.8516 28.6715 97.0331 29.815 96.9636L96.1271 92.9073L96.8964 94.217C97.448 95.1558 98.0754 96.2243 99.078 97.9724C100.589 100.607 101.691 102.717 102.574 104.409V104.409C103.394 105.98 104.023 107.185 104.546 107.988C104.829 108.424 104.791 108.628 104.869 108.636C105.007 108.651 104.85 108.37 105.204 107.861C105.869 106.908 106.736 105.36 107.918 103.248C108.044 103.022 108.169 102.799 108.917 101.471C109.183 101 109.539 100.374 110.063 99.4592V99.4529C110.841 98.0967 111.521 96.9563 112.124 95.969C112.585 95.2146 113.258 94.1416 113.857 93.1881L114.746 91.7678L118.018 91.5678C119.214 91.4944 120.3 91.2233 121.272 90.7864C122.285 90.3314 123.191 89.6847 123.984 88.8867C124.836 88.0286 125.546 87.0105 126.108 85.8784C126.7 84.6861 127.14 83.347 127.421 81.9135L132.033 58.3977L134.585 61.9965L130.558 82.53C130.226 84.2233 129.69 85.8382 128.957 87.3133C128.233 88.7727 127.326 90.0761 126.246 91.1636C125.195 92.2214 123.969 93.0903 122.572 93.718C121.252 94.3114 119.794 94.6788 118.206 94.7762L116.571 94.876L116.556 94.899C116.128 95.5815 115.646 96.3491 114.849 97.6539C114.158 98.7855 113.461 99.9489 112.826 101.057C112.54 101.555 112.139 102.264 111.695 103.05L110.705 104.82C109.476 107.016 108.574 108.626 107.805 109.724C106.725 111.268 105.743 111.963 104.531 111.832C102.742 111.638 101.701 109.644 99.7496 105.906C99.3098 105.064 98.8156 104.117 98.2343 103.036C97.6341 101.918 96.9892 100.743 96.3161 99.5703C95.7665 98.6114 95.0418 97.3755 94.3717 96.2341L30.0026 100.171C28.3804 100.27 26.8617 100.01 25.4761 99.4646C24.006 98.8858 22.6982 97.9925 21.5857 96.8731C20.4427 95.7224 19.4979 94.3183 18.7908 92.7605C18.089 91.215 17.6273 89.5212 17.4441 87.7805L10.6607 23.2579C10.616 22.8308 10.5989 22.3939 10.6077 21.9496C10.6169 21.4888 10.6524 21.0489 10.7122 20.6321C10.8935 19.3679 11.2968 18.1419 11.8776 17.0034C12.4715 15.8395 13.2476 14.7734 14.1583 13.8586C15.0783 12.9344 16.1412 12.156 17.2983 11.5782C18.4229 11.0166 19.6403 10.6437 20.9073 10.5087C21.2995 10.4671 21.7063 10.449 22.1262 10.4569C22.5509 10.4647 22.9601 10.496 23.3504 10.5528ZM136.699 30.368C137.587 31.3142 138.297 32.3852 138.764 33.5686C139.239 34.7761 139.454 36.0794 139.338 37.4625L136.699 30.368Z" fill="#3AA29F" fill-opacity="0.19"/>
<path id="Vector_2" fill-rule="evenodd" clip-rule="evenodd" d="M33.3397 6.70613L136.967 21.7772C142.887 22.6383 149.003 26.8189 147.844 32.7274L139.205 76.7846C138.046 82.6932 134.299 87.3694 128.327 87.7348L125.874 87.885C124.782 89.6316 123.339 91.8929 121.66 94.821C113.481 109.081 116.09 107.595 107.912 93.3342C106.987 91.7222 106.168 90.3332 105.464 89.1336L40.1232 93.1302C34.1518 93.4952 29.8755 88.1693 29.2457 82.18L22.4627 17.6559C21.8329 11.667 27.4189 5.84507 33.3397 6.70613Z" fill="#3AA29F"/>
<path id="Vector_3" fill-rule="evenodd" clip-rule="evenodd" d="M147.204 28.0625C147.907 29.4446 148.181 31.0092 147.846 32.7191L145.579 44.2799C144.969 44.4056 144.429 44.5358 143.966 44.6546C141.135 45.3841 139.185 47.1508 138.832 48.1478C138.783 48.2848 138.82 48.5578 138.921 48.9282C138.921 48.9282 138.424 49.8416 138.835 50.1743C139.031 50.3333 139.27 50.4169 139.478 50.4869C139.586 50.7491 139.703 51.0241 139.829 51.3073C139.763 51.5079 139.725 51.7208 139.849 51.8993C139.936 52.0251 140.068 52.0945 140.21 52.1444C140.397 52.5432 140.594 52.9488 140.795 53.3509C140.731 53.5804 140.685 53.7746 140.763 53.8367C140.818 53.8808 140.943 53.9057 141.091 53.9307C141.302 54.3397 141.515 54.7384 141.724 55.1161C141.706 55.2878 141.724 55.4405 141.832 55.5398C141.887 55.5902 141.958 55.6347 142.039 55.6743C142.328 56.1758 142.603 56.6215 142.845 56.9757L142.846 56.9767L142.846 56.9777C142.912 57.0745 142.976 57.1645 143.037 57.2467L141.99 62.5839C141.642 62.8011 141.285 62.9591 140.943 63.0491C139.473 63.4356 139.323 62.1299 139.137 61.5022C138.952 60.8745 133.803 51.823 133.803 51.823C133.803 51.823 132.606 51.7804 131.921 51.5573C131.237 51.3343 129.975 47.2388 129.851 47.0397C129.728 46.8401 124.612 47.7403 124.612 47.7403C120.751 45.4873 121.025 40.2123 121.334 38.1282C121.642 36.044 123.237 35.2186 123.484 34.9789C123.732 34.7392 137.935 30.9593 138.853 30.6995C139.771 30.4392 140.751 30.6075 140.751 30.6075C143.336 29.905 145.462 29.0165 147.204 28.0625Z" fill="white" fill-opacity="0.46"/>
<path id="Vector_4" fill-rule="evenodd" clip-rule="evenodd" d="M127.402 87.796L125.881 87.889C124.789 89.6356 123.346 91.8969 121.667 94.825L121.661 94.8352C121.273 95.0652 120.869 95.2755 120.45 95.4634C119.13 96.0569 117.672 96.4243 116.085 96.5217L114.449 96.6215L114.435 96.6445C114.007 97.3269 113.525 98.0946 112.728 99.3994C112.457 99.8431 112.185 100.292 111.916 100.741C111.42 99.7966 110.849 98.6919 110.178 97.4307C110.624 96.7051 111.209 95.7731 111.736 94.9336L112.625 93.5133L115.897 93.3132C117.093 93.2398 118.179 92.9688 119.151 92.5319C120.164 92.0769 121.07 91.4301 121.863 90.6322C122.715 89.774 123.425 88.7559 123.987 87.6238C124.579 86.4315 125.019 85.0925 125.3 83.659L129.912 60.1431L132.464 63.742L128.437 84.2754C128.197 85.4976 127.851 86.6786 127.402 87.796ZM22.4766 15.7283C22.5961 14.6456 22.9052 13.5923 23.3669 12.6094L124.855 27.3693C125.028 27.3943 125.185 27.4192 125.326 27.4432C125.498 27.473 125.654 27.5014 125.792 27.5288C127.316 27.8316 128.842 28.338 130.26 29.0244C130.513 29.1467 130.762 29.2749 131.007 29.4085L125.156 30.682C125.018 30.6551 124.896 30.6321 124.789 30.6135C124.645 30.589 124.517 30.568 124.406 30.5518L22.4766 15.7283ZM134.577 32.113C135.465 33.0592 136.176 34.1301 136.642 35.3136C137.117 36.5211 137.332 37.8244 137.217 39.2075L134.577 32.113Z" fill="white" fill-opacity="0.26"/>
<path id="Vector_5" fill-rule="evenodd" clip-rule="evenodd" d="M151.093 18.7852C151.093 18.7852 148.666 25.5382 137.204 28.6507C137.204 28.6507 136.224 28.4824 135.306 28.7427C134.389 29.003 120.185 32.7824 119.937 33.0221C119.69 33.2618 118.096 34.0877 117.787 36.1713C117.478 38.2555 117.204 43.53 121.065 45.7835C121.065 45.7835 126.181 44.8833 126.304 45.0829C126.428 45.282 127.69 49.3779 128.375 49.6005C129.059 49.8236 130.256 49.8662 130.256 49.8662C130.256 49.8662 135.405 58.9176 135.591 59.5453C135.776 60.173 135.926 61.4788 137.396 61.0923C138.866 60.7058 140.6 59.0644 140.809 56.8736C140.809 56.8736 141 56.2987 140.042 55.8667C139.877 55.7919 139.616 55.4841 139.299 55.0208L139.299 55.0199L139.298 55.0189C139.056 54.6642 138.782 54.219 138.492 53.7175C138.411 53.6779 138.34 53.6333 138.285 53.583C138.177 53.4836 138.16 53.331 138.177 53.1593C137.968 52.7816 137.755 52.3828 137.544 51.9738C137.397 51.9489 137.272 51.9239 137.216 51.8799C137.138 51.8178 137.184 51.6235 137.248 51.3941C137.047 50.9919 136.85 50.5863 136.663 50.1876C136.522 50.1377 136.39 50.0682 136.302 49.9425C136.178 49.7639 136.217 49.5506 136.282 49.3505C136.156 49.0673 136.039 48.7923 135.931 48.5301C135.724 48.4601 135.485 48.3764 135.288 48.2174C134.878 47.8848 135.374 46.9713 135.374 46.9713C135.273 46.601 135.237 46.3275 135.285 46.191C135.638 45.1939 137.588 43.4273 140.419 42.6978C143.006 42.0315 147.985 41.0231 154.221 42.4092C151.265 36.5001 151.088 32.7608 151.088 32.7608L152.341 34.6889L156.199 41.4126L157.308 42.9517C161.895 41.8999 154.563 23.3517 154.563 23.3517L151.093 18.7852Z" fill="#E01B82"/>
<path id="Vector_6" fill-rule="evenodd" clip-rule="evenodd" d="M139.367 54.9864C139.501 55.1816 139.866 55.705 140.073 55.7985C140.387 55.9404 140.733 56.1664 140.858 56.5069C140.899 56.618 140.921 56.776 140.886 56.8934C140.783 57.9468 140.327 58.9262 139.633 59.7159C139.06 60.369 138.261 60.9502 137.415 61.1728C136.917 61.3039 136.409 61.2873 136.046 60.8773C135.722 60.5114 135.647 60.0231 135.514 59.5715C135.467 59.4155 135.327 59.165 135.252 59.0177C135.058 58.6415 134.857 58.2692 134.656 57.8973C134.082 56.8386 133.495 55.7858 132.908 54.7349C132.013 53.136 131.113 51.5401 130.207 49.9472C129.638 49.9242 128.879 49.8523 128.349 49.6795C127.885 49.5284 127.262 47.8977 127.091 47.4594C126.891 46.9466 126.704 46.4285 126.521 45.909C126.458 45.7284 126.395 45.5479 126.33 45.3684C126.309 45.3101 126.267 45.1785 126.234 45.1237C126.11 44.8909 125.636 43.9711 125.683 43.749C125.705 43.6448 126.014 43.5733 126.098 43.5489C126.404 43.4598 126.716 43.383 127.025 43.3082C127.952 43.0826 128.884 42.8766 129.815 42.6731C131.181 42.3742 132.549 42.0846 133.919 41.8013L133.968 41.791L133.998 41.8311C134.269 42.1961 134.635 42.5156 134.997 42.7861C135.467 43.1364 135.982 43.4422 136.501 43.7118C136.677 43.8028 136.854 43.8904 137.033 43.9735C137.077 43.9941 137.224 44.0523 137.259 44.0787L137.348 44.1452L137.256 44.2079C136.622 44.6408 135.626 45.4682 135.359 46.2216C135.301 46.3845 135.406 46.7925 135.45 46.9545L135.458 46.9858L135.443 47.0137C135.301 47.2739 135.047 47.9251 135.337 48.16C135.518 48.3062 135.738 48.386 135.955 48.4594L135.989 48.4706L136.003 48.5039C136.115 48.7784 136.232 49.0509 136.352 49.3224L136.365 49.3503L136.355 49.3792C136.3 49.5475 136.256 49.7441 136.365 49.9012C136.443 50.0122 136.563 50.0734 136.688 50.1169L136.719 50.1277L136.733 50.1575C136.922 50.5617 137.117 50.9633 137.317 51.3621L137.331 51.3894L137.322 51.4188C137.309 51.4667 137.219 51.7857 137.263 51.821C137.312 51.8596 137.492 51.888 137.555 51.8987L137.593 51.9051L137.611 51.9403C137.816 52.3376 138.027 52.7324 138.243 53.1233L138.255 53.1453L138.253 53.1703C138.241 53.2897 138.24 53.4394 138.336 53.5274C138.39 53.5773 138.459 53.617 138.524 53.6493L138.546 53.6595L138.558 53.6806C138.811 54.1194 139.074 54.5578 139.359 54.9746L139.365 54.9824L139.367 54.9864Z" fill="white"/>
<path id="Vector_7" fill-rule="evenodd" clip-rule="evenodd" d="M151.128 32.8916C151.142 33.0795 151.168 33.2727 151.194 33.4557C151.286 34.1025 151.42 34.7483 151.578 35.3823C152.176 37.7982 153.139 40.1803 154.249 42.4L154.28 42.4631L154.212 42.4479C149.576 41.4176 145.007 41.5565 140.426 42.7361L140.422 42.7371H140.419C137.954 42.8203 135.89 41.9142 134.584 39.764C134.445 39.533 134.317 39.2948 134.201 39.0506C133.588 37.7576 133.284 36.2727 133.196 34.8476C133.14 33.9415 133.15 32.6778 133.394 31.7962C133.424 31.69 133.46 31.5858 133.503 31.4845C133.708 30.9958 134.052 30.5736 134.439 30.2184C135.152 29.5633 136.266 28.9375 137.192 28.623C141.273 27.5148 145.4 25.6156 148.411 22.5568C149.194 21.7608 149.919 20.8675 150.493 19.9047C150.693 19.5686 150.925 19.1503 151.059 18.7789L151.079 18.7207L154.592 23.3406L154.594 23.345C154.973 24.3049 155.327 25.2853 155.669 26.2589C156.412 28.3739 157.099 30.5222 157.674 32.6895C158.196 34.6553 159.928 41.2889 157.867 42.7454C157.7 42.8638 157.514 42.944 157.314 42.9895L157.293 42.9944L156.169 41.4342L152.311 34.7121L151.128 32.8916Z" fill="white"/>
<path id="Vector_8" fill-rule="evenodd" clip-rule="evenodd" d="M149.515 22.9824C149.515 22.9824 148.715 27.2359 150.3 32.0642C150.3 32.0642 147.015 30.754 143.198 31.8411C139.38 32.9282 134.387 34.986 134.215 33.9444C134.043 32.9028 134.473 30.6611 136.223 29.9575C137.974 29.2545 146.274 27.6043 149.515 22.9824Z" fill="#E6E6E6"/>
<path id="Vector_9" fill-rule="evenodd" clip-rule="evenodd" d="M156.483 12.7095C161.872 11.2604 168.163 17.7737 170.534 27.2572C172.905 36.7406 170.459 45.6027 165.07 47.0519C159.681 48.501 153.39 41.9877 151.019 32.5048C148.648 23.0218 151.094 14.1587 156.483 12.7095Z" fill="#E01B82"/>
<path id="Vector_10" fill-rule="evenodd" clip-rule="evenodd" d="M156.457 14.8331C160.767 13.4031 166.124 18.9183 168.422 27.1507C170.721 35.3837 169.091 43.2169 164.781 44.6465C160.472 46.0766 155.115 40.5613 152.816 32.3284C150.517 24.0959 152.148 16.2627 156.457 14.8331Z" fill="white"/>
<path id="Vector_11" fill-rule="evenodd" clip-rule="evenodd" d="M160.831 28.1049C161.759 29.5154 161.657 31.9518 160.31 32.9048L156.814 35.377C157.287 38.1881 161.644 44.4739 166.58 42.1314C165.252 43.6931 162.489 43.6667 162.489 43.6667C158.719 43.5008 155.36 36.4049 155.36 36.4049C155.041 35.7351 154.753 35.0506 154.496 34.3628L159.408 30.9938L159.261 30.579L153.944 32.7399C153.875 32.5154 153.809 32.2918 153.747 32.0687C153.463 31.0521 153.227 29.985 153.055 28.895L159.425 29.508L159.431 28.9816L152.792 26.5755C152.766 26.1924 152.749 25.8084 152.742 25.4258C154.518 25.8372 157.344 26.6611 159.022 27.1582C159.923 27.4243 160.296 27.2922 160.831 28.1049Z" fill="#E01B82"/>
<path id="Vector_12" fill-rule="evenodd" clip-rule="evenodd" d="M159.651 27.8623C160.252 27.8271 160.797 28.7737 160.866 29.9768C160.936 31.1798 160.504 32.1838 159.903 32.2185C159.3 32.2537 158.757 31.307 158.687 30.104C158.618 28.9014 159.049 27.8975 159.651 27.8623Z" fill="white"/>
<path id="Vector_13" fill-rule="evenodd" clip-rule="evenodd" d="M152.879 24.8743C152.879 24.8743 152.968 17.317 156.909 15.6966C160.851 14.0763 164.78 20.3023 166.289 24.5221C166.289 24.5221 163.295 20.1502 160.583 20.1404C157.362 20.1287 157.797 26.3503 157.797 26.3503L152.879 24.8743Z" fill="#E6E6E6"/>
<path id="Vector_14" fill-rule="evenodd" clip-rule="evenodd" d="M118.594 41.427C118.594 41.427 117.76 36.0077 120.042 33.8672L133.067 30.3633C133.067 30.3633 131.208 33.402 132.1 36.242C132.1 36.242 130.806 36.4304 129.898 34.6055L120.757 36.2293C120.757 36.2293 119.355 37.4759 119.021 39.1295C118.687 40.7831 118.594 41.427 118.594 41.427Z" fill="#F04FA2"/>
<path id="Vector_15" fill-rule="evenodd" clip-rule="evenodd" d="M133.509 45.7348L132.634 43.2734L126.922 44.4217L131.209 44.3424L131.917 46.0665C131.917 46.0665 132.621 46.3454 132.881 46.6081L133.227 47.998C133.227 47.998 133.97 49.5274 134.44 49.7026C134.909 49.8782 134.555 50.7231 134.863 50.867C135.171 51.0108 135.401 51.5622 135.607 52.0343C135.813 52.5059 136.112 53.2344 136.382 53.4208C136.652 53.6072 138.586 56.7824 138.595 56.9629C138.605 57.1434 137.919 58.4903 137.472 59.4615C137.025 60.4326 139.654 58.3944 139.862 57.4566C140.071 56.5187 139.955 56.2232 139.573 56.184C139.19 56.1449 137.341 53.7706 137.214 53.274C137.086 52.7774 136.548 52.0827 136.539 51.9022C136.529 51.7217 135.899 51.5348 135.852 51.0538C135.806 50.5729 135.823 50.1492 135.636 50.0186C135.449 49.888 134.901 49.3748 134.892 49.2143C134.883 49.0538 134.44 47.5274 134.285 47.2544C134.131 46.9824 133.509 45.7348 133.509 45.7348Z" fill="#E6E6E6"/>
<path id="Vector_16" fill-rule="evenodd" clip-rule="evenodd" d="M135.805 38.7059C135.805 38.7059 138.67 42.3918 140.353 41.9158C142.036 41.4393 148.538 40.066 150.658 40.7475C150.658 40.7475 149.789 39.131 149.151 38.9608C148.546 38.7988 142.01 40.7098 140.338 40.6638C140.638 40.4094 140.931 39.995 140.664 39.4451C140.198 38.4833 135.805 38.7059 135.805 38.7059Z" fill="#B3B3B3"/>
<path id="Vector_17" fill-rule="evenodd" clip-rule="evenodd" d="M121.01 44.55L124.416 43.9243L124.19 42.5265L132.87 40.2721C132.87 40.2721 132.073 39.0392 131.773 37.4668C131.773 37.4668 131.24 38.5167 131.505 39.6253L119.211 42.5368C119.211 42.5368 120.087 44.2149 121.01 44.55Z" fill="#B8166A"/>
<path id="Vector_18" fill-rule="evenodd" clip-rule="evenodd" d="M181.003 0.150391L170.874 4.56873L170.547 1.52418L160.711 10.3535L168.771 4.52813L169.67 7.60888L181.003 0.150391Z" fill="#3AA29F"/>
<path id="Vector_19" fill-rule="evenodd" clip-rule="evenodd" d="M182.052 57.4943L171.417 54.5153L171.508 57.5765L160.562 50.1875L169.339 54.8461L169.81 51.6699L182.052 57.4943Z" fill="#3AA29F"/>
<path id="Vector_20" fill-rule="evenodd" clip-rule="evenodd" d="M185.003 42.4535L175.297 37.2695L175.316 40.2852L185.003 42.4535Z" fill="#3AA29F"/>
<path id="Vector_21" fill-rule="evenodd" clip-rule="evenodd" d="M184.616 16.6953L174.91 21.8793L174.929 18.8636L184.616 16.6953Z" fill="#3AA29F"/>
<path id="Vector_22" fill-rule="evenodd" clip-rule="evenodd" d="M8.90596 3.65234C8.90596 3.65234 7.94467 7.63526 4.07812 8.51247C7.94467 9.39017 8.90596 13.3726 8.90596 13.3726C8.90596 13.3726 9.86725 9.39017 13.7338 8.51247C9.86725 7.63526 8.90596 3.65234 8.90596 3.65234Z" fill="#3AA29F"/>
<path id="Vector_23" fill-rule="evenodd" clip-rule="evenodd" d="M141.733 98.4922C141.733 98.4922 141.058 101.288 138.344 101.904C141.058 102.52 141.733 105.316 141.733 105.316C141.733 105.316 142.408 102.52 145.122 101.904C142.408 101.288 141.733 98.4922 141.733 98.4922Z" fill="#3AA29F"/>
<path id="Vector_24" fill-rule="evenodd" clip-rule="evenodd" d="M110.436 79.7383L116.928 86.8612L117.786 84.3714L110.436 79.7383ZM109.773 80.4315L112.943 86.1268L111.491 87.4497L109.773 80.4315Z" fill="white"/>
<path id="Vector_25" fill-rule="evenodd" clip-rule="evenodd" d="M37.6139 30.4087L30.1374 22.2051L29.1484 25.0725L37.6139 30.4087Z" fill="white"/>
<path id="Vector_26" fill-rule="evenodd" clip-rule="evenodd" d="M39.9745 29.7156L37.9955 21.6328L36.3242 23.1558L39.9745 29.7156Z" fill="white"/>
<path id="Vector_27" fill-rule="evenodd" clip-rule="evenodd" d="M34.3543 31.3764L28.1953 30.5335L29.1926 29.1543L34.3543 31.3764Z" fill="white"/>
<path id="Vector_28" fill-rule="evenodd" clip-rule="evenodd" d="M16.6237 103.73C16.6237 103.73 15.9491 106.526 13.2344 107.142C15.9491 107.758 16.6237 110.554 16.6237 110.554C16.6237 110.554 17.2982 107.758 20.013 107.142C17.2982 106.527 16.6237 103.73 16.6237 103.73Z" fill="#3AA29F"/>
<path id="Vector_29" d="M4.45484 58.2257C4.71571 57.1186 4.03566 56.0083 2.93592 55.7456C1.83618 55.483 0.733197 56.1676 0.472334 57.2747C0.211471 58.3818 0.891514 59.4922 1.99125 59.7548C3.09099 60.0174 4.19398 59.3328 4.45484 58.2257Z" fill="#3AA29F"/>
<path id="Vector_30" d="M134.66 11.6123C135.217 10.6222 134.871 9.36509 133.887 8.80449C132.904 8.24389 131.655 8.5921 131.098 9.58222C130.541 10.5723 130.887 11.8295 131.871 12.3901C132.854 12.9507 134.103 12.6025 134.66 11.6123Z" fill="#3AA29F"/>
<path id="Vector_31" d="M87.981 105.041C88.2407 103.934 87.5595 102.825 86.4596 102.563C85.3596 102.302 84.2574 102.987 83.9976 104.095C83.7379 105.202 84.419 106.312 85.519 106.573C86.619 106.835 87.7212 106.149 87.981 105.041Z" fill="#3AA29F"/>
<g id="Group">
<path id="Vector_32" fill-rule="evenodd" clip-rule="evenodd" d="M41.6256 42.6711H47.4816L52.0222 60.5703H52.1069V42.6711H56.2658V72.5743H51.4705L45.8686 50.7449H45.7839V72.5743H41.625V42.6711H41.6256ZM59.7453 42.6711H72.4761V46.9431H64.4136V54.8463H70.8214V59.1183H64.4136V68.303H72.4761V72.575H59.7453V42.6711ZM74.0461 42.6711H78.5444L80.6239 65.6542H80.7086L82.9151 42.6711H88.0075L90.214 65.6542H90.2987L92.3782 42.6711H96.4094L93.3964 72.5743H87.5828L85.461 52.4106H85.3763L83.2545 72.5743H77.0591L74.0461 42.6711ZM104.854 73.0013C102.59 73.0013 100.879 72.3533 99.7188 71.0578C98.559 69.7617 97.9788 67.9034 97.9788 65.483V63.774H102.392V65.8247C102.392 67.7615 103.199 68.7293 104.811 68.7293C105.603 68.7293 106.205 68.4942 106.615 68.0246C107.025 67.5544 107.23 66.7931 107.23 65.7394C107.23 64.4866 106.947 63.3829 106.381 62.4285C105.816 61.4741 104.769 60.3279 103.241 58.9898C101.317 57.2807 99.9736 55.7361 99.21 54.3548C98.4459 52.9734 98.0641 51.4142 98.0641 49.6772C98.0641 47.3134 98.6582 45.4838 99.8465 44.1877C101.035 42.8922 102.76 42.2441 105.024 42.2441C107.259 42.2441 108.949 42.8922 110.095 44.1877C111.241 45.4838 111.813 47.342 111.813 49.7624V51.0013H107.4V49.4634C107.4 48.4383 107.202 47.6904 106.806 47.2208C106.41 46.7506 105.83 46.5161 105.066 46.5161C103.51 46.5161 102.732 47.4699 102.732 49.3781C102.732 50.4604 103.022 51.4715 103.602 52.4113C104.181 53.351 105.235 54.49 106.763 55.8287C108.715 57.5378 110.059 59.0897 110.794 60.485C111.53 61.8804 111.897 63.5182 111.897 65.3977C111.897 67.8468 111.296 69.7264 110.094 71.0365C108.892 72.3466 107.145 73.0013 104.854 73.0013Z" fill="white" fill-opacity="0.4"/>
</g>
<g id="Group_2">
<path id="Vector_33" fill-rule="evenodd" clip-rule="evenodd" d="M39.9648 40.7467H45.8208L50.3615 58.6459H50.4462V40.7467H54.6051V70.6499H49.8097L44.2084 48.8204H44.1237V70.6499H39.9648V40.7467ZM58.0845 40.7467H70.8153V45.0186H62.7529V52.9219H69.1606V57.1938H62.7529V66.3785H70.8153V70.6505H58.0845V40.7467ZM72.3853 40.7467H76.8837L78.9631 63.7297H79.0478L81.2543 40.7467H86.3467L88.5532 63.7297H88.638L90.7174 40.7467H94.7486L91.7356 70.6499H85.922L83.8002 50.4862H83.7155L81.5937 70.6499H75.3983L72.3853 40.7467ZM103.193 71.0775C100.93 71.0775 99.2185 70.4294 98.0587 69.134C96.8989 67.8379 96.3187 65.9796 96.3187 63.5592V61.8501H100.732V63.9009C100.732 65.8377 101.538 66.8055 103.151 66.8055C103.942 66.8055 104.544 66.5704 104.954 66.1008C105.364 65.6306 105.569 64.8693 105.569 63.8156C105.569 62.5627 105.286 61.4591 104.721 60.5047C104.155 59.5509 103.108 58.4041 101.581 57.0659C99.6565 55.3569 98.3128 53.8123 97.5493 52.431C96.7857 51.0496 96.4034 49.4904 96.4034 47.7533C96.4034 45.3896 96.9975 43.5599 98.1857 42.2638C99.374 40.9684 101.1 40.3203 103.363 40.3203C105.598 40.3203 107.288 40.9684 108.434 42.2638C109.58 43.5599 110.153 45.4182 110.153 47.8386V49.0774H105.74V47.5396C105.74 46.5145 105.542 45.7666 105.146 45.297C104.75 44.8268 104.17 44.5923 103.406 44.5923C101.85 44.5923 101.072 45.5461 101.072 47.4543C101.072 48.5366 101.361 49.5476 101.942 50.4874C102.521 51.4272 103.575 52.5662 105.103 53.9049C107.055 55.6133 108.398 57.1658 109.134 58.5612C109.87 59.9566 110.237 61.5943 110.237 63.4739C110.237 65.923 109.636 67.8025 108.434 69.1126C107.232 70.4221 105.485 71.0775 103.193 71.0775Z" fill="white"/>
</g>
</g>
</svg>
