<svg width="182" height="182" viewBox="0 0 182 182" fill="none" xmlns="http://www.w3.org/2000/svg">
<mask id="mask0_3313_25637" style="mask-type:luminance" maskUnits="userSpaceOnUse" x="0" y="0" width="182" height="182">
<path d="M182 0H0V182H182V0Z" fill="white"/>
</mask>
<g mask="url(#mask0_3313_25637)">
<path d="M91.0004 163.194C131.222 163.194 163.8 130.616 163.8 90.3938C163.8 50.1717 131.222 17.5938 91.0004 17.5938C50.7784 17.5938 18.2004 50.1717 18.2004 90.3938C18.2004 130.616 50.7784 163.194 91.0004 163.194Z" fill="url(#paint0_linear_3313_25637)"/>
<path d="M63.7054 38.582H119.822C125.161 38.582 129.529 42.95 129.529 48.2887V122.909C129.529 128.247 125.161 132.615 119.822 132.615H63.7054C58.3668 132.615 53.9988 128.247 53.9988 122.909V48.2887C53.9988 42.8894 58.3668 38.582 63.7054 38.582Z" fill="white"/>
<path d="M63.6416 50.7148H88.0296C89.6676 50.7148 91.0023 52.0495 91.0023 53.6875C91.0023 55.3255 89.6676 56.6602 88.0296 56.6602H63.6416C62.0036 56.6602 60.6689 55.3255 60.6689 53.6875C60.6689 51.9888 62.0036 50.7148 63.6416 50.7148Z" fill="#011625"/>
<path d="M63.6416 67.5859H118.363C120.001 67.5859 121.336 68.9206 121.336 70.5586C121.336 72.1966 120.001 73.5313 118.363 73.5313H63.6416C62.0036 73.5313 60.6689 72.1966 60.6689 70.5586C60.6689 68.8599 62.0036 67.5859 63.6416 67.5859Z" fill="#D5D5D5"/>
<path d="M63.6416 84.4492H118.363C120.001 84.4492 121.336 85.7839 121.336 87.4219C121.336 89.0599 120.001 90.3946 118.363 90.3946H63.6416C62.0036 90.3946 60.6689 89.0599 60.6689 87.4219C60.6689 85.7232 62.0036 84.4492 63.6416 84.4492Z" fill="#D5D5D5"/>
<path d="M63.6416 101.312H118.363C120.001 101.312 121.336 102.647 121.336 104.285C121.336 105.923 120.001 107.258 118.363 107.258H63.6416C62.0036 107.258 60.6689 105.923 60.6689 104.285C60.6689 102.586 62.0036 101.312 63.6416 101.312Z" fill="#D5D5D5"/>
<path d="M63.6416 118.18H118.363C120.001 118.18 121.336 119.514 121.336 121.152C121.336 122.79 120.001 124.125 118.363 124.125H63.6416C62.0036 124.125 60.6689 122.79 60.6689 121.152C60.6689 119.454 62.0036 118.18 63.6416 118.18Z" fill="#D5D5D5"/>
<path d="M174.789 28.1523H138.328C136.629 28.1523 135.234 29.6083 135.234 31.3677V49.3857C135.234 51.145 136.629 52.601 138.328 52.601H174.789C176.487 52.601 177.883 51.145 177.883 49.3857V31.3677C177.883 29.6083 176.548 28.1523 174.789 28.1523Z" fill="white"/>
<path d="M144.39 44.2878C146.392 44.2878 148.03 42.6498 148.03 40.6478C148.03 38.6458 146.392 37.0078 144.39 37.0078C142.388 37.0078 140.75 38.6458 140.75 40.6478C140.75 42.6498 142.388 44.2878 144.39 44.2878Z" fill="#CCC6D9"/>
<path d="M156.53 37.0078H168.663C170.665 37.0078 172.303 38.6458 172.303 40.6478C172.303 42.6498 170.665 44.2878 168.663 44.2878H156.53C154.528 44.2878 152.89 42.6498 152.89 40.6478C152.89 38.6458 154.528 37.0078 156.53 37.0078Z" fill="#D5D5D5"/>
<path fill-rule="evenodd" clip-rule="evenodd" d="M112.308 136.865C120.134 136.865 127.353 134.499 133.42 130.434L158.111 154.033L167.09 143.659L143.248 120.909C147.677 114.721 150.225 107.138 150.225 98.9479C150.225 78.0179 133.238 61.0312 112.308 61.0312C91.378 61.0312 74.3914 78.0179 74.3914 98.9479C74.3914 119.878 91.378 136.865 112.308 136.865ZM144.643 98.9479C144.643 116.663 130.265 131.041 112.551 131.041C94.836 131.041 80.458 116.663 80.458 98.9479C80.458 81.2333 94.836 66.8552 112.551 66.8552C130.265 66.8552 144.643 81.1726 144.643 98.9479Z" fill="#CCC6D9"/>
<path d="M112.539 131.645C130.8 131.645 145.603 116.964 145.603 98.885C145.603 80.8063 130.8 66.125 112.539 66.125C94.2787 66.125 79.4761 80.8063 79.4761 98.885C79.4761 116.964 94.2787 131.645 112.539 131.645Z" fill="white" fill-opacity="0.3"/>
<path d="M118.253 98.8893L126.261 90.942C126.989 90.1533 127.414 89.122 127.414 88.03C127.414 86.938 126.929 85.9067 126.201 85.118C125.412 84.3293 124.381 83.9047 123.289 83.9047C122.197 83.9047 121.165 84.2687 120.377 85.0573L112.369 93.0047L104.361 85.0573C103.997 84.6327 103.511 84.3293 103.026 84.0867C102.541 83.844 101.934 83.7227 101.388 83.7227C100.842 83.7227 100.296 83.844 99.75 84.026C99.204 84.208 98.7794 84.572 98.3547 84.936C97.93 85.3 97.6267 85.7853 97.4447 86.3313C97.2627 86.8773 97.1414 87.4233 97.1414 87.9693C97.1414 88.5153 97.2627 89.0613 97.5054 89.6073C97.748 90.0927 98.0514 90.578 98.476 90.942L106.484 98.8893L98.476 106.837C98.0514 107.201 97.748 107.686 97.5054 108.171C97.2627 108.657 97.1414 109.203 97.1414 109.809C97.1414 110.355 97.2627 110.901 97.4447 111.447C97.6267 111.993 97.9907 112.418 98.3547 112.843C98.7794 113.207 99.204 113.571 99.75 113.753C100.296 113.935 100.842 114.056 101.388 114.056C101.934 114.056 102.48 113.935 103.026 113.692C103.511 113.449 103.997 113.146 104.361 112.721L112.369 104.774L120.377 112.721C121.165 113.449 122.197 113.813 123.289 113.753C124.381 113.692 125.351 113.267 126.14 112.539C126.868 111.811 127.353 110.78 127.353 109.749C127.414 108.717 126.989 107.686 126.322 106.837L118.253 98.8893Z" fill="#FF4040"/>
<path d="M158.108 153.972L167.086 143.598L168.421 144.872C169.756 146.146 170.484 147.844 170.605 149.725C170.666 151.606 170.059 153.426 168.906 154.76C167.693 156.156 166.055 156.944 164.296 157.066C162.536 157.126 160.777 156.52 159.503 155.246L158.108 153.972Z" fill="#E1DCEB"/>
<path fill-rule="evenodd" clip-rule="evenodd" d="M34.1629 55.3304C34.1629 54.4811 34.0415 53.5711 33.7989 52.7218C33.0102 49.6278 29.6129 47.6865 26.0335 47.2011C22.3935 46.7158 18.6929 47.8078 17.2369 50.4771C16.3875 51.9938 16.2662 53.3284 16.6302 54.4204C16.9942 55.5124 17.7829 56.4224 18.8749 57.1504C21.9082 59.1524 27.1862 59.5771 29.6129 58.7278C30.7049 58.3638 31.7969 57.8784 32.8889 57.3324C32.2822 60.7904 30.0375 64.1271 27.0042 67.0998C20.4522 73.5911 10.1995 78.5051 4.67886 80.2644C4.37553 80.3858 4.19353 80.6891 4.31486 80.9924C4.43619 81.2958 4.73953 81.4778 5.04286 81.3564C10.6849 79.5364 21.1195 74.5011 27.7929 67.8884C31.2509 64.4911 33.7382 60.6691 34.1629 56.6045C41.9889 52.2365 48.4195 44.2891 53.9402 37.6158C54.1222 37.3731 54.1222 37.0091 53.8795 36.7665C53.6369 36.5845 53.2729 36.5844 53.0909 36.8271C47.7522 43.3791 41.6249 50.9624 34.1629 55.3304ZM33.0102 55.9371C33.0709 54.9664 32.9495 53.9958 32.7069 52.9645C32.0395 50.2951 29.0062 48.7178 25.9122 48.2931C23.9709 48.0505 22.0295 48.2324 20.4522 48.9604C19.4815 49.3851 18.6929 50.0524 18.2075 50.9624C17.6009 52.1151 17.4189 53.1464 17.7222 53.9958C17.9649 54.8451 18.6322 55.5731 19.4815 56.1191C22.2115 57.9391 27.0649 58.3031 29.2489 57.5751C30.5229 57.1504 31.7969 56.6044 33.0102 55.9371Z" fill="#011625"/>
<path d="M172.908 115.268C174.918 115.268 176.548 113.639 176.548 111.628C176.548 109.618 174.918 107.988 172.908 107.988C170.898 107.988 169.268 109.618 169.268 111.628C169.268 113.639 170.898 115.268 172.908 115.268Z" fill="#417BA4"/>
<path fill-rule="evenodd" clip-rule="evenodd" d="M35.4388 136.742C36.1061 136.499 36.7734 136.196 37.3194 135.71C37.9261 135.164 38.2294 134.436 38.3508 133.708C38.5934 132.738 38.6541 131.706 38.8968 130.736C39.0181 130.372 39.2001 130.25 39.2608 130.19C39.4428 130.008 39.6854 130.008 39.8674 130.008C40.1101 130.008 40.4134 130.129 40.6561 130.554C40.6561 130.614 40.7168 130.675 40.7774 130.796C40.7774 130.857 40.8381 131.16 40.8381 131.282C40.8988 131.585 40.9594 131.828 40.9594 132.131C41.0808 133.102 41.1414 133.89 41.5661 134.74C42.1121 135.953 42.7188 136.681 43.4468 136.984C44.1748 137.288 45.0848 137.227 46.2374 136.984C46.3588 136.984 46.4801 136.924 46.5408 136.924C47.0261 136.802 47.5115 137.166 47.6328 137.712C47.7541 138.258 47.3901 138.744 46.9048 138.865C46.7835 138.865 46.7228 138.926 46.6015 138.926C45.0848 139.35 43.3254 140.746 42.2941 142.02C41.9908 142.384 41.5055 143.476 41.0201 144.143C40.6561 144.628 40.2921 144.992 39.9281 145.114C39.6855 145.174 39.5034 145.174 39.3821 145.114C39.1394 145.053 38.9574 144.932 38.8361 144.75C38.7754 144.628 38.7148 144.507 38.6541 144.325C38.6541 144.204 38.6541 144.022 38.6541 143.9C38.5328 143.536 38.4114 143.233 38.3508 142.869C38.1688 142.02 37.7441 141.474 37.2588 140.806C36.8341 140.139 36.3488 139.714 35.6208 139.411C35.4994 139.411 34.7714 139.168 34.5288 139.108C34.1648 138.926 33.9828 138.683 33.9221 138.562C33.8008 138.319 33.8008 138.076 33.8008 137.894C33.8614 137.652 33.9221 137.409 34.1648 137.227C34.2861 137.106 34.4681 136.984 34.7108 136.924C34.8321 136.742 35.3781 136.742 35.4388 136.742ZM39.8068 135.346C39.8675 135.407 39.8675 135.528 39.9281 135.589C40.7775 137.348 41.6875 138.319 42.7795 138.744H42.8401C42.1121 139.35 41.3841 140.018 40.8988 140.624C40.6561 140.867 40.4135 141.413 40.1101 141.959C39.8068 140.988 39.3821 140.321 38.7754 139.472C38.3508 138.804 37.8654 138.319 37.3194 137.955C37.7441 137.712 38.1688 137.47 38.5328 137.106C39.0788 136.681 39.5035 136.014 39.8068 135.346Z" fill="#417BA4"/>
</g>
<defs>
<linearGradient id="paint0_linear_3313_25637" x1="90.4376" y1="-6.11169" x2="91.9288" y2="249.551" gradientUnits="userSpaceOnUse">
<stop stop-color="#F2F2F2"/>
<stop offset="1" stop-color="#EFEFEF"/>
</linearGradient>
</defs>
</svg>
