<svg width="254" height="173" viewBox="0 0 254 173" fill="none" xmlns="http://www.w3.org/2000/svg">
<path d="M0.335938 162.921H253.103V162.791H0.335938V162.921Z" fill="#E7E8E5"/>
<path d="M43.6048 171.131H26.8604V171.261H43.6048V171.131" fill="#E7E8E5"/>
<path d="M91.2428 172.542H68.7466V172.672H91.2428V172.542Z" fill="#E7E8E5"/>
<path d="M79.7105 166.317H44.1118V166.446H79.7105V166.317Z" fill="#E7E8E5"/>
<path d="M227.779 167.194H221.362V167.323H227.779V167.194Z" fill="#E7E8E5"/>
<path d="M216.852 167.194H198.231V167.323H216.852V167.194Z" fill="#E7E8E5"/>
<path d="M156.21 169.377H140.478V169.507H156.21V169.377Z" fill="#E7E8E5"/>
<path d="M160.879 111.252H161.682V0.131738H160.879V111.252Z" fill="#DADBD8"/>
<path d="M71.9664 139.663H70.8188L70.8229 139.533H71.971L71.9664 139.663Z" fill="#F1F1F0"/>
<path d="M72.9544 108.786C72.5798 108.272 72.2138 107.752 71.8574 107.228L71.9444 104.519H72.8907C72.9544 104.619 73.0186 104.718 73.0828 104.817L72.9544 108.786Z" fill="#F1F1F0"/>
<path d="M72.9009 104.519H71.9546L72.0016 103.07C72.2943 103.558 72.5926 104.038 72.9009 104.519Z" fill="#F7F7F6"/>
<path d="M153.017 120.065C153.262 115.696 152.92 111.286 151.09 106.833C149.546 103.083 143.966 97.2119 144.548 89.6844C146.83 88.5152 148.4 87.0903 149.486 85.3117C149.908 84.6179 150.341 83.8407 150.768 83.012L159.297 114.76C157.301 116.706 155.202 118.475 153.017 120.065" fill="#F7F7F6"/>
<path d="M171.542 47.8262H161.676V32.9362C165.8 37.4577 169.089 42.4895 171.542 47.8262Z" fill="white"/>
<path d="M160.866 47.8262H154.3V26.1424C156.404 27.7665 158.424 29.5626 160.34 31.5273C160.517 31.7088 160.692 31.8908 160.866 32.0744V47.8262" fill="#F3F2F1"/>
<path d="M161.682 47.8262H160.879V32.0744C161.15 32.3596 161.417 32.6468 161.682 32.9362V47.8262Z" fill="#EDEDEB"/>
<path d="M72.0027 103.072C64.6356 90.8065 62.1236 76.3391 64.4657 62.5748L72.3804 91.3608L72.0027 103.072M73.3596 61.0244L69.4675 46.8687C70.197 45.3546 70.9937 43.868 71.8597 42.4104L73.996 50.1805C73.7969 50.6321 73.6791 51.1273 73.6624 51.6453L73.3596 61.0244M154.308 47.83H150.337C150.555 45.4111 150.72 43.1425 150.726 41.7633C150.746 37.4745 148.372 30.687 147.011 30.687C146.967 30.687 146.924 30.6943 146.883 30.7083C145.177 31.2947 140.602 34.4173 139.156 35.8702C137.157 37.879 135.741 39.586 134.547 41.1286C133.056 40.5748 131.46 40.2009 129.771 40.0666C127.763 39.9075 125.067 39.7213 122.039 39.7213C119.477 39.7213 116.675 39.8546 113.848 40.2502L107.2 16.0682C111.496 15.027 115.887 14.5069 120.279 14.5069C132.27 14.5069 144.26 18.3855 154.308 26.1463V47.83M90.0791 47.83H89.4679L84.0076 27.9699C89.9183 22.9076 96.6 19.2722 103.615 17.0648L110.175 40.9243C108.653 41.2753 107.151 41.7197 105.704 42.2787C103.315 41.0072 101.147 38.9938 98.2859 36.1668C95.6056 33.5182 93.498 29.7117 91.0765 29.5359C91.0578 29.5343 91.0386 29.5338 91.0199 29.5338C89.1519 29.5338 87.6566 36.229 88.7116 42.7199C88.925 44.0349 89.4376 45.8555 90.0791 47.83Z" fill="#FAFAF9"/>
<path d="M73.9938 50.1748L71.8574 42.4047C74.1591 38.5318 76.9431 34.8746 80.2083 31.5255C81.4332 30.2691 82.7006 29.0817 84.0054 27.9642L89.4657 47.8243H78.6508H77.5032C75.9624 47.8243 74.6015 48.7976 73.9938 50.1748" fill="white"/>
<path d="M72.3726 91.3584L64.458 62.5724C65.3776 57.1704 67.0448 51.8773 69.4598 46.8662L73.3519 61.022L72.3726 91.3584" fill="white"/>
<path d="M110.168 40.9189L103.607 17.0595C104.794 16.6861 105.988 16.3543 107.192 16.0629L113.841 40.2449C112.615 40.417 111.386 40.6374 110.168 40.9189" fill="white"/>
<path d="M73.0885 104.817C73.024 104.718 72.9595 104.619 72.8955 104.52H73.0982L73.0885 104.817Z" fill="#FAFAF9"/>
<path d="M73.0981 104.519H72.8964C72.588 104.038 72.2898 103.558 71.9971 103.07L72.3747 91.3584L73.402 95.0943L73.0981 104.519M74.3812 64.7579L73.3539 61.022L73.6567 51.6429C73.6734 51.1249 73.7912 50.6297 73.9904 50.178L74.7613 52.9807L74.3812 64.7579Z" fill="#FCFDFC"/>
<path d="M74.7665 52.9795L73.9956 50.1769C74.6033 48.7997 75.9642 47.8264 77.505 47.8264H78.6526C76.6067 47.8264 74.8773 49.5432 74.8095 51.6417L74.7665 52.9795" fill="white"/>
<path d="M73.4057 95.0928L72.3784 91.3568L73.3576 61.0204L74.3849 64.7564L73.4057 95.0928" fill="white"/>
<path d="M75.095 107.691C74.3974 106.749 73.7316 105.788 73.0977 104.813L73.1073 104.515L73.4111 95.0912L74.3903 64.7548L74.7705 52.9775L74.8134 51.6397C74.8812 49.5413 76.6106 47.8244 78.6565 47.8244H90.0826C90.5254 49.1876 91.0299 50.6234 91.5405 52.0183L91.3611 52.0224C90.5133 52.0406 89.8404 52.7515 89.8404 53.6138C89.8404 53.6345 89.8409 53.6552 89.8414 53.676L89.849 53.8813H78.2799C77.4832 53.8813 76.8098 54.5497 76.7835 55.3674L75.095 107.691ZM173.932 53.8813H149.734C149.809 53.1829 149.889 52.4315 149.969 51.6558L150.23 51.6501C150.47 51.6449 150.656 51.4417 150.647 51.1959C150.638 50.9537 150.442 50.7608 150.207 50.7608C150.204 50.7608 150.201 50.7608 150.198 50.7608L150.06 50.7639C150.157 49.7922 150.253 48.7956 150.341 47.8244H171.547C172.457 49.8047 173.252 51.8275 173.932 53.8813" fill="#F7F7F6"/>
<path d="M78.4942 111.877C77.2854 110.526 76.1495 109.128 75.0884 107.693L76.7769 55.3695C76.8031 54.5518 77.4765 53.8834 78.2732 53.8834H89.8424L89.9779 57.5131H82.0066C81.0264 57.5131 80.2226 58.3106 80.1902 59.3155L78.4942 111.877M158.561 57.5131H152.192L151.217 53.8834H149.727H173.926H157.586L158.561 57.5131" fill="white"/>
<path d="M84.6571 117.825C83.1243 116.551 81.6396 115.181 80.2135 113.719C79.6245 113.115 79.0517 112.501 78.4941 111.878L80.1902 59.3162C80.2226 58.3113 81.0264 57.5138 82.0066 57.5138H89.9778L90.1032 60.8884C90.1229 61.4111 90.3863 61.8663 90.7776 62.1417C88.2666 66.5217 86.4062 74.2156 86.5119 76.4909C87.7722 74.8622 89.669 73.626 89.669 73.626C89.669 73.626 88.5426 80.8071 88.8636 84.5804C90.1689 82.9802 91.5774 81.8934 92.7512 81.1763C93.7183 85.2892 94.5752 89.3949 94.4503 93.2019C94.2076 100.456 92.3665 101.63 88.8141 109.958C88.0962 111.635 86.5999 114.389 84.6571 117.825M165.616 107.487L155.659 70.421C156.408 71.0723 156.858 72.0232 156.858 72.0232C156.858 72.0232 156.761 66.8385 154.026 62.7541C153.789 62.4004 153.558 62.0675 153.33 61.7507L152.192 57.5138H158.561L170.074 100.376C168.773 102.829 167.287 105.207 165.616 107.487" fill="#F7F7F6"/>
<path d="M170.074 100.381L158.56 57.519L157.585 53.8893H173.925C178.962 69.1039 177.678 86.0384 170.074 100.381" fill="white"/>
<path d="M159.305 114.76L150.777 83.0114C151.31 81.979 151.837 80.8684 152.331 79.7442C152.832 80.2109 153.905 81.4009 154.76 83.6663C155.517 79.8629 154.567 76.0092 154.567 76.0092C154.567 76.0092 155.943 77.4279 156.631 78.2171C156.644 74.9541 156.406 72.8799 155.151 70.0633C155.335 70.1623 155.506 70.2863 155.664 70.4237L165.621 107.49C164.029 109.663 162.27 111.745 160.343 113.722C160 114.073 159.654 114.419 159.305 114.76M153.335 61.7534C151.913 59.7752 150.658 58.44 149.409 56.7911C149.495 56.0377 149.608 55.0317 149.732 53.8868H151.222L152.197 57.5165L153.335 61.7534" fill="white"/>
<path d="M133.207 42.8833C134.704 40.8828 136.359 38.6682 139.146 35.8676C140.591 34.4147 145.166 31.2922 146.872 30.7057C148.207 30.2468 150.736 37.3345 150.715 41.7607C150.695 45.9255 149.231 58.2109 149.231 58.2109L133.207 42.8833" fill="#406FBF"/>
<path d="M147.037 53.1143C146.874 52.8125 146.708 52.4962 146.542 52.1638C146.47 52.0212 146.396 51.8786 146.319 51.7345L147.614 51.707C147.438 52.2551 147.245 52.7347 147.037 53.1143M145.824 50.855C144.542 48.6959 142.718 46.4496 140.431 44.5648C142.475 42.6016 144.573 39.9686 146.179 38.2823C146.768 37.6637 147.245 37.3853 147.626 37.3853C149.01 37.3853 149.125 41.0637 148.739 45.4945C148.585 47.2502 148.288 49.2113 147.872 50.8115L145.824 50.855Z" fill="#5D87CD"/>
<path d="M152.748 123.15C151.668 123.88 150.577 124.573 149.465 125.215C138.527 131.622 126.019 134.141 113.85 132.779C103.004 131.572 92.4227 127.286 83.4556 119.916C85.9711 115.508 87.9417 111.964 88.8001 109.959C92.3525 101.631 94.1936 100.457 94.4363 93.2032C94.6739 85.949 91.3485 77.6101 90.4845 70.2008C96.2451 67.4101 146.01 84.2991 146.01 84.2991C141.21 94.4326 149.184 102.229 151.079 106.831C153.342 112.335 153.33 117.773 152.748 123.15" fill="#406FBF"/>
<path d="M155.146 70.0605C156.198 70.6283 156.858 72.0231 156.858 72.0231C156.858 72.0231 156.761 66.8384 154.026 62.754C151.204 58.5409 149.085 57.2265 146.543 52.1657C143.939 46.982 137.947 40.7135 129.768 40.0638C121.589 39.4151 102.032 38.3236 94.9434 51.1551C92.8464 54.9507 91.5887 58.5378 90.937 61.8694C88.3457 66.1954 86.4039 74.1678 86.5116 76.4908C87.7719 74.8621 89.6686 73.6259 89.6686 73.6259C89.6686 73.6259 88.5423 80.807 88.8633 84.5803C90.5382 82.5275 92.3824 81.3193 93.6831 80.653C97.0737 86.8183 109.262 95.7789 126.368 93.8376C140.316 92.254 146.609 90.0285 149.489 85.3083C150.438 83.7507 151.435 81.7673 152.326 79.7414C152.827 80.2081 153.9 81.3981 154.755 83.6636C155.511 79.8602 154.561 76.0065 154.561 76.0065C154.561 76.0065 155.938 77.4252 156.626 78.2144C156.639 74.9513 156.401 72.8772 155.146 70.0605" fill="#406FBF"/>
<path d="M142.347 59.2314C140.002 59.2314 138.797 55.7008 139.613 54.8141C140.612 53.7299 141.65 53.2917 142.638 53.2917C144.212 53.2917 145.66 54.4045 146.623 55.7895C144.985 58.3437 143.523 59.2314 142.347 59.2314Z" fill="#2D5BB2"/>
<path d="M138.904 61.112C134.268 60.9144 131.722 61.0161 132.154 63.6585C132.514 65.8607 137.307 68.3408 138.981 67.3737C141.491 65.9229 142.856 61.2805 138.904 61.112Z" fill="white"/>
<path d="M139.12 86.4053C138.453 86.4053 137.745 86.3731 136.993 86.3057C131.662 85.8266 126.301 82.899 122.912 79.8765C119.755 77.0614 118.674 73.1336 120.752 69.312C122.268 66.5224 125.623 65.6487 129.109 65.6487C130.841 65.6487 132.605 65.8649 134.191 66.1682C135.403 66.9994 136.912 67.5869 138.019 67.5869C138.394 67.5869 138.723 67.52 138.979 67.3717C139.426 67.1135 139.837 66.7536 140.187 66.3362C141.323 66.1838 142.511 66.0816 143.676 66.0816C145.252 66.0816 146.789 66.2683 148.102 66.7682C153.802 68.9382 152.44 76.5154 149.503 81.0956C147.734 83.8541 145.061 86.4053 139.12 86.4053M128.568 73.4162C128.422 73.4162 128.29 73.5095 128.241 73.6573C128.179 73.8429 128.275 74.0452 128.456 74.1089C129.959 74.6368 131.332 74.9007 132.565 74.9007C133.808 74.9007 134.91 74.6321 135.861 74.0954C137.325 73.27 138.061 72.012 138.399 71.2244C140.203 73.9643 142.109 74.5569 143.421 74.5569C144.411 74.5569 145.064 74.2194 145.079 74.2111C145.249 74.1198 145.313 73.9046 145.224 73.7309C145.163 73.6096 145.042 73.5406 144.917 73.5406C144.863 73.5406 144.807 73.5536 144.756 73.5816C144.743 73.5883 144.23 73.8538 143.431 73.8538C142.225 73.8538 140.37 73.2492 138.61 70.2387C138.546 70.1303 138.435 70.066 138.312 70.066C138.295 70.066 138.277 70.067 138.259 70.0696C138.12 70.0919 138.007 70.1977 137.975 70.3387C137.97 70.3584 137.48 72.3703 135.527 73.4722C134.679 73.9503 133.688 74.1893 132.562 74.1893C131.408 74.1893 130.112 73.9383 128.681 73.4359C128.643 73.4224 128.605 73.4162 128.568 73.4162" fill="#4D79C6"/>
<path d="M138.023 67.5889C136.916 67.5889 135.408 67.0014 134.195 66.1702C135.275 66.3771 136.274 66.6249 137.123 66.8728C138.055 66.6778 139.099 66.4844 140.191 66.3382C139.841 66.7556 139.43 67.1154 138.983 67.3737C138.727 67.522 138.398 67.5889 138.023 67.5889Z" fill="white"/>
<path d="M120.273 133.138C120.024 133.138 119.777 133.136 119.529 133.133C117.636 133.108 115.745 132.99 113.862 132.779C111.831 126.694 111.448 119.29 113.316 111.958C115.118 104.887 119.227 102.714 123.429 102.714C126.68 102.714 129.986 104.014 132.325 105.352C134.636 104.256 137.55 103.156 140.326 103.156C142.023 103.156 143.669 103.568 145.093 104.644C149.315 107.844 150.238 116.472 149.476 125.215C145.408 127.598 141.123 129.443 136.718 130.751C136.709 130.754 136.697 130.757 136.688 130.76C136.687 130.76 136.685 130.761 136.684 130.761C131.331 132.345 125.802 133.138 120.273 133.138" fill="#4D79C6"/>
<path d="M132.57 74.9043C131.337 74.9043 129.964 74.6404 128.461 74.1125C128.28 74.0487 128.184 73.8465 128.245 73.6609C128.294 73.5131 128.427 73.4198 128.572 73.4198C128.61 73.4198 128.648 73.426 128.686 73.4395C130.116 73.9419 131.413 74.1929 132.567 74.1929C133.693 74.1929 134.684 73.9538 135.531 73.4758C137.485 72.3739 137.975 70.362 137.98 70.3423C138.012 70.2013 138.125 70.0955 138.264 70.0732C138.282 70.0706 138.3 70.0696 138.317 70.0696C138.439 70.0696 138.551 70.1339 138.614 70.2422C140.375 73.2528 142.23 73.8574 143.436 73.8574C144.234 73.8574 144.748 73.5919 144.761 73.5852C144.812 73.5572 144.868 73.5442 144.922 73.5442C145.047 73.5442 145.167 73.6132 145.229 73.7345C145.318 73.9082 145.253 74.1234 145.084 74.2147C145.068 74.223 144.416 74.5605 143.426 74.5605C142.114 74.5605 140.207 73.9678 138.403 71.2279C138.066 72.0156 137.329 73.2735 135.866 74.099C134.914 74.6357 133.813 74.9043 132.57 74.9043" fill="#3D6ABC"/>
<path d="M107.434 43.0514C104.293 41.907 101.816 39.6561 98.2824 36.1644C95.6021 33.5157 93.4945 29.7092 91.073 29.5334C89.1788 29.396 87.6425 36.1612 88.7081 42.7175C89.5316 47.7871 94.7927 60.3604 94.7927 60.3604L107.434 43.0514Z" fill="#406FBF"/>
<path d="M95.9725 49.2676C95.3264 49.2676 94.6849 48.9326 94.3244 48.2819C93.4893 46.775 92.5834 44.8129 92.2154 42.8773C91.3752 38.4532 91.7215 34.2593 93.145 34.2593C93.5085 34.2593 93.9423 34.5326 94.4438 35.1445C96.3183 37.4312 99.4551 40.8094 102.018 42.393C102.743 42.841 102.768 43.92 102.044 44.3691C100.253 45.4808 98.6341 46.9923 97.4724 48.5142C97.0862 49.0202 96.5276 49.2676 95.9725 49.2676" fill="#5D87CD"/>
<path d="M150.226 51.655L107.479 52.5712C107.239 52.5764 107.038 52.3814 107.029 52.1361C107.02 51.8904 107.207 51.6871 107.446 51.6819L150.194 50.7657C150.433 50.7605 150.634 50.9555 150.643 51.2007C150.652 51.4465 150.466 51.6498 150.226 51.655" fill="white"/>
<path d="M112.948 61.9637L101.856 62.2012L101.469 51.8073L112.561 51.5693L112.948 61.9637" fill="white"/>
<path d="M107.201 58.0811C106.558 58.0811 106.037 57.5465 106.037 56.8874C106.037 56.2284 106.558 55.6938 107.201 55.6938C107.844 55.6938 108.365 56.2284 108.365 56.8874C108.365 57.5465 107.844 58.0811 107.201 58.0811Z" fill="#A7A9A8"/>
<path d="M112.92 61.3457L112.889 60.5052L112.589 52.4618L129.19 52.1056L129.439 58.8117C129.484 60.0147 128.57 61.0102 127.398 61.0351L112.92 61.3457M120.604 53.7498C118.531 53.7498 116.618 55.0824 115.431 56.6556C118.069 59.2903 120.043 60.2096 121.473 60.2096C124.498 60.2096 125.084 56.091 124.352 55.392C123.125 54.2206 121.837 53.7498 120.604 53.7498" fill="#5D87CD"/>
<path d="M121.465 60.208C120.035 60.208 118.061 59.2887 115.423 56.654C116.611 55.0808 118.524 53.7482 120.596 53.7482C121.829 53.7482 123.118 54.219 124.344 55.3904C125.077 56.0893 124.491 60.208 121.465 60.208" fill="#4B75C3"/>
<path d="M112.589 52.4629L112.573 52.018L129.174 51.6623L129.19 52.1067L112.589 52.4629Z" fill="white"/>
<path d="M112.924 61.3457L112.892 60.5052L112.924 61.3457Z" fill="white"/>
<path d="M91.6787 62.4215L101.841 62.2037L101.454 51.8099L91.345 52.0266C90.477 52.0453 89.792 52.7899 89.8254 53.6802L90.0938 60.8898C90.1262 61.7583 90.8314 62.4397 91.6787 62.4215" fill="white"/>
<path d="M91.6457 62.4219C90.813 62.4219 90.1255 61.7468 90.0937 60.8896L89.8252 53.68C89.8247 53.6593 89.8242 53.6386 89.8242 53.6178C89.8242 52.7555 90.4971 52.0446 91.3449 52.0265L101.454 51.8097L101.841 62.2036L91.6785 62.4214C91.6674 62.4219 91.6568 62.4219 91.6457 62.4219Z" fill="#B8D2EF"/>
<path d="M78.5636 115.418C55.5204 91.7827 55.5204 53.4667 78.5576 29.8375C101.601 6.202 138.957 6.202 162 29.8375C185.038 53.4667 185.038 91.7827 161.994 115.418C138.957 139.047 101.601 139.047 78.5636 115.418ZM202.39 146.3C202.159 145.148 201.707 144.225 201.099 143.461C199.791 142.027 198.395 140.683 197.022 139.317C195.638 137.961 194.241 136.618 192.814 135.307C191.404 133.977 189.954 132.689 188.505 131.401C185.584 128.846 182.593 126.363 179.491 123.994C178.076 122.918 176.642 121.861 175.18 120.834C175.86 118.931 175.46 116.715 173.972 115.188L171.842 113.003C171.459 112.611 171.032 112.292 170.578 112.047C189.587 86.5923 187.747 50.0076 165.041 26.7185C140.323 1.36467 100.235 1.36467 75.5173 26.7185C50.7991 52.0719 50.8048 93.1832 75.5228 118.537C98.2309 141.828 133.898 143.72 158.714 124.217C158.953 124.683 159.264 125.12 159.646 125.512L161.775 127.697C163.265 129.224 165.425 129.634 167.28 128.937C168.282 130.437 169.312 131.907 170.361 133.359C172.671 136.54 175.092 139.607 177.583 142.604C178.839 144.09 180.095 145.578 181.391 147.024C182.669 148.488 183.979 149.92 185.301 151.34C186.632 152.749 187.942 154.18 189.34 155.522C190.085 156.145 190.986 156.609 192.108 156.846C193.243 157.069 194.539 157.128 196.327 156.682C199.143 155.972 201.497 153.716 202.23 150.627C202.666 148.793 202.607 147.464 202.39 146.3" fill="#406FBF"/>
<path d="M193.809 157.017C193.186 157.017 192.63 156.949 192.108 156.846C190.986 156.61 190.085 156.145 189.34 155.522C187.943 154.18 186.632 152.749 185.301 151.34C183.979 149.92 182.669 148.488 181.391 147.024C180.095 145.578 178.839 144.09 177.583 142.604C175.092 139.608 172.671 136.54 170.361 133.359C169.313 131.907 168.282 130.437 167.28 128.937C173.082 127.004 175.18 120.834 175.18 120.834L167.28 128.937C166.697 129.156 166.084 129.266 165.47 129.266C164.133 129.266 162.796 128.744 161.776 127.697L159.646 125.513C159.264 125.121 158.953 124.683 158.714 124.217C147.403 133.107 133.841 137.551 120.275 137.551C104.079 137.551 87.8802 131.212 75.5229 118.537C63.1641 105.86 56.983 89.2442 56.9814 72.6275C56.9799 56.0113 63.1581 39.3952 75.5173 26.7187C87.8761 14.0418 104.078 7.70333 120.279 7.70333C136.481 7.70333 152.682 14.0418 165.041 26.7187C177.403 39.3978 183.58 56.0181 183.575 72.6379C183.571 85.4828 179.875 98.3262 172.487 109.35C171.876 110.262 171.239 111.161 170.578 112.047C171.032 112.292 171.46 112.611 171.842 113.003L173.972 115.188C174.992 116.235 175.501 117.606 175.501 118.978C175.501 119.362 175.461 119.747 175.381 120.124C175.33 120.364 175.263 120.602 175.18 120.834C176.642 121.862 178.076 122.918 179.491 123.994C182.593 126.363 185.584 128.846 188.505 131.401C189.954 132.689 191.404 133.977 192.814 135.307C194.241 136.618 195.638 137.961 197.022 139.317C198.395 140.684 199.791 142.027 201.1 143.461C201.707 144.225 202.159 145.149 202.39 146.3C202.49 146.837 202.557 147.408 202.556 148.048C202.556 148.797 202.465 149.639 202.23 150.627C202.074 151.285 201.844 151.905 201.552 152.48C200.473 154.608 198.544 156.123 196.327 156.682C195.361 156.923 194.539 157.017 193.809 157.017ZM61.2805 72.6254C61.2815 88.1128 67.0421 103.601 78.5637 115.418C90.0823 127.233 105.181 133.141 120.279 133.141C135.377 133.141 150.476 127.233 161.994 115.418C173.516 103.601 179.277 88.1128 179.278 72.6254C179.279 57.1386 173.519 41.6523 162.001 29.8377C161.892 29.7262 161.786 29.6183 161.677 29.5079C161.412 29.2408 161.142 28.9728 160.874 28.712C158.787 26.6804 156.594 24.8375 154.308 23.1793C144.143 15.8006 132.21 12.1108 120.279 12.1108C115.674 12.1108 111.067 12.661 106.565 13.7597C105.361 14.0537 104.168 14.3856 102.98 14.7579C95.9733 16.9549 89.284 20.5208 83.3152 25.453C81.6722 26.811 80.0838 28.2722 78.5576 29.8377C75.6821 32.7871 73.1661 35.9646 71.0085 39.3148C70.1263 40.6842 69.3043 42.0822 68.5425 43.505C66.1301 48.0084 64.3188 52.7622 63.1085 57.639C61.8897 62.5505 61.2805 67.5874 61.2805 72.6254Z" fill="#E4D0FF"/>
<path d="M167.278 128.935L175.178 120.832C175.178 120.832 173.08 127.002 167.278 128.935Z" fill="#BA87FF"/>
<path d="M174.742 36.9162C172.238 32.8883 169.293 29.1274 165.988 25.7373L166.369 25.3458C169.702 28.7645 172.672 32.557 175.197 36.6181L174.742 36.9162M179.425 45.9199C178.67 44.1517 177.831 42.4007 176.933 40.716L177.406 40.45C178.313 42.1492 179.158 43.9148 179.919 45.6975L179.425 45.9199" fill="#406FBF"/>
<path d="M179.425 45.9199C178.67 44.1517 177.831 42.4007 176.933 40.716L177.406 40.45C178.313 42.1492 179.158 43.9148 179.919 45.6975L179.425 45.9199M174.742 36.9162C172.238 32.8883 169.293 29.1274 165.988 25.7373L166.369 25.3458C169.702 28.7645 172.672 32.557 175.197 36.6181L174.742 36.9162" fill="#3563B7"/>
</svg>
