<svg width="40" height="40" viewBox="0 0 40 40" fill="none" xmlns="http://www.w3.org/2000/svg">
<rect x="-0.5" y="0.5" width="39" height="39" rx="3.5" transform="matrix(-1 0 0 1 39 0)" fill="white"/>
<path d="M25.8887 18.5V19.2812C25.8887 20.3555 25.7487 21.319 25.4688 22.1719C25.1888 23.0247 24.7884 23.7507 24.2676 24.3496C23.7533 24.9486 23.1348 25.4076 22.4121 25.7266C21.6895 26.0391 20.8887 26.1953 20.0098 26.1953C19.1374 26.1953 18.3398 26.0391 17.6172 25.7266C16.901 25.4076 16.2793 24.9486 15.752 24.3496C15.2246 23.7507 14.8145 23.0247 14.5215 22.1719C14.235 21.319 14.0918 20.3555 14.0918 19.2812V18.5C14.0918 17.4258 14.235 16.4655 14.5215 15.6191C14.8079 14.7663 15.2116 14.0404 15.7324 13.4414C16.2598 12.8359 16.8815 12.377 17.5977 12.0645C18.3203 11.7454 19.1178 11.5859 19.9902 11.5859C20.8691 11.5859 21.6699 11.7454 22.3926 12.0645C23.1152 12.377 23.737 12.8359 24.2578 13.4414C24.7786 14.0404 25.179 14.7663 25.459 15.6191C25.7454 16.4655 25.8887 17.4258 25.8887 18.5ZM23.4375 19.2812V18.4805C23.4375 17.6862 23.3594 16.9863 23.2031 16.3809C23.0534 15.7689 22.8288 15.2578 22.5293 14.8477C22.2363 14.431 21.875 14.1185 21.4453 13.9102C21.0156 13.6953 20.5306 13.5879 19.9902 13.5879C19.4499 13.5879 18.9681 13.6953 18.5449 13.9102C18.1217 14.1185 17.7604 14.431 17.4609 14.8477C17.168 15.2578 16.9434 15.7689 16.7871 16.3809C16.6309 16.9863 16.5527 17.6862 16.5527 18.4805V19.2812C16.5527 20.0755 16.6309 20.7786 16.7871 21.3906C16.9434 22.0026 17.1712 22.5202 17.4707 22.9434C17.7767 23.36 18.1413 23.6758 18.5645 23.8906C18.9876 24.099 19.4694 24.2031 20.0098 24.2031C20.5566 24.2031 21.0417 24.099 21.4648 23.8906C21.888 23.6758 22.2461 23.36 22.5391 22.9434C22.832 22.5202 23.0534 22.0026 23.2031 21.3906C23.3594 20.7786 23.4375 20.0755 23.4375 19.2812Z" fill="#424242"/>
<rect x="-0.5" y="0.5" width="39" height="39" rx="3.5" transform="matrix(-1 0 0 1 39 0)" stroke="#BDBDBD"/>
</svg>
