<svg width="40" height="40" viewBox="0 0 40 40" fill="none" xmlns="http://www.w3.org/2000/svg">
<rect x="-0.5" y="0.5" width="39" height="39" rx="3.5" transform="matrix(-1 0 0 1 39 0)" fill="white"/>
<path d="M13.8965 21.3711H16.3379C16.2598 22.3021 15.9993 23.1322 15.5566 23.8613C15.1139 24.584 14.4922 25.1536 13.6914 25.5703C12.8906 25.987 11.9173 26.1953 10.7715 26.1953C9.89258 26.1953 9.10156 26.0391 8.39844 25.7266C7.69531 25.4076 7.0931 24.9583 6.5918 24.3789C6.09049 23.793 5.70638 23.0866 5.43945 22.2598C5.17904 21.4329 5.04883 20.5085 5.04883 19.4863V18.3047C5.04883 17.2826 5.18229 16.3581 5.44922 15.5312C5.72266 14.7044 6.11328 13.998 6.62109 13.4121C7.12891 12.8197 7.73763 12.3672 8.44727 12.0547C9.16341 11.7422 9.96745 11.5859 10.8594 11.5859C11.9922 11.5859 12.9492 11.7943 13.7305 12.2109C14.5117 12.6276 15.1172 13.2038 15.5469 13.9395C15.9831 14.6751 16.25 15.5182 16.3477 16.4688H13.9062C13.8411 15.8568 13.6979 15.3327 13.4766 14.8965C13.2617 14.4603 12.9427 14.1283 12.5195 13.9004C12.0964 13.666 11.543 13.5488 10.8594 13.5488C10.2995 13.5488 9.8112 13.653 9.39453 13.8613C8.97786 14.0697 8.62956 14.3757 8.34961 14.7793C8.06966 15.1829 7.85807 15.681 7.71484 16.2734C7.57812 16.8594 7.50977 17.5299 7.50977 18.2852V19.4863C7.50977 20.2025 7.57161 20.8535 7.69531 21.4395C7.82552 22.0189 8.02083 22.5169 8.28125 22.9336C8.54818 23.3503 8.88672 23.6725 9.29688 23.9004C9.70703 24.1283 10.1986 24.2422 10.7715 24.2422C11.4681 24.2422 12.0312 24.1315 12.4609 23.9102C12.8971 23.6888 13.2259 23.3665 13.4473 22.9434C13.6751 22.5137 13.8249 21.9896 13.8965 21.3711ZM23.1738 15.4336V17.1523H17.2168V15.4336H23.1738ZM18.9355 12.8457H21.2891V23.0801C21.2891 23.4056 21.3346 23.6562 21.4258 23.832C21.5234 24.0013 21.6569 24.1152 21.8262 24.1738C21.9954 24.2324 22.194 24.2617 22.4219 24.2617C22.5846 24.2617 22.7409 24.252 22.8906 24.2324C23.0404 24.2129 23.1608 24.1934 23.252 24.1738L23.2617 25.9707C23.0664 26.0293 22.8385 26.0814 22.5781 26.127C22.3242 26.1725 22.0312 26.1953 21.6992 26.1953C21.1589 26.1953 20.6803 26.1009 20.2637 25.9121C19.847 25.7168 19.5215 25.401 19.2871 24.9648C19.0527 24.5286 18.9355 23.9492 18.9355 23.2266V12.8457ZM27.3535 17.4453V26H25V15.4336H27.2461L27.3535 17.4453ZM30.5859 15.3652L30.5664 17.5527C30.4232 17.5267 30.2669 17.5072 30.0977 17.4941C29.9349 17.4811 29.7721 17.4746 29.6094 17.4746C29.2057 17.4746 28.8509 17.5332 28.5449 17.6504C28.2389 17.7611 27.9818 17.9238 27.7734 18.1387C27.5716 18.347 27.4154 18.6009 27.3047 18.9004C27.194 19.1999 27.1289 19.5352 27.1094 19.9062L26.5723 19.9453C26.5723 19.2812 26.6374 18.666 26.7676 18.0996C26.8978 17.5332 27.0931 17.0352 27.3535 16.6055C27.6204 16.1758 27.9525 15.8405 28.3496 15.5996C28.7533 15.3587 29.2188 15.2383 29.7461 15.2383C29.8893 15.2383 30.0423 15.2513 30.2051 15.2773C30.3743 15.3034 30.5013 15.3327 30.5859 15.3652ZM34.5801 11V26H32.2168V11H34.5801Z" fill="#424242"/>
<rect x="-0.5" y="0.5" width="39" height="39" rx="3.5" transform="matrix(-1 0 0 1 39 0)" stroke="#BDBDBD"/>
</svg>
