<svg width="40" height="40" viewBox="0 0 40 40" fill="none" xmlns="http://www.w3.org/2000/svg">
<rect x="-0.5" y="0.5" width="39" height="39" rx="3.5" transform="matrix(-1 0 0 1 39 0)" fill="white"/>
<path d="M22.8438 21.3711H25.2852C25.207 22.3021 24.9466 23.1322 24.5039 23.8613C24.0612 24.584 23.4395 25.1536 22.6387 25.5703C21.8379 25.987 20.8646 26.1953 19.7188 26.1953C18.8398 26.1953 18.0488 26.0391 17.3457 25.7266C16.6426 25.4076 16.0404 24.9583 15.5391 24.3789C15.0378 23.793 14.6536 23.0866 14.3867 22.2598C14.1263 21.4329 13.9961 20.5085 13.9961 19.4863V18.3047C13.9961 17.2826 14.1296 16.3581 14.3965 15.5312C14.6699 14.7044 15.0605 13.998 15.5684 13.4121C16.0762 12.8197 16.6849 12.3672 17.3945 12.0547C18.1107 11.7422 18.9147 11.5859 19.8066 11.5859C20.9395 11.5859 21.8965 11.7943 22.6777 12.2109C23.459 12.6276 24.0645 13.2038 24.4941 13.9395C24.9303 14.6751 25.1973 15.5182 25.2949 16.4688H22.8535C22.7884 15.8568 22.6452 15.3327 22.4238 14.8965C22.209 14.4603 21.89 14.1283 21.4668 13.9004C21.0436 13.666 20.4902 13.5488 19.8066 13.5488C19.2467 13.5488 18.7585 13.653 18.3418 13.8613C17.9251 14.0697 17.5768 14.3757 17.2969 14.7793C17.0169 15.1829 16.8053 15.681 16.6621 16.2734C16.5254 16.8594 16.457 17.5299 16.457 18.2852V19.4863C16.457 20.2025 16.5189 20.8535 16.6426 21.4395C16.7728 22.0189 16.9681 22.5169 17.2285 22.9336C17.4954 23.3503 17.834 23.6725 18.2441 23.9004C18.6543 24.1283 19.1458 24.2422 19.7188 24.2422C20.4154 24.2422 20.9785 24.1315 21.4082 23.9102C21.8444 23.6888 22.1732 23.3665 22.3945 22.9434C22.6224 22.5137 22.7721 21.9896 22.8438 21.3711Z" fill="#424242"/>
<rect x="-0.5" y="0.5" width="39" height="39" rx="3.5" transform="matrix(-1 0 0 1 39 0)" stroke="#BDBDBD"/>
</svg>
