<svg width="81" height="72" viewBox="0 0 81 72" fill="none" xmlns="http://www.w3.org/2000/svg">
<path d="M29.3337 61C29.3337 61 51.3337 50 51.3337 33.5V14.25L29.3337 6L7.33374 14.25V33.5C7.33374 50 29.3337 61 29.3337 61Z" fill="url(#paint0_linear_1662_5935)"/>
<path d="M22 72C22 72 44 61 44 44.5V25.25L22 17L0 25.25V44.5C0 61 22 72 22 72Z" fill="url(#paint1_linear_1662_5935)"/>
<path d="M18.9709 48.4457L16.005 51.4116C15.8329 51.5837 15.5387 51.4619 15.5387 51.2184V48.6389C15.5387 48.488 15.4164 48.3657 15.2655 48.3657H14.2218C12.9948 48.3657 12 47.3709 12 46.1439V39.2218C12 37.9948 12.9948 37 14.2218 37H29.7564C30.9834 37 31.9782 37.9948 31.9782 39.2218V46.1439C31.9782 47.3709 30.9834 48.3657 29.7564 48.3657H19.1639C19.0915 48.3657 19.0219 48.3944 18.9707 48.4457H18.9709Z" stroke="white" stroke-width="1.5" stroke-miterlimit="10"/>
<path d="M16.5281 40.8975V42.9052" stroke="white" stroke-width="1.5" stroke-miterlimit="10"/>
<path d="M18.4922 42.3154L16.5811 42.9307" stroke="white" stroke-width="1.5" stroke-miterlimit="10"/>
<path d="M14.575 42.3154L16.4862 42.9307" stroke="white" stroke-width="1.5" stroke-miterlimit="10"/>
<path d="M16.5811 42.8535L15.332 44.6133" stroke="white" stroke-width="1.5" stroke-miterlimit="10"/>
<path d="M16.4861 42.8535L17.7349 44.6133" stroke="white" stroke-width="1.5" stroke-miterlimit="10"/>
<path d="M21.9724 40.8359V42.8437" stroke="white" stroke-width="1.5" stroke-miterlimit="10"/>
<path d="M23.9365 42.2549L22.0254 42.8702" stroke="white" stroke-width="1.5" stroke-miterlimit="10"/>
<path d="M20.019 42.2549L21.9303 42.8702" stroke="white" stroke-width="1.5" stroke-miterlimit="10"/>
<path d="M22.0254 42.793L20.7764 44.5527" stroke="white" stroke-width="1.5" stroke-miterlimit="10"/>
<path d="M21.9304 42.793L23.1793 44.5527" stroke="white" stroke-width="1.5" stroke-miterlimit="10"/>
<path d="M27.4165 40.8975V42.9052" stroke="white" stroke-width="1.5" stroke-miterlimit="10"/>
<path d="M29.3806 42.3154L27.4695 42.9307" stroke="white" stroke-width="1.5" stroke-miterlimit="10"/>
<path d="M25.4629 42.3154L27.3742 42.9307" stroke="white" stroke-width="1.5" stroke-miterlimit="10"/>
<path d="M27.4695 42.8535L26.2205 44.6133" stroke="white" stroke-width="1.5" stroke-miterlimit="10"/>
<path d="M27.3743 42.8535L28.6231 44.6133" stroke="white" stroke-width="1.5" stroke-miterlimit="10"/>
<path opacity="0.61" d="M56 1H68.689" stroke="#2DAF3A" stroke-opacity="0.6" stroke-width="2" stroke-linecap="round"/>
<path opacity="0.61" d="M64 17.9961H73.2451" stroke="#2DAF3A" stroke-opacity="0.31" stroke-width="2" stroke-linecap="round"/>
<path d="M65 9H79.6074" stroke="#2DAF3A" stroke-width="2" stroke-linecap="round"/>
<defs>
<linearGradient id="paint0_linear_1662_5935" x1="29" y1="17.5" x2="41.5" y2="46.5" gradientUnits="userSpaceOnUse">
<stop stop-color="#67DE54"/>
<stop offset="1" stop-color="#2CAE39"/>
</linearGradient>
<linearGradient id="paint1_linear_1662_5935" x1="10.5" y1="31.5" x2="23" y2="71.5" gradientUnits="userSpaceOnUse">
<stop stop-color="#86F375" stop-opacity="0.57"/>
<stop offset="1" stop-color="#2DAF3A"/>
</linearGradient>
</defs>
</svg>
