<svg width="40" height="34" viewBox="0 0 40 34" fill="none" xmlns="http://www.w3.org/2000/svg">
<path fill-rule="evenodd" clip-rule="evenodd" d="M38 1.5H2C1.72386 1.5 1.5 1.72386 1.5 2V28.5975C1.5 28.8737 1.72386 29.0975 2 29.0975H38C38.2761 29.0975 38.5 28.8737 38.5 28.5975V2C38.5 1.72386 38.2761 1.5 38 1.5ZM2 0C0.895431 0 0 0.895431 0 2V28.5975C0 29.7021 0.895431 30.5975 2 30.5975H38C39.1046 30.5975 40 29.7021 40 28.5975V2C40 0.895431 39.1046 0 38 0H2ZM10 33.1507C10 32.6813 10.3806 32.3008 10.85 32.3008H29.1501C29.6195 32.3008 30 32.6813 30 33.1507C30 33.6201 29.6195 34.0006 29.1501 34.0006H10.85C10.3806 34.0006 10 33.6201 10 33.1507ZM21.6664 30.5977H18.3331V32.2975H21.6664V30.5977Z" fill="#424242"/>
</svg>
