<svg width="40" height="40" viewBox="0 0 40 40" fill="none" xmlns="http://www.w3.org/2000/svg">
<rect x="-0.5" y="0.5" width="39" height="39" rx="3.5" transform="matrix(-1 0 0 1 39 0)" fill="white"/>
<path d="M20.959 20.6973H17.2578V18.7539H20.959C21.6035 18.7539 22.1243 18.6497 22.5215 18.4414C22.9186 18.2331 23.2083 17.9466 23.3906 17.582C23.5794 17.2109 23.6738 16.7878 23.6738 16.3125C23.6738 15.8633 23.5794 15.4434 23.3906 15.0527C23.2083 14.6556 22.9186 14.3366 22.5215 14.0957C22.1243 13.8548 21.6035 13.7344 20.959 13.7344H18.0098V26H15.5586V11.7812H20.959C22.0592 11.7812 22.9935 11.9766 23.7617 12.3672C24.5365 12.7513 25.1257 13.2852 25.5293 13.9688C25.9329 14.6458 26.1348 15.4206 26.1348 16.293C26.1348 17.2109 25.9329 17.9987 25.5293 18.6562C25.1257 19.3138 24.5365 19.8184 23.7617 20.1699C22.9935 20.5215 22.0592 20.6973 20.959 20.6973Z" fill="#424242"/>
<rect x="-0.5" y="0.5" width="39" height="39" rx="3.5" transform="matrix(-1 0 0 1 39 0)" stroke="#BDBDBD"/>
</svg>
