<svg width="24" height="25" viewBox="0 0 24 25" fill="none" xmlns="http://www.w3.org/2000/svg">
<ellipse cx="8.93398" cy="15.6908" rx="8.93398" ry="8.97205" fill="#0074FE"/>
<ellipse cx="15.0668" cy="9.63611" rx="8.93398" ry="8.97205" fill="#A7DDFF"/>
<path fill-rule="evenodd" clip-rule="evenodd" d="M6.50463 7.05334C7.27588 6.83535 8.08942 6.71875 8.93008 6.71875C13.8642 6.71875 17.8641 10.7357 17.8641 15.6908C17.8641 16.5886 17.7327 17.4557 17.4883 18.2736C16.7171 18.4916 15.9035 18.6082 15.0629 18.6082C10.1288 18.6082 6.12891 14.5912 6.12891 9.63611C6.12891 8.73828 6.26023 7.87125 6.50463 7.05334Z" fill="#67B9FF"/>
<path d="M15.1558 9.35156H9.92102V11.4519H11.5248L7.87891 15.1129L8.20965 15.514L8.57694 15.91L8.99858 16.3089L9.39178 16.6349L13.0516 12.9594V14.6216H15.1558V9.35156Z" fill="white"/>
</svg>
