<svg width="23" height="23" viewBox="0 0 23 23" fill="none" xmlns="http://www.w3.org/2000/svg">
<path fill-rule="evenodd" clip-rule="evenodd" d="M18.543 13.6641C18.543 13.2498 18.2072 12.9141 17.793 12.9141C17.3788 12.9141 17.043 13.2498 17.043 13.6641V16.5703H14.1328C13.7186 16.5703 13.3828 16.906 13.3828 17.3203C13.3828 17.7345 13.7186 18.0703 14.1328 18.0703H17.043V20.9596C17.043 21.3739 17.3788 21.7096 17.793 21.7096C18.2072 21.7096 18.543 21.3739 18.543 20.9596V18.0703H21.4587C21.8729 18.0703 22.2087 17.7345 22.2087 17.3203C22.2087 16.906 21.8729 16.5703 21.4587 16.5703H18.543V13.6641Z" fill="#707070"/>
<path d="M11.6251 17.9425C10.7012 17.1492 9.81389 16.3787 9.17442 15.8195L2.52268 21.412C2.15314 21.6605 1.41406 21.8594 1.41406 20.6663V3.8889C1.41406 2.89468 2.07924 0.90625 4.73993 0.90625C7.40062 0.90625 11.7612 0.90625 13.6089 0.90625C14.7175 0.90625 16.9348 1.50278 16.9348 3.8889C16.9348 5.07033 16.9348 8.06758 16.9348 11.351" stroke="#707070" stroke-width="1.5"/>
</svg>
