<svg width="20" height="20" viewBox="0 0 20 20" fill="none" xmlns="http://www.w3.org/2000/svg">
<g clip-path="url(#clip0_7218_31263)">
<path d="M18.1329 2.7923H14.5395V1.61705C14.5395 1.45533 14.4079 1.32422 14.2456 1.32422C14.0833 1.32422 13.9517 1.45533 13.9517 1.61705V2.7923H12.7344C12.5721 2.7923 12.4405 2.92341 12.4405 3.08513C12.4405 3.24685 12.5721 3.37796 12.7344 3.37796H13.9517V4.61791H13.7312C13.4232 4.61791 13.1726 4.8676 13.1726 5.17444V8.62178C13.1726 8.92866 13.4232 9.17831 13.7312 9.17831H13.9517V11.5015C13.9517 11.6632 14.0833 11.7943 14.2456 11.7943C14.4079 11.7943 14.5395 11.6632 14.5395 11.5015V9.17831H14.7601C15.068 9.17831 15.3186 8.92862 15.3186 8.62178V5.17444C15.3186 4.86756 15.068 4.61791 14.7601 4.61791H14.5395V3.37796H18.1329C18.839 3.37796 19.4136 3.95042 19.4136 4.65407V14.6764H0.587761V4.65411C0.587761 3.95046 1.16228 3.378 1.86845 3.378H7.02006V3.94948H6.79949C6.49151 3.94948 6.24096 4.19917 6.24096 4.50601V7.95335C6.24096 8.26023 6.49155 8.50988 6.79949 8.50988H7.02006V11.0974C7.02006 11.2591 7.15164 11.3903 7.31394 11.3903C7.47624 11.3903 7.60782 11.2591 7.60782 11.0974V8.50988H7.82839C8.13638 8.50988 8.38692 8.26019 8.38692 7.95335V4.50601C8.38692 4.19913 8.13634 3.94948 7.82839 3.94948H7.60782V3.37796H8.82515C8.98745 3.37796 9.11903 3.24685 9.11903 3.08513C9.11903 2.92341 8.98745 2.7923 8.82515 2.7923H7.60782V2.64769C7.60782 2.48597 7.47624 2.35486 7.31394 2.35486C7.15164 2.35486 7.02006 2.48597 7.02006 2.64769V2.7923H1.86845C0.838187 2.7923 0 3.62749 0 4.65407V14.9692C0 15.9958 0.838187 16.831 1.86845 16.831H6.34206V18.3199L5.39486 19.4147H5.01889C4.85659 19.4147 4.72501 19.5458 4.72501 19.7075C4.72501 19.8692 4.85659 20.0003 5.01889 20.0003H14.9553C15.1176 20.0003 15.2492 19.8692 15.2492 19.7075C15.2492 19.5458 15.1176 19.4147 14.9553 19.4147H14.6064L13.6592 18.3199V16.831H18.1329C19.1631 16.831 20.0013 15.9958 20.0013 14.9692V4.65411C20.0013 3.62753 19.1631 2.7923 18.1329 2.7923ZM14.7308 8.59273H13.7604V5.20361H14.7309V8.59273H14.7308ZM7.79916 7.92422H6.82869V4.53514H7.79916V7.92422ZM18.1329 16.2453H12.1851C12.0227 16.2453 11.8912 16.3765 11.8912 16.5382C11.8912 16.6999 12.0227 16.831 12.1851 16.831H13.0715V18.1359H12.3394C12.1771 18.1359 12.0455 18.267 12.0455 18.4287C12.0455 18.5904 12.1771 18.7215 12.3394 18.7215H13.2307L13.8304 19.4147H6.1709L6.77061 18.7215H7.66186C7.82416 18.7215 7.95574 18.5904 7.95574 18.4287C7.95574 18.267 7.82416 18.1359 7.66186 18.1359H6.92982V16.831H10.9326C11.095 16.831 11.2265 16.6999 11.2265 16.5382C11.2265 16.3765 11.095 16.2453 10.9326 16.2453H1.86845C1.26341 16.2453 0.75539 15.825 0.622165 15.2621H19.3791C19.2459 15.825 18.7379 16.2453 18.1329 16.2453Z" fill="black"/>
<path d="M3.06927 8.54659C2.90697 8.54659 2.77539 8.6777 2.77539 8.83942V9.54635C2.77539 9.85323 3.02593 10.1029 3.33392 10.1029H3.55449V11.6623C3.55449 11.824 3.68607 11.9552 3.84837 11.9552C4.01067 11.9552 4.14225 11.824 4.14225 11.6623V10.1029H4.36282C4.6708 10.1029 4.92134 9.85323 4.92134 9.54635V6.09902C4.92134 5.79213 4.67076 5.54245 4.36282 5.54245H4.14225V5.07408C4.14225 4.91236 4.01067 4.78125 3.84837 4.78125C3.68607 4.78125 3.55449 4.91236 3.55449 5.07408V5.54245H3.33392C3.02593 5.54245 2.77539 5.79213 2.77539 6.09902V7.59151C2.77539 7.75322 2.90697 7.88433 3.06927 7.88433C3.23157 7.88433 3.36315 7.75322 3.36315 7.59151V6.12814H3.84802H3.84841C3.84841 6.12814 3.84864 6.12814 3.8488 6.12814H4.33366V9.51726H3.36315V8.83946C3.36315 8.6777 3.23157 8.54659 3.06927 8.54659Z" fill="black"/>
<path d="M10.2675 7.9314H10.4881V9.4908C10.4881 9.65252 10.6197 9.78363 10.782 9.78363C10.9443 9.78363 11.0759 9.65252 11.0759 9.4908V7.9314H11.2964C11.6044 7.9314 11.855 7.68171 11.855 7.37483V5.078C11.855 4.91628 11.7234 4.78517 11.5611 4.78517C11.3988 4.78517 11.2672 4.91628 11.2672 5.078V7.34574H10.2967V2.04347H11.2672V3.83008C11.2672 3.9918 11.3988 4.12291 11.5611 4.12291C11.7234 4.12291 11.855 3.9918 11.855 3.83008V2.01435C11.855 1.7075 11.6044 1.45782 11.2964 1.45782H11.0759V0.292828C11.0759 0.131109 10.9443 0 10.782 0C10.6197 0 10.4881 0.131109 10.4881 0.292828V1.45782H10.2675C9.95953 1.45782 9.70898 1.7075 9.70898 2.01435V7.37483C9.70898 7.68175 9.95953 7.9314 10.2675 7.9314Z" fill="black"/>
<path d="M15.9415 8.03135C15.9946 8.12951 16.0959 8.18526 16.2004 8.18526C16.2475 8.18526 16.2953 8.17394 16.3397 8.15012L17.6934 7.42285L17.596 7.6775C17.5382 7.82863 17.6143 7.99781 17.766 8.0554C17.8004 8.06844 17.8358 8.07465 17.8706 8.07465C17.989 8.07465 18.1006 8.00281 18.1453 7.88599L18.4761 7.02055C18.5339 6.86941 18.4578 6.70023 18.3061 6.64264L17.3842 6.29269C17.2326 6.23514 17.0628 6.31096 17.005 6.4621C16.9472 6.61324 17.0233 6.78242 17.175 6.84001L17.3887 6.92114L16.0607 7.63463C15.9178 7.71139 15.8645 7.889 15.9415 8.03135Z" fill="black"/>
<path d="M1.73861 13.7484C1.78633 13.8595 1.89483 13.9261 2.0089 13.9261C2.04745 13.9261 2.08668 13.9185 2.12441 13.9024L5.91657 12.2853L6.26119 13.1849C6.29136 13.2637 6.3541 13.3257 6.43337 13.355C6.5126 13.3843 6.60076 13.3783 6.67521 13.3383L12.9401 9.9725C13.083 9.89574 13.1363 9.71813 13.0593 9.57578C12.9823 9.43346 12.8041 9.38025 12.6612 9.45701L6.69092 12.6645L6.35664 11.7917C6.32812 11.7173 6.2704 11.6576 6.19677 11.6265C6.12315 11.5954 6.04 11.5956 5.96645 11.6269L1.89315 13.364C1.74397 13.4276 1.67477 13.5997 1.73861 13.7484Z" fill="black"/>
</g>
<defs>
<clipPath id="clip0_7218_31263">
<rect width="20" height="20" fill="white"/>
</clipPath>
</defs>
</svg>
