<svg width="48" height="54" viewBox="0 0 48 54" fill="none" xmlns="http://www.w3.org/2000/svg">
<path opacity="0.4" d="M24 29.9679C32.2843 29.9679 39 23.3346 39 15.1519C39 6.96929 32.2843 0.335938 24 0.335938C15.7157 0.335938 9 6.96929 9 15.1519C9 23.3346 15.7157 29.9679 24 29.9679Z" fill="#3AA29F"/>
<path d="M47.974 44.8039C47.9875 44.593 47.9875 44.3816 47.974 44.1707C47.9146 43.3914 47.6935 42.6304 47.323 41.9302C45.8648 39.0809 41.7767 37.7902 38.3656 37.0596C35.9319 36.5529 33.4591 36.2272 30.9705 36.0855L28.3666 35.8906H27.1949H25.7367H22.2474H20.7893H19.6175L17.0136 36.0855C14.525 36.2272 12.0522 36.5529 9.61854 37.0596C6.20743 37.6928 2.11931 39.0078 0.661123 41.9302C0.290622 42.6304 0.0695123 43.3914 0.0101487 44.1707C-0.00338291 44.3816 -0.00338291 44.593 0.0101487 44.8039C-0.00234479 45.0148 -0.00234479 45.2262 0.0101487 45.437C0.0809749 46.2097 0.310865 46.9622 0.687162 47.6532C2.14535 50.5025 6.23347 51.7932 9.64457 52.5238C12.0828 53.0067 14.5537 53.3322 17.0396 53.4979L19.6435 53.6684H20.2685H20.8153H27.2209H27.7677H28.3926L30.9965 53.4979C33.4825 53.3322 35.9534 53.0067 38.3916 52.5238C41.8027 51.8663 45.8908 50.5756 47.349 47.6532C47.7078 46.9403 47.9282 46.1734 48 45.3883C48.0033 45.1932 47.9946 44.9981 47.974 44.8039Z" fill="#3AA29F"/>
</svg>
