<svg width="12" height="14" viewBox="0 0 12 14" fill="none" xmlns="http://www.w3.org/2000/svg">
<path d="M6.52941 0.523358C6.78975 0.263047 7.21188 0.263047 7.47221 0.523358L9.47221 2.52308C9.73255 2.7834 9.73255 3.20545 9.47221 3.46577L7.47221 5.46549C7.21188 5.72579 6.78975 5.72579 6.52941 5.46549C6.26908 5.20518 6.26908 4.78313 6.52941 4.52281L7.39135 3.661H6.33415C3.969 3.661 2.00081 5.62892 2.00081 7.99374C2.00081 10.3586 3.969 12.3265 6.33415 12.3265C8.69928 12.3265 10.6675 10.3586 10.6675 7.99374C10.6675 7.62559 10.9659 7.32717 11.3341 7.32717C11.7023 7.32717 12.0008 7.62559 12.0008 7.99374C12.0008 11.0948 9.43568 13.6596 6.33415 13.6596C3.23263 13.6596 0.66748 11.0948 0.66748 7.99374C0.66748 4.89265 3.23263 2.32785 6.33415 2.32785H7.39135L6.52941 1.46604C6.26908 1.20572 6.26908 0.783676 6.52941 0.523358Z" fill="#436AF5" fill-opacity="0.6"/>
</svg>
