<svg width="70" height="55" viewBox="0 0 70 55" fill="none" xmlns="http://www.w3.org/2000/svg">
<path opacity="0.61" d="M51.3301 1H60.3756" stroke="#FBCD7C" stroke-width="2" stroke-linecap="round"/>
<path opacity="0.61" d="M57.0332 13.0625H63.6237" stroke="#F7E9D5" stroke-width="2" stroke-linecap="round"/>
<path opacity="0.73" d="M57.7466 6.67773H68.1597" stroke="#FCB35D" stroke-width="2" stroke-linecap="round"/>
<g filter="url(#filter0_d_1633_16743)">
<path d="M46.4949 11.3335L20.9101 4.50565C18.6187 3.89415 16.2633 5.24784 15.6492 7.5292L8.79138 33.0023C8.1772 35.2836 9.53683 37.6287 11.8282 38.2402L37.413 45.0681C39.7043 45.6796 42.0598 44.3259 42.6739 42.0445L49.5317 16.5715C50.1459 14.2901 48.7863 11.945 46.4949 11.3335Z" fill="url(#paint0_linear_1633_16743)"/>
</g>
<g opacity="0.73">
<path d="M5.27739 51L31.6535 51C34.0157 51 35.9307 49.0934 35.9307 46.7415L35.9307 20.4806C35.9307 18.1287 34.0157 16.2221 31.6535 16.2221L5.27739 16.2221C2.91516 16.2221 1.00019 18.1287 1.00019 20.4806L1.00019 46.7415C1.00019 49.0934 2.91516 51 5.27739 51Z" fill="#FD9C42"/>
<path d="M5.27738 50.0547L31.6535 50.0547C33.8188 50.0547 35.5742 48.307 35.5742 46.151L35.5742 19.8902C35.5742 17.7342 33.8188 15.9865 31.6535 15.9865L5.27738 15.9865C3.112 15.9865 1.35662 17.7342 1.35662 19.8902L1.35662 46.151C1.35662 48.307 3.112 50.0547 5.27738 50.0547Z" stroke="#FD9C42"/>
</g>
<g clip-path="url(#clip0_1633_16743)">
<path d="M10.7798 39.5006C10.6901 39.3447 10.4869 39.2927 10.331 39.3825L9.50888 39.8597V38.91C9.50888 38.7305 9.36242 38.584 9.18288 38.584C9.00334 38.584 8.85687 38.7305 8.85687 38.91V39.8597L8.03477 39.3825C7.87885 39.2927 7.67569 39.3447 7.58592 39.5006C7.49615 39.6565 7.54812 39.8597 7.70403 39.9494L8.53086 40.4314L7.70403 40.9133C7.54812 41.003 7.49615 41.2062 7.58592 41.3621C7.67569 41.518 7.87885 41.57 8.03477 41.4802L8.85687 41.003V41.9527C8.85687 42.1323 9.00334 42.2787 9.18288 42.2787C9.36242 42.2787 9.50888 42.1323 9.50888 41.9527V41.003L10.331 41.4802C10.4869 41.57 10.6901 41.518 10.7798 41.3621C10.8696 41.2062 10.8176 41.003 10.6617 40.9133L9.83489 40.4314L10.6617 39.9494C10.8176 39.8549 10.8743 39.6565 10.7798 39.5006Z" fill="white"/>
<path d="M13.7988 41.3572C13.8886 41.5132 14.0917 41.5651 14.2477 41.4754L15.0698 40.9982V41.9478C15.0698 42.1274 15.2162 42.2738 15.3958 42.2738C15.5753 42.2738 15.7218 42.1274 15.7218 41.9478V40.9982L16.5439 41.4754C16.6998 41.5651 16.903 41.5132 16.9927 41.3572C17.0825 41.2013 17.0305 40.9982 16.8746 40.9084L16.0478 40.4265L16.8746 39.9445C17.0305 39.8548 17.0825 39.6516 16.9927 39.4957C16.903 39.3398 16.6998 39.2878 16.5439 39.3776L15.7218 39.8548V38.9051C15.7218 38.7256 15.5753 38.5791 15.3958 38.5791C15.2162 38.5791 15.0698 38.7256 15.0698 38.9051V39.8548L14.2477 39.3823C14.0917 39.2925 13.8886 39.3445 13.7988 39.5004C13.709 39.6563 13.761 39.8595 13.9169 39.9493L14.7438 40.4312L13.9169 40.9084C13.761 40.9982 13.709 41.2013 13.7988 41.3572Z" fill="white"/>
<path d="M13.2129 43.8334V44.4098C13.2129 44.5469 13.3263 44.6602 13.4633 44.6602H17.3329C17.4699 44.6602 17.5833 44.5469 17.5833 44.4098V43.8334C17.5833 43.6964 17.4699 43.583 17.3329 43.583H13.4633C13.3216 43.583 13.2129 43.6964 13.2129 43.8334Z" fill="white"/>
<path d="M22.6435 27.7219H22.6152V26.4367C22.6152 24.2019 20.7867 22.3026 18.5566 22.3404C16.388 22.3782 14.6304 24.1547 14.6304 26.3328V26.4556C14.6304 26.6399 14.7816 26.7911 14.9658 26.7911H16.0383C16.2226 26.7911 16.3738 26.6399 16.3738 26.4556V26.4178C16.3738 25.2178 17.2762 24.1641 18.4763 24.0885C19.7803 24.0082 20.867 25.0429 20.867 26.3281V27.7171H17.5597V27.7219H14.5028C13.9358 27.7408 13.4775 28.1991 13.4775 28.7708V34.5822C13.4775 35.1633 13.95 35.6358 14.5312 35.6358H22.6388C23.2199 35.6358 23.6924 35.1633 23.6924 34.5822V28.7755C23.6971 28.1943 23.2247 27.7219 22.6435 27.7219ZM19.2134 31.9411C19.133 31.9978 19.1094 32.0592 19.1094 32.1537C19.1141 32.5789 19.1141 33.0041 19.1094 33.4341C19.1189 33.6136 19.0291 33.7837 18.8685 33.864C18.4952 34.053 18.122 33.7884 18.122 33.4341C18.122 33.4341 18.122 33.4341 18.122 33.4293C18.122 33.0041 18.122 32.5742 18.122 32.1489C18.122 32.0639 18.1031 32.0025 18.0275 31.9458C17.64 31.6623 17.5125 31.1756 17.7062 30.7457C17.8952 30.3299 18.3535 30.0842 18.7834 30.174C19.2653 30.2685 19.6008 30.6607 19.6055 31.1379C19.6197 31.4733 19.4827 31.7473 19.2134 31.9411Z" fill="white"/>
<path d="M19.4214 43.8334V44.4098C19.4214 44.5469 19.5348 44.6602 19.6718 44.6602H23.5414C23.6784 44.6602 23.7918 44.5469 23.7918 44.4098V43.8334C23.7918 43.6964 23.6784 43.583 23.5414 43.583H19.6718C19.5348 43.583 19.4214 43.6964 19.4214 43.8334Z" fill="white"/>
<path d="M20.0073 41.3572C20.0971 41.5132 20.3002 41.5651 20.4562 41.4754L21.2783 40.9982V41.9478C21.2783 42.1274 21.4247 42.2738 21.6043 42.2738C21.7838 42.2738 21.9303 42.1274 21.9303 41.9478V40.9982L22.7524 41.4754C22.9083 41.5651 23.1115 41.5132 23.2012 41.3572C23.291 41.2013 23.239 40.9982 23.0831 40.9084L22.2563 40.4265L23.0831 39.9445C23.239 39.8548 23.291 39.6516 23.2012 39.4957C23.1115 39.3398 22.9083 39.2878 22.7524 39.3776L21.9303 39.8548V38.9051C21.9303 38.7256 21.7838 38.5791 21.6043 38.5791C21.4247 38.5791 21.2783 38.7256 21.2783 38.9051V39.8548L20.4562 39.3776C20.3002 39.2878 20.0971 39.3398 20.0073 39.4957C19.9175 39.6516 19.9695 39.8548 20.1254 39.9445L20.9522 40.4265L20.1254 40.9084C19.9695 40.9982 19.9175 41.2013 20.0073 41.3572Z" fill="white"/>
<path d="M29.7494 43.583H25.8798C25.7428 43.583 25.6294 43.6964 25.6294 43.8334V44.4098C25.6294 44.5469 25.7428 44.6602 25.8798 44.6602H29.7494C29.8864 44.6602 29.9998 44.5469 29.9998 44.4098V43.8334C29.9998 43.6964 29.8864 43.583 29.7494 43.583Z" fill="white"/>
<path d="M7.25041 44.6602H11.12C11.257 44.6602 11.3704 44.5469 11.3704 44.4098V43.8334C11.3704 43.6964 11.257 43.583 11.12 43.583H7.25041C7.11339 43.583 7 43.6964 7 43.8334V44.4098C7 44.5469 7.11339 44.6602 7.25041 44.6602Z" fill="white"/>
<path d="M26.2203 41.3572C26.3101 41.5132 26.5133 41.5651 26.6692 41.4754L27.4913 40.9982V41.9478C27.4913 42.1274 27.6378 42.2738 27.8173 42.2738C27.9968 42.2738 28.1433 42.1274 28.1433 41.9478V40.9982L28.9654 41.4754C29.1213 41.5651 29.3245 41.5132 29.4143 41.3572C29.504 41.2013 29.4521 40.9982 29.2961 40.9084L28.4693 40.4265L29.2961 39.9445C29.4521 39.8548 29.504 39.6516 29.4143 39.4957C29.3245 39.3398 29.1213 39.2878 28.9654 39.3776L28.1433 39.8548V38.9051C28.1433 38.7256 27.9968 38.5791 27.8173 38.5791C27.6378 38.5791 27.4913 38.7256 27.4913 38.9051V39.8548L26.6692 39.3776C26.5133 39.2878 26.3101 39.3398 26.2203 39.4957C26.1306 39.6516 26.1825 39.8548 26.3385 39.9445L27.1653 40.4265L26.3385 40.9084C26.1825 40.9982 26.1258 41.2013 26.2203 41.3572Z" fill="white"/>
</g>
<defs>
<filter id="filter0_d_1633_16743" x="2.64404" y="1.3584" width="53.0352" height="52.8564" filterUnits="userSpaceOnUse" color-interpolation-filters="sRGB">
<feFlood flood-opacity="0" result="BackgroundImageFix"/>
<feColorMatrix in="SourceAlpha" type="matrix" values="0 0 0 0 0 0 0 0 0 0 0 0 0 0 0 0 0 0 127 0" result="hardAlpha"/>
<feOffset dy="3"/>
<feGaussianBlur stdDeviation="3"/>
<feColorMatrix type="matrix" values="0 0 0 0 0 0 0 0 0 0 0 0 0 0 0 0 0 0 0.161 0"/>
<feBlend mode="normal" in2="BackgroundImageFix" result="effect1_dropShadow_1633_16743"/>
<feBlend mode="normal" in="SourceGraphic" in2="effect1_dropShadow_1633_16743" result="shape"/>
</filter>
<linearGradient id="paint0_linear_1633_16743" x1="16.7612" y1="3.39844" x2="41.3994" y2="46.2687" gradientUnits="userSpaceOnUse">
<stop stop-color="#FAD686"/>
<stop offset="1" stop-color="#FE8B2E"/>
</linearGradient>
<clipPath id="clip0_1633_16743">
<rect width="23" height="23" fill="white" transform="translate(7 22)"/>
</clipPath>
</defs>
</svg>
