<svg width="48" height="48" viewBox="0 0 48 48" fill="none" xmlns="http://www.w3.org/2000/svg">
<g id="Frame 1000002064">
<circle id="Ellipse 2636" cx="24" cy="24" r="24" fill="#E6F3F3"/>
<path id="Vector" d="M19.4889 29.025H25.6V27.525H19.4889V29.025ZM19.4889 24.75H28.5111V23.25H19.4889V24.75ZM19.4889 20.475H28.5111V18.975H19.4889V20.475ZM17.3333 33C16.9778 33 16.6667 32.85 16.4 32.55C16.1333 32.25 16 31.9 16 31.5V16.5C16 16.1 16.1333 15.75 16.4 15.45C16.6667 15.15 16.9778 15 17.3333 15H30.6667C31.0222 15 31.3333 15.15 31.6 15.45C31.8667 15.75 32 16.1 32 16.5V31.5C32 31.9 31.8667 32.25 31.6 32.55C31.3333 32.85 31.0222 33 30.6667 33H17.3333ZM17.3333 31.5H30.6667V16.5H17.3333V31.5Z" fill="#707070"/>
</g>
</svg>
