<svg width="22" height="22" viewBox="0 0 22 22" fill="none" xmlns="http://www.w3.org/2000/svg">
<path d="M10.9995 21.999C17.0743 21.999 21.999 17.0743 21.999 10.9995C21.999 4.92464 17.0743 0 10.9995 0C4.92464 0 0 4.92464 0 10.9995C0 17.0743 4.92464 21.999 10.9995 21.999Z" fill="#3AA29F"/>
<path d="M14.876 9.22559L14.541 10.4355H8.14258L8.47754 9.22559H14.876ZM11.7793 16.7109L8.34082 12.6572L8.33398 11.6387H9.96777C10.3916 11.6387 10.7402 11.5635 11.0137 11.4131C11.2917 11.2581 11.499 11.0508 11.6357 10.791C11.7725 10.5267 11.8408 10.2327 11.8408 9.90918C11.8408 9.55827 11.777 9.24837 11.6494 8.97949C11.5218 8.71061 11.319 8.50098 11.041 8.35059C10.763 8.2002 10.3962 8.125 9.94043 8.125H8.14941L8.51855 6.75781H9.94043C10.7471 6.75781 11.417 6.87858 11.9502 7.12012C12.4834 7.36165 12.8822 7.71257 13.1465 8.17285C13.4154 8.63314 13.5498 9.18913 13.5498 9.84082C13.5498 10.4105 13.4518 10.9141 13.2559 11.3516C13.0599 11.7845 12.7432 12.1354 12.3057 12.4043C11.8682 12.6686 11.2871 12.8327 10.5625 12.8965L13.707 16.6221V16.7109H11.7793ZM14.8828 6.75781L14.541 7.96777H9.31152L9.64648 6.75781H14.8828Z" fill="white"/>
</svg>
