<svg width="22" height="22" viewBox="0 0 22 22" fill="none" xmlns="http://www.w3.org/2000/svg">
<ellipse cx="10.8788" cy="10.8766" rx="10.8793" ry="10.8766" fill="#3AA29F" fill-opacity="0.25"/>
<path d="M13.3296 8.97656L13.0601 9.90234H7.62256L7.89209 8.97656H13.3296ZM10.8921 15.4219L7.79248 11.8008L7.78662 11.0742H9.21631C9.63037 11.0742 9.97217 11.0059 10.2417 10.8691C10.5151 10.7285 10.7202 10.5391 10.8569 10.3008C10.9937 10.0625 11.062 9.79492 11.062 9.49805C11.062 9.16602 10.9976 8.875 10.8687 8.625C10.7397 8.37109 10.5366 8.17383 10.2593 8.0332C9.98584 7.88867 9.62646 7.81641 9.18115 7.81641H7.63428L7.90967 6.89062H9.18115C9.86084 6.89062 10.4214 6.99414 10.8628 7.20117C11.3081 7.4043 11.6401 7.70117 11.8589 8.0918C12.0776 8.48242 12.187 8.95508 12.187 9.50977C12.187 9.98633 12.0952 10.4141 11.9116 10.793C11.7319 11.168 11.4331 11.4629 11.0151 11.6777C10.6011 11.8926 10.0425 12 9.33936 12L12.2222 15.3516V15.4219H10.8921ZM13.3296 6.89062L13.0601 7.81641H8.67725L8.94678 6.89062H13.3296Z" fill="#424242"/>
</svg>
