<svg width="40" height="40" viewBox="0 0 40 40" fill="none" xmlns="http://www.w3.org/2000/svg">
<rect x="0.5" y="0.5" width="39" height="39" rx="3.5" fill="white"/>
<path d="M21.9258 22.3379C21.9258 22.0449 21.8802 21.7845 21.7891 21.5566C21.7044 21.3288 21.5514 21.1204 21.3301 20.9316C21.1087 20.7428 20.7962 20.5605 20.3926 20.3848C19.9954 20.2025 19.4876 20.0169 18.8691 19.8281C18.1921 19.6198 17.5671 19.3887 16.9941 19.1348C16.4277 18.8743 15.9329 18.5749 15.5098 18.2363C15.0866 17.8913 14.7578 17.4974 14.5234 17.0547C14.2891 16.6055 14.1719 16.0879 14.1719 15.502C14.1719 14.9225 14.2923 14.3952 14.5332 13.9199C14.7806 13.4447 15.1289 13.0345 15.5781 12.6895C16.0339 12.3379 16.571 12.0677 17.1895 11.8789C17.8079 11.6836 18.4915 11.5859 19.2402 11.5859C20.2949 11.5859 21.2031 11.7812 21.9648 12.1719C22.7331 12.5625 23.3223 13.0866 23.7324 13.7441C24.1491 14.4017 24.3574 15.1276 24.3574 15.9219H21.9258C21.9258 15.4531 21.8249 15.0397 21.623 14.6816C21.4277 14.3171 21.1283 14.0306 20.7246 13.8223C20.3275 13.6139 19.8229 13.5098 19.2109 13.5098C18.6315 13.5098 18.1497 13.5977 17.7656 13.7734C17.3815 13.9492 17.0951 14.1868 16.9062 14.4863C16.7174 14.7858 16.623 15.1243 16.623 15.502C16.623 15.7689 16.6849 16.013 16.8086 16.2344C16.9323 16.4492 17.1211 16.651 17.375 16.8398C17.6289 17.0221 17.9479 17.1947 18.332 17.3574C18.7161 17.5202 19.1686 17.6764 19.6895 17.8262C20.4772 18.0605 21.1641 18.321 21.75 18.6074C22.3359 18.8874 22.8242 19.2064 23.2148 19.5645C23.6055 19.9225 23.8984 20.3294 24.0938 20.7852C24.2891 21.2344 24.3867 21.7454 24.3867 22.3184C24.3867 22.9173 24.2663 23.4577 24.0254 23.9395C23.7845 24.4147 23.4395 24.8216 22.9902 25.1602C22.5475 25.4922 22.0137 25.7493 21.3887 25.9316C20.7702 26.1074 20.0801 26.1953 19.3184 26.1953C18.6348 26.1953 17.9609 26.1042 17.2969 25.9219C16.6393 25.7396 16.0404 25.4629 15.5 25.0918C14.9596 24.7142 14.5299 24.2454 14.2109 23.6855C13.8919 23.1191 13.7324 22.4583 13.7324 21.7031H16.1836C16.1836 22.1654 16.2617 22.5592 16.418 22.8848C16.5807 23.2103 16.8053 23.4772 17.0918 23.6855C17.3783 23.8874 17.7103 24.0371 18.0879 24.1348C18.472 24.2324 18.8822 24.2812 19.3184 24.2812C19.8913 24.2812 20.3698 24.1999 20.7539 24.0371C21.1445 23.8743 21.4375 23.6465 21.6328 23.3535C21.8281 23.0605 21.9258 22.722 21.9258 22.3379Z" fill="#424242"/>
<rect x="0.5" y="0.5" width="39" height="39" rx="3.5" stroke="#BDBDBD"/>
</svg>
