<svg width="24" height="24" viewBox="0 0 24 24" fill="none" xmlns="http://www.w3.org/2000/svg">
<path d="M10.4999 8.25141C10.3099 8.25141 10.1199 8.18141 9.96994 8.03141L7.99994 6.06141L6.02994 8.03141C5.73994 8.32141 5.25994 8.32141 4.96994 8.03141C4.67994 7.74141 4.67994 7.26141 4.96994 6.97141L7.46994 4.47141C7.75994 4.18141 8.23994 4.18141 8.52994 4.47141L11.0299 6.97141C11.3199 7.26141 11.3199 7.74141 11.0299 8.03141C10.8799 8.18141 10.6899 8.25141 10.4999 8.25141Z" fill="#707070"/>
<path d="M8 19.75C7.59 19.75 7.25 19.41 7.25 19V5C7.25 4.59 7.59 4.25 8 4.25C8.41 4.25 8.75 4.59 8.75 5V19C8.75 19.41 8.41 19.75 8 19.75Z" fill="#707070"/>
<path d="M15.9999 19.7514C15.8099 19.7514 15.6199 19.6814 15.4699 19.5314L12.9699 17.0314C12.6799 16.7414 12.6799 16.2614 12.9699 15.9714C13.2599 15.6814 13.7399 15.6814 14.0299 15.9714L15.9999 17.9414L17.9699 15.9714C18.2599 15.6814 18.7399 15.6814 19.0299 15.9714C19.3199 16.2614 19.3199 16.7414 19.0299 17.0314L16.5299 19.5314C16.3799 19.6814 16.1899 19.7514 15.9999 19.7514Z" fill="#707070"/>
<path d="M16 19.75C15.59 19.75 15.25 19.41 15.25 19V5C15.25 4.59 15.59 4.25 16 4.25C16.41 4.25 16.75 4.59 16.75 5V19C16.75 19.41 16.41 19.75 16 19.75Z" fill="#707070"/>
</svg>
