<svg width="25" height="25" viewBox="0 0 25 25" fill="none" xmlns="http://www.w3.org/2000/svg">
<circle cx="12.5115" cy="12.7771" r="11.9646" fill="#0CA750"/>
<path d="M19.7315 9.2714C19.6577 9.09362 19.5164 8.95235 19.3386 8.87852C19.2512 8.84124 19.1572 8.82146 19.0622 8.82031H15.4244C15.2314 8.82031 15.0464 8.89697 14.9099 9.03341C14.7735 9.16985 14.6968 9.35491 14.6968 9.54787C14.6968 9.74083 14.7735 9.92588 14.9099 10.0623C15.0464 10.1988 15.2314 10.2754 15.4244 10.2754H17.3087L13.2417 14.3425L10.8481 11.9415C10.7804 11.8733 10.6999 11.8192 10.6113 11.7823C10.5226 11.7453 10.4275 11.7263 10.3315 11.7263C10.2354 11.7263 10.1403 11.7453 10.0517 11.7823C9.96303 11.8192 9.88256 11.8733 9.81492 11.9415L5.44958 16.3069C5.38139 16.3745 5.32727 16.455 5.29033 16.5436C5.25339 16.6323 5.23438 16.7274 5.23438 16.8234C5.23438 16.9195 5.25339 17.0146 5.29033 17.1032C5.32727 17.1919 5.38139 17.2724 5.44958 17.34C5.51722 17.4082 5.59769 17.4623 5.68635 17.4992C5.77501 17.5362 5.8701 17.5552 5.96615 17.5552C6.0622 17.5552 6.15729 17.5362 6.24595 17.4992C6.33461 17.4623 6.41508 17.4082 6.48271 17.34L10.3315 13.4839L12.7251 15.8849C12.7928 15.9531 12.8732 16.0072 12.9619 16.0441C13.0506 16.0811 13.1457 16.1001 13.2417 16.1001C13.3378 16.1001 13.4329 16.0811 13.5215 16.0441C13.6102 16.0072 13.6906 15.9531 13.7583 15.8849L18.3346 11.3013V13.1856C18.3346 13.3786 18.4113 13.5637 18.5477 13.7001C18.6841 13.8366 18.8692 13.9132 19.0622 13.9132C19.2551 13.9132 19.4402 13.8366 19.5766 13.7001C19.7131 13.5637 19.7897 13.3786 19.7897 13.1856V9.54787C19.7886 9.45279 19.7688 9.35887 19.7315 9.2714Z" fill="white"/>
</svg>
