<svg width="20" height="20" viewBox="0 0 20 20" fill="none" xmlns="http://www.w3.org/2000/svg">
<g clip-path="url(#clip0_7218_31249)">
<path d="M14.1667 18.3333C11.8692 18.3333 10 16.4642 10 14.1667C10 11.8692 11.8692 10 14.1667 10C16.4642 10 18.3333 11.8692 18.3333 14.1667C18.3333 16.4642 16.4642 18.3333 14.1667 18.3333ZM14.1667 10.8333C12.3283 10.8333 10.8333 12.3283 10.8333 14.1667C10.8333 16.005 12.3283 17.5 14.1667 17.5C16.005 17.5 17.5 16.005 17.5 14.1667C17.5 12.3283 16.005 10.8333 14.1667 10.8333Z" fill="black"/>
<path d="M19.5834 19.9987C19.4767 19.9987 19.3701 19.9579 19.2884 19.8771L16.7317 17.3204C16.5692 17.1579 16.5692 16.8938 16.7317 16.7313C16.8942 16.5687 17.1584 16.5687 17.3209 16.7313L19.8776 19.2879C20.0401 19.4504 20.0401 19.7146 19.8776 19.8771C19.7967 19.9579 19.6901 19.9987 19.5834 19.9987Z" fill="black"/>
<path d="M2.91667 20H1.25C0.560833 20 0 19.4392 0 18.75V13.75C0 13.0608 0.560833 12.5 1.25 12.5H2.91667C3.60583 12.5 4.16667 13.0608 4.16667 13.75V18.75C4.16667 19.4392 3.60583 20 2.91667 20ZM1.25 13.3333C1.02083 13.3333 0.833333 13.52 0.833333 13.75V18.75C0.833333 18.98 1.02083 19.1667 1.25 19.1667H2.91667C3.14583 19.1667 3.33333 18.98 3.33333 18.75V13.75C3.33333 13.52 3.14583 13.3333 2.91667 13.3333H1.25Z" fill="black"/>
<path d="M7.91667 20.0013H6.25C5.56083 20.0013 5 19.4405 5 18.7513V10.418C5 9.7288 5.56083 9.16797 6.25 9.16797H7.91667C8.60583 9.16797 9.16667 9.7288 9.16667 10.418V18.7513C9.16667 19.4405 8.60583 20.0013 7.91667 20.0013ZM6.25 10.0013C6.02083 10.0013 5.83333 10.188 5.83333 10.418V18.7513C5.83333 18.9813 6.02083 19.168 6.25 19.168H7.91667C8.14583 19.168 8.33333 18.9813 8.33333 18.7513V10.418C8.33333 10.188 8.14583 10.0013 7.91667 10.0013H6.25Z" fill="black"/>
<path d="M10.4167 9.16797C10.1867 9.16797 10 8.9813 10 8.7513V5.41797C10 4.7288 10.5608 4.16797 11.25 4.16797H12.9167C13.6058 4.16797 14.1667 4.7288 14.1667 5.41797V7.91797C14.1667 8.14797 13.98 8.33464 13.75 8.33464C13.52 8.33464 13.3333 8.14797 13.3333 7.91797V5.41797C13.3333 5.18797 13.1458 5.0013 12.9167 5.0013H11.25C11.0208 5.0013 10.8333 5.18797 10.8333 5.41797V8.7513C10.8333 8.9813 10.6467 9.16797 10.4167 9.16797Z" fill="black"/>
<path d="M18.75 10C18.52 10 18.3333 9.81333 18.3333 9.58333V1.25C18.3333 1.02 18.1458 0.833333 17.9167 0.833333H16.25C16.0208 0.833333 15.8333 1.02 15.8333 1.25V7.91667C15.8333 8.14667 15.6467 8.33333 15.4167 8.33333C15.1867 8.33333 15 8.14667 15 7.91667V1.25C15 0.560833 15.5608 0 16.25 0H17.9167C18.6058 0 19.1667 0.560833 19.1667 1.25V9.58333C19.1667 9.81333 18.98 10 18.75 10Z" fill="black"/>
</g>
<defs>
<clipPath id="clip0_7218_31249">
<rect width="20" height="20" fill="white"/>
</clipPath>
</defs>
</svg>
