<svg width="40" height="40" viewBox="0 0 40 40" fill="none" xmlns="http://www.w3.org/2000/svg">
<rect x="-0.5" y="0.5" width="39" height="39" rx="3.5" transform="matrix(-1 0 0 1 39 0)" fill="white"/>
<path d="M18.5762 26H15.5391L15.5586 24.0566H18.5762C19.4551 24.0566 20.1908 23.8646 20.7832 23.4805C21.3822 23.0964 21.8314 22.5462 22.1309 21.8301C22.4368 21.1139 22.5898 20.2611 22.5898 19.2715V18.5C22.5898 17.7318 22.502 17.0514 22.3262 16.459C22.1569 15.8665 21.903 15.3685 21.5645 14.9648C21.2324 14.5612 20.8223 14.2552 20.334 14.0469C19.8522 13.8385 19.2956 13.7344 18.6641 13.7344H15.4805V11.7812H18.6641C19.6081 11.7812 20.4707 11.9408 21.252 12.2598C22.0332 12.5723 22.707 13.0247 23.2734 13.6172C23.8464 14.2096 24.2858 14.9193 24.5918 15.7461C24.8978 16.5729 25.0508 17.4974 25.0508 18.5195V19.2715C25.0508 20.2936 24.8978 21.2181 24.5918 22.0449C24.2858 22.8717 23.8464 23.5814 23.2734 24.1738C22.7005 24.7598 22.0169 25.2122 21.2227 25.5312C20.4349 25.8438 19.5527 26 18.5762 26ZM16.8965 11.7812V26H14.4453V11.7812H16.8965Z" fill="#424242"/>
<rect x="-0.5" y="0.5" width="39" height="39" rx="3.5" transform="matrix(-1 0 0 1 39 0)" stroke="#BDBDBD"/>
</svg>
