<svg width="16" height="20" viewBox="0 0 16 20" fill="none" xmlns="http://www.w3.org/2000/svg">
<path fill-rule="evenodd" clip-rule="evenodd" d="M4.31579 4.75C4.11242 4.75 3.94737 4.582 3.94737 4.375V3.25H2.84211C2.23274 3.25 1.73684 3.75475 1.73684 4.375V17.125C1.73684 17.7453 2.23274 18.25 2.84211 18.25H13.1579C13.7673 18.25 14.2632 17.7453 14.2632 17.125V4.375C14.2632 3.75475 13.7673 3.25 13.1579 3.25H12.0526V4.375C12.0526 4.582 11.8876 4.75 11.6842 4.75C11.4808 4.75 11.3158 4.582 11.3158 4.375V3.25H8.73684V4.375C8.73684 4.582 8.57179 4.75 8.36842 4.75C8.16505 4.75 8 4.582 8 4.375V3.25H4.68421V4.375C4.68421 4.582 4.51916 4.75 4.31579 4.75ZM13.1579 2.5H12.0526V1.375C12.0526 1.168 11.8876 1 11.6842 1C11.4808 1 11.3158 1.168 11.3158 1.375V2.5H8.73684V1.375C8.73684 1.168 8.57179 1 8.36842 1C8.16505 1 8 1.168 8 1.375V2.5H4.68421V1.375C4.68421 1.168 4.51916 1 4.31579 1C4.11242 1 3.94737 1.168 3.94737 1.375V2.5H2.84211C1.82674 2.5 1 3.3415 1 4.375V17.125C1 18.1585 1.82674 19 2.84211 19H13.1579C14.1733 19 15 18.1585 15 17.125V4.375C15 3.3415 14.1733 2.5 13.1579 2.5ZM3.94737 14.125C3.94737 14.332 4.11242 14.5 4.31579 14.5H12.4211C12.6244 14.5 12.7895 14.332 12.7895 14.125C12.7895 13.918 12.6244 13.75 12.4211 13.75H4.31579C4.11242 13.75 3.94737 13.918 3.94737 14.125ZM4.31579 11.5C4.11242 11.5 3.94737 11.332 3.94737 11.125C3.94737 10.918 4.11242 10.75 4.31579 10.75H12.4211C12.6244 10.75 12.7895 10.918 12.7895 11.125C12.7895 11.332 12.6244 11.5 12.4211 11.5H4.31579ZM4.31579 8.5H8.73684C8.94021 8.5 9.10526 8.332 9.10526 8.125C9.10526 7.918 8.94021 7.75 8.73684 7.75H4.31579C4.11242 7.75 3.94737 7.918 3.94737 8.125C3.94737 8.332 4.11242 8.5 4.31579 8.5Z" fill="#424242"/>
</svg>
