<svg width="42" height="38" viewBox="0 0 42 38" fill="none" xmlns="http://www.w3.org/2000/svg">
<path d="M13.7661 19.4849L12.1295 22.0558C12.1295 22.0558 4.2783 22.7711 1.55687 14.656C-1.16457 6.54096 6.74206 0.425502 11.1549 1.04406L11.0847 3.94346C10.2049 3.91019 9.33653 4.16179 8.59715 4.66424C7.85776 5.16669 7.283 5.89575 6.95059 6.75281C5.76189 9.77916 7.22021 13.1443 10.5314 13.5311C13.8427 13.9179 16.9299 13.9304 18.1432 15.0258L15.7777 17.2166C14.5996 16.6836 13.3192 16.4475 12.0389 16.5272C9.4649 16.5272 5.43892 16.1404 3.91179 10.3224C3.91179 10.3224 2.13472 19.0465 13.7668 19.4849" fill="#0CA750"/>
<path d="M13.7661 19.4849L12.1295 22.0558C12.1295 22.0558 4.2783 22.7711 1.55687 14.656C-1.16457 6.54096 6.74206 0.425502 11.1549 1.04406L11.0847 3.94346C10.2049 3.91019 9.33653 4.16179 8.59715 4.66424C7.85776 5.16669 7.283 5.89575 6.95059 6.75281C5.76189 9.77916 7.22021 13.1443 10.5314 13.5311C13.8427 13.9179 16.9299 13.9304 18.1432 15.0258L15.7777 17.2166C14.5996 16.6836 13.3192 16.4475 12.0389 16.5272C9.4649 16.5272 5.43892 16.1404 3.91179 10.3224C3.91179 10.3224 2.13472 19.0465 13.7668 19.4849" stroke="#0CA750" stroke-width="0.2"/>
<path d="M17.4302 23.7885C17.4302 23.7885 19.8813 19.8195 23.6089 18.1698C27.3365 16.5201 28.561 16.5717 29.9343 16.5717C31.3077 16.5717 36.5048 16.726 38.0242 10.2828C38.2314 11.425 38.1772 12.6027 37.866 13.7185C37.5548 14.8344 36.9956 15.8564 36.2345 16.7002C33.6233 19.5221 32.0056 19.0969 29.0637 19.2903C26.1218 19.4837 21.4885 21.5327 19.3189 25.6693L21.3045 27.5633C21.3045 27.5633 24.4641 22.4539 29.6521 22.0701C34.8401 21.6863 36.1643 21.7593 39.4362 16.8884C42.7081 12.0174 40.9043 1.8459 31.0107 1V3.7503C31.0107 3.7503 34.541 4.21385 35.2396 7.42252C35.9382 10.6312 34.3205 13.4531 31.0472 13.4147C27.7845 13.405 24.5733 14.2696 21.7166 15.9268C18.86 17.5841 16.4523 19.9793 14.7207 22.8865L17.4302 23.7885Z" fill="#0CA750" stroke="#0CA750" stroke-width="0.2"/>
<path d="M31.5644 27.1776V24.2007C31.5644 24.2007 23.4865 23.9689 22.849 33.5566C22.849 33.7549 22.774 33.9451 22.6406 34.0853C22.5072 34.2255 22.3263 34.3043 22.1377 34.3043H21.4658L21.4531 37.6532C22.3353 37.6671 23.1981 37.3813 23.9134 36.8383C24.6286 36.2953 25.158 35.5241 25.4229 34.6394C26.4277 31.4691 25.3001 28.042 31.5637 27.1783" fill="#0CA750"/>
<path d="M31.5644 27.1776V24.2007C31.5644 24.2007 23.4865 23.9689 22.849 33.5566C22.849 33.7549 22.774 33.9451 22.6406 34.0853C22.5072 34.2255 22.3263 34.3043 22.1377 34.3043H21.4658L21.4531 37.6532C22.3353 37.6671 23.1981 37.3813 23.9134 36.8383C24.6286 36.2953 25.158 35.5241 25.4229 34.6394C26.4277 31.4691 25.3001 28.042 31.5637 27.1783" stroke="#0CA750" stroke-width="0.2"/>
<path d="M11.4844 27.1776V24.2007C11.4844 24.2007 19.5623 23.9689 20.1999 33.5566C20.1999 33.7549 20.2748 33.9451 20.4082 34.0853C20.5416 34.2255 20.7225 34.3043 20.9111 34.3043H21.5241V37.6547C20.6514 37.6632 19.7997 37.3739 19.0968 36.8302C18.3939 36.2865 17.8778 35.5178 17.6259 34.6394C16.6211 31.4691 17.7487 28.042 11.4844 27.1783" fill="#0CA750"/>
<path d="M11.4844 27.1776V24.2007C11.4844 24.2007 19.5623 23.9689 20.1999 33.5566C20.1999 33.7549 20.2748 33.9451 20.4082 34.0853C20.5416 34.2255 20.7225 34.3043 20.9111 34.3043H21.5241V37.6547C20.6514 37.6632 19.7997 37.3739 19.0968 36.8302C18.3939 36.2865 17.8778 35.5178 17.6259 34.6394C16.6211 31.4691 17.7487 28.042 11.4844 27.1783" stroke="#0CA750" stroke-width="0.2"/>
</svg>
