<svg width="40" height="40" viewBox="0 0 40 40" fill="none" xmlns="http://www.w3.org/2000/svg">
<g id="Frame 1000002074">
<rect x="0.5" y="0.5" width="39" height="39" rx="3.5" fill="white"/>
<g id="Group 1000007713">
<path id="Line 17405" d="M12.7071 7.29289C12.3166 6.90237 11.6834 6.90237 11.2929 7.29289L4.92893 13.6569C4.53841 14.0474 4.53841 14.6805 4.92893 15.0711C5.31946 15.4616 5.95262 15.4616 6.34315 15.0711L12 9.41421L17.6569 15.0711C18.0474 15.4616 18.6805 15.4616 19.0711 15.0711C19.4616 14.6805 19.4616 14.0474 19.0711 13.6569L12.7071 7.29289ZM11 26C11 26.5523 11.4477 27 12 27C12.5523 27 13 26.5523 13 26L11 26ZM11 8L11 26L13 26L13 8L11 8Z" fill="#424242"/>
<path id="Line 17406" d="M27.2929 32.7071C27.6834 33.0976 28.3166 33.0976 28.7071 32.7071L35.0711 26.3431C35.4616 25.9526 35.4616 25.3195 35.0711 24.9289C34.6805 24.5384 34.0474 24.5384 33.6569 24.9289L28 30.5858L22.3431 24.9289C21.9526 24.5384 21.3195 24.5384 20.9289 24.9289C20.5384 25.3195 20.5384 25.9526 20.9289 26.3431L27.2929 32.7071ZM29 14C29 13.4477 28.5523 13 28 13C27.4477 13 27 13.4477 27 14L29 14ZM29 32L29 14L27 14L27 32L29 32Z" fill="#424242"/>
</g>
<rect x="0.5" y="0.5" width="39" height="39" rx="3.5" stroke="#BDBDBD"/>
</g>
</svg>
