<svg width="24" height="21" viewBox="0 0 24 21" fill="none" xmlns="http://www.w3.org/2000/svg">
<path d="M2.00629 8.59576L21.6307 1.14301C22.8082 0.637742 24.509 -0.120179 23.8548 2.27987C23.4362 4.1999 21.4127 14.6169 20.4532 19.5854C20.1916 20.3433 19.2496 21.4802 17.575 19.9644C15.2409 18.4225 8.40835 13.4281 7.90796 13.0333C7.83815 13.1021 3.48137 11.7232 1.22131 10.9958C0.218288 10.6168 -1.10745 9.63157 1.6138 8.72208C1.74536 8.67811 1.87994 8.63473 2.00629 8.59576Z" fill="#0074FE"/>
<path d="M8.50558 20.8323L9.37177 14.0995L12.9504 16.7183L8.50558 20.8323Z" fill="#67B9FF"/>
<path d="M19.1025 4.38222L6.01953 12.4666L8.50529 20.8035L9.4211 13.856C11.8196 11.7929 17.2185 7.13595 19.6258 5.01381C22.0331 2.89167 20.2799 3.70852 19.1025 4.38222Z" fill="#A7DDFF"/>
</svg>
