<svg width="16" height="19" viewBox="0 0 16 19" fill="none" xmlns="http://www.w3.org/2000/svg">
<g clip-path="url(#clip0_3360_16570)">
<path d="M8.624 0.615252L14.8462 2.99277C15.1852 3.12222 15.4772 3.35402 15.6834 3.65716C15.8896 3.96031 16 4.32036 16 4.68918V9.54655C16 11.0604 15.5863 12.5443 14.8053 13.8321C14.0242 15.1199 12.9066 16.1606 11.5778 16.8376L8.59644 18.3565C8.41126 18.4509 8.20705 18.5 8 18.5C7.79295 18.5 7.58874 18.4509 7.40356 18.3565L4.42222 16.8376C3.09337 16.1606 1.97579 15.1199 1.19473 13.8321C0.413663 12.5443 -3.20282e-05 11.0604 1.37936e-08 9.54655V4.68918C-4.50652e-05 4.32036 0.110403 3.96031 0.31658 3.65716C0.522758 3.35402 0.814838 3.12222 1.15378 2.99277L7.376 0.615252C7.77833 0.461583 8.22167 0.461583 8.624 0.615252V0.615252ZM8 2.31166L1.77778 4.68918V9.54655C1.77798 10.7239 2.0999 11.8779 2.70748 12.8793C3.31506 13.8807 4.18428 14.6899 5.21778 15.2164L8 16.6356L10.7822 15.2182C11.816 14.6916 12.6854 13.8821 13.293 12.8803C13.9006 11.8786 14.2223 10.7242 14.2222 9.54655V4.68918L8 2.31166ZM8 5.87296C8.37944 5.8728 8.74897 5.99634 9.05455 6.22552C9.36014 6.4547 9.58574 6.77749 9.69838 7.14668C9.81101 7.51587 9.80476 7.9121 9.68054 8.27742C9.55632 8.64273 9.32065 8.95797 9.008 9.17702L8.88889 9.25401V12.213C8.88864 12.4438 8.80189 12.6659 8.64636 12.8337C8.49083 13.0016 8.27826 13.1026 8.05209 13.1162C7.82592 13.1297 7.60322 13.0547 7.42948 12.9065C7.25575 12.7584 7.14409 12.5482 7.11733 12.319L7.11111 12.213V9.25401C6.77177 9.05482 6.50648 8.74703 6.35643 8.37845C6.20638 8.00987 6.17997 7.60111 6.28131 7.21567C6.38264 6.83023 6.60605 6.48966 6.91683 6.24686C7.22761 6.00407 7.60838 5.87263 8 5.87296V5.87296Z" fill="#3AA29F"/>
</g>
<defs>
<clipPath id="clip0_3360_16570">
<rect width="16" height="18" fill="white" transform="translate(0 0.5)"/>
</clipPath>
</defs>
</svg>
