<svg width="30" height="24" viewBox="0 0 30 24" fill="none" xmlns="http://www.w3.org/2000/svg">
<mask id="path-1-inside-1_5099_31502" fill="white">
<path fill-rule="evenodd" clip-rule="evenodd" d="M2 0.753906H26C27.1046 0.753906 28 1.64934 28 2.75391V4.96292C28 6.06749 27.1046 6.96292 26 6.96292H16.7925C15.6879 6.96292 14.7925 7.85835 14.7925 8.96292V14.7939C14.7925 15.8984 15.6879 16.7939 16.7925 16.7939H26C27.1046 16.7939 28 17.6893 28 18.7939V21.0029C28 22.1074 27.1046 23.0029 26 23.0029H2C0.895431 23.0029 0 22.1074 0 21.0029V2.75391C0 1.64934 0.895431 0.753906 2 0.753906ZM29 8.33859H18C16.8954 8.33859 16 9.23402 16 10.3386V13.4172C16 14.5218 16.8954 15.4172 18 15.4172H29C29.5523 15.4172 30 14.9695 30 14.4172V9.33859C30 8.78631 29.5523 8.33859 29 8.33859ZM19 11.8674C19 11.3151 19.4477 10.8674 20 10.8674C20.5523 10.8674 21 11.3151 21 11.8674V11.8899C21 12.4422 20.5523 12.8899 20 12.8899C19.4477 12.8899 19 12.4422 19 11.8899V11.8674Z"/>
</mask>
<path d="M26 -0.246094H2V1.75391H26V-0.246094ZM29 2.75391C29 1.09705 27.6569 -0.246094 26 -0.246094V1.75391C26.5523 1.75391 27 2.20162 27 2.75391H29ZM29 4.96292V2.75391H27V4.96292H29ZM26 7.96292C27.6569 7.96292 29 6.61977 29 4.96292H27C27 5.5152 26.5523 5.96292 26 5.96292V7.96292ZM16.7925 7.96292H26V5.96292H16.7925V7.96292ZM15.7925 8.96292C15.7925 8.41063 16.2402 7.96292 16.7925 7.96292V5.96292C15.1356 5.96292 13.7925 7.30607 13.7925 8.96292H15.7925ZM15.7925 14.7939V8.96292H13.7925V14.7939H15.7925ZM16.7925 15.7939C16.2402 15.7939 15.7925 15.3461 15.7925 14.7939H13.7925C13.7925 16.4507 15.1356 17.7939 16.7925 17.7939V15.7939ZM26 15.7939H16.7925V17.7939H26V15.7939ZM29 18.7939C29 17.137 27.6569 15.7939 26 15.7939V17.7939C26.5523 17.7939 27 18.2416 27 18.7939H29ZM29 21.0029V18.7939H27V21.0029H29ZM26 24.0029C27.6569 24.0029 29 22.6597 29 21.0029H27C27 21.5552 26.5523 22.0029 26 22.0029V24.0029ZM2 24.0029H26V22.0029H2V24.0029ZM-1 21.0029C-1 22.6597 0.343147 24.0029 2 24.0029V22.0029C1.44772 22.0029 1 21.5552 1 21.0029H-1ZM-1 2.75391V21.0029H1V2.75391H-1ZM2 -0.246094C0.343146 -0.246094 -1 1.09705 -1 2.75391H1C1 2.20162 1.44772 1.75391 2 1.75391V-0.246094ZM18 9.33859H29V7.33859H18V9.33859ZM17 10.3386C17 9.78631 17.4477 9.33859 18 9.33859V7.33859C16.3431 7.33859 15 8.68174 15 10.3386H17ZM17 13.4172V10.3386H15V13.4172H17ZM18 14.4172C17.4477 14.4172 17 13.9695 17 13.4172H15C15 15.0741 16.3431 16.4172 18 16.4172V14.4172ZM29 14.4172H18V16.4172H29V14.4172ZM29 14.4172V16.4172C30.1046 16.4172 31 15.5218 31 14.4172H29ZM29 9.33859V14.4172H31V9.33859H29ZM29 9.33859H31C31 8.23402 30.1046 7.33859 29 7.33859V9.33859ZM20 9.8674C18.8954 9.8674 18 10.7628 18 11.8674H20V9.8674ZM22 11.8674C22 10.7628 21.1046 9.8674 20 9.8674V11.8674H22ZM22 11.8899V11.8674H20V11.8899H22ZM20 13.8899C21.1046 13.8899 22 12.9944 22 11.8899H20V13.8899ZM18 11.8899C18 12.9944 18.8954 13.8899 20 13.8899V11.8899H18ZM18 11.8674V11.8899H20V11.8674H18Z" fill="#707070" mask="url(#path-1-inside-1_5099_31502)"/>
</svg>
