<svg width="40" height="40" viewBox="0 0 40 40" fill="none" xmlns="http://www.w3.org/2000/svg">
<rect x="-0.5" y="0.5" width="39" height="39" rx="3.5" transform="matrix(-1 0 0 1 39 0)" fill="white"/>
<path d="M16.2012 22.8066L19.0332 11.7812H20.5176L20.3516 14.623L17.3242 26H15.7812L16.2012 22.8066ZM14.082 11.7812L16.377 22.7188L16.582 26H14.9414L11.6504 11.7812H14.082ZM23.7305 22.6895L25.9961 11.7812H28.4375L25.1465 26H23.5059L23.7305 22.6895ZM21.0938 11.7812L23.8965 22.8359L24.3066 26H22.7637L19.7852 14.623L19.6289 11.7812H21.0938Z" fill="#424242"/>
<rect x="-0.5" y="0.5" width="39" height="39" rx="3.5" transform="matrix(-1 0 0 1 39 0)" stroke="#BDBDBD"/>
</svg>
